<svg width="875" height="875" viewBox="0 0 875 875" fill="none" xmlns="http://www.w3.org/2000/svg">
<path d="M432.337 800.327V618.205H484.662V574.07L528.797 618.205H763.91V800.327H432.337Z" fill="white"/>
<path d="M432.337 800.327C432.162 798.577 431.445 618.87 431.322 617.19H432.337L484.662 617.015L483.455 618.205L483.297 574V570.71L485.642 573.037L529.9 617.067C524.195 615.737 765.187 616.91 763.927 616.42H765.677V618.17L765.467 800.292V801.797H763.962C681.31 801.5 515.025 800.852 432.39 800.31L432.337 800.327ZM432.337 800.327C514.972 799.767 681.31 799.12 763.91 798.822L762.422 800.327L762.212 618.205L763.962 619.955L528.237 619.762L527.782 619.307L483.7 575.032L486.01 574.07L485.852 618.205V619.5H484.75L432.425 619.307L433.457 618.292L432.425 800.415L432.337 800.327Z" fill="#EBEBEB"/>
<path d="M679.042 722.261C686.198 718.324 688.807 709.332 684.87 702.177C680.933 695.021 671.941 692.412 664.785 696.349C657.63 700.286 655.021 709.278 658.958 716.434C662.895 723.589 671.887 726.198 679.042 722.261Z" fill="#EBEBEB"/>
<path d="M603.711 723.015C611.267 719.916 614.88 711.278 611.781 703.722C608.682 696.166 600.044 692.552 592.488 695.651C584.932 698.75 581.319 707.388 584.418 714.944C587.517 722.5 596.155 726.114 603.711 723.015Z" fill="#EBEBEB"/>
<path d="M526.058 723.998C534.165 723.005 539.93 715.627 538.936 707.521C537.943 699.415 530.566 693.649 522.459 694.643C514.353 695.637 508.587 703.014 509.581 711.12C510.575 719.227 517.952 724.992 526.058 723.998Z" fill="#EBEBEB"/>
<path d="M169.199 293.576C210.551 279.192 232.233 233.49 217.626 191.499C203.02 149.508 157.657 127.128 116.305 141.513C74.9526 155.897 53.271 201.598 67.8774 243.589C82.4838 285.58 127.847 307.96 169.199 293.576Z" fill="#EBEBEB"/>
<path d="M80.8149 216.528C80.5874 251.143 108.132 279.668 142.345 280.228C150.508 280.337 158.612 278.821 166.184 275.77C173.757 272.718 180.647 268.192 186.454 262.453C192.261 256.714 196.869 249.878 200.01 242.343C203.151 234.807 204.762 226.722 204.75 218.558C204.977 183.925 177.415 155.418 143.22 154.858C135.056 154.748 126.953 156.264 119.38 159.315C111.808 162.367 104.918 166.893 99.1106 172.632C93.3036 178.371 88.6956 185.207 85.5546 192.742C82.4137 200.278 80.8025 208.363 80.8149 216.528Z" fill="white"/>
<path d="M98.1051 216.807C97.9911 228.753 102.579 240.264 110.879 248.855C119.18 257.447 130.525 262.429 142.468 262.727C148.35 262.802 154.188 261.706 159.643 259.503C165.098 257.301 170.061 254.036 174.243 249.898C178.425 245.76 181.742 240.832 184.002 235.401C186.262 229.969 187.42 224.143 187.408 218.26C187.522 206.315 182.933 194.804 174.633 186.212C166.333 177.621 154.987 172.638 143.045 172.34C137.163 172.268 131.326 173.366 125.872 175.569C120.418 177.772 115.456 181.038 111.275 185.175C107.094 189.312 103.776 194.239 101.516 199.669C99.2546 205.1 98.0954 210.925 98.1051 216.807Z" fill="#EBEBEB"/>
<path d="M115.5 217.087C115.411 224.369 118.195 231.392 123.25 236.634C128.305 241.876 135.223 244.913 142.503 245.087C146.084 245.132 149.639 244.464 152.96 243.122C156.281 241.781 159.302 239.793 161.849 237.275C164.395 234.756 166.416 231.756 167.793 228.45C169.171 225.144 169.878 221.597 169.873 218.015C169.958 210.735 167.172 203.714 162.118 198.474C157.064 193.233 150.149 190.194 142.87 190.015C139.289 189.971 135.734 190.639 132.413 191.98C129.092 193.321 126.07 195.309 123.524 197.828C120.978 200.347 118.957 203.346 117.579 206.653C116.202 209.959 115.495 213.506 115.5 217.087Z" fill="white"/>
<path d="M130.655 217.332C130.599 220.579 131.834 223.714 134.088 226.05C136.342 228.387 139.432 229.733 142.678 229.792C144.278 229.82 145.868 229.529 147.354 228.935C148.84 228.342 150.193 227.458 151.334 226.335C152.474 225.212 153.379 223.874 153.997 222.397C154.614 220.92 154.93 219.335 154.928 217.735C154.979 214.492 153.742 211.361 151.489 209.028C149.235 206.696 146.148 205.352 142.905 205.292C141.306 205.262 139.717 205.551 138.23 206.143C136.744 206.735 135.391 207.617 134.25 208.738C133.109 209.86 132.204 211.197 131.586 212.673C130.969 214.149 130.653 215.733 130.655 217.332Z" fill="#EBEBEB"/>
<path d="M143.395 217.805L226.52 174.09L225.89 172.883L142.748 216.598L143.395 217.805Z" fill="#EBEBEB"/>
<path d="M231.437 176.207L231.122 176.102L225.802 174.457L236.302 168.962L241.99 170.695L231.437 176.207Z" fill="#EBEBEB"/>
<path d="M237.562 162.225L235.672 167.755L225.172 173.25C225.996 171.488 226.618 169.639 227.027 167.737L237.562 162.225Z" fill="#EBEBEB"/>
<path d="M140.21 216.177L142.397 220.115L148.242 219.625L144.41 216.492L144.025 211.557L140.21 216.177Z" fill="#EBEBEB"/>
<path d="M205.724 628.007L83.5469 673.056L112.117 750.539L234.293 705.49L205.724 628.007Z" fill="#EBEBEB"/>
<path d="M205.765 627.97C202.563 634.515 199.203 640.885 195.948 647.36C192.693 653.835 189.263 660.152 185.868 666.505C182.368 673.132 178.809 679.735 175.193 686.315L174.878 686.927L165.305 704.427L164.815 705.25L163.94 704.935L145.373 697.935L144.708 697.69C137.708 695.03 130.708 692.335 123.708 689.552C117.069 686.834 110.378 684.122 103.635 681.415C96.9501 678.597 90.2651 675.937 83.5801 673.032C90.3176 675.15 97.0376 677.477 103.758 679.717C110.478 681.957 117.233 684.337 123.953 686.717C131.425 689.36 138.933 692.055 146.423 694.82L163.275 700.997C166.18 695.747 169.103 690.498 172.025 685.37C175.945 678.37 179.865 671.51 183.855 664.615C187.355 658.455 190.995 652.365 194.635 646.205C198.275 640.045 202.003 633.955 205.765 627.97Z" fill="white"/>
<path d="M147.263 696.5C147.238 696.569 147.203 696.634 147.158 696.692L145.845 699.038C143.722 702.748 141.505 706.388 139.195 709.958C136.395 714.368 133.473 718.708 130.445 722.978C127.418 727.248 124.425 731.482 121.275 735.647C118.125 739.812 114.905 743.925 111.475 747.897C113.978 743.277 116.725 738.832 119.508 734.44C122.29 730.047 125.265 725.69 128.258 721.42C131.25 717.15 134.278 712.897 137.428 708.732C139.948 705.407 142.52 702.1 145.215 698.897C145.833 698.162 146.463 697.427 147.105 696.692C147.105 696.692 147.228 696.605 147.263 696.5Z" fill="white"/>
<path d="M233.135 703.08C227.885 702.31 222.81 701.33 217.718 700.14C212.625 698.95 207.568 697.742 202.51 696.465C197.453 695.187 192.448 693.735 187.46 692.195C183.4 690.97 179.34 689.675 175.35 688.205L172.795 687.277L172.603 687.19H172.813L175.7 687.662C179.83 688.345 183.925 689.202 187.95 690.095C193.043 691.215 198.1 692.475 203.14 693.787C208.18 695.1 213.22 696.5 218.208 698.04C223.195 699.58 228.235 701.19 233.135 703.08Z" fill="white"/>
<path d="M662.95 302.36L649.562 383.85L778.056 404.961L791.445 323.471L662.95 302.36Z" fill="#EBEBEB"/>
<path d="M791.42 323.435C785.417 327.548 779.345 331.432 773.308 335.457C767.27 339.482 761.18 343.28 755.107 347.147C748.761 351.172 742.402 355.151 736.032 359.082C735.847 359.221 735.654 359.349 735.455 359.467C729.838 362.967 724.185 366.467 718.55 369.967L717.71 370.457L717.097 369.74C712.862 364.653 708.639 359.555 704.427 354.445C704.268 354.276 704.122 354.094 703.99 353.902C699.195 348.127 694.452 342.335 689.727 336.402C685.212 330.837 680.715 325.185 676.217 319.55C671.72 313.915 667.292 308.175 662.917 302.365C667.73 307.615 672.42 312.865 677.163 318.115C681.905 323.365 686.595 328.79 691.25 334.197C696.465 340.159 701.651 346.202 706.808 352.327L718.41 366.03C723.52 362.932 728.647 359.8 733.757 356.755C740.6 352.642 747.425 348.547 754.302 344.505C760.445 340.917 766.552 337.33 772.765 333.812C778.977 330.295 785.19 326.778 791.42 323.435Z" fill="white"/>
<path d="M706.703 354.2L706.51 354.322L704.218 355.705C700.543 357.892 696.815 359.957 693.035 361.935C688.433 364.385 683.76 366.695 679.035 368.935C674.31 371.175 669.62 373.345 664.825 375.41C660.03 377.475 655.2 379.487 650.248 381.22C654.71 378.455 659.278 375.97 663.88 373.502C668.483 371.035 673.19 368.742 677.88 366.502C682.57 364.262 687.33 362.057 692.125 359.992C695.94 358.347 699.825 356.737 703.745 355.285L706.475 354.287L706.703 354.2Z" fill="white"/>
<path d="M778.155 402.272C774.025 399.035 770.07 395.587 766.202 392.105C762.335 388.622 758.555 385.017 754.792 381.412C751.03 377.807 747.372 374.062 743.785 370.265C740.862 367.185 737.993 364.052 735.245 360.815L733.495 358.75L733.355 358.575L733.548 358.715C734.318 359.327 735.07 359.922 735.805 360.552C739.06 363.177 742.193 365.942 745.308 368.725C749.193 372.225 752.972 375.812 756.717 379.435C760.462 383.057 764.12 386.785 767.707 390.582C771.295 394.38 774.812 398.212 778.155 402.272Z" fill="white"/>
<path d="M274.61 795.252L331.082 788.27L310.852 624.75L239.4 633.587L274.61 795.252Z" fill="#FFA4BB"/>
<path d="M239.417 633.587L252.822 695.258L274.627 795.27L331.1 788.288L310.87 624.75L239.417 633.587Z" fill="#FFA4BB"/>
<path opacity="0.2" d="M239.417 633.587L252.822 695.258L274.627 795.27L331.1 788.288L310.87 624.75L239.417 633.587Z" fill="white"/>
<path opacity="0.1" d="M239.417 633.587L248.255 674.258L317.03 674.555L310.87 624.75L239.417 633.587Z" fill="black"/>
<path d="M235.419 659.433L324.325 648.438L315.972 580.895L227.066 591.89L235.419 659.433Z" fill="#FFA4BB"/>
<path opacity="0.2" d="M235.419 659.433L324.325 648.438L315.972 580.895L227.066 591.89L235.419 659.433Z" fill="black"/>
<path d="M164.482 574.595L234.395 572.95L220.885 463.663L152.67 479.098L164.482 574.595Z" fill="#FFA4BB"/>
<g opacity="0.2">
<path d="M164.482 574.595L234.395 572.95L220.885 463.663L152.67 479.098L164.482 574.595Z" fill="white"/>
</g>
<path d="M253.732 437.623L273.665 598.903L391.265 598.465L672.962 664.248L625.047 276.938L367.885 409.413L253.732 437.623Z" fill="#FFA4BB"/>
<path opacity="0.2" d="M253.732 437.623L273.665 598.903L391.265 598.465L672.962 664.248L625.047 276.938L367.885 409.413L253.732 437.623Z" fill="white"/>
<path opacity="0.1" d="M672.962 664.282L391.282 598.5L273.682 598.955L268.555 557.532C303.327 560.875 394.555 569.59 396.427 570.22L672.962 664.282Z" fill="black"/>
<path d="M679.356 664.448C713.906 660.175 731.139 569.576 717.846 462.089C704.553 354.602 665.768 270.931 631.218 275.204C596.668 279.476 579.436 370.076 592.729 477.563C606.022 585.049 644.806 668.721 679.356 664.448Z" fill="#FFA4BB"/>
<path opacity="0.2" d="M606.883 472.5C618.695 567.927 651.193 642.442 679.473 638.942C707.753 635.442 721.122 555.258 709.327 459.83C697.532 364.403 665 289.818 636.738 293.3C608.475 296.783 595.088 377.003 606.883 472.5Z" fill="black"/>
<path d="M615.23 471.397C616.805 484.102 618.73 496.422 621.022 508.235C627.26 512.145 634.48 514.205 641.842 514.177C649.204 514.149 656.407 512.033 662.615 508.075C668.823 504.117 673.781 498.48 676.913 491.817C680.046 485.155 681.224 477.74 680.312 470.435L678.055 452.165C677.175 444.877 674.25 437.986 669.62 432.289C664.989 426.593 658.841 422.323 651.886 419.973C644.931 417.623 637.453 417.289 630.316 419.009C623.179 420.729 616.675 424.434 611.555 429.695C612.237 443.117 613.462 457.1 615.23 471.397Z" fill="#FFA4BB"/>
<path opacity="0.2" d="M615.23 471.397C616.805 484.102 618.73 496.422 621.022 508.235C627.26 512.145 634.48 514.205 641.842 514.177C649.204 514.149 656.407 512.033 662.615 508.075C668.823 504.117 673.781 498.48 676.913 491.817C680.046 485.155 681.224 477.74 680.312 470.435L678.055 452.165C677.175 444.877 674.25 437.986 669.62 432.289C664.989 426.593 658.841 422.323 651.886 419.973C644.931 417.623 637.453 417.289 630.316 419.009C623.179 420.729 616.675 424.434 611.555 429.695C612.237 443.117 613.462 457.1 615.23 471.397Z" fill="white"/>
<path d="M212.275 615.58L347.48 612.395L321.335 401.047L189.438 430.92L212.275 615.58Z" fill="#FFA4BB"/>
<g opacity="0.1">
<path d="M212.275 615.58L347.48 612.395L321.335 401.047L189.438 430.92L212.275 615.58Z" fill="black"/>
</g>
<path opacity="0.2" d="M611.852 290.5C602.717 303.713 598.08 319.445 594.247 334.932C590.745 350.59 588.493 366.501 587.51 382.515C586.792 390.513 586.792 398.527 586.512 406.542C586.687 414.557 586.617 422.572 586.967 430.57C587.317 438.567 587.667 446.583 588.402 454.562C589.137 462.542 589.75 470.523 590.66 478.485C594.527 510.248 600.18 541.94 609.77 572.583C614.489 587.928 620.556 602.826 627.9 617.103C635.635 631.103 644.56 644.945 657.475 654.57C645.225 644.175 636.895 630.245 629.912 616.07C623.039 601.74 617.429 586.838 613.147 571.532C604.509 540.9 598.513 509.582 595.227 477.925C591.482 446.425 589.452 414.453 591.01 382.708C591.583 366.84 593.397 351.042 596.435 335.458C599.497 319.935 603.61 304.29 611.852 290.5Z" fill="black"/>
<path d="M449.995 286.055C446.233 306.618 419.318 311.045 415.205 306.635C398.51 288.803 380.783 254.135 361.585 215.425C346.57 185.185 356.23 184.223 369.285 192.29C399.648 211.068 452.025 275.013 449.995 286.055Z" fill="#FFA4BB"/>
<path opacity="0.1" d="M449.995 286.073C446.233 306.618 419.335 311.045 415.205 306.635C398.51 288.803 380.8 254.135 361.585 215.425C354.323 200.778 352.538 191.608 355.39 188.895L449.61 281.978C450.036 283.298 450.168 284.696 449.995 286.073Z" fill="black"/>
<path d="M404.25 287.088C400.54 274.033 411.442 254.38 436.73 206.92C440.23 200.34 493.185 217.91 489.807 225.12C485.555 234.185 463.382 268.223 459.042 272.86C437.85 295.54 406.787 295.925 404.25 287.088Z" fill="#EB9481"/>
<path d="M470.12 242.917C470.12 242.917 488.915 235.707 500.972 230.422C507.692 227.465 518.787 221.375 522.742 216.947C528.657 210.315 549.15 178.832 541.607 173.705C534.8 169.05 520.607 198.345 520.607 198.345C520.607 198.345 537.53 170.047 528.29 165.97C519.05 161.892 507.5 197.102 507.5 197.102C507.5 197.102 524.23 167.65 514.027 164.937C506.31 162.89 493.99 194.25 493.99 194.25C493.99 194.25 508.182 168.84 500.36 166.39C491.715 163.677 478.537 191.87 478.537 191.87C457.537 189 441.402 198.87 435.575 209.142C434.455 211.102 470.12 242.917 470.12 242.917Z" fill="#EB9481"/>
<path d="M516.25 207.147C530.25 187.25 531.09 173.197 531.002 173.565C528.71 182.315 522.427 194.565 520.607 198.065C518.787 201.565 517.93 203.63 516.127 207.06C515.987 207.165 516.11 207.217 516.25 207.147Z" fill="#263238"/>
<path d="M502.915 202.195C508.957 194.401 513.567 185.596 516.53 176.19C516.53 175.822 516.442 175.875 516.267 176.19C514.08 180.6 505.19 197.802 502.81 202.107C502.775 202.212 502.862 202.247 502.915 202.195Z" fill="#263238"/>
<path d="M491.207 198.695C495.77 192.561 499.147 185.629 501.165 178.255C501.27 177.905 500.99 177.993 500.832 178.255C497.665 185.098 495.215 190.505 490.997 198.468C490.927 198.678 491.12 198.835 491.207 198.695Z" fill="#263238"/>
<path d="M478.31 250.6L422.047 223.615C422.047 223.615 395.5 277.585 401.66 289.502C404.425 294.752 414.085 308.665 424.935 309.032C449.872 309.89 478.31 250.6 478.31 250.6Z" fill="#FFA4BB"/>
<path d="M418.793 237.65C425.023 240.922 431.393 243.862 437.78 246.785C444.168 249.707 450.573 252.647 457.03 255.412C460.688 256.97 464.328 258.562 468.038 259.997C468.143 259.997 468.213 259.875 468.125 259.822C461.913 256.55 455.525 253.575 449.173 250.617C442.82 247.66 436.38 244.755 429.923 241.867C426.283 240.275 422.625 238.735 418.915 237.3C418.775 237.265 418.618 237.545 418.793 237.65Z" fill="#263238"/>
<path d="M422.747 223.528C422.205 223.143 421.417 222.67 421.347 222.81C419.597 226.31 418.075 230.213 416.622 233.853C415.17 237.493 413.84 241.063 412.545 244.703C411.845 246.663 411.18 248.64 410.585 250.618C408.92 252.859 407.691 255.394 406.962 258.09C406.962 258.23 407.155 258.3 407.19 258.09C407.936 255.711 409.002 253.445 410.357 251.353C408.837 256.195 408.058 261.24 408.047 266.315C408.047 258.738 411.355 251.405 413.875 244.405C415.135 240.905 416.482 237.405 417.83 233.905C419.177 230.405 420.682 227.01 421.995 223.528L422.73 223.878C422.905 224 422.852 223.615 422.747 223.528Z" fill="#263238"/>
<path d="M360.71 190.645C371.21 197.033 389.9 225.085 398.877 258.388C401.142 267.712 402.935 277.145 404.25 286.65C409.5 321.44 416.5 360.448 417.217 373.433C418.11 390.74 387.94 420.788 373.1 417.043C358.26 413.298 333.83 419.72 359.835 321.073C366.66 295.155 374.272 238.333 365.645 207.148C364.281 201.567 362.633 196.059 360.71 190.645Z" fill="#FFA4BB"/>
<path d="M515.235 618.94C510.388 617.908 394.38 549.605 391.598 544.198C390.53 542.15 399.508 524.685 410.848 503.948C413.315 499.45 415.888 494.83 418.53 490.14C435.645 459.725 454.528 427.84 454.528 427.84L532.262 473.34L494.13 534.398L485.853 547.75C485.853 547.75 518.578 593.775 520.975 600.023C523.373 606.27 520.1 619.973 515.235 618.94Z" fill="#EB9481"/>
<path d="M515.235 618.94C510.388 617.907 394.38 549.605 391.598 544.197C390.67 542.447 397.53 528.605 406.998 511.087C411.513 517.982 478.87 576.257 501.2 581.822C510.318 584.097 496.178 562.432 495.583 561.505C505.418 575.592 519.4 595.91 520.94 599.917C523.373 606.2 520.1 619.972 515.235 618.94Z" fill="#263238"/>
<path d="M496.895 563.307C496.895 563.307 486.762 554.347 467.302 562.205Z" fill="#263238"/>
<path d="M583.678 377.002C576.38 413.227 500.71 534.17 500.71 534.17L417.743 483.997L473.498 397.127C473.498 397.127 359.748 410.777 316.488 392.56C270.218 373.117 276.955 317.695 276.955 317.695L389.568 304.307C389.568 304.307 392.56 314.895 405.213 313.932C448.823 310.537 508.305 312.182 531.213 314.667C560.753 317.887 590.38 343.77 583.678 377.002Z" fill="#37474F"/>
<path d="M499.24 366.782C496.616 369.369 494.155 372.116 491.872 375.007C489.352 377.895 486.797 380.747 484.26 383.635V383.722L485.677 381.132C487.427 378.192 488.74 375.147 490.665 372.382C490.77 372.207 490.525 372.015 490.402 372.19C488.425 374.937 486.185 377.44 484.452 380.45C483.647 381.832 482.86 383.232 482.142 384.65C481.74 385.42 481.32 386.207 480.952 386.995C480.795 387.362 480.585 387.747 480.462 388.132C479.325 389.48 478.205 390.827 477.102 392.21C474.687 395.255 472.5 398.51 470.102 401.537C469.962 401.695 470.225 401.87 470.365 401.712C472.832 398.877 475.615 396.27 478.065 393.47C480.515 390.67 483.035 387.66 485.45 384.72C487.865 381.78 490.087 378.875 492.45 375.97C495.002 373.128 497.375 370.13 499.555 366.992C499.467 366.835 499.345 366.695 499.24 366.782Z" fill="#263238"/>
<path d="M506.047 514.693C503.877 513.048 501.567 511.543 499.31 510.02C497.052 508.498 494.847 506.993 492.59 505.505C488.005 502.46 483.35 499.485 478.695 496.51C469.367 490.525 459.97 484.663 450.555 478.8C445.305 475.51 439.95 472.325 434.647 469.07C434.56 469.07 434.42 469.175 434.525 469.228C443.531 475.423 452.596 481.542 461.72 487.585C470.843 493.628 480.176 499.59 489.72 505.47C492.345 507.08 494.987 508.667 497.647 510.23C500.342 511.805 503.037 513.485 505.82 514.903C505.995 514.973 506.152 514.78 506.047 514.693Z" fill="#263238"/>
<path d="M292.442 321.177C291.317 335.922 295.868 350.54 305.165 362.04C309.85 367.629 315.572 372.259 322.017 375.672C328.516 378.982 335.497 381.244 342.702 382.375C357.125 384.819 371.719 386.112 386.347 386.243C400.989 386.499 415.619 386.062 430.237 384.93C444.839 383.957 459.364 382.058 473.725 379.243C477.225 378.49 480.865 377.667 484.365 376.687C486.115 376.18 487.865 375.655 489.615 375.077C491.35 374.363 493.157 373.835 495.005 373.502C496.007 373.341 497.032 373.388 498.015 373.642C498.568 373.798 499.072 374.094 499.477 374.502C499.881 374.91 500.174 375.415 500.325 375.97C500.461 376.477 500.52 377.002 500.5 377.527C500.471 378.059 500.346 378.58 500.132 379.067C499.782 379.977 499.38 380.817 498.96 381.64C497.21 384.912 495.372 388.08 493.5 391.23C478.24 416.307 461.895 440.667 445.515 464.992C453.506 452.696 461.428 440.358 469.28 427.98C477.137 415.607 485.03 403.218 492.45 390.618C494.287 387.45 496.125 384.283 497.7 381.045C498.102 380.223 498.505 379.417 498.82 378.595C498.972 378.246 499.061 377.873 499.082 377.493C499.106 377.103 499.065 376.713 498.96 376.337C498.627 374.867 496.79 374.587 495.11 374.85C493.352 375.184 491.633 375.701 489.982 376.39C488.232 376.985 486.482 377.527 484.732 378.035C481.232 379.032 477.592 379.785 474.005 380.642C459.561 383.525 444.948 385.483 430.255 386.505C415.613 387.567 400.936 387.952 386.225 387.66C371.517 387.516 356.847 386.141 342.37 383.547C335.195 382.042 327.897 380.257 321.37 376.547C314.852 373.033 309.086 368.277 304.395 362.547C299.843 356.755 296.498 350.108 294.56 343C292.512 335.919 291.794 328.52 292.442 321.177Z" fill="#263238"/>
<path d="M407.75 627.06C403.218 625.048 303.975 534.083 302.383 528.22C301.77 525.998 314.16 510.72 329.683 492.8C333.025 488.915 336.508 484.925 340.078 480.9C363.143 454.65 388.255 427.455 388.255 427.455L454.755 488.11L404.775 539.893L393.75 551.25C393.75 551.25 416.168 603.068 417.218 609.683C418.268 616.298 412.248 629.073 407.75 627.06Z" fill="#EB9481"/>
<path d="M407.75 627.06C403.235 625.048 303.992 534.083 302.4 528.22C301.857 526.26 311.43 514.22 324.345 499.03C327.32 506.713 381.062 577.78 401.73 587.825C410.2 591.955 400.872 567.823 400.47 566.825C407.155 582.575 416.605 605.448 417.27 609.683C418.25 616.298 412.247 629.09 407.75 627.06Z" fill="#263238"/>
<path d="M401.345 568.75C401.345 568.75 393.312 557.882 372.627 561.522Z" fill="#263238"/>
<path d="M533.12 385.455C525.822 421.68 428.592 521.08 417.357 532.455L414.75 535.08L344.12 472.762L345.065 471.712L398.632 412.737C398.632 412.737 316.137 440.737 280.805 389.672C266.805 369.39 276.902 317.695 276.902 317.695L367.377 307.317C367.377 307.317 368.917 322.805 381.57 321.825C425.197 318.43 459.48 315.21 482.387 317.695C511.98 320.915 539.822 352.222 533.12 385.455Z" fill="#37474F"/>
<path d="M384.09 321.632C412.09 318.955 440.265 316.627 468.51 316.662C472.01 316.662 475.51 316.785 479.115 317.012C482.673 317.178 486.213 317.623 489.702 318.343C491.443 318.791 493.146 319.376 494.795 320.093C496.44 320.775 498.067 321.493 499.66 322.298C502.849 323.879 505.914 325.699 508.83 327.74C514.722 331.781 519.907 336.765 524.177 342.493C528.453 348.245 531.545 354.788 533.277 361.743C534.124 365.22 534.634 368.772 534.8 372.348C534.8 373.24 534.8 374.098 534.8 375.025C534.8 375.953 534.8 376.775 534.8 377.72C534.646 379.487 534.371 381.241 533.977 382.97C532.195 389.861 529.536 396.495 526.067 402.71C519.217 415.081 511.381 426.879 502.635 437.99C494.025 449.172 484.942 459.97 475.615 470.54C466.287 481.11 456.592 491.365 446.81 501.515C456.4 491.19 465.867 480.742 475.037 470.015C484.207 459.287 493.202 448.49 501.672 437.238C510.269 426.107 518.004 414.336 524.807 402.027C528.196 395.915 530.784 389.393 532.507 382.62C532.885 380.937 533.142 379.229 533.277 377.51C533.375 375.761 533.375 374.009 533.277 372.26C533.11 368.789 532.606 365.343 531.772 361.97C530.123 355.206 527.149 348.835 523.022 343.228C518.875 337.61 513.825 332.719 508.077 328.755C505.222 326.744 502.222 324.948 499.1 323.382C497.542 322.595 495.967 321.878 494.34 321.213C492.762 320.499 491.129 319.914 489.457 319.463C486.043 318.751 482.58 318.295 479.097 318.098C475.597 317.853 472.097 317.73 468.597 317.66C454.597 317.433 440.44 317.993 426.37 318.693C412.3 319.393 398.125 320.495 384.09 321.632Z" fill="#263238"/>
<path d="M427.805 377.843C425.183 380.419 422.728 383.16 420.455 386.05C417.918 388.938 415.363 391.79 412.843 394.678V394.765C413.315 393.908 413.77 393.015 414.26 392.175C415.923 389.253 417.305 386.208 419.23 383.425C419.256 383.39 419.266 383.347 419.26 383.304C419.253 383.261 419.23 383.223 419.195 383.198C419.16 383.172 419.117 383.161 419.074 383.168C419.031 383.174 418.993 383.198 418.968 383.233C417.008 385.998 414.75 388.588 413.018 391.51C412.213 392.875 411.443 394.275 410.708 395.693C410.305 396.48 409.903 397.25 409.535 398.038C409.345 398.413 409.176 398.799 409.028 399.193C407.89 400.523 406.77 401.888 405.685 403.253C403.253 406.298 401.065 409.553 398.685 412.58C398.563 412.738 398.825 412.913 398.948 412.755C401.415 409.938 404.198 407.33 406.648 404.513C409.098 401.695 411.635 398.703 414.033 395.763C416.43 392.823 418.688 389.935 421.033 387.013C423.575 384.161 425.942 381.157 428.12 378.018C428.05 377.895 427.91 377.738 427.805 377.843Z" fill="#263238"/>
<path d="M423.832 518.665C421.977 516.67 419.93 514.798 417.97 512.908C416.01 511.018 414.085 509.18 412.107 507.343C408.1 503.563 404.005 499.853 399.857 496.125C391.685 488.67 383.39 481.303 375.095 473.935C370.457 469.805 365.732 465.763 361.095 461.685C361.007 461.685 360.85 461.685 360.937 461.825C368.777 469.443 376.687 476.998 384.667 484.488C392.647 491.978 400.861 499.433 409.307 506.853C411.617 508.883 413.962 510.878 416.307 512.873C418.652 514.868 421.067 516.985 423.57 518.858C423.745 518.928 423.92 518.77 423.832 518.665Z" fill="#263238"/>
<path d="M289.222 322.682C287.592 330.593 287.004 338.682 287.472 346.745C287.87 354.79 289.77 362.69 293.072 370.037C296.458 377.323 301.832 383.505 308.577 387.87C315.413 392.045 323.121 394.584 331.1 395.29C339.123 396.154 347.212 396.225 355.25 395.5C363.277 394.837 371.262 393.744 379.172 392.227C395.016 389.263 410.635 385.199 425.915 380.065L426.492 379.872L426.755 380.38C427.716 382.319 428.31 384.419 428.505 386.575C428.71 388.694 428.58 390.832 428.12 392.91C427.656 394.981 426.921 396.982 425.932 398.86C424.884 400.653 423.715 402.372 422.432 404.005C417.287 410.462 411.757 416.57 406.227 422.66C400.697 428.75 395.027 434.735 389.34 440.65C383.652 446.565 377.912 452.497 372.137 458.36C377.784 452.375 383.39 446.355 388.955 440.3C394.502 434.227 400.05 428.155 405.527 422.03C411.005 415.905 416.43 409.78 421.452 403.252C422.704 401.665 423.845 399.993 424.865 398.247C425.773 396.467 426.455 394.58 426.895 392.63C427.773 388.75 427.343 384.689 425.67 381.08L426.51 381.377C411.106 386.608 395.352 390.742 379.365 393.75C371.39 395.253 363.34 396.328 355.25 396.97C347.145 397.661 338.992 397.556 330.907 396.655C322.763 395.895 314.914 393.22 308 388.85C301.111 384.315 295.65 377.919 292.25 370.405C288.989 362.943 287.207 354.92 287 346.78C286.677 338.685 287.424 330.582 289.222 322.682Z" fill="#263238"/>
<path d="M328.002 321.545C327.18 325.797 326.095 330.015 324.905 334.18C324.05 337.971 322.469 341.56 320.25 344.75C317.866 347.548 314.873 349.763 311.5 351.225C309.566 352.138 307.579 352.933 305.55 353.605C303.461 354.191 301.419 354.934 299.442 355.827C299.363 355.87 299.3 355.937 299.262 356.018C299.223 356.1 299.212 356.191 299.23 356.279C299.247 356.368 299.293 356.448 299.359 356.508C299.426 356.569 299.51 356.606 299.6 356.615C301.893 356.581 304.174 356.263 306.39 355.67C308.55 355.187 310.669 354.531 312.725 353.71C316.466 352.191 319.756 349.739 322.28 346.587C324.669 343.143 326.259 339.209 326.935 335.072C327.925 330.634 328.482 326.109 328.597 321.562C328.6 321.484 328.57 321.407 328.516 321.35C328.462 321.292 328.387 321.259 328.308 321.256C328.23 321.254 328.153 321.283 328.096 321.337C328.038 321.391 328.005 321.466 328.002 321.545Z" fill="#263238"/>
<path d="M275.257 320.95L394.45 316.75L385.7 272.125C385.7 272.125 395.57 259.227 393.137 245.7C390.46 230.895 362.32 194.11 359.887 192.062C350.525 183.855 342.09 180.81 334.25 186.585C307.002 206.745 275.257 320.95 275.257 320.95Z" fill="#FFA4BB"/>
<path d="M369.723 267.628C364.402 268.297 359.138 269.355 353.973 270.795C351.435 271.548 348.933 272.423 346.43 273.35C345.188 273.805 343.928 274.225 342.668 274.628C341.362 275.096 340.005 275.401 338.625 275.538C338.503 275.538 338.503 275.73 338.625 275.73C339.935 275.757 341.245 275.686 342.545 275.52C343.806 275.327 345.051 275.047 346.273 274.68C348.863 273.945 351.435 273.088 354.025 272.318C359.275 270.778 364.525 269.238 369.775 268.065C370.055 268.013 369.968 267.593 369.723 267.628Z" fill="#263238"/>
<path d="M383.057 271.898C378.648 271.585 374.225 271.527 369.81 271.723C367.605 271.828 365.417 272.055 363.23 272.353C362.18 272.493 361.13 272.65 360.097 272.825C359.065 273 357.822 273.35 356.597 273.525C356.475 273.525 356.475 273.735 356.597 273.718C357.682 273.578 358.802 273.718 359.905 273.578L363.195 273.368L369.792 272.983C374.202 272.668 378.542 272.405 383.005 272.265C383.25 272.248 383.25 271.915 383.057 271.898Z" fill="#263238"/>
<path d="M318.885 202.597C289.397 239.452 255.745 313.688 265.335 326.848C276.027 341.495 317.047 289.87 316.54 287.192C316.155 285.162 327.39 241.15 336.087 209.072C344.785 176.995 326.182 193.497 318.885 202.597Z" fill="#EB9481"/>
<path d="M316.855 287.192C317.73 282.52 333.252 224.385 337.487 206.08C341.285 189.665 337.487 183.54 325.237 194.88C302.487 215.74 260.085 276.587 254.45 306.162C249.042 334.67 272.807 334.162 290.5 319.305C304.902 307.107 316.855 287.192 316.855 287.192Z" fill="#FFA4BB"/>
<path d="M314.877 294.7C319.637 272.72 325.243 250.938 331.695 229.355C326.958 251.347 321.352 273.128 314.877 294.7Z" fill="#263238"/>
<path d="M328.667 242.06C329.262 239.099 330.647 236.353 332.675 234.115C332.276 237.14 330.863 239.941 328.667 242.06Z" fill="#263238"/>
<path d="M501.06 313.46H379.295V319.305H501.06V313.46Z" fill="#455A64"/>
<path d="M436.31 313.46H379.295V319.305H436.31V313.46Z" fill="#A6A6A6"/>
<path d="M433.877 319.305H560.927L578.882 233.012H451.832L433.877 319.305Z" fill="#A6A6A6"/>
<path d="M439.635 319.305H566.685L584.64 233.012H457.59L439.635 319.305Z" fill="#C7C7C7"/>
<path d="M503.667 278.075C503.523 279.146 503.612 280.235 503.929 281.267C504.246 282.3 504.783 283.252 505.503 284.057C506.224 284.862 507.11 285.501 508.101 285.931C509.092 286.36 510.165 286.57 511.245 286.545C513.564 286.499 515.788 285.616 517.509 284.06C519.229 282.503 520.329 280.378 520.607 278.075C520.749 277.005 520.657 275.917 520.339 274.886C520.021 273.854 519.484 272.904 518.764 272.1C518.044 271.295 517.159 270.656 516.17 270.225C515.18 269.795 514.109 269.583 513.03 269.605C510.712 269.655 508.489 270.539 506.77 272.095C505.05 273.65 503.949 275.773 503.667 278.075Z" fill="#EBEBEB"/>
<path d="M265.387 324.17C276.342 331.537 296.292 326.042 347.812 316.907C354.935 315.647 359.555 262.937 351.872 263.9C342.195 265.107 304.902 271.88 302.242 272.65C279.772 279.807 257.95 319.182 265.387 324.17Z" fill="#EB9481"/>
<path d="M344.365 267.435C344.365 267.435 362.302 257.46 373.345 255.185C384.885 253.05 396.772 253.759 407.977 257.25C420.087 260.96 446.81 278.25 443.17 286.877C439.845 294.63 413.42 275.52 413.42 275.52C413.42 275.52 443.572 290.57 437.92 299.163C432.267 307.755 402.815 283.85 402.815 283.85C402.815 283.85 433.457 300.003 426.16 307.948C420.665 313.95 392.805 293.772 392.805 293.772C392.805 293.772 419.055 307.773 413.647 314.248C407.697 321.353 380.817 304.325 380.817 304.325C364.35 318.325 350.787 318.325 341.145 317.083C338.782 316.75 344.365 267.435 344.365 267.435Z" fill="#EB9481"/>
<path d="M403.34 269.587C406.945 271.215 410.603 272.86 414.05 274.837C417.498 276.815 420.893 278.862 424.13 281.137C428.437 284.018 432.401 287.382 435.943 291.165C429.17 284.9 416.938 277.725 413.49 275.765C410.043 273.805 406.7 271.687 403.27 269.745L403.34 269.587Z" fill="#263238"/>
<path d="M396.06 281.908C400.575 284.2 405.142 286.3 409.552 288.785C413.962 291.27 417.9 294.035 422.1 296.783C422.432 296.993 422.205 297.098 421.872 296.905C417.55 294.298 413.367 292.215 409.01 289.66C404.652 287.105 400.417 284.41 395.99 281.995C395.92 281.96 395.99 281.873 396.06 281.908Z" fill="#263238"/>
<path d="M387.905 291.357C394.918 294.702 401.568 298.76 407.75 303.467C408.065 303.695 407.75 303.8 407.435 303.59C400.908 299.425 395.832 296.135 387.817 291.602C387.677 291.532 387.765 291.287 387.905 291.357Z" fill="#263238"/>
<path d="M341.408 259.998L320.25 333.725C320.25 333.725 267.523 334.653 259 325.675C252.91 319.253 276.675 281.313 301.315 272.668L341.408 259.998Z" fill="#FFA4BB"/>
<path d="M275.853 293.177C278.163 288.575 287.105 277.83 301.28 272.615C301.403 272.615 301.508 272.755 301.385 272.825C291.2 277.725 278.635 289.047 276.028 293.282C275.958 293.405 275.783 293.282 275.853 293.177Z" fill="#263238"/>
<path d="M309.75 323.348C311.237 316.085 313.11 308.91 315 301.735C316.89 294.56 318.762 287.368 320.827 280.245C322 276.22 323.137 272.178 324.45 268.188C324.45 268.083 324.66 268.188 324.642 268.188C323.172 275.45 321.317 282.643 319.392 289.818C317.467 296.993 315.647 304.185 313.652 311.343C312.532 315.385 311.342 319.41 310.03 323.383C309.96 323.628 309.627 323.558 309.75 323.348Z" fill="#263238"/>
<path d="M341.25 259.385C338.416 259.917 335.621 260.642 332.885 261.555C330.12 262.383 327.367 263.253 324.625 264.163C319.165 265.913 307.405 269.133 298.113 273.963C298.008 273.963 298.795 274.243 298.883 274.19C303.188 271.67 338.205 261.573 340.883 260.418C340.865 260.639 340.865 260.861 340.883 261.083C340.883 261.24 341.11 261.345 341.198 261.188C341.285 261.03 341.513 260.4 341.688 259.998C341.725 259.929 341.741 259.851 341.736 259.772C341.731 259.694 341.704 259.619 341.659 259.556C341.613 259.492 341.551 259.442 341.479 259.412C341.407 259.382 341.327 259.373 341.25 259.385Z" fill="#263238"/>
<path d="M324.03 321.23C322.945 325.57 321.772 329.875 320.53 334.162C316.295 334.162 312.06 334.162 307.842 334.022C295.592 333.62 283.08 333.077 270.987 330.522C284.882 332.167 305.987 332.64 320.197 333.305L319.76 333.62C321.125 329.467 322.542 325.342 324.012 321.247L324.03 321.23Z" fill="#263238"/>
<path d="M336.84 193.305C337.487 195.51 348.88 209.527 359.082 208.53C362.39 208.215 361.427 189.98 361.427 189.98L361.655 188.615L364.927 169.54L342.09 156.432L338.8 154.682C338.8 154.682 338.257 159.932 337.627 166.547C337.627 166.845 337.627 167.142 337.54 167.475C337.452 167.807 337.54 168.192 337.417 168.542C337.312 169.522 337.207 170.537 337.137 171.535C337.067 172.532 336.997 173.04 336.962 173.827C336.927 174.615 336.857 175.42 336.787 176.225C336.425 181.913 336.443 187.619 336.84 193.305Z" fill="#EB9481"/>
<path d="M337.627 166.565C339.792 171.764 343.063 176.429 347.212 180.237C351.361 184.045 356.29 186.904 361.655 188.615L364.927 169.54L342.09 156.432L338.8 154.682C338.8 154.682 338.257 159.985 337.627 166.565Z" fill="#263238"/>
<path d="M333.375 154.332C325.64 154.052 307.528 162.837 302.943 173.915C298.358 184.992 301.84 200.935 305.41 201.915C308.98 202.895 322.91 199.08 331.66 191.94C340.41 184.8 337.173 154.472 333.375 154.332Z" fill="#263238"/>
<path d="M333.392 154.367C333.637 154.262 333.585 153.86 333.392 153.895C326.865 154.927 320.302 158.392 314.44 161.315C309.697 163.66 304.885 166.302 301.472 170.45C299.822 172.411 298.616 174.705 297.936 177.176C297.257 179.647 297.12 182.236 297.535 184.765C298.375 190.54 300.475 197.312 304.202 201.88C304.325 202.002 304.605 201.88 304.5 201.722C299.53 191.45 294.49 178.71 303.905 169.365C311.797 161.42 323.347 158.55 333.392 154.367Z" fill="#263238"/>
<path d="M305.97 198.87C299.635 200.9 284.97 216.37 284.462 229.215C283.955 242.06 297.237 258.492 300.667 259.227C304.097 259.962 316.277 245.507 319.357 235.952C321.422 229.582 317.712 223.265 315.07 216.702C311.15 207.217 306.967 198.555 305.97 198.87Z" fill="#263238"/>
<path d="M322.962 233.695C322.595 220.762 313.197 209.615 306.827 199.027C306.827 198.922 306.565 199.027 306.617 199.132C310.992 209.632 319.34 218.19 321.615 229.565C322.945 236.302 321.807 243.372 316.995 248.552C312.83 253.032 307.055 255.78 301.822 258.79C301.472 259 301.822 259.49 302.155 259.315C312.655 253.61 323.347 247.047 322.962 233.695Z" fill="#263238"/>
<path d="M304.78 200.288C305.077 200.078 304.78 199.605 304.465 199.815C296.03 205.87 286.09 214.288 282.852 224.543C279.352 235.655 286.667 245.28 293.107 253.558C293.107 253.663 293.352 253.558 293.265 253.435C286.877 245.018 279.807 234.413 284.095 223.423C287.77 213.973 296.87 206.168 304.78 200.288Z" fill="#263238"/>
<path d="M301.35 258.755C305.952 260.61 313.075 267.505 315.35 276.167C319.305 291.007 324.695 287.507 341.6 289.94C355.845 291.987 360.29 307.282 353.605 315.682C353.605 315.682 356.982 305.672 347.165 301.857C335.422 297.307 310.922 311.535 296.625 296.922C278.092 278.022 301.35 258.755 301.35 258.755Z" fill="#263238"/>
<path d="M308 265.16C307.807 264.967 308.122 264.617 308.332 264.81C310.404 266.523 312.147 268.599 313.477 270.935C315.227 273.98 315.595 277.427 317.082 280.56C320.88 288.557 330.82 287.315 338.082 287.122C347.847 286.895 356.212 292.075 357.787 302.225C357.778 302.248 357.763 302.267 357.742 302.281C357.722 302.295 357.698 302.302 357.674 302.302C357.649 302.302 357.625 302.295 357.605 302.281C357.585 302.267 357.569 302.248 357.56 302.225C357.044 299.095 355.683 296.165 353.622 293.753C351.562 291.341 348.881 289.538 345.87 288.54C339.972 286.79 333.62 288.54 327.67 287.717C323.54 287.122 319.375 285.792 317.17 282.047C316.11 279.896 315.283 277.637 314.702 275.31C313.369 271.411 311.062 267.917 308 265.16Z" fill="#263238"/>
<path d="M298.97 260.837C298.97 260.75 299.198 260.837 299.128 260.96C294.14 266.927 288.838 272.93 288.015 281.015C287.14 289.765 292.355 297.85 299.565 302.365C307.633 307.422 315.42 303.887 323.663 301.437C329.613 299.687 335.738 298.375 341.898 299.88C342.09 299.88 342.02 300.23 341.898 300.212C332.08 298.9 323.575 302.592 314.283 305.025C306.705 307.002 300.388 304.902 294.858 299.39C282.608 287.245 287.858 271.547 298.97 260.837Z" fill="#263238"/>
<path d="M326.427 148.575C323.89 146.335 320.46 150.325 323.015 152.565C325.57 154.805 329 150.815 326.427 148.575Z" fill="#FFA4BB"/>
<path d="M329.245 152.582C326.708 150.342 323.278 154.332 325.745 156.572C328.213 158.812 331.783 154.822 329.245 152.582Z" fill="#FFA4BB"/>
<path d="M332.727 156.082C330.19 153.842 326.76 157.832 329.227 160.072C329.757 160.536 330.448 160.771 331.151 160.725C331.853 160.68 332.508 160.356 332.972 159.827C333.437 159.298 333.672 158.606 333.626 157.904C333.58 157.202 333.257 156.546 332.727 156.082Z" fill="#FFA4BB"/>
<path d="M336.542 159.005C334.005 156.765 330.575 160.755 333.042 162.995C335.51 165.235 339.097 161.262 336.542 159.005Z" fill="#FFA4BB"/>
<path d="M340.9 161.28C338.362 159.04 334.932 163.03 337.4 165.287C339.867 167.545 343.455 163.537 340.9 161.28Z" fill="#FFA4BB"/>
<path d="M345.415 162.75C342.878 160.51 339.448 164.5 342.003 166.74C344.558 168.98 347.97 164.938 345.415 162.75Z" fill="#FFA4BB"/>
<path d="M386.942 135.153C395.132 168.123 376.337 176.75 369.25 178.5C362.81 180.093 340.655 184.73 329.105 152.793C317.555 120.855 330.277 106.61 344.855 102.183C359.432 97.755 378.752 102.2 386.942 135.153Z" fill="#EB9481"/>
<path d="M333.375 155.575C340.217 153.492 335.947 137.69 335.947 137.69C335.947 137.69 346.92 132.142 349.422 122.867C349.422 122.867 348.197 130.62 344.47 134.75C343.84 135.45 366.695 126.21 363.72 107.502C363.72 107.502 372.365 124.32 384.177 124.845C384.737 124.845 378.35 111.842 372.697 107.625C370.254 105.65 367.643 103.893 364.892 102.375C356.248 99.1667 346.69 99.481 338.275 103.25C324.415 109.585 319.375 127.54 320.092 134.102C321.51 147 330.137 156.572 333.375 155.575Z" fill="#263238"/>
<path d="M345.327 134.925C358.015 130.62 365.837 119.437 363.09 105.997C363.09 105.665 363.527 105.525 363.667 105.822C369.285 118.632 357.735 132.597 345.292 135.187C344.977 135.257 345.03 135.03 345.327 134.925Z" fill="#263238"/>
<path d="M333.2 154.84C339.115 149.24 338.188 141.925 336.7 134.662C336.7 134.452 337.015 134.33 337.085 134.557C339.22 141.557 340.428 150.307 333.69 155.347C333.623 155.412 333.532 155.448 333.439 155.446C333.345 155.445 333.256 155.406 333.191 155.339C333.126 155.271 333.091 155.181 333.092 155.088C333.094 154.994 333.133 154.905 333.2 154.84Z" fill="#263238"/>
<path d="M363.002 104.755C363.002 104.755 363.002 104.65 363.125 104.755C366.835 111.65 370.772 124.005 380.73 123.095C380.773 123.108 380.811 123.134 380.838 123.171C380.865 123.207 380.88 123.251 380.88 123.296C380.88 123.341 380.865 123.385 380.838 123.422C380.811 123.458 380.773 123.484 380.73 123.497C371.297 125.177 364.21 112.665 363.002 104.755Z" fill="#263238"/>
<path d="M377.16 131.25C376.355 131.25 375.62 131.25 374.832 131.25C374.009 131.37 373.168 131.223 372.435 130.83C372.234 130.657 372.095 130.424 372.038 130.165C371.981 129.906 372.01 129.636 372.12 129.395C372.414 128.955 372.821 128.601 373.298 128.37C373.774 128.139 374.304 128.04 374.832 128.083C375.919 128 376.998 128.324 377.86 128.993C378.047 129.158 378.183 129.373 378.251 129.614C378.318 129.854 378.315 130.109 378.241 130.348C378.167 130.587 378.025 130.799 377.834 130.959C377.642 131.119 377.408 131.22 377.16 131.25Z" fill="#263238"/>
<path d="M354.568 136.325C355.295 136.04 356.008 135.719 356.703 135.362C357.49 135.12 358.178 134.629 358.663 133.962C358.778 133.723 358.81 133.451 358.753 133.191C358.696 132.93 358.553 132.697 358.348 132.527C357.893 132.256 357.373 132.113 356.843 132.113C356.313 132.113 355.793 132.256 355.338 132.527C354.32 132.908 353.483 133.658 352.993 134.627C352.901 134.853 352.876 135.099 352.919 135.339C352.963 135.578 353.074 135.8 353.239 135.978C353.405 136.156 353.618 136.284 353.853 136.345C354.088 136.406 354.336 136.4 354.568 136.325Z" fill="#263238"/>
<path d="M361.602 143.238C361.602 143.238 361.445 143.395 361.48 143.483C362.092 145.688 362.442 148.33 360.605 149.573C360.605 149.573 360.605 149.73 360.605 149.695C363.037 148.75 362.547 145.25 361.602 143.238Z" fill="#263238"/>
<path d="M359.03 141.4C355.373 142.03 356.878 149.292 360.273 148.715C363.668 148.137 362.093 140.892 359.03 141.4Z" fill="#263238"/>
<path d="M357.682 142.082C357.14 142.625 356.667 143.482 355.932 143.71C355.197 143.937 354.182 143.36 353.5 142.747C353.5 142.747 353.377 142.747 353.395 142.87C353.675 144.252 354.497 145.582 356.037 145.477C357.577 145.372 358.155 143.955 358.207 142.467C358.207 142.205 357.91 141.872 357.682 142.082Z" fill="#263238"/>
<path d="M373.992 140.087C373.992 140.087 374.185 140.087 374.202 140.245C374.57 142.52 375.392 145.057 377.58 145.39C377.58 145.39 377.667 145.53 377.58 145.53C375.025 145.67 373.975 142.292 373.992 140.087Z" fill="#263238"/>
<path d="M375.533 137.34C379.033 136.343 380.783 143.553 377.528 144.48C374.273 145.408 372.54 138.25 375.533 137.34Z" fill="#263238"/>
<path d="M377.16 137.445C377.807 137.69 378.542 138.25 379.242 138.127C379.942 138.005 380.432 137.077 380.765 136.202C380.765 136.202 380.87 136.202 380.887 136.202C381.255 137.585 381.15 139.125 379.89 139.702C378.63 140.28 377.562 139.265 376.897 137.952C376.775 137.777 376.88 137.357 377.16 137.445Z" fill="#263238"/>
<path d="M365.872 161.455C366.502 161.893 367.15 162.54 367.99 162.488C368.828 162.326 369.625 161.999 370.335 161.525C370.335 161.525 370.492 161.525 370.457 161.63C370.212 162.138 369.834 162.569 369.362 162.877C368.89 163.186 368.343 163.36 367.78 163.38C367.293 163.331 366.832 163.139 366.455 162.827C366.078 162.515 365.802 162.099 365.662 161.63C365.61 161.473 365.75 161.385 365.872 161.455Z" fill="#263238"/>
<path d="M373.747 155.89C373.158 157.386 372.194 158.706 370.947 159.722C370.249 160.248 369.406 160.547 368.532 160.58C366.607 160.58 366.1 158.987 366.03 157.5C365.995 156.707 366.059 155.914 366.222 155.137C368.588 156.176 371.222 156.439 373.747 155.89Z" fill="#263238"/>
<path d="M371 159.722C370.301 160.248 369.459 160.547 368.585 160.58C366.66 160.58 366.153 158.987 366.083 157.5C367.033 157.264 368.035 157.355 368.927 157.758C369.819 158.162 370.549 158.853 371 159.722Z" fill="#FF9CBD"/>
<path d="M373.485 151.287C373.485 151.287 374.675 154.542 375.025 156.117C375.025 156.257 374.692 156.415 374.15 156.572C372.845 157.117 371.415 157.292 370.017 157.079C368.619 156.866 367.306 156.273 366.222 155.365C366.196 155.336 366.181 155.299 366.179 155.26C366.176 155.22 366.187 155.182 366.209 155.15C366.231 155.117 366.263 155.093 366.301 155.082C366.338 155.07 366.378 155.071 366.415 155.085C368.733 156.025 371.293 156.191 373.712 155.557C373.712 155.085 371.472 150.045 371.717 149.975C372.971 149.801 374.243 149.801 375.497 149.975C373.187 143.132 369.81 136.71 367.622 129.85C367.609 129.799 367.615 129.745 367.637 129.697C367.659 129.65 367.697 129.611 367.745 129.589C367.792 129.566 367.846 129.56 367.897 129.573C367.948 129.585 367.993 129.615 368.025 129.657C371.852 136.433 374.994 143.573 377.405 150.972C377.685 151.882 374.167 151.41 373.485 151.287Z" fill="#263238"/>
<path d="M335.615 153.79C335.615 153.79 326.638 144.48 322.315 147.857C317.993 151.235 325.815 165.515 331.783 166.705C332.529 166.908 333.308 166.959 334.074 166.854C334.841 166.749 335.578 166.49 336.241 166.093C336.905 165.695 337.481 165.168 337.936 164.543C338.391 163.917 338.714 163.206 338.888 162.452L335.615 153.79Z" fill="#EB9481"/>
<path d="M324.677 151.9C324.59 151.9 324.59 152.023 324.677 152.04C328.825 153.003 331.45 156.31 333.427 159.845C333.139 159.49 332.777 159.202 332.367 159C331.956 158.798 331.507 158.687 331.049 158.676C330.592 158.664 330.138 158.752 329.717 158.932C329.297 159.113 328.921 159.383 328.615 159.723C328.51 159.723 328.615 159.968 328.755 159.915C329.406 159.585 330.144 159.466 330.866 159.576C331.587 159.686 332.257 160.018 332.78 160.528C333.654 161.381 334.434 162.326 335.107 163.345C335.335 163.66 335.947 163.345 335.755 162.995C335.072 157.903 330.102 151.55 324.677 151.9Z" fill="#263238"/>
<path d="M217.525 443.8H215.425V442.488H217.507H222.407V443.8H217.525ZM206.657 443.608C204.277 443.52 201.95 443.398 199.657 443.258V441.945C201.95 442.085 204.277 442.208 206.657 442.295V443.608ZM231.157 443.503V442.19C233.45 442.103 235.777 441.98 238.157 441.823L238.245 443.135C235.847 443.293 233.502 443.415 231.21 443.503H231.157ZM190.907 442.54C188.527 442.313 186.182 442.05 183.907 441.753L184.082 440.44C186.322 440.738 188.65 441 191.082 441.245L190.907 442.54ZM246.907 442.54L246.802 441.228C249.095 441.035 251.422 440.808 253.802 440.563L253.942 441.858C251.58 442.068 249.252 442.278 246.942 442.488L246.907 442.54ZM262.657 440.79L262.482 439.478L269.482 438.533L269.675 439.828C267.242 440.195 264.932 440.51 262.64 440.808L262.657 440.79ZM175.28 440.405C172.935 440.003 170.607 439.548 168.385 439.075L168.647 437.798C170.87 438.27 173.18 438.708 175.49 439.128L175.28 440.405ZM278.25 438.515L278.04 437.22L284.935 436.013L285.162 437.308L278.25 438.515ZM159.845 437.01C157.517 436.38 155.26 435.698 153.107 434.98L153.51 433.738C155.645 434.455 157.902 435.12 160.177 435.75L159.845 437.01ZM293.772 435.663L293.51 434.368C295.767 433.913 298.06 433.44 300.352 432.933L300.632 434.228C298.305 434.718 296.03 435.208 293.755 435.75L293.772 435.663ZM309.172 432.285L308.875 431.008C311.132 430.483 313.39 429.923 315.665 429.363L315.98 430.64C313.687 431.2 311.5 431.76 309.155 432.25L309.172 432.285ZM144.865 431.918C142.625 430.973 140.472 429.975 138.477 428.925L139.072 427.77C141.05 428.785 143.167 429.765 145.372 430.693L144.865 431.918ZM324.467 428.418L324.135 427.14C326.357 426.545 328.615 425.933 330.872 425.285L331.222 426.545C329 427.21 326.69 427.823 324.45 428.435L324.467 428.418ZM130.882 424.393C128.931 423.07 127.082 421.602 125.352 420L126.245 419.038C127.935 420.607 129.736 422.051 131.635 423.36L130.882 424.393ZM339.622 424.113L339.237 422.87C341.46 422.205 343.682 421.505 345.922 420.805L346.325 422.065L339.622 424.113ZM354.655 419.37L354.235 418.128C356.44 417.41 358.645 416.658 360.867 415.888L361.287 417.13C359.065 417.9 356.86 418.653 354.655 419.37ZM369.547 414.225L369.11 412.983L375.672 410.568L376.127 411.81C373.94 412.633 371.735 413.438 369.547 414.225ZM119.665 413.14C118.38 411.114 117.417 408.9 116.812 406.578L118.072 406.245C118.653 408.437 119.555 410.531 120.75 412.458L119.665 413.14ZM384.317 408.678L383.845 407.453L390.337 404.88L390.827 406.105L384.317 408.678ZM398.93 402.763L398.422 401.555L404.862 398.825L405.387 400.033L398.93 402.763ZM117.652 397.828L116.357 397.653C116.685 395.308 117.272 393.007 118.107 390.793L119.332 391.248C118.531 393.372 117.967 395.579 117.652 397.828ZM413.402 396.515L412.86 395.308L414.015 394.783C415.765 394.013 417.515 393.208 419.265 392.403L419.825 393.593L414.575 395.99L413.402 396.515ZM427.682 389.795L427.087 388.605C429.187 387.578 431.27 386.528 433.335 385.455L433.947 386.61C431.865 387.695 429.765 388.745 427.682 389.795ZM123.182 383.513L122.062 382.848C123.27 380.825 124.585 378.868 126 376.985L127.05 377.773C125.652 379.618 124.349 381.534 123.147 383.513H123.182ZM441.682 382.498L441.052 381.343C443.1 380.24 445.147 379.103 447.177 377.965L447.807 379.103C445.795 380.258 443.747 381.395 441.7 382.498H441.682ZM455.402 374.71L454.737 373.59C456.75 372.4 458.745 371.21 460.74 369.985L461.422 371.105C459.445 372.33 457.432 373.52 455.42 374.71H455.402ZM132.562 371L131.582 370.125C133.07 368.463 134.697 366.73 136.412 365.015L137.357 365.943C135.642 367.693 134.032 369.408 132.562 371ZM468.86 366.433L468.16 365.33L474.04 361.55L474.757 362.635L468.86 366.433ZM143.675 359.993L142.8 359.013C144.55 357.49 146.3 355.933 148.05 354.393L148.89 355.39C147.14 357 145.355 358.47 143.675 359.993ZM482.037 357.84L481.302 356.755C483.227 355.46 485.135 354.148 487.042 352.818L487.795 353.885C485.887 355.25 483.962 356.545 482.037 357.84ZM155.75 349.895L154.945 348.863C156.695 347.428 158.637 346.01 160.527 344.593L161.315 345.643C159.413 347.043 157.558 348.46 155.75 349.895ZM494.97 348.828L494.2 347.76C496.09 346.395 497.98 345.03 499.852 343.648L500.64 344.698L494.97 348.828ZM168.367 340.515L167.615 339.448C169.528 338.094 171.453 336.764 173.39 335.458L174.125 336.543C172.2 337.855 170.275 339.168 168.367 340.515ZM507.64 339.5L506.835 338.468C508.707 337.05 510.545 335.633 512.382 334.198L513.187 335.23C511.35 336.613 509.495 338.03 507.64 339.5ZM181.422 331.765L180.722 330.663C182.682 329.385 184.66 328.125 186.655 326.9L187.355 328.003C185.36 329.193 183.4 330.435 181.422 331.713V331.765ZM520.082 329.805L519.26 328.79L524.702 324.398L525.525 325.413L520.082 329.805ZM194.81 323.435L194.145 322.315C196.163 321.148 198.176 319.982 200.182 318.815L200.847 319.953C198.835 320.985 196.822 322.175 194.81 323.383V323.435ZM532.28 319.83L531.44 318.815C533.19 317.31 535.027 315.805 536.777 314.3L537.635 315.298L532.28 319.83ZM208.53 315.543L207.882 314.405C209.947 313.25 212.012 312.13 214.042 311.028L214.655 312.183C212.572 313.25 210.525 314.353 208.46 315.49L208.53 315.543ZM544.25 309.505L543.375 308.525C545.125 306.985 546.875 305.428 548.625 303.888L549.5 304.868C547.75 306.408 546 308 544.25 309.505ZM222.25 308L221.655 306.845L227.902 303.643L228.497 304.815C226.52 305.865 224.437 306.915 222.25 308ZM236.355 301L235.795 299.828C238 298.778 240.117 297.78 242.165 296.853L242.707 298.043C240.747 298.953 238.612 299.95 236.425 301H236.355ZM555.957 299.023L555.065 298.043C556.815 296.468 558.565 294.875 560.227 293.3L561.12 294.263L555.957 299.023ZM250.792 294.525L250.285 293.3C252.297 292.46 254.17 291.708 255.902 291.06L256.357 292.285C254.66 292.933 252.787 293.685 250.792 294.525ZM567.542 288.243L566.632 287.298L571.69 282.45L572.6 283.395L567.542 288.243ZM578.865 277.27L577.937 276.343C579.687 274.68 581.28 273.035 582.907 271.39L583.835 272.318C582.242 273.963 580.58 275.608 578.9 277.27H578.865ZM589.995 266.088L589.05 265.16C590.712 263.41 592.322 261.8 593.915 260.138L594.86 261.048L589.995 266.088ZM600.897 254.695L599.952 253.785L604.73 248.675L605.692 249.568L600.897 254.695ZM611.607 243.093L610.645 242.218C612.255 240.468 613.812 238.718 615.317 236.968L616.297 237.843C614.827 239.575 613.252 241.308 611.642 243.093H611.607ZM622.107 231.298L621.127 230.44C622.72 228.603 624.26 226.835 625.712 225.19L626.71 226.03C625.257 227.693 623.735 229.46 622.125 231.298H622.107ZM632.38 219.293L631.365 218.453C632.992 216.51 634.48 214.708 635.845 213.045L636.86 213.868C635.512 215.53 634.025 217.35 632.397 219.293H632.38ZM642.372 207.043L641.34 206.22C644.175 202.72 645.662 200.673 645.662 200.673L646.712 201.46C646.712 201.46 645.242 203.438 642.39 207.043H642.372Z" fill="#263238"/>
<path d="M649.845 163.363L644.822 203.578L668.132 174.913L767.602 110.705L649.845 163.363Z" fill="#FFA4BB"/>
<path opacity="0.4" d="M649.845 163.363L644.822 203.578L668.132 174.913L767.602 110.705L649.845 163.363Z" fill="white"/>
<path d="M673.75 182.735L644.822 203.578L668.132 174.913L673.75 182.735Z" fill="#FFA4BB"/>
<path opacity="0.3" d="M673.75 182.735L644.822 203.578L668.132 174.913L673.75 182.735Z" fill="white"/>
<path d="M668.132 174.913L767.602 110.705L698.512 217.928L668.132 174.913Z" fill="#FFA4BB"/>
<path opacity="0.7" d="M668.132 174.913L767.602 110.705L698.512 217.928L668.132 174.913Z" fill="white"/>
<path d="M649.845 163.363L598.08 144.585L767.603 110.705L649.845 163.363Z" fill="#FFA4BB"/>
<path opacity="0.7" d="M649.845 163.363L598.08 144.585L767.603 110.705L649.845 163.363Z" fill="white"/>
<path d="M216.843 93.5551C216.841 102.442 219.309 111.155 223.972 118.721C228.634 126.287 235.308 132.408 243.247 136.401C251.187 140.395 260.08 142.103 268.933 141.335C277.787 140.568 286.254 137.355 293.388 132.055L316.89 138.058L307.108 116.183C310.547 109.753 312.475 102.624 312.745 95.3369C313.015 88.0502 311.62 80.7978 308.667 74.131C305.714 67.4641 301.279 61.5584 295.701 56.8626C290.122 52.1669 283.547 48.8047 276.474 47.0317C269.401 45.2587 262.017 45.1215 254.883 46.6305C247.749 48.1396 241.053 51.2552 235.304 55.7405C229.555 60.2258 224.905 65.9628 221.706 72.5153C218.507 79.0678 216.843 86.2634 216.843 93.5551Z" fill="white"/>
<path d="M216.843 93.5551C217.595 133.543 261.503 154.648 293.545 131.46L317.083 137.323L316.19 138.373L306.338 116.533L306.18 116.148C320.985 89.4951 305.953 54.8976 276.43 47.5301C246.768 39.4451 216.755 62.8776 216.93 93.5551H216.843ZM216.843 93.5551C216.965 52.7276 264.583 30.3801 296.118 56.3676C313.53 70.4726 318.868 96.9676 307.86 116.585V115.833L317.573 137.743L318.22 139.213L316.698 138.81L293.23 132.668C263.183 155.418 217.088 134.033 216.825 93.5551H216.843Z" fill="#263238"/>
<path d="M257.145 122.973L235.638 101.203L242.865 94.0802L255.413 106.785L281.505 65.8877L290.063 71.3477L257.145 122.973Z" fill="#FFA4BB"/>
</svg>
