<svg width="875" height="755" viewBox="0 0 875 755" fill="none" xmlns="http://www.w3.org/2000/svg">
<g clip-path="url(#clip0_311_3149)">
<path d="M432.337 755.327V573.205H484.662V529.07L528.797 573.205H763.91V755.327H432.337Z" fill="white"/>
<path d="M432.337 755.327C432.162 753.577 431.445 573.87 431.322 572.19H432.337L484.662 572.015L483.455 573.205L483.297 529V525.71L485.642 528.037L529.9 572.067C524.195 570.737 765.187 571.91 763.927 571.42H765.677V573.17L765.467 755.292V756.797H763.962C681.31 756.5 515.025 755.852 432.39 755.31L432.337 755.327ZM432.337 755.327C514.972 754.767 681.31 754.12 763.91 753.822L762.422 755.327L762.212 573.205L763.962 574.955L528.237 574.762L527.782 574.307L483.7 530.032L486.01 529.07L485.852 573.205V574.5H484.75L432.425 574.307L433.457 573.292L432.425 755.415L432.337 755.327Z" fill="#EBEBEB"/>
<path d="M679.042 677.261C686.198 673.324 688.807 664.332 684.87 657.177C680.933 650.021 671.941 647.412 664.785 651.349C657.63 655.286 655.021 664.278 658.958 671.434C662.895 678.589 671.887 681.198 679.042 677.261Z" fill="#EBEBEB"/>
<path d="M603.711 678.015C611.267 674.916 614.88 666.278 611.781 658.722C608.682 651.166 600.044 647.552 592.488 650.651C584.932 653.75 581.319 662.388 584.418 669.944C587.517 677.5 596.155 681.114 603.711 678.015Z" fill="#EBEBEB"/>
<path d="M526.058 678.998C534.165 678.005 539.93 670.627 538.936 662.521C537.943 654.415 530.566 648.649 522.459 649.643C514.353 650.637 508.587 658.014 509.581 666.12C510.575 674.227 517.952 679.992 526.058 678.998Z" fill="#EBEBEB"/>
<path d="M169.199 248.576C210.551 234.192 232.233 188.49 217.626 146.499C203.02 104.508 157.657 82.1285 116.305 96.5126C74.9526 110.897 53.271 156.598 67.8774 198.589C82.4838 240.58 127.847 262.96 169.199 248.576Z" fill="#EBEBEB"/>
<path d="M80.8149 171.528C80.5874 206.143 108.132 234.668 142.345 235.228C150.508 235.337 158.612 233.821 166.184 230.77C173.757 227.718 180.647 223.192 186.454 217.453C192.261 211.714 196.869 204.878 200.01 197.343C203.151 189.807 204.762 181.722 204.75 173.558C204.977 138.925 177.415 110.418 143.22 109.858C135.056 109.748 126.953 111.264 119.38 114.315C111.808 117.367 104.918 121.893 99.1106 127.632C93.3036 133.371 88.6956 140.207 85.5546 147.742C82.4137 155.278 80.8025 163.363 80.8149 171.528Z" fill="white"/>
<path d="M98.1051 171.807C97.9911 183.753 102.579 195.264 110.879 203.855C119.18 212.447 130.525 217.429 142.468 217.727C148.35 217.802 154.188 216.706 159.643 214.503C165.098 212.301 170.061 209.036 174.243 204.898C178.425 200.76 181.742 195.832 184.002 190.401C186.262 184.969 187.42 179.143 187.408 173.26C187.522 161.315 182.933 149.804 174.633 141.212C166.333 132.621 154.987 127.638 143.045 127.34C137.163 127.268 131.326 128.366 125.872 130.569C120.418 132.772 115.456 136.038 111.275 140.175C107.094 144.312 103.776 149.239 101.516 154.669C99.2546 160.1 98.0954 165.925 98.1051 171.807Z" fill="#EBEBEB"/>
<path d="M115.5 172.087C115.411 179.369 118.195 186.392 123.25 191.634C128.305 196.876 135.223 199.913 142.503 200.087C146.084 200.132 149.639 199.464 152.96 198.122C156.281 196.781 159.302 194.793 161.849 192.275C164.395 189.756 166.416 186.756 167.793 183.45C169.171 180.144 169.878 176.597 169.873 173.015C169.958 165.735 167.172 158.714 162.118 153.474C157.064 148.233 150.149 145.194 142.87 145.015C139.289 144.971 135.734 145.639 132.413 146.98C129.092 148.321 126.07 150.309 123.524 152.828C120.978 155.347 118.957 158.346 117.579 161.653C116.202 164.959 115.495 168.506 115.5 172.087Z" fill="white"/>
<path d="M130.655 172.332C130.599 175.579 131.834 178.714 134.088 181.05C136.342 183.387 139.432 184.733 142.678 184.792C144.278 184.82 145.868 184.529 147.354 183.935C148.84 183.342 150.193 182.458 151.334 181.335C152.474 180.212 153.379 178.874 153.997 177.397C154.614 175.92 154.93 174.335 154.928 172.735C154.979 169.492 153.742 166.361 151.489 164.028C149.235 161.696 146.148 160.352 142.905 160.292C141.306 160.262 139.717 160.551 138.23 161.143C136.744 161.735 135.391 162.617 134.25 163.738C133.109 164.86 132.204 166.197 131.586 167.673C130.969 169.149 130.653 170.733 130.655 172.332Z" fill="#EBEBEB"/>
<path d="M143.395 172.805L226.52 129.09L225.89 127.883L142.748 171.598L143.395 172.805Z" fill="#EBEBEB"/>
<path d="M231.437 131.207L231.122 131.102L225.802 129.457L236.302 123.962L241.99 125.695L231.437 131.207Z" fill="#EBEBEB"/>
<path d="M237.562 117.225L235.672 122.755L225.172 128.25C225.996 126.488 226.618 124.639 227.027 122.737L237.562 117.225Z" fill="#EBEBEB"/>
<path d="M140.21 171.177L142.397 175.115L148.242 174.625L144.41 171.492L144.025 166.557L140.21 171.177Z" fill="#EBEBEB"/>
<path d="M205.724 583.007L83.5469 628.056L112.117 705.539L234.293 660.49L205.724 583.007Z" fill="#EBEBEB"/>
<path d="M205.765 582.97C202.563 589.515 199.203 595.885 195.948 602.36C192.693 608.835 189.263 615.152 185.868 621.505C182.368 628.132 178.809 634.735 175.193 641.315L174.878 641.927L165.305 659.427L164.815 660.25L163.94 659.935L145.373 652.935L144.708 652.69C137.708 650.03 130.708 647.335 123.708 644.552C117.069 641.834 110.378 639.122 103.635 636.415C96.9501 633.597 90.2651 630.937 83.5801 628.032C90.3176 630.15 97.0376 632.477 103.758 634.717C110.478 636.957 117.233 639.337 123.953 641.717C131.425 644.36 138.933 647.055 146.423 649.82L163.275 655.997C166.18 650.747 169.103 645.498 172.025 640.37C175.945 633.37 179.865 626.51 183.855 619.615C187.355 613.455 190.995 607.365 194.635 601.205C198.275 595.045 202.003 588.955 205.765 582.97Z" fill="white"/>
<path d="M147.263 651.5C147.238 651.569 147.203 651.634 147.158 651.692L145.845 654.038C143.722 657.748 141.505 661.388 139.195 664.958C136.395 669.368 133.473 673.708 130.445 677.978C127.418 682.248 124.425 686.482 121.275 690.647C118.125 694.812 114.905 698.925 111.475 702.897C113.978 698.277 116.725 693.832 119.508 689.44C122.29 685.047 125.265 680.69 128.258 676.42C131.25 672.15 134.278 667.897 137.428 663.732C139.948 660.407 142.52 657.1 145.215 653.897C145.833 653.162 146.463 652.427 147.105 651.692C147.105 651.692 147.228 651.605 147.263 651.5Z" fill="white"/>
<path d="M233.135 658.08C227.885 657.31 222.81 656.33 217.718 655.14C212.625 653.95 207.568 652.742 202.51 651.465C197.453 650.187 192.448 648.735 187.46 647.195C183.4 645.97 179.34 644.675 175.35 643.205L172.795 642.277L172.603 642.19H172.813L175.7 642.662C179.83 643.345 183.925 644.202 187.95 645.095C193.043 646.215 198.1 647.475 203.14 648.787C208.18 650.1 213.22 651.5 218.208 653.04C223.195 654.58 228.235 656.19 233.135 658.08Z" fill="white"/>
<path d="M662.95 257.36L649.562 338.85L778.056 359.961L791.445 278.471L662.95 257.36Z" fill="#EBEBEB"/>
<path d="M791.42 278.435C785.417 282.548 779.345 286.432 773.308 290.457C767.27 294.482 761.18 298.28 755.107 302.147C748.761 306.172 742.402 310.151 736.032 314.082C735.847 314.221 735.654 314.349 735.455 314.467C729.838 317.967 724.185 321.467 718.55 324.967L717.71 325.457L717.097 324.74C712.862 319.653 708.639 314.555 704.427 309.445C704.268 309.276 704.122 309.094 703.99 308.902C699.195 303.127 694.452 297.335 689.727 291.402C685.212 285.837 680.715 280.185 676.217 274.55C671.72 268.915 667.292 263.175 662.917 257.365C667.73 262.615 672.42 267.865 677.163 273.115C681.905 278.365 686.595 283.79 691.25 289.197C696.465 295.159 701.651 301.202 706.808 307.327L718.41 321.03C723.52 317.932 728.647 314.8 733.757 311.755C740.6 307.642 747.425 303.547 754.302 299.505C760.445 295.917 766.552 292.33 772.765 288.812C778.977 285.295 785.19 281.778 791.42 278.435Z" fill="white"/>
<path d="M706.703 309.2L706.51 309.322L704.218 310.705C700.543 312.892 696.815 314.957 693.035 316.935C688.433 319.385 683.76 321.695 679.035 323.935C674.31 326.175 669.62 328.345 664.825 330.41C660.03 332.475 655.2 334.487 650.248 336.22C654.71 333.455 659.278 330.97 663.88 328.502C668.483 326.035 673.19 323.742 677.88 321.502C682.57 319.262 687.33 317.057 692.125 314.992C695.94 313.347 699.825 311.737 703.745 310.285L706.475 309.287L706.703 309.2Z" fill="white"/>
<path d="M778.155 357.272C774.025 354.035 770.07 350.587 766.202 347.105C762.335 343.622 758.555 340.017 754.792 336.412C751.03 332.807 747.372 329.062 743.785 325.265C740.862 322.185 737.993 319.052 735.245 315.815L733.495 313.75L733.355 313.575L733.548 313.715C734.318 314.327 735.07 314.922 735.805 315.552C739.06 318.177 742.193 320.942 745.308 323.725C749.193 327.225 752.972 330.812 756.717 334.435C760.462 338.057 764.12 341.785 767.707 345.582C771.295 349.38 774.812 353.212 778.155 357.272Z" fill="white"/>
<path d="M274.61 750.252L331.082 743.27L310.852 579.75L239.4 588.587L274.61 750.252Z" fill="#FFA4BB"/>
<path d="M239.417 588.587L252.822 650.258L274.627 750.27L331.1 743.288L310.87 579.75L239.417 588.587Z" fill="#FFA4BB"/>
<path opacity="0.2" d="M239.417 588.587L252.822 650.258L274.627 750.27L331.1 743.288L310.87 579.75L239.417 588.587Z" fill="white"/>
<path opacity="0.1" d="M239.417 588.587L248.255 629.258L317.03 629.555L310.87 579.75L239.417 588.587Z" fill="black"/>
<path d="M235.419 614.433L324.325 603.438L315.972 535.895L227.066 546.89L235.419 614.433Z" fill="#FFA4BB"/>
<path opacity="0.2" d="M235.419 614.433L324.325 603.438L315.972 535.895L227.066 546.89L235.419 614.433Z" fill="black"/>
<path d="M164.482 529.595L234.395 527.95L220.885 418.663L152.67 434.098L164.482 529.595Z" fill="#FFA4BB"/>
<g opacity="0.2">
<path d="M164.482 529.595L234.395 527.95L220.885 418.663L152.67 434.098L164.482 529.595Z" fill="white"/>
</g>
<path d="M253.732 392.623L273.665 553.903L391.265 553.465L672.962 619.248L625.047 231.938L367.885 364.413L253.732 392.623Z" fill="#FFA4BB"/>
<path opacity="0.2" d="M253.732 392.623L273.665 553.903L391.265 553.465L672.962 619.248L625.047 231.938L367.885 364.413L253.732 392.623Z" fill="white"/>
<path opacity="0.1" d="M672.962 619.282L391.282 553.5L273.682 553.955L268.555 512.532C303.327 515.875 394.555 524.59 396.427 525.22L672.962 619.282Z" fill="black"/>
<path d="M679.356 619.448C713.906 615.175 731.139 524.576 717.846 417.089C704.553 309.602 665.768 225.931 631.218 230.204C596.668 234.476 579.436 325.076 592.729 432.563C606.022 540.049 644.806 623.721 679.356 619.448Z" fill="#FFA4BB"/>
<path opacity="0.2" d="M606.883 427.5C618.695 522.927 651.193 597.442 679.473 593.942C707.753 590.442 721.122 510.258 709.327 414.83C697.532 319.403 665 244.818 636.738 248.3C608.475 251.783 595.088 332.003 606.883 427.5Z" fill="black"/>
<path d="M615.23 426.397C616.805 439.102 618.73 451.422 621.022 463.235C627.26 467.145 634.48 469.205 641.842 469.177C649.204 469.149 656.407 467.033 662.615 463.075C668.823 459.117 673.781 453.48 676.913 446.817C680.046 440.155 681.224 432.74 680.312 425.435L678.055 407.165C677.175 399.877 674.25 392.986 669.62 387.289C664.989 381.593 658.841 377.323 651.886 374.973C644.931 372.623 637.453 372.289 630.316 374.009C623.179 375.729 616.675 379.434 611.555 384.695C612.237 398.117 613.462 412.1 615.23 426.397Z" fill="#FFA4BB"/>
<path opacity="0.2" d="M615.23 426.397C616.805 439.102 618.73 451.422 621.022 463.235C627.26 467.145 634.48 469.205 641.842 469.177C649.204 469.149 656.407 467.033 662.615 463.075C668.823 459.117 673.781 453.48 676.913 446.817C680.046 440.155 681.224 432.74 680.312 425.435L678.055 407.165C677.175 399.877 674.25 392.986 669.62 387.289C664.989 381.593 658.841 377.323 651.886 374.973C644.931 372.623 637.453 372.289 630.316 374.009C623.179 375.729 616.675 379.434 611.555 384.695C612.237 398.117 613.462 412.1 615.23 426.397Z" fill="white"/>
<path d="M212.275 570.58L347.48 567.395L321.335 356.047L189.438 385.92L212.275 570.58Z" fill="#FFA4BB"/>
<g opacity="0.1">
<path d="M212.275 570.58L347.48 567.395L321.335 356.047L189.438 385.92L212.275 570.58Z" fill="black"/>
</g>
<path opacity="0.2" d="M611.852 245.5C602.717 258.713 598.08 274.445 594.247 289.932C590.745 305.59 588.493 321.501 587.51 337.515C586.792 345.513 586.792 353.527 586.512 361.542C586.687 369.557 586.617 377.572 586.967 385.57C587.317 393.567 587.667 401.583 588.402 409.562C589.137 417.542 589.75 425.523 590.66 433.485C594.527 465.248 600.18 496.94 609.77 527.583C614.489 542.928 620.556 557.826 627.9 572.103C635.635 586.103 644.56 599.945 657.475 609.57C645.225 599.175 636.895 585.245 629.912 571.07C623.039 556.74 617.429 541.838 613.147 526.532C604.509 495.9 598.513 464.582 595.227 432.925C591.482 401.425 589.452 369.453 591.01 337.708C591.583 321.84 593.397 306.042 596.435 290.458C599.497 274.935 603.61 259.29 611.852 245.5Z" fill="black"/>
<path d="M449.995 241.055C446.233 261.618 419.318 266.045 415.205 261.635C398.51 243.803 380.783 209.135 361.585 170.425C346.57 140.185 356.23 139.223 369.285 147.29C399.648 166.068 452.025 230.013 449.995 241.055Z" fill="#FFA4BB"/>
<path opacity="0.1" d="M449.995 241.073C446.233 261.618 419.335 266.045 415.205 261.635C398.51 243.803 380.8 209.135 361.585 170.425C354.323 155.778 352.538 146.608 355.39 143.895L449.61 236.978C450.036 238.298 450.168 239.696 449.995 241.073Z" fill="black"/>
<path d="M404.25 242.088C400.54 229.033 411.442 209.38 436.73 161.92C440.23 155.34 493.185 172.91 489.807 180.12C485.555 189.185 463.382 223.223 459.042 227.86C437.85 250.54 406.787 250.925 404.25 242.088Z" fill="#EB9481"/>
<path d="M470.12 197.917C470.12 197.917 488.915 190.707 500.972 185.422C507.692 182.465 518.787 176.375 522.742 171.947C528.657 165.315 549.15 133.832 541.607 128.705C534.8 124.05 520.607 153.345 520.607 153.345C520.607 153.345 537.53 125.047 528.29 120.97C519.05 116.892 507.5 152.102 507.5 152.102C507.5 152.102 524.23 122.65 514.027 119.937C506.31 117.89 493.99 149.25 493.99 149.25C493.99 149.25 508.182 123.84 500.36 121.39C491.715 118.677 478.537 146.87 478.537 146.87C457.537 144 441.402 153.87 435.575 164.142C434.455 166.102 470.12 197.917 470.12 197.917Z" fill="#EB9481"/>
<path d="M516.25 162.147C530.25 142.25 531.09 128.197 531.002 128.565C528.71 137.315 522.427 149.565 520.607 153.065C518.787 156.565 517.93 158.63 516.127 162.06C515.987 162.165 516.11 162.217 516.25 162.147Z" fill="#263238"/>
<path d="M502.915 157.195C508.957 149.401 513.567 140.596 516.53 131.19C516.53 130.822 516.442 130.875 516.267 131.19C514.08 135.6 505.19 152.802 502.81 157.107C502.775 157.212 502.862 157.247 502.915 157.195Z" fill="#263238"/>
<path d="M491.207 153.695C495.77 147.561 499.147 140.629 501.165 133.255C501.27 132.905 500.99 132.993 500.832 133.255C497.665 140.098 495.215 145.505 490.997 153.468C490.927 153.678 491.12 153.835 491.207 153.695Z" fill="#263238"/>
<path d="M478.31 205.6L422.047 178.615C422.047 178.615 395.5 232.585 401.66 244.502C404.425 249.752 414.085 263.665 424.935 264.032C449.872 264.89 478.31 205.6 478.31 205.6Z" fill="#FFA4BB"/>
<path d="M418.793 192.65C425.023 195.922 431.393 198.862 437.78 201.785C444.168 204.707 450.573 207.647 457.03 210.412C460.688 211.97 464.328 213.562 468.038 214.997C468.143 214.997 468.213 214.875 468.125 214.822C461.913 211.55 455.525 208.575 449.173 205.617C442.82 202.66 436.38 199.755 429.923 196.867C426.283 195.275 422.625 193.735 418.915 192.3C418.775 192.265 418.618 192.545 418.793 192.65Z" fill="#263238"/>
<path d="M422.747 178.528C422.205 178.143 421.417 177.67 421.347 177.81C419.597 181.31 418.075 185.213 416.622 188.853C415.17 192.493 413.84 196.063 412.545 199.703C411.845 201.663 411.18 203.64 410.585 205.618C408.92 207.859 407.691 210.394 406.962 213.09C406.962 213.23 407.155 213.3 407.19 213.09C407.936 210.711 409.002 208.445 410.357 206.353C408.837 211.195 408.058 216.24 408.047 221.315C408.047 213.738 411.355 206.405 413.875 199.405C415.135 195.905 416.482 192.405 417.83 188.905C419.177 185.405 420.682 182.01 421.995 178.528L422.73 178.878C422.905 179 422.852 178.615 422.747 178.528Z" fill="#263238"/>
<path d="M360.71 145.645C371.21 152.033 389.9 180.085 398.877 213.388C401.142 222.712 402.935 232.145 404.25 241.65C409.5 276.44 416.5 315.448 417.217 328.433C418.11 345.74 387.94 375.788 373.1 372.043C358.26 368.298 333.83 374.72 359.835 276.073C366.66 250.155 374.272 193.333 365.645 162.148C364.281 156.567 362.633 151.059 360.71 145.645Z" fill="#FFA4BB"/>
<path d="M515.235 573.94C510.388 572.908 394.38 504.605 391.598 499.198C390.53 497.15 399.508 479.685 410.848 458.948C413.315 454.45 415.888 449.83 418.53 445.14C435.645 414.725 454.528 382.84 454.528 382.84L532.262 428.34L494.13 489.398L485.853 502.75C485.853 502.75 518.578 548.775 520.975 555.023C523.373 561.27 520.1 574.973 515.235 573.94Z" fill="#EB9481"/>
<path d="M515.235 573.94C510.388 572.907 394.38 504.605 391.598 499.197C390.67 497.447 397.53 483.605 406.998 466.087C411.513 472.982 478.87 531.257 501.2 536.822C510.318 539.097 496.178 517.432 495.583 516.505C505.418 530.592 519.4 550.91 520.94 554.917C523.373 561.2 520.1 574.972 515.235 573.94Z" fill="#263238"/>
<path d="M496.895 518.307C496.895 518.307 486.762 509.347 467.302 517.205Z" fill="#263238"/>
<path d="M583.678 332.002C576.38 368.227 500.71 489.17 500.71 489.17L417.743 438.997L473.498 352.127C473.498 352.127 359.748 365.777 316.488 347.56C270.218 328.117 276.955 272.695 276.955 272.695L389.568 259.307C389.568 259.307 392.56 269.895 405.213 268.932C448.823 265.537 508.305 267.182 531.213 269.667C560.753 272.887 590.38 298.77 583.678 332.002Z" fill="#37474F"/>
<path d="M499.24 321.782C496.616 324.369 494.155 327.116 491.872 330.007C489.352 332.895 486.797 335.747 484.26 338.635V338.722L485.677 336.132C487.427 333.192 488.74 330.147 490.665 327.382C490.77 327.207 490.525 327.015 490.402 327.19C488.425 329.937 486.185 332.44 484.452 335.45C483.647 336.832 482.86 338.232 482.142 339.65C481.74 340.42 481.32 341.207 480.952 341.995C480.795 342.362 480.585 342.747 480.462 343.132C479.325 344.48 478.205 345.827 477.102 347.21C474.687 350.255 472.5 353.51 470.102 356.537C469.962 356.695 470.225 356.87 470.365 356.712C472.832 353.877 475.615 351.27 478.065 348.47C480.515 345.67 483.035 342.66 485.45 339.72C487.865 336.78 490.087 333.875 492.45 330.97C495.002 328.128 497.375 325.13 499.555 321.992C499.467 321.835 499.345 321.695 499.24 321.782Z" fill="#263238"/>
<path d="M506.047 469.693C503.877 468.048 501.567 466.543 499.31 465.02C497.052 463.498 494.847 461.993 492.59 460.505C488.005 457.46 483.35 454.485 478.695 451.51C469.367 445.525 459.97 439.663 450.555 433.8C445.305 430.51 439.95 427.325 434.647 424.07C434.56 424.07 434.42 424.175 434.525 424.228C443.531 430.423 452.596 436.542 461.72 442.585C470.843 448.628 480.176 454.59 489.72 460.47C492.345 462.08 494.987 463.667 497.647 465.23C500.342 466.805 503.037 468.485 505.82 469.903C505.995 469.973 506.152 469.78 506.047 469.693Z" fill="#263238"/>
<path d="M292.442 276.177C291.317 290.922 295.868 305.54 305.165 317.04C309.85 322.629 315.572 327.259 322.017 330.672C328.516 333.982 335.497 336.244 342.702 337.375C357.125 339.819 371.719 341.112 386.347 341.243C400.989 341.499 415.619 341.062 430.237 339.93C444.839 338.957 459.364 337.058 473.725 334.243C477.225 333.49 480.865 332.667 484.365 331.687C486.115 331.18 487.865 330.655 489.615 330.077C491.35 329.363 493.157 328.835 495.005 328.502C496.007 328.341 497.032 328.388 498.015 328.642C498.568 328.798 499.072 329.094 499.477 329.502C499.881 329.91 500.174 330.415 500.325 330.97C500.461 331.477 500.52 332.002 500.5 332.527C500.471 333.059 500.346 333.58 500.132 334.067C499.782 334.977 499.38 335.817 498.96 336.64C497.21 339.912 495.372 343.08 493.5 346.23C478.24 371.307 461.895 395.667 445.515 419.992C453.506 407.696 461.428 395.358 469.28 382.98C477.137 370.607 485.03 358.218 492.45 345.618C494.287 342.45 496.125 339.283 497.7 336.045C498.102 335.223 498.505 334.417 498.82 333.595C498.972 333.246 499.061 332.873 499.082 332.493C499.106 332.103 499.065 331.713 498.96 331.337C498.627 329.867 496.79 329.587 495.11 329.85C493.352 330.184 491.633 330.701 489.982 331.39C488.232 331.985 486.482 332.527 484.732 333.035C481.232 334.032 477.592 334.785 474.005 335.642C459.561 338.525 444.948 340.483 430.255 341.505C415.613 342.567 400.936 342.952 386.225 342.66C371.517 342.516 356.847 341.141 342.37 338.547C335.195 337.042 327.897 335.257 321.37 331.547C314.852 328.033 309.086 323.277 304.395 317.547C299.843 311.755 296.498 305.108 294.56 298C292.512 290.919 291.794 283.52 292.442 276.177Z" fill="#263238"/>
<path d="M407.75 582.06C403.218 580.048 303.975 489.083 302.383 483.22C301.77 480.998 314.16 465.72 329.683 447.8C333.025 443.915 336.508 439.925 340.078 435.9C363.143 409.65 388.255 382.455 388.255 382.455L454.755 443.11L404.775 494.893L393.75 506.25C393.75 506.25 416.168 558.068 417.218 564.683C418.268 571.298 412.248 584.073 407.75 582.06Z" fill="#EB9481"/>
<path d="M407.75 582.06C403.235 580.048 303.992 489.083 302.4 483.22C301.857 481.26 311.43 469.22 324.345 454.03C327.32 461.713 381.062 532.78 401.73 542.825C410.2 546.955 400.872 522.823 400.47 521.825C407.155 537.575 416.605 560.448 417.27 564.683C418.25 571.298 412.247 584.09 407.75 582.06Z" fill="#263238"/>
<path d="M401.345 523.75C401.345 523.75 393.312 512.882 372.627 516.522Z" fill="#263238"/>
<path d="M533.12 340.455C525.822 376.68 428.592 476.08 417.357 487.455L414.75 490.08L344.12 427.762L345.065 426.712L398.632 367.737C398.632 367.737 316.137 395.737 280.805 344.672C266.805 324.39 276.902 272.695 276.902 272.695L367.377 262.317C367.377 262.317 368.917 277.805 381.57 276.825C425.197 273.43 459.48 270.21 482.387 272.695C511.98 275.915 539.822 307.222 533.12 340.455Z" fill="#37474F"/>
<path d="M384.09 276.632C412.09 273.955 440.265 271.627 468.51 271.662C472.01 271.662 475.51 271.785 479.115 272.012C482.673 272.178 486.213 272.623 489.702 273.343C491.443 273.791 493.146 274.376 494.795 275.093C496.44 275.775 498.067 276.493 499.66 277.298C502.849 278.879 505.914 280.699 508.83 282.74C514.722 286.781 519.907 291.765 524.177 297.493C528.453 303.245 531.545 309.788 533.277 316.743C534.124 320.22 534.634 323.772 534.8 327.348C534.8 328.24 534.8 329.098 534.8 330.025C534.8 330.953 534.8 331.775 534.8 332.72C534.646 334.487 534.371 336.241 533.977 337.97C532.195 344.861 529.536 351.495 526.067 357.71C519.217 370.081 511.381 381.879 502.635 392.99C494.025 404.172 484.942 414.97 475.615 425.54C466.287 436.11 456.592 446.365 446.81 456.515C456.4 446.19 465.867 435.742 475.037 425.015C484.207 414.287 493.202 403.49 501.672 392.238C510.269 381.107 518.004 369.336 524.807 357.027C528.196 350.915 530.784 344.393 532.507 337.62C532.885 335.937 533.142 334.229 533.277 332.51C533.375 330.761 533.375 329.009 533.277 327.26C533.11 323.789 532.606 320.343 531.772 316.97C530.123 310.206 527.149 303.835 523.022 298.228C518.875 292.61 513.825 287.719 508.077 283.755C505.222 281.744 502.222 279.948 499.1 278.382C497.542 277.595 495.967 276.878 494.34 276.213C492.762 275.499 491.129 274.914 489.457 274.463C486.043 273.751 482.58 273.295 479.097 273.098C475.597 272.853 472.097 272.73 468.597 272.66C454.597 272.433 440.44 272.993 426.37 273.693C412.3 274.393 398.125 275.495 384.09 276.632Z" fill="#263238"/>
<path d="M427.805 332.843C425.183 335.419 422.728 338.16 420.455 341.05C417.918 343.938 415.363 346.79 412.843 349.678V349.765C413.315 348.908 413.77 348.015 414.26 347.175C415.923 344.253 417.305 341.208 419.23 338.425C419.256 338.39 419.266 338.347 419.26 338.304C419.253 338.261 419.23 338.223 419.195 338.198C419.16 338.172 419.117 338.161 419.074 338.168C419.031 338.174 418.993 338.198 418.968 338.233C417.008 340.998 414.75 343.588 413.018 346.51C412.213 347.875 411.443 349.275 410.708 350.693C410.305 351.48 409.903 352.25 409.535 353.038C409.345 353.413 409.176 353.799 409.028 354.193C407.89 355.523 406.77 356.888 405.685 358.253C403.253 361.298 401.065 364.553 398.685 367.58C398.563 367.738 398.825 367.913 398.948 367.755C401.415 364.938 404.198 362.33 406.648 359.513C409.098 356.695 411.635 353.703 414.033 350.763C416.43 347.823 418.688 344.935 421.033 342.013C423.575 339.161 425.942 336.157 428.12 333.018C428.05 332.895 427.91 332.738 427.805 332.843Z" fill="#263238"/>
<path d="M423.832 473.665C421.977 471.67 419.93 469.798 417.97 467.908C416.01 466.018 414.085 464.18 412.107 462.343C408.1 458.563 404.005 454.853 399.857 451.125C391.685 443.67 383.39 436.303 375.095 428.935C370.457 424.805 365.732 420.763 361.095 416.685C361.007 416.685 360.85 416.685 360.937 416.825C368.777 424.443 376.687 431.998 384.667 439.488C392.647 446.978 400.861 454.433 409.307 461.853C411.617 463.883 413.962 465.878 416.307 467.873C418.652 469.868 421.067 471.985 423.57 473.858C423.745 473.928 423.92 473.77 423.832 473.665Z" fill="#263238"/>
<path d="M289.222 277.682C287.592 285.593 287.004 293.682 287.472 301.745C287.87 309.79 289.77 317.69 293.072 325.037C296.458 332.323 301.832 338.505 308.577 342.87C315.413 347.045 323.121 349.584 331.1 350.29C339.123 351.154 347.212 351.225 355.25 350.5C363.277 349.837 371.262 348.744 379.172 347.227C395.016 344.263 410.635 340.199 425.915 335.065L426.492 334.872L426.755 335.38C427.716 337.319 428.31 339.419 428.505 341.575C428.71 343.694 428.58 345.832 428.12 347.91C427.656 349.981 426.921 351.982 425.932 353.86C424.884 355.653 423.715 357.372 422.432 359.005C417.287 365.462 411.757 371.57 406.227 377.66C400.697 383.75 395.027 389.735 389.34 395.65C383.652 401.565 377.912 407.497 372.137 413.36C377.784 407.375 383.39 401.355 388.955 395.3C394.502 389.227 400.05 383.155 405.527 377.03C411.005 370.905 416.43 364.78 421.452 358.252C422.704 356.665 423.845 354.993 424.865 353.247C425.773 351.467 426.455 349.58 426.895 347.63C427.773 343.75 427.343 339.689 425.67 336.08L426.51 336.377C411.106 341.608 395.352 345.742 379.365 348.75C371.39 350.253 363.34 351.328 355.25 351.97C347.145 352.661 338.992 352.556 330.907 351.655C322.763 350.895 314.914 348.22 308 343.85C301.111 339.315 295.65 332.919 292.25 325.405C288.989 317.943 287.207 309.92 287 301.78C286.677 293.685 287.424 285.582 289.222 277.682Z" fill="#263238"/>
<path d="M328.002 276.545C327.18 280.797 326.095 285.015 324.905 289.18C324.05 292.971 322.469 296.56 320.25 299.75C317.866 302.548 314.873 304.763 311.5 306.225C309.566 307.138 307.579 307.933 305.55 308.605C303.461 309.191 301.419 309.934 299.442 310.827C299.363 310.87 299.3 310.937 299.262 311.018C299.223 311.1 299.212 311.191 299.23 311.279C299.247 311.368 299.293 311.448 299.359 311.508C299.426 311.569 299.51 311.606 299.6 311.615C301.893 311.581 304.174 311.263 306.39 310.67C308.55 310.187 310.669 309.531 312.725 308.71C316.466 307.191 319.756 304.739 322.28 301.587C324.669 298.143 326.259 294.209 326.935 290.072C327.925 285.634 328.482 281.109 328.597 276.562C328.6 276.484 328.57 276.407 328.516 276.35C328.462 276.292 328.387 276.259 328.308 276.256C328.23 276.254 328.153 276.283 328.096 276.337C328.038 276.391 328.005 276.466 328.002 276.545Z" fill="#263238"/>
<path d="M275.257 275.95L394.45 271.75L385.7 227.125C385.7 227.125 395.57 214.227 393.137 200.7C390.46 185.895 362.32 149.11 359.887 147.062C350.525 138.855 342.09 135.81 334.25 141.585C307.002 161.745 275.257 275.95 275.257 275.95Z" fill="#FFA4BB"/>
<path d="M369.723 222.628C364.402 223.297 359.138 224.355 353.973 225.795C351.435 226.548 348.933 227.423 346.43 228.35C345.188 228.805 343.928 229.225 342.668 229.628C341.362 230.096 340.005 230.401 338.625 230.538C338.503 230.538 338.503 230.73 338.625 230.73C339.935 230.757 341.245 230.686 342.545 230.52C343.806 230.327 345.051 230.047 346.273 229.68C348.863 228.945 351.435 228.088 354.025 227.318C359.275 225.778 364.525 224.238 369.775 223.065C370.055 223.013 369.968 222.593 369.723 222.628Z" fill="#263238"/>
<path d="M383.057 226.898C378.648 226.585 374.225 226.527 369.81 226.723C367.605 226.828 365.417 227.055 363.23 227.353C362.18 227.493 361.13 227.65 360.097 227.825C359.065 228 357.822 228.35 356.597 228.525C356.475 228.525 356.475 228.735 356.597 228.718C357.682 228.578 358.802 228.718 359.905 228.578L363.195 228.368L369.792 227.983C374.202 227.668 378.542 227.405 383.005 227.265C383.25 227.248 383.25 226.915 383.057 226.898Z" fill="#263238"/>
<path d="M318.885 157.597C289.397 194.452 255.745 268.688 265.335 281.848C276.027 296.495 317.047 244.87 316.54 242.192C316.155 240.162 327.39 196.15 336.087 164.072C344.785 131.995 326.182 148.497 318.885 157.597Z" fill="#EB9481"/>
<path d="M316.855 242.192C317.73 237.52 333.252 179.385 337.487 161.08C341.285 144.665 337.487 138.54 325.237 149.88C302.487 170.74 260.085 231.587 254.45 261.162C249.042 289.67 272.807 289.162 290.5 274.305C304.902 262.107 316.855 242.192 316.855 242.192Z" fill="#FFA4BB"/>
<path d="M314.877 249.7C319.637 227.72 325.243 205.938 331.695 184.355C326.958 206.347 321.352 228.128 314.877 249.7Z" fill="#263238"/>
<path d="M328.667 197.06C329.262 194.099 330.647 191.353 332.675 189.115C332.276 192.14 330.863 194.941 328.667 197.06Z" fill="#263238"/>
<path d="M501.06 268.46H379.295V274.305H501.06V268.46Z" fill="#455A64"/>
<path d="M436.31 268.46H379.295V274.305H436.31V268.46Z" fill="#A6A6A6"/>
<path d="M433.877 274.305H560.927L578.882 188.012H451.832L433.877 274.305Z" fill="#A6A6A6"/>
<path d="M439.635 274.305H566.685L584.64 188.012H457.59L439.635 274.305Z" fill="#C7C7C7"/>
<path d="M503.667 233.075C503.523 234.146 503.612 235.235 503.929 236.267C504.246 237.3 504.783 238.252 505.503 239.057C506.224 239.862 507.11 240.501 508.101 240.931C509.092 241.36 510.165 241.57 511.245 241.545C513.564 241.499 515.788 240.616 517.509 239.06C519.229 237.503 520.329 235.378 520.607 233.075C520.749 232.005 520.657 230.917 520.339 229.886C520.021 228.854 519.484 227.904 518.764 227.1C518.044 226.295 517.159 225.656 516.17 225.225C515.18 224.795 514.109 224.583 513.03 224.605C510.712 224.655 508.489 225.539 506.77 227.095C505.05 228.65 503.949 230.773 503.667 233.075Z" fill="#EBEBEB"/>
<path d="M265.387 279.17C276.342 286.537 296.292 281.042 347.812 271.907C354.935 270.647 359.555 217.937 351.872 218.9C342.195 220.107 304.902 226.88 302.242 227.65C279.772 234.807 257.95 274.182 265.387 279.17Z" fill="#EB9481"/>
<path d="M344.365 222.435C344.365 222.435 362.302 212.46 373.345 210.185C384.885 208.05 396.772 208.759 407.977 212.25C420.087 215.96 446.81 233.25 443.17 241.877C439.845 249.63 413.42 230.52 413.42 230.52C413.42 230.52 443.572 245.57 437.92 254.163C432.267 262.755 402.815 238.85 402.815 238.85C402.815 238.85 433.457 255.003 426.16 262.948C420.665 268.95 392.805 248.772 392.805 248.772C392.805 248.772 419.055 262.773 413.647 269.248C407.697 276.353 380.817 259.325 380.817 259.325C364.35 273.325 350.787 273.325 341.145 272.083C338.782 271.75 344.365 222.435 344.365 222.435Z" fill="#EB9481"/>
<path d="M403.34 224.587C406.945 226.215 410.603 227.86 414.05 229.837C417.498 231.815 420.893 233.862 424.13 236.137C428.437 239.018 432.401 242.382 435.943 246.165C429.17 239.9 416.938 232.725 413.49 230.765C410.043 228.805 406.7 226.687 403.27 224.745L403.34 224.587Z" fill="#263238"/>
<path d="M396.06 236.908C400.575 239.2 405.142 241.3 409.552 243.785C413.962 246.27 417.9 249.035 422.1 251.783C422.432 251.993 422.205 252.098 421.872 251.905C417.55 249.298 413.367 247.215 409.01 244.66C404.652 242.105 400.417 239.41 395.99 236.995C395.92 236.96 395.99 236.873 396.06 236.908Z" fill="#263238"/>
<path d="M387.905 246.357C394.918 249.702 401.568 253.76 407.75 258.467C408.065 258.695 407.75 258.8 407.435 258.59C400.908 254.425 395.832 251.135 387.817 246.602C387.677 246.532 387.765 246.287 387.905 246.357Z" fill="#263238"/>
<path d="M341.408 214.998L320.25 288.725C320.25 288.725 267.523 289.653 259 280.675C252.91 274.253 276.675 236.313 301.315 227.668L341.408 214.998Z" fill="#FFA4BB"/>
<path d="M275.853 248.177C278.163 243.575 287.105 232.83 301.28 227.615C301.403 227.615 301.508 227.755 301.385 227.825C291.2 232.725 278.635 244.047 276.028 248.282C275.958 248.405 275.783 248.282 275.853 248.177Z" fill="#263238"/>
<path d="M309.75 278.348C311.237 271.085 313.11 263.91 315 256.735C316.89 249.56 318.762 242.368 320.827 235.245C322 231.22 323.137 227.178 324.45 223.188C324.45 223.083 324.66 223.188 324.642 223.188C323.172 230.45 321.317 237.643 319.392 244.818C317.467 251.993 315.647 259.185 313.652 266.343C312.532 270.385 311.342 274.41 310.03 278.383C309.96 278.628 309.627 278.558 309.75 278.348Z" fill="#263238"/>
<path d="M341.25 214.385C338.416 214.917 335.621 215.642 332.885 216.555C330.12 217.383 327.367 218.253 324.625 219.163C319.165 220.913 307.405 224.133 298.113 228.963C298.008 228.963 298.795 229.243 298.883 229.19C303.188 226.67 338.205 216.573 340.883 215.418C340.865 215.639 340.865 215.861 340.883 216.083C340.883 216.24 341.11 216.345 341.198 216.188C341.285 216.03 341.513 215.4 341.688 214.998C341.725 214.929 341.741 214.851 341.736 214.772C341.731 214.694 341.704 214.619 341.659 214.556C341.613 214.492 341.551 214.442 341.479 214.412C341.407 214.382 341.327 214.373 341.25 214.385Z" fill="#263238"/>
<path d="M324.03 276.23C322.945 280.57 321.772 284.875 320.53 289.162C316.295 289.162 312.06 289.162 307.842 289.022C295.592 288.62 283.08 288.077 270.987 285.522C284.882 287.167 305.987 287.64 320.197 288.305L319.76 288.62C321.125 284.467 322.542 280.342 324.012 276.247L324.03 276.23Z" fill="#263238"/>
<path d="M336.84 148.305C337.487 150.51 348.88 164.527 359.082 163.53C362.39 163.215 361.427 144.98 361.427 144.98L361.655 143.615L364.927 124.54L342.09 111.432L338.8 109.682C338.8 109.682 338.257 114.932 337.627 121.547C337.627 121.845 337.627 122.142 337.54 122.475C337.452 122.807 337.54 123.192 337.417 123.542C337.312 124.522 337.207 125.537 337.137 126.535C337.067 127.532 336.997 128.04 336.962 128.827C336.927 129.615 336.857 130.42 336.787 131.225C336.425 136.913 336.443 142.619 336.84 148.305Z" fill="#EB9481"/>
<path d="M337.627 121.565C339.792 126.764 343.063 131.429 347.212 135.237C351.361 139.045 356.29 141.904 361.655 143.615L364.927 124.54L342.09 111.432L338.8 109.682C338.8 109.682 338.257 114.985 337.627 121.565Z" fill="#263238"/>
<path d="M333.375 109.332C325.64 109.052 307.528 117.837 302.943 128.915C298.358 139.992 301.84 155.935 305.41 156.915C308.98 157.895 322.91 154.08 331.66 146.94C340.41 139.8 337.173 109.472 333.375 109.332Z" fill="#263238"/>
<path d="M333.392 109.367C333.637 109.262 333.585 108.86 333.392 108.895C326.865 109.927 320.302 113.392 314.44 116.315C309.697 118.66 304.885 121.302 301.472 125.45C299.822 127.411 298.616 129.705 297.936 132.176C297.257 134.647 297.12 137.236 297.535 139.765C298.375 145.54 300.475 152.312 304.202 156.88C304.325 157.002 304.605 156.88 304.5 156.722C299.53 146.45 294.49 133.71 303.905 124.365C311.797 116.42 323.347 113.55 333.392 109.367Z" fill="#263238"/>
<path d="M305.97 153.87C299.635 155.9 284.97 171.37 284.462 184.215C283.955 197.06 297.237 213.492 300.667 214.227C304.097 214.962 316.277 200.507 319.357 190.952C321.422 184.582 317.712 178.265 315.07 171.702C311.15 162.217 306.967 153.555 305.97 153.87Z" fill="#263238"/>
<path d="M322.962 188.695C322.595 175.762 313.197 164.615 306.827 154.027C306.827 153.922 306.565 154.027 306.617 154.132C310.992 164.632 319.34 173.19 321.615 184.565C322.945 191.302 321.807 198.372 316.995 203.552C312.83 208.032 307.055 210.78 301.822 213.79C301.472 214 301.822 214.49 302.155 214.315C312.655 208.61 323.347 202.047 322.962 188.695Z" fill="#263238"/>
<path d="M304.78 155.288C305.077 155.078 304.78 154.605 304.465 154.815C296.03 160.87 286.09 169.288 282.852 179.543C279.352 190.655 286.667 200.28 293.107 208.558C293.107 208.663 293.352 208.558 293.265 208.435C286.877 200.018 279.807 189.413 284.095 178.423C287.77 168.973 296.87 161.168 304.78 155.288Z" fill="#263238"/>
<path d="M301.35 213.755C305.952 215.61 313.075 222.505 315.35 231.167C319.305 246.007 324.695 242.507 341.6 244.94C355.845 246.987 360.29 262.282 353.605 270.682C353.605 270.682 356.982 260.672 347.165 256.857C335.422 252.307 310.922 266.535 296.625 251.922C278.092 233.022 301.35 213.755 301.35 213.755Z" fill="#263238"/>
<path d="M308 220.16C307.807 219.967 308.122 219.617 308.332 219.81C310.404 221.523 312.147 223.599 313.477 225.935C315.227 228.98 315.595 232.427 317.082 235.56C320.88 243.557 330.82 242.315 338.082 242.122C347.847 241.895 356.212 247.075 357.787 257.225C357.778 257.248 357.763 257.267 357.742 257.281C357.722 257.295 357.698 257.302 357.674 257.302C357.649 257.302 357.625 257.295 357.605 257.281C357.585 257.267 357.569 257.248 357.56 257.225C357.044 254.095 355.683 251.165 353.622 248.753C351.562 246.341 348.881 244.538 345.87 243.54C339.972 241.79 333.62 243.54 327.67 242.717C323.54 242.122 319.375 240.792 317.17 237.047C316.11 234.896 315.283 232.637 314.702 230.31C313.369 226.411 311.062 222.917 308 220.16Z" fill="#263238"/>
<path d="M298.97 215.837C298.97 215.75 299.198 215.837 299.128 215.96C294.14 221.927 288.838 227.93 288.015 236.015C287.14 244.765 292.355 252.85 299.565 257.365C307.633 262.422 315.42 258.887 323.663 256.437C329.613 254.687 335.738 253.375 341.898 254.88C342.09 254.88 342.02 255.23 341.898 255.212C332.08 253.9 323.575 257.592 314.283 260.025C306.705 262.002 300.388 259.902 294.858 254.39C282.608 242.245 287.858 226.547 298.97 215.837Z" fill="#263238"/>
<path d="M326.427 103.575C323.89 101.335 320.46 105.325 323.015 107.565C325.57 109.805 329 105.815 326.427 103.575Z" fill="#FFA4BB"/>
<path d="M329.245 107.582C326.708 105.342 323.278 109.332 325.745 111.572C328.213 113.812 331.783 109.822 329.245 107.582Z" fill="#FFA4BB"/>
<path d="M332.727 111.082C330.19 108.842 326.76 112.832 329.227 115.072C329.757 115.536 330.448 115.771 331.151 115.725C331.853 115.68 332.508 115.356 332.972 114.827C333.437 114.298 333.672 113.606 333.626 112.904C333.58 112.202 333.257 111.546 332.727 111.082Z" fill="#FFA4BB"/>
<path d="M336.542 114.005C334.005 111.765 330.575 115.755 333.042 117.995C335.51 120.235 339.097 116.262 336.542 114.005Z" fill="#FFA4BB"/>
<path d="M340.9 116.28C338.362 114.04 334.932 118.03 337.4 120.287C339.867 122.545 343.455 118.537 340.9 116.28Z" fill="#FFA4BB"/>
<path d="M345.415 117.75C342.878 115.51 339.448 119.5 342.003 121.74C344.558 123.98 347.97 119.938 345.415 117.75Z" fill="#FFA4BB"/>
<path d="M386.942 90.1525C395.132 123.123 376.337 131.75 369.25 133.5C362.81 135.093 340.655 139.73 329.105 107.793C317.555 75.855 330.277 61.61 344.855 57.1825C359.432 52.755 378.752 57.2 386.942 90.1525Z" fill="#EB9481"/>
<path d="M333.375 110.575C340.217 108.492 335.947 92.69 335.947 92.69C335.947 92.69 346.92 87.1425 349.422 77.8675C349.422 77.8675 348.197 85.62 344.47 89.75C343.84 90.45 366.695 81.21 363.72 62.5025C363.72 62.5025 372.365 79.32 384.177 79.845C384.737 79.845 378.35 66.8425 372.697 62.625C370.254 60.6496 367.643 58.8928 364.892 57.375C356.248 54.1667 346.69 54.481 338.275 58.25C324.415 64.585 319.375 82.54 320.092 89.1025C321.51 102 330.137 111.572 333.375 110.575Z" fill="#263238"/>
<path d="M345.327 89.925C358.015 85.62 365.837 74.4375 363.09 60.9975C363.09 60.665 363.527 60.525 363.667 60.8225C369.285 73.6325 357.735 87.5975 345.292 90.1875C344.977 90.2575 345.03 90.03 345.327 89.925Z" fill="#263238"/>
<path d="M333.2 109.84C339.115 104.24 338.188 96.9249 336.7 89.6624C336.7 89.4524 337.015 89.3299 337.085 89.5574C339.22 96.5574 340.428 105.307 333.69 110.347C333.623 110.412 333.532 110.448 333.439 110.446C333.345 110.445 333.256 110.406 333.191 110.339C333.126 110.271 333.091 110.181 333.092 110.088C333.094 109.994 333.133 109.905 333.2 109.84Z" fill="#263238"/>
<path d="M363.002 59.7549C363.002 59.7549 363.002 59.6499 363.125 59.7549C366.835 66.6499 370.772 79.0049 380.73 78.0949C380.773 78.1078 380.811 78.1344 380.838 78.1707C380.865 78.2069 380.88 78.2509 380.88 78.2962C380.88 78.3414 380.865 78.3854 380.838 78.4217C380.811 78.4579 380.773 78.4845 380.73 78.4974C371.297 80.1774 364.21 67.6649 363.002 59.7549Z" fill="#263238"/>
<path d="M377.16 86.25C376.355 86.25 375.62 86.25 374.832 86.25C374.009 86.3705 373.168 86.2232 372.435 85.8301C372.234 85.6571 372.095 85.4237 372.038 85.165C371.981 84.9063 372.01 84.6361 372.12 84.3951C372.414 83.9546 372.821 83.6007 373.298 83.37C373.774 83.1392 374.304 83.04 374.832 83.0826C375.919 82.9996 376.998 83.324 377.86 83.9925C378.047 84.1576 378.183 84.3735 378.251 84.6139C378.318 84.8544 378.315 85.1094 378.241 85.348C378.167 85.5866 378.025 85.7987 377.834 85.9588C377.642 86.1188 377.408 86.22 377.16 86.25Z" fill="#263238"/>
<path d="M354.568 91.3249C355.295 91.04 356.008 90.7187 356.703 90.3624C357.49 90.1197 358.178 89.6285 358.663 88.9625C358.778 88.7225 358.81 88.4507 358.753 88.1905C358.696 87.9304 358.553 87.6969 358.348 87.5275C357.893 87.2562 357.373 87.113 356.843 87.113C356.313 87.113 355.793 87.2562 355.338 87.5275C354.32 87.9078 353.483 88.6576 352.993 89.6274C352.901 89.8527 352.876 90.0994 352.919 90.3386C352.963 90.5779 353.074 90.7996 353.239 90.9779C353.405 91.1562 353.618 91.2835 353.853 91.345C354.088 91.4065 354.336 91.3995 354.568 91.3249Z" fill="#263238"/>
<path d="M361.602 98.2375C361.602 98.2375 361.445 98.395 361.48 98.4825C362.092 100.688 362.442 103.33 360.605 104.573C360.605 104.573 360.605 104.73 360.605 104.695C363.037 103.75 362.547 100.25 361.602 98.2375Z" fill="#263238"/>
<path d="M359.03 96.4C355.373 97.03 356.878 104.292 360.273 103.715C363.668 103.137 362.093 95.8925 359.03 96.4Z" fill="#263238"/>
<path d="M357.682 97.0825C357.14 97.625 356.667 98.4825 355.932 98.71C355.197 98.9375 354.182 98.36 353.5 97.7475C353.5 97.7475 353.377 97.7475 353.395 97.87C353.675 99.2525 354.497 100.582 356.037 100.477C357.577 100.372 358.155 98.955 358.207 97.4675C358.207 97.205 357.91 96.8725 357.682 97.0825Z" fill="#263238"/>
<path d="M373.992 95.0874C373.992 95.0874 374.185 95.0874 374.202 95.2449C374.57 97.5199 375.392 100.057 377.58 100.39C377.58 100.39 377.667 100.53 377.58 100.53C375.025 100.67 373.975 97.2924 373.992 95.0874Z" fill="#263238"/>
<path d="M375.533 92.3401C379.033 91.3426 380.783 98.5526 377.528 99.4801C374.273 100.408 372.54 93.2501 375.533 92.3401Z" fill="#263238"/>
<path d="M377.16 92.4449C377.807 92.6899 378.542 93.2499 379.242 93.1274C379.942 93.0049 380.432 92.0774 380.765 91.2024C380.765 91.2024 380.87 91.2024 380.887 91.2024C381.255 92.5849 381.15 94.1249 379.89 94.7024C378.63 95.2799 377.562 94.2649 376.897 92.9524C376.775 92.7774 376.88 92.3574 377.16 92.4449Z" fill="#263238"/>
<path d="M365.872 116.455C366.502 116.893 367.15 117.54 367.99 117.488C368.828 117.326 369.625 116.999 370.335 116.525C370.335 116.525 370.492 116.525 370.457 116.63C370.212 117.138 369.834 117.569 369.362 117.877C368.89 118.186 368.343 118.36 367.78 118.38C367.293 118.331 366.832 118.139 366.455 117.827C366.078 117.515 365.802 117.099 365.662 116.63C365.61 116.473 365.75 116.385 365.872 116.455Z" fill="#263238"/>
<path d="M373.747 110.89C373.158 112.386 372.194 113.706 370.947 114.722C370.249 115.248 369.406 115.547 368.532 115.58C366.607 115.58 366.1 113.987 366.03 112.5C365.995 111.707 366.059 110.914 366.222 110.137C368.588 111.176 371.222 111.439 373.747 110.89Z" fill="#263238"/>
<path d="M371 114.722C370.301 115.248 369.459 115.547 368.585 115.58C366.66 115.58 366.153 113.987 366.083 112.5C367.033 112.264 368.035 112.355 368.927 112.758C369.819 113.162 370.549 113.853 371 114.722Z" fill="#FF9CBD"/>
<path d="M373.485 106.287C373.485 106.287 374.675 109.542 375.025 111.117C375.025 111.257 374.692 111.415 374.15 111.572C372.845 112.117 371.415 112.292 370.017 112.079C368.619 111.866 367.306 111.273 366.222 110.365C366.196 110.336 366.181 110.299 366.179 110.26C366.176 110.22 366.187 110.182 366.209 110.15C366.231 110.117 366.263 110.093 366.301 110.082C366.338 110.07 366.378 110.071 366.415 110.085C368.733 111.025 371.293 111.191 373.712 110.557C373.712 110.085 371.472 105.045 371.717 104.975C372.971 104.801 374.243 104.801 375.497 104.975C373.187 98.1324 369.81 91.7099 367.622 84.8499C367.609 84.7989 367.615 84.745 367.637 84.6974C367.659 84.6498 367.697 84.6114 367.745 84.5887C367.792 84.566 367.846 84.5604 367.897 84.573C367.948 84.5855 367.993 84.6153 368.025 84.6574C371.852 91.433 374.994 98.5733 377.405 105.972C377.685 106.882 374.167 106.41 373.485 106.287Z" fill="#263238"/>
<path d="M335.615 108.79C335.615 108.79 326.638 99.4799 322.315 102.857C317.993 106.235 325.815 120.515 331.783 121.705C332.529 121.908 333.308 121.959 334.074 121.854C334.841 121.749 335.578 121.49 336.241 121.093C336.905 120.695 337.481 120.168 337.936 119.543C338.391 118.917 338.714 118.206 338.888 117.452L335.615 108.79Z" fill="#EB9481"/>
<path d="M324.677 106.9C324.59 106.9 324.59 107.023 324.677 107.04C328.825 108.003 331.45 111.31 333.427 114.845C333.139 114.49 332.777 114.202 332.367 114C331.956 113.798 331.507 113.687 331.049 113.676C330.592 113.664 330.138 113.752 329.717 113.932C329.297 114.113 328.921 114.383 328.615 114.723C328.51 114.723 328.615 114.968 328.755 114.915C329.406 114.585 330.144 114.466 330.866 114.576C331.587 114.686 332.257 115.018 332.78 115.528C333.654 116.381 334.434 117.326 335.107 118.345C335.335 118.66 335.947 118.345 335.755 117.995C335.072 112.903 330.102 106.55 324.677 106.9Z" fill="#263238"/>
<path d="M217.525 398.8H215.425V397.488H217.507H222.407V398.8H217.525ZM206.657 398.608C204.277 398.52 201.95 398.398 199.657 398.258V396.945C201.95 397.085 204.277 397.208 206.657 397.295V398.608ZM231.157 398.503V397.19C233.45 397.103 235.777 396.98 238.157 396.823L238.245 398.135C235.847 398.293 233.502 398.415 231.21 398.503H231.157ZM190.907 397.54C188.527 397.313 186.182 397.05 183.907 396.753L184.082 395.44C186.322 395.738 188.65 396 191.082 396.245L190.907 397.54ZM246.907 397.54L246.802 396.228C249.095 396.035 251.422 395.808 253.802 395.563L253.942 396.858C251.58 397.068 249.252 397.278 246.942 397.488L246.907 397.54ZM262.657 395.79L262.482 394.478L269.482 393.533L269.675 394.828C267.242 395.195 264.932 395.51 262.64 395.808L262.657 395.79ZM175.28 395.405C172.935 395.003 170.607 394.548 168.385 394.075L168.647 392.798C170.87 393.27 173.18 393.708 175.49 394.128L175.28 395.405ZM278.25 393.515L278.04 392.22L284.935 391.013L285.162 392.308L278.25 393.515ZM159.845 392.01C157.517 391.38 155.26 390.698 153.107 389.98L153.51 388.738C155.645 389.455 157.902 390.12 160.177 390.75L159.845 392.01ZM293.772 390.663L293.51 389.368C295.767 388.913 298.06 388.44 300.352 387.933L300.632 389.228C298.305 389.718 296.03 390.208 293.755 390.75L293.772 390.663ZM309.172 387.285L308.875 386.008C311.132 385.483 313.39 384.923 315.665 384.363L315.98 385.64C313.687 386.2 311.5 386.76 309.155 387.25L309.172 387.285ZM144.865 386.918C142.625 385.973 140.472 384.975 138.477 383.925L139.072 382.77C141.05 383.785 143.167 384.765 145.372 385.693L144.865 386.918ZM324.467 383.418L324.135 382.14C326.357 381.545 328.615 380.933 330.872 380.285L331.222 381.545C329 382.21 326.69 382.823 324.45 383.435L324.467 383.418ZM130.882 379.393C128.931 378.07 127.082 376.602 125.352 375L126.245 374.038C127.935 375.607 129.736 377.051 131.635 378.36L130.882 379.393ZM339.622 379.113L339.237 377.87C341.46 377.205 343.682 376.505 345.922 375.805L346.325 377.065L339.622 379.113ZM354.655 374.37L354.235 373.128C356.44 372.41 358.645 371.658 360.867 370.888L361.287 372.13C359.065 372.9 356.86 373.653 354.655 374.37ZM369.547 369.225L369.11 367.983L375.672 365.568L376.127 366.81C373.94 367.633 371.735 368.438 369.547 369.225ZM119.665 368.14C118.38 366.114 117.417 363.9 116.812 361.578L118.072 361.245C118.653 363.437 119.555 365.531 120.75 367.458L119.665 368.14ZM384.317 363.678L383.845 362.453L390.337 359.88L390.827 361.105L384.317 363.678ZM398.93 357.763L398.422 356.555L404.862 353.825L405.387 355.033L398.93 357.763ZM117.652 352.828L116.357 352.653C116.685 350.308 117.272 348.007 118.107 345.793L119.332 346.248C118.531 348.372 117.967 350.579 117.652 352.828ZM413.402 351.515L412.86 350.308L414.015 349.783C415.765 349.013 417.515 348.208 419.265 347.403L419.825 348.593L414.575 350.99L413.402 351.515ZM427.682 344.795L427.087 343.605C429.187 342.578 431.27 341.528 433.335 340.455L433.947 341.61C431.865 342.695 429.765 343.745 427.682 344.795ZM123.182 338.513L122.062 337.848C123.27 335.825 124.585 333.868 126 331.985L127.05 332.773C125.652 334.618 124.349 336.534 123.147 338.513H123.182ZM441.682 337.498L441.052 336.343C443.1 335.24 445.147 334.103 447.177 332.965L447.807 334.103C445.795 335.258 443.747 336.395 441.7 337.498H441.682ZM455.402 329.71L454.737 328.59C456.75 327.4 458.745 326.21 460.74 324.985L461.422 326.105C459.445 327.33 457.432 328.52 455.42 329.71H455.402ZM132.562 326L131.582 325.125C133.07 323.463 134.697 321.73 136.412 320.015L137.357 320.943C135.642 322.693 134.032 324.408 132.562 326ZM468.86 321.433L468.16 320.33L474.04 316.55L474.757 317.635L468.86 321.433ZM143.675 314.993L142.8 314.013C144.55 312.49 146.3 310.933 148.05 309.393L148.89 310.39C147.14 312 145.355 313.47 143.675 314.993ZM482.037 312.84L481.302 311.755C483.227 310.46 485.135 309.148 487.042 307.818L487.795 308.885C485.887 310.25 483.962 311.545 482.037 312.84ZM155.75 304.895L154.945 303.863C156.695 302.428 158.637 301.01 160.527 299.593L161.315 300.643C159.413 302.043 157.558 303.46 155.75 304.895ZM494.97 303.828L494.2 302.76C496.09 301.395 497.98 300.03 499.852 298.648L500.64 299.698L494.97 303.828ZM168.367 295.515L167.615 294.448C169.528 293.094 171.453 291.764 173.39 290.458L174.125 291.543C172.2 292.855 170.275 294.168 168.367 295.515ZM507.64 294.5L506.835 293.468C508.707 292.05 510.545 290.633 512.382 289.198L513.187 290.23C511.35 291.613 509.495 293.03 507.64 294.5ZM181.422 286.765L180.722 285.663C182.682 284.385 184.66 283.125 186.655 281.9L187.355 283.003C185.36 284.193 183.4 285.435 181.422 286.713V286.765ZM520.082 284.805L519.26 283.79L524.702 279.398L525.525 280.413L520.082 284.805ZM194.81 278.435L194.145 277.315C196.163 276.148 198.176 274.982 200.182 273.815L200.847 274.953C198.835 275.985 196.822 277.175 194.81 278.383V278.435ZM532.28 274.83L531.44 273.815C533.19 272.31 535.027 270.805 536.777 269.3L537.635 270.298L532.28 274.83ZM208.53 270.543L207.882 269.405C209.947 268.25 212.012 267.13 214.042 266.028L214.655 267.183C212.572 268.25 210.525 269.353 208.46 270.49L208.53 270.543ZM544.25 264.505L543.375 263.525C545.125 261.985 546.875 260.428 548.625 258.888L549.5 259.868C547.75 261.408 546 263 544.25 264.505ZM222.25 263L221.655 261.845L227.902 258.643L228.497 259.815C226.52 260.865 224.437 261.915 222.25 263ZM236.355 256L235.795 254.828C238 253.778 240.117 252.78 242.165 251.853L242.707 253.043C240.747 253.953 238.612 254.95 236.425 256H236.355ZM555.957 254.023L555.065 253.043C556.815 251.468 558.565 249.875 560.227 248.3L561.12 249.263L555.957 254.023ZM250.792 249.525L250.285 248.3C252.297 247.46 254.17 246.708 255.902 246.06L256.357 247.285C254.66 247.933 252.787 248.685 250.792 249.525ZM567.542 243.243L566.632 242.298L571.69 237.45L572.6 238.395L567.542 243.243ZM578.865 232.27L577.937 231.343C579.687 229.68 581.28 228.035 582.907 226.39L583.835 227.318C582.242 228.963 580.58 230.608 578.9 232.27H578.865ZM589.995 221.088L589.05 220.16C590.712 218.41 592.322 216.8 593.915 215.138L594.86 216.048L589.995 221.088ZM600.897 209.695L599.952 208.785L604.73 203.675L605.692 204.568L600.897 209.695ZM611.607 198.093L610.645 197.218C612.255 195.468 613.812 193.718 615.317 191.968L616.297 192.843C614.827 194.575 613.252 196.308 611.642 198.093H611.607ZM622.107 186.298L621.127 185.44C622.72 183.603 624.26 181.835 625.712 180.19L626.71 181.03C625.257 182.693 623.735 184.46 622.125 186.298H622.107ZM632.38 174.293L631.365 173.453C632.992 171.51 634.48 169.708 635.845 168.045L636.86 168.868C635.512 170.53 634.025 172.35 632.397 174.293H632.38ZM642.372 162.043L641.34 161.22C644.175 157.72 645.662 155.673 645.662 155.673L646.712 156.46C646.712 156.46 645.242 158.438 642.39 162.043H642.372Z" fill="#263238"/>
<path d="M649.845 118.363L644.822 158.578L668.132 129.913L767.602 65.7051L649.845 118.363Z" fill="#FFA4BB"/>
<path opacity="0.4" d="M649.845 118.363L644.822 158.578L668.132 129.913L767.602 65.7051L649.845 118.363Z" fill="white"/>
<path d="M673.75 137.735L644.822 158.578L668.132 129.913L673.75 137.735Z" fill="#FFA4BB"/>
<path opacity="0.3" d="M673.75 137.735L644.822 158.578L668.132 129.913L673.75 137.735Z" fill="white"/>
<path d="M668.132 129.913L767.602 65.7051L698.512 172.928L668.132 129.913Z" fill="#FFA4BB"/>
<path opacity="0.7" d="M668.132 129.913L767.602 65.7051L698.512 172.928L668.132 129.913Z" fill="white"/>
<path d="M649.845 118.363L598.08 99.5851L767.603 65.7051L649.845 118.363Z" fill="#FFA4BB"/>
<path opacity="0.7" d="M649.845 118.363L598.08 99.5851L767.603 65.7051L649.845 118.363Z" fill="white"/>
<path d="M216.843 48.5551C216.841 57.4422 219.309 66.155 223.972 73.7208C228.634 81.2867 235.308 87.4079 243.247 91.4012C251.187 95.3945 260.08 97.1028 268.933 96.3354C277.787 95.5679 286.254 92.3549 293.388 87.0551L316.89 93.0576L307.108 71.1826C310.547 64.7528 312.475 57.6236 312.745 50.3369C313.015 43.0502 311.62 35.7978 308.667 29.131C305.714 22.4641 301.279 16.5584 295.701 11.8626C290.122 7.16686 283.547 3.80469 276.474 2.03167C269.401 0.258651 262.017 0.121464 254.883 1.63053C247.749 3.1396 241.053 6.2552 235.304 10.7405C229.555 15.2258 224.905 20.9628 221.706 27.5153C218.507 34.0678 216.843 41.2634 216.843 48.5551Z" fill="white"/>
<path d="M216.843 48.5551C217.595 88.5426 261.503 109.648 293.545 86.4601L317.083 92.3226L316.19 93.3726L306.338 71.5326L306.18 71.1476C320.985 44.4951 305.953 9.89761 276.43 2.53011C246.768 -5.55489 216.755 17.8776 216.93 48.5551H216.843ZM216.843 48.5551C216.965 7.7276 264.583 -14.6199 296.118 11.3676C313.53 25.4726 318.868 51.9676 307.86 71.5851V70.8326L317.573 92.7426L318.22 94.2126L316.698 93.8101L293.23 87.6676C263.183 110.418 217.088 89.0326 216.825 48.5551H216.843Z" fill="#263238"/>
<path d="M257.145 77.9727L235.638 56.2027L242.865 49.0802L255.413 61.7852L281.505 20.8877L290.063 26.3477L257.145 77.9727Z" fill="#FFA4BB"/>
</g>
<defs>
<clipPath id="clip0_311_3149">
<rect width="875" height="755" fill="white"/>
</clipPath>
</defs>
</svg>
