<svg width="500" height="500" viewBox="0 0 500 500" fill="none" xmlns="http://www.w3.org/2000/svg">
<path d="M97.9305 376.37H62.7705V387.56H97.9305V376.37Z" fill="#EBEBEB"/>
<path d="M416.06 270.18H380.9V281.37H416.06V270.18Z" fill="#EBEBEB"/>
<path d="M78.32 401.67C72.46 401.77 57.69 402.02 52.03 402.09H43.16H42.71V401.63V390.44V390H43.21L60.79 390.07C65.16 390.07 73.99 390.21 78.37 390.27H78.61V390.5L78.38 401.69L78.32 401.67ZM78.32 401.67L78.08 390.48L78.32 390.72C73.93 390.78 65.12 390.88 60.74 390.92L43.16 391L43.66 390.5V401.69L43.2 401.24H51.91C57.48 401.31 72.59 401.56 78.36 401.65L78.32 401.67Z" fill="#EBEBEB"/>
<path d="M193.5 188.82C187.64 188.92 172.87 189.17 167.21 189.24H158.34H157.89V188.78V177.59V177.09H158.39L175.97 177.15C180.35 177.15 189.17 177.29 193.55 177.35H193.79V177.58L193.55 188.77L193.5 188.82ZM193.5 188.82L193.26 177.63L193.5 177.87C189.11 177.93 180.31 178.03 175.92 178.07L158.34 178.13L158.84 177.63V188.82L158.38 188.37H167.09C172.67 188.44 187.78 188.69 193.54 188.78L193.5 188.82Z" fill="#EBEBEB"/>
<path d="M173.89 202.93C168.03 203.03 153.26 203.28 147.6 203.35H138.73H138.28V202.89L138.23 191.7V191.2H138.73L156.31 191.26C160.69 191.26 169.51 191.4 173.89 191.46H174.13V191.69L173.89 202.88V202.93ZM173.89 202.93L173.65 191.74L173.89 191.98C169.5 192.04 160.69 192.14 156.31 192.18L138.73 192.24L139.23 191.74V202.93L138.77 202.48H147.48C153.05 202.55 168.16 202.8 173.93 202.89L173.89 202.93Z" fill="#EBEBEB"/>
<path d="M154.36 177.63H119.2V188.82H154.36V177.63Z" fill="#EBEBEB"/>
<path d="M456.84 390.48H421.68V401.67H456.84V390.48Z" fill="#EBEBEB"/>
<path d="M437.23 44.9299H402.07V56.1199H437.23V44.9299Z" fill="#EBEBEB"/>
<path d="M456.84 70.23C450.98 70.33 436.21 70.58 430.55 70.65H421.68H421.23V70.19L421.18 59V58.5H421.68L439.26 58.57C443.64 58.57 452.46 58.7 456.84 58.77H457.08V59L456.84 70.19V70.23ZM456.84 70.23L456.6 59L456.84 59.24C452.45 59.3 443.65 59.4 439.26 59.43L421.68 59.5L422.18 59V70.19L421.72 69.74H430.43C436.01 69.8 451.12 70.06 456.88 70.15L456.84 70.23Z" fill="#EBEBEB"/>
<path d="M97.9303 56.1199C92.0703 56.2199 77.3003 56.4699 71.6403 56.5399H62.7703H62.3203V56.0799V44.8899V44.3899H62.8203L80.4003 44.4599C84.7803 44.4599 93.6003 44.5899 97.9803 44.6599H98.2203V44.8899L97.9803 56.0799L97.9303 56.1199ZM97.9303 56.1199L97.6903 44.9299L97.9303 45.1699C93.5403 45.2299 84.7303 45.3299 80.3503 45.3599L62.7703 45.4299L63.2703 44.9299V56.1199L62.8103 55.6699H71.5203C77.0903 55.7299 92.2003 55.9899 97.9703 56.0799L97.9303 56.1199Z" fill="#EBEBEB"/>
<path d="M186.41 266.85H40.29V275.77H186.41V266.85Z" fill="#EBEBEB"/>
<path d="M173.38 275.77H53.3203V300.38H173.38V275.77Z" fill="#EBEBEB"/>
<path d="M173.38 280.64L53.3203 283.02V275.77H173.38V280.64Z" fill="#C7C7C7"/>
<path d="M155.29 295.74H71.4102V280.43H155.29V295.74ZM72.4102 294.74H154.29V281.43H72.4102V294.74Z" fill="#DBDBDB"/>
<path d="M127.02 286.02H99.6904V290.15H127.02V286.02Z" fill="#DBDBDB"/>
<path d="M52.3501 441.94H48.3701L59.9401 300.39H70.0801L52.3501 441.94Z" fill="#EBEBEB"/>
<path d="M70.0799 300.39L68.8899 309.86H59.1699L59.9399 300.39H70.0799Z" fill="#C7C7C7"/>
<path d="M174.35 441.94H178.33L166.76 300.39H156.62L174.35 441.94Z" fill="#EBEBEB"/>
<path d="M156.62 300.39L157.81 309.86H167.53L166.76 300.39H156.62Z" fill="#C7C7C7"/>
<path fill-rule="evenodd" clip-rule="evenodd" d="M407.64 208C406.44 206.85 405.5 205.34 403.64 205.13C402.91 205.05 403.19 204.49 403.27 204.13C404.71 197.17 406.153 190.213 407.6 183.26C407.71 182.75 407.82 182.34 408.43 182.18C414.3 180.61 417.7 175.82 421.9 171.99C424.037 170.098 425.771 167.794 426.997 165.217C428.224 162.64 428.919 159.842 429.04 156.99C429.14 155.38 430.04 154.83 431.49 154.8C433.27 154.8 434.86 155.59 435.2 156.88C436.136 160.041 436.522 163.339 436.34 166.63C436.1 169.33 434.61 171.7 433.74 174.24C433.1 176.1 432.26 177.9 431.5 179.75C431.89 180.19 432.5 180.13 432.97 180.24L450.6 183.92C453.07 184.43 454.14 185.39 454.14 187.11C454.118 188.161 453.752 189.176 453.098 190C452.445 190.824 451.539 191.41 450.52 191.67C450.03 191.8 449.28 191.44 449.08 192.11C448.88 192.78 449.72 192.9 450.08 193.27C451.9 195.17 450.88 198.1 448.08 199.32C447.41 199.62 446.3 199.19 446.08 200.05C445.92 200.74 447 200.95 447.38 201.54C448.74 203.6 447.23 206.54 444.38 207.33C444.003 207.367 443.629 207.431 443.26 207.52C442.93 207.65 442.6 207.81 443.08 208.33C445.25 210.68 444.67 213.2 441.72 214.51L440.84 214.9C439.793 215.257 438.657 215.257 437.61 214.9C428.39 213 419.173 211.083 409.96 209.15C409.516 209.122 409.083 209.006 408.684 208.809C408.286 208.612 407.931 208.337 407.64 208Z" fill="#EBEBEB"/>
<path fill-rule="evenodd" clip-rule="evenodd" d="M384 190.23C384.92 185.81 385.86 181.39 386.75 176.97C386.93 176.07 387.11 175.65 388.21 175.89C393.59 177.083 398.98 178.207 404.38 179.26C405.44 179.47 405.52 179.87 405.32 180.8C403.44 189.687 401.59 198.583 399.77 207.49C399.54 208.62 399.17 208.87 398.04 208.62C392.82 207.47 387.59 206.37 382.35 205.36C381.05 205.11 380.96 204.62 381.21 203.48C382.19 199.08 383.07 194.65 384 190.23Z" fill="#EBEBEB"/>
<path d="M86.6904 0H85.6904V113.71H86.6904V0Z" fill="#C7C7C7"/>
<path d="M123.75 149.91L120.73 156.55H51.6499L48.6299 149.91L78.0499 129.56H94.3399L123.75 149.91Z" fill="#EBEBEB"/>
<path d="M96.38 109.94L94.34 129.56H78.05L76 109.94H96.38Z" fill="#DBDBDB"/>
<path d="M123.75 149.91L120.73 156.56H51.6399L48.6299 149.91H123.75Z" fill="#DBDBDB"/>
<path d="M156.44 0H155.44V64.29H156.44V0Z" fill="#C7C7C7"/>
<path d="M193.5 100.49L190.48 107.13H121.39L118.38 100.49L147.79 80.13H164.09L193.5 100.49Z" fill="#EBEBEB"/>
<path d="M166.13 60.52L164.09 80.13H147.79L145.75 60.52H166.13Z" fill="#DBDBDB"/>
<path d="M193.5 100.49L190.48 107.13H121.39L118.38 100.49H193.5Z" fill="#DBDBDB"/>
<path d="M319.25 123.73H266.17V176.81H319.25V123.73Z" fill="white"/>
<path d="M322 121H263.41V179.6H322V121ZM266.15 176.84V123.73H319.24V176.81L266.15 176.84Z" fill="#DBDBDB"/>
<path d="M276.46 172.99H294.81V131.62H276.46V172.99Z" fill="#EBEBEB"/>
<path d="M282.11 160.87H303.31V139.67H282.11V160.87Z" fill="#C7C7C7"/>
<path d="M322.021 181.83V179.57H263.411V181.83H322.021Z" fill="#C7C7C7"/>
<path d="M319.25 49.01H266.17V102.09H319.25V49.01Z" fill="white"/>
<path d="M310.76 58.14H270.72V72H310.76V58.14Z" fill="#C7C7C7"/>
<path d="M322 46.25H263.41V104.86H322V46.25ZM266.17 102.1V49H319.26V102.1H266.17Z" fill="#DBDBDB"/>
<path d="M303.32 64.96H282.12V86.16H303.32V64.96Z" fill="#EBEBEB"/>
<path d="M322.02 107.12V104.86H263.41V107.12H322.02Z" fill="#C7C7C7"/>
<path d="M319.25 199.97H266.17V253.05H319.25V199.97Z" fill="white"/>
<path d="M312.02 205.86H294.61V234.99H312.02V205.86Z" fill="#EBEBEB"/>
<path d="M322 197.21H263.41V255.81H322V197.21ZM266.15 253.05V200H319.24V253.08L266.15 253.05Z" fill="#DBDBDB"/>
<path d="M303.32 215.91H282.12V237.11H303.32V215.91Z" fill="#C7C7C7"/>
<path d="M322.02 258.07V255.81H263.41V258.07H322.02Z" fill="#C7C7C7"/>
<path d="M377.8 375.45C369.08 375.76 359.18 373.05 354.02 365.45C349.74 359.17 350.07 350.91 353.23 344.23C354.889 340.742 357.304 337.668 360.3 335.23C363.97 332.23 368.3 330.07 372.47 327.92C380.41 323.86 389.55 318.81 392.22 309.6C394.57 301.5 390 293.16 383.34 288.6C378.614 285.468 373.001 283.949 367.34 284.27C367.21 283.81 367.07 283.37 366.91 282.93C364.31 276.09 357.85 271.27 351.05 269.13C343.172 266.706 334.7 267.059 327.05 270.13C325.179 270.889 323.378 271.813 321.67 272.89C321.12 273.24 321.62 274.13 322.17 273.78C328.991 269.522 337.075 267.755 345.05 268.78C352.31 269.78 359.46 273.07 363.77 279.16C364.885 280.713 365.737 282.44 366.29 284.27C364.312 284.448 362.361 284.861 360.48 285.5C357.1 286.64 351.95 288.93 352.32 293.25C352.537 294.807 353.284 296.242 354.436 297.313C355.587 298.384 357.071 299.026 358.64 299.13C362.4 299.31 365.55 296.25 366.92 293C367.924 290.53 368.157 287.815 367.59 285.21C372.967 284.937 378.289 286.392 382.78 289.36C389.41 293.82 393.78 302.2 390.99 310.12C389.48 314.36 386.28 317.81 382.78 320.53C379.081 323.23 375.137 325.577 371 327.54C366.893 329.473 363.013 331.854 359.43 334.64C356.597 336.994 354.282 339.908 352.63 343.2C349.53 349.39 348.69 356.94 351.63 363.34C355.2 371.06 363.48 375.11 371.56 376.18C373.632 376.452 375.722 376.549 377.81 376.47C378.45 376.45 378.46 375.42 377.8 375.45ZM366.8 288.62C366.68 292.19 364.9 295.93 361.57 297.56C360.823 297.95 359.999 298.17 359.157 298.203C358.314 298.236 357.475 298.081 356.7 297.75C355.311 297.128 354.205 296.007 353.6 294.61C351.86 290.37 357.21 287.83 360.41 286.7C362.374 286.013 364.417 285.577 366.49 285.4C366.736 286.455 366.846 287.537 366.82 288.62H366.8Z" fill="#EBEBEB"/>
<path d="M459.39 285.76C452.616 286.383 445.966 287.969 439.64 290.47C433.464 292.851 427.69 296.166 422.52 300.3C417.66 304.3 413.6 309.3 411.67 315.36C411.67 315.43 411.67 315.5 411.6 315.57C408.82 316.512 406.14 317.728 403.6 319.2C398.801 321.879 394.421 325.249 390.6 329.2C382.926 337.042 377.667 346.924 375.45 357.67C375.19 358.96 374.99 360.27 374.83 361.58C374.74 362.23 375.76 362.42 375.83 361.76C377.142 351.491 381.298 341.793 387.83 333.76C391.066 329.756 394.834 326.213 399.03 323.23C402.748 320.511 406.84 318.345 411.18 316.8C410.531 319.298 410.318 321.889 410.55 324.46C410.84 327.46 411.8 330.59 414.2 332.54C415.233 333.411 416.498 333.96 417.84 334.12C419.387 334.222 420.926 333.815 422.22 332.96C424.629 331.459 426.386 329.107 427.14 326.37C427.495 325.024 427.555 323.616 427.317 322.245C427.079 320.873 426.548 319.568 425.76 318.42C424.978 317.344 423.975 316.449 422.817 315.796C421.659 315.142 420.375 314.744 419.05 314.63C416.933 314.435 414.798 314.628 412.75 315.2C414.428 310.558 417.208 306.392 420.85 303.06C425.473 298.852 430.748 295.421 436.47 292.9C442.281 290.225 448.432 288.357 454.75 287.35C456.3 287.11 457.85 286.91 459.42 286.77C459.532 286.739 459.631 286.671 459.7 286.578C459.769 286.484 459.805 286.37 459.802 286.253C459.798 286.137 459.756 286.025 459.681 285.935C459.606 285.846 459.504 285.784 459.39 285.76ZM412.88 316.32C415.359 315.523 418.006 315.398 420.55 315.96C421.829 316.306 423.002 316.964 423.963 317.875C424.925 318.786 425.645 319.922 426.06 321.18C426.477 322.494 426.588 323.886 426.385 325.25C426.182 326.614 425.671 327.914 424.89 329.05C423.35 331.33 420.55 333.59 417.62 333.05C414.69 332.51 412.86 329.79 412.12 327.05C411.389 324.116 411.351 321.051 412.01 318.1C412.12 317.54 412.28 316.99 412.43 316.45L412.88 316.32Z" fill="#EBEBEB"/>
<path d="M297.5 429.29C295.03 416.89 293.81 403.8 297.17 391.44C299.84 381.62 305.82 372.44 314.52 366.96C318.83 364.254 323.742 362.656 328.82 362.31C334.22 361.92 339.64 362.5 345.03 362.05C350.12 361.62 355.03 360.05 358.84 356.64C362.416 353.344 364.865 349.005 365.84 344.24C367.94 334.24 363.01 324.11 355.1 318.09C347.39 312.23 336.05 309.98 327.36 315.09C326.408 315.665 325.517 316.335 324.7 317.09C320.781 314.822 316.397 313.478 311.88 313.16C301.71 312.46 291.88 317.81 286.32 326.27C285.002 328.296 283.953 330.484 283.2 332.78C282.95 333.54 284.2 333.78 284.41 333.07C285.983 328.486 288.723 324.391 292.36 321.187C295.996 317.984 300.404 315.783 305.15 314.8C311.543 313.634 318.142 314.767 323.78 318C319 323 317.13 331 320.31 337.29C322.42 341.49 327.31 345.04 332 342.58C333.991 341.467 335.507 339.664 336.26 337.51C337.029 335.083 336.97 332.469 336.09 330.08C334.45 325.16 330.62 321.02 326.39 318.15L325.79 317.77C326.224 317.406 326.681 317.072 327.16 316.77C335.28 311.38 346.46 313.34 353.96 318.88C361.69 324.59 366.67 334.39 364.63 344.05C363.684 348.687 361.267 352.895 357.74 356.05C353.9 359.41 348.98 360.69 343.98 361C338.98 361.31 333.73 360.82 328.62 361.21C323.896 361.532 319.302 362.898 315.17 365.21C306.95 369.85 300.83 377.82 297.46 386.54C293.23 397.54 293.22 409.7 294.81 421.21C295.2 424.07 295.7 426.92 296.27 429.76C296.46 430.44 297.65 430.07 297.5 429.29ZM331.89 324.85C334.82 328.67 337.15 334.2 334.31 338.71C333.748 339.676 332.961 340.492 332.015 341.088C331.07 341.683 329.994 342.041 328.88 342.13C326.22 342.19 323.88 340.27 322.38 338.2C318.16 332.25 319.92 323.59 324.89 318.57C327.578 320.231 329.948 322.357 331.89 324.85Z" fill="#EBEBEB"/>
<path d="M40.29 456.92C174.64 456.31 325.36 456.3 459.71 456.92C325.36 457.54 174.64 457.53 40.29 456.92Z" fill="#263238"/>
<path d="M370.25 454.16C373.68 453.01 370.63 443.09 366.81 440.02C365.59 439.02 361.08 436.76 355.42 434.02C342.97 428.02 325.06 420.02 325.06 420.02L340.32 355.39L278.16 355.73C278.16 355.73 261.16 416.43 261.28 420.2C261.28 420.43 261.28 420.67 261.28 420.9C261.81 438.03 262.66 452.05 264.07 452.9C267.86 455.34 366.79 455.32 370.25 454.16Z" fill="#EB9481"/>
<path d="M370.25 454.16C366.79 455.32 267.85 455.34 264.09 452.95C262.68 452.07 261.83 438.05 261.3 420.95C261.3 420.72 261.3 420.48 261.3 420.25C261.743 417.183 262.391 414.15 263.24 411.17H327.17L325.07 420.07C325.07 420.07 342.98 428.07 355.43 434.07C361.09 436.8 365.6 439.07 366.82 440.07C370.64 443.09 373.68 453 370.25 454.16Z" fill="#EBEBEB"/>
<path d="M371.36 454.71C367.84 455.9 267.11 455.78 263.28 453.34C261.8 452.43 260.97 437.76 260.46 419.99C260.46 419.8 260.46 419.62 260.46 419.43L325.46 418.78V419.89C325.46 419.89 363.99 437.18 367.93 440.31C371.87 443.44 374.88 453.55 371.36 454.71Z" fill="white"/>
<path d="M370.23 450.81C353.23 450.37 284.72 450.21 267.9 451.07C267.76 451.07 267.76 451.17 267.9 451.18C284.72 451.98 353.25 451.58 370.23 451.09C370.58 451.07 370.58 450.82 370.23 450.81Z" fill="#263238"/>
<path d="M332.681 419C325.991 417.74 317.821 418.76 312.681 423.51C312.481 423.7 312.751 423.97 312.961 423.91C319.35 421.856 325.941 420.492 332.621 419.84C332.719 419.827 332.809 419.78 332.877 419.708C332.945 419.636 332.985 419.543 332.992 419.444C333 419.346 332.972 419.248 332.916 419.167C332.859 419.086 332.776 419.027 332.681 419Z" fill="#263238"/>
<path d="M337.5 421.89C330.81 420.63 322.64 421.65 317.5 426.4C317.3 426.59 317.57 426.87 317.78 426.8C324.169 424.746 330.76 423.382 337.44 422.73C337.538 422.717 337.628 422.671 337.696 422.598C337.764 422.526 337.805 422.433 337.812 422.335C337.819 422.236 337.792 422.138 337.735 422.057C337.678 421.976 337.595 421.917 337.5 421.89Z" fill="#263238"/>
<path d="M342.32 424.8C335.63 423.55 327.46 424.56 322.32 429.32C322.12 429.5 322.39 429.78 322.6 429.71C328.99 427.656 335.58 426.292 342.26 425.64C342.358 425.627 342.449 425.58 342.516 425.508C342.584 425.436 342.625 425.343 342.632 425.244C342.639 425.146 342.612 425.048 342.555 424.967C342.498 424.886 342.415 424.827 342.32 424.8Z" fill="#263238"/>
<path d="M341.38 404.41C338.76 400.79 333.87 402.41 331.08 404.75C326.36 408.856 322.804 414.133 320.77 420.05C320.761 420.076 320.758 420.103 320.761 420.13C320.764 420.157 320.773 420.183 320.787 420.206C320.802 420.23 320.821 420.249 320.844 420.264C320.867 420.278 320.893 420.287 320.92 420.29C320.92 420.8 321.4 421.29 321.97 421.13C327.49 419.13 333.65 417.59 338.38 413.92C341.14 411.78 343.86 407.83 341.38 404.41ZM329.71 416.33C327.02 417.39 324.29 418.33 321.64 419.49C323.563 416.453 325.639 413.516 327.86 410.69C328.956 409.341 330.139 408.065 331.4 406.87C333.4 405.06 341.27 401.22 340.08 408.55C339.43 412.59 332.92 415.05 329.71 416.33Z" fill="#263238"/>
<path d="M303.79 418.28C309.29 420.64 315.62 420.53 321.48 421.1C321.61 421.101 321.739 421.071 321.855 421.013C321.972 420.956 322.073 420.871 322.151 420.767C322.228 420.663 322.281 420.542 322.303 420.414C322.326 420.286 322.318 420.154 322.28 420.03C322.308 420.021 322.333 420.006 322.353 419.986C322.374 419.966 322.389 419.941 322.398 419.913C322.407 419.886 322.409 419.857 322.404 419.828C322.399 419.8 322.388 419.773 322.37 419.75C318.901 414.547 314.129 410.345 308.53 407.56C305.23 406.01 300.09 405.68 298.47 409.84C296.94 413.78 300.57 416.91 303.79 418.28ZM300.79 413.52C297.79 406.72 306.38 408.45 308.79 409.69C310.316 410.522 311.783 411.457 313.18 412.49C316.044 414.661 318.794 416.978 321.42 419.43C318.56 418.98 315.69 418.77 312.82 418.43C309.35 418 302.43 417.26 300.77 413.52H300.79Z" fill="#263238"/>
<path d="M189.43 315.22C189.43 315.22 178.29 355.56 197.74 367.5C210.74 375.5 268.13 364.45 270.57 357.35C275.18 343.95 275.19 339.04 275.19 339.04L260.45 410.1L332.76 410.95C332.76 410.95 346.33 352.16 342.84 289.77C341.55 266.7 310.54 259.77 288.97 271.19C268.06 282.32 230.6 313.19 230.6 313.19L189.43 315.22Z" fill="#37474F"/>
<path d="M266.55 368.46C270.45 358.92 270.14 355.18 279.88 325.58C281.18 321.58 282.27 317.58 283.43 313.58C284.63 309.43 286.06 305.3 286.97 301.08C286.97 300.88 287.35 300.96 287.29 301.16C286.17 304.82 285.44 308.6 284.47 312.3C283.5 316 282.56 319.55 281.55 323.15C281.11 324.71 280.65 326.26 280.21 327.82L280.78 326.82C281.63 325.36 282.49 323.9 283.37 322.46C285.19 319.46 287.37 316.72 289 313.62C289.1 313.44 289.4 313.62 289.29 313.78C287.45 316.78 286.14 320.02 284.42 323.05C283.58 324.52 282.71 325.96 281.81 327.39C281.056 328.741 280.19 330.025 279.22 331.23C277.89 335.8 275.04 346.81 273.62 351.35C269.14 365.66 270.62 361 267.27 368.68C267.1 369.15 266.38 368.87 266.55 368.46Z" fill="#263238"/>
<path d="M299.49 398.36C288.6 398.24 277.74 397.62 266.85 397.42C266.65 397.42 266.62 397.09 266.85 397.09C277.7 397.03 288.53 396.6 299.38 396.73C310.23 396.86 321.13 397.4 332.01 397.73C332.28 397.73 332.33 398.17 332.01 398.17C321.17 398.23 310.34 398.47 299.49 398.36Z" fill="#263238"/>
<path d="M272.81 394.72C273.81 389.91 275.2 385.19 276.47 380.45C277.74 375.71 279.01 370.96 280.32 366.23C282.94 356.76 285.67 347.32 288.4 337.88C289.94 332.52 291.62 327.19 293.26 321.88C293.268 321.848 293.288 321.821 293.316 321.804C293.345 321.787 293.378 321.782 293.41 321.79C293.442 321.798 293.469 321.818 293.486 321.846C293.503 321.875 293.508 321.908 293.5 321.94C288.647 340.98 283.437 359.923 277.87 378.77C276.29 384.11 274.87 389.53 272.98 394.77C272.971 394.789 272.955 394.804 272.936 394.812C272.916 394.821 272.894 394.822 272.874 394.816C272.854 394.81 272.836 394.797 272.825 394.78C272.813 394.762 272.808 394.741 272.81 394.72Z" fill="#263238"/>
<path d="M197.74 367.49C178.29 355.56 189.43 315.22 189.43 315.22L224.12 313.52L271.36 355C271.11 355.74 270.85 356.52 270.57 357.33C268.13 364.45 210.73 375.47 197.74 367.49Z" fill="#263238"/>
<path d="M333.12 409.31C332.89 410.39 332.76 410.94 332.76 410.94L260.45 410.1L271.79 355.41L333.12 409.31Z" fill="#263238"/>
<path d="M41.3403 464.5C40.6903 468.06 50.8603 470.17 55.3403 468.29C56.7703 467.69 60.9603 464.85 66.0803 461.2C77.3203 453.2 92.9603 441.34 92.9603 441.34L146.09 444.55L175.74 389.9C175.74 389.9 126.87 387.08 123.52 385.35L123 385C107.73 377.22 95.0003 371.21 93.5803 372C89.6203 374.2 42.0003 460.91 41.3403 464.5Z" fill="#EB9481"/>
<path d="M132.89 386.76L104.94 442.06L92.9999 441.34C92.9999 441.34 77.3699 453.17 66.1199 461.2C61.0099 464.84 56.8298 467.69 55.3898 468.29C50.8598 470.17 40.6898 468.06 41.3898 464.49C42.0898 460.92 89.6198 374.2 93.5299 372C94.9699 371.2 107.69 377.2 122.94 385C123.16 385.1 123.36 385.22 123.56 385.32C124.39 385.78 128 386.27 132.89 386.76Z" fill="#EBEBEB"/>
<path d="M40.3202 465.21C40.9802 461.55 89.6002 373.33 93.5802 371.15C95.0802 370.29 108.35 376.63 124.16 384.74L124.66 385L93.9302 442.27L92.9302 441.72C92.9302 441.72 59.2602 467.16 54.6202 469.1C49.9802 471.04 39.6502 468.85 40.3202 465.21Z" fill="white"/>
<path d="M44.2898 466.09C52.8498 451.42 85.9998 391.44 93.3398 376.29C93.3998 376.17 93.3398 376.12 93.2498 376.24C84.4498 390.59 51.7898 450.84 44.0498 465.96C43.8798 466.28 44.1098 466.4 44.2898 466.09Z" fill="#263238"/>
<path d="M90.2706 448.52C94.5906 443.27 97.6406 435.61 95.9306 428.84C95.8606 428.58 95.4906 428.68 95.4506 428.9C94.173 435.488 92.1951 441.922 89.5506 448.09C89.501 448.185 89.4896 448.295 89.5188 448.399C89.548 448.502 89.6155 448.59 89.7076 448.645C89.7997 448.7 89.9093 448.718 90.014 448.694C90.1186 448.671 90.2105 448.609 90.2706 448.52Z" fill="#263238"/>
<path d="M85.4001 451.34C89.7201 446.09 92.7601 438.44 91.0601 431.67C90.9901 431.4 90.6201 431.5 90.5701 431.72C89.2971 438.31 87.3191 444.743 84.6701 450.91C84.6345 451.005 84.6334 451.109 84.6671 451.205C84.7008 451.3 84.7671 451.381 84.8543 451.432C84.9416 451.483 85.0441 451.502 85.144 451.485C85.2438 451.469 85.3345 451.417 85.4001 451.34Z" fill="#263238"/>
<path d="M80.5206 454.16C84.8406 448.91 87.8906 441.26 86.1806 434.49C86.1206 434.23 85.7506 434.32 85.7006 434.55C84.4262 441.136 82.4482 447.566 79.8006 453.73C79.751 453.825 79.7396 453.936 79.7688 454.039C79.798 454.142 79.8655 454.23 79.9576 454.285C80.0497 454.34 80.1593 454.358 80.264 454.334C80.3686 454.311 80.4605 454.249 80.5206 454.16Z" fill="#263238"/>
<path d="M98.8397 463.16C103.28 462.61 104.21 457.54 103.51 453.97C102.183 447.858 99.2722 442.202 95.0697 437.57C95.053 437.547 95.0311 437.529 95.006 437.516C94.9808 437.503 94.9529 437.497 94.9247 437.497C94.8965 437.497 94.8687 437.503 94.8435 437.516C94.8183 437.529 94.7964 437.547 94.7797 437.57C94.6683 437.502 94.5424 437.461 94.4121 437.45C94.2819 437.44 94.151 437.46 94.0301 437.51C93.9093 437.56 93.8019 437.637 93.7167 437.736C93.6314 437.835 93.5708 437.953 93.5397 438.08C92.6697 443.92 90.9997 450 91.9997 456C92.4997 459.4 94.6497 463.69 98.8397 463.16ZM94.0197 447.16C94.3797 444.29 94.8797 441.46 95.1397 438.57C96.8716 441.719 98.4436 444.953 99.8497 448.26C100.51 449.871 101.061 451.525 101.5 453.21C102.12 455.82 101.69 464.57 95.8397 460C92.6097 457.51 93.5897 450.62 93.9997 447.19L94.0197 447.16Z" fill="#263238"/>
<path d="M104.79 423.53C100.08 427.22 97.1298 432.83 93.7898 437.68C93.7258 437.794 93.6896 437.922 93.6843 438.053C93.679 438.183 93.7047 438.314 93.7593 438.433C93.8139 438.552 93.8958 438.656 93.9985 438.737C94.1011 438.818 94.2215 438.874 94.3498 438.9C94.3452 438.927 94.3468 438.955 94.3544 438.981C94.362 439.007 94.3755 439.031 94.3938 439.051C94.4121 439.071 94.4347 439.087 94.46 439.097C94.4853 439.108 94.5126 439.112 94.5398 439.11C100.772 438.581 106.756 436.422 111.89 432.85C114.84 430.72 117.61 426.37 114.74 422.94C112 419.7 107.54 421.38 104.79 423.53ZM110.42 423.19C117.82 423.83 112.17 430.53 109.93 432.02C108.464 432.955 106.937 433.79 105.36 434.52C102.094 435.981 98.7563 437.276 95.3598 438.4C97.1398 436.12 98.6998 433.7 100.36 431.4C102.37 428.55 106.34 422.84 110.42 423.19Z" fill="#263238"/>
<path d="M235.18 305.35C236.236 315.199 236.793 325.095 236.85 335C236.85 335 305.53 371 308.67 405.21C309.78 417.33 308.16 440.04 284.4 450.38C257.85 461.91 111.11 454 111.11 454L129.44 386.44H194.16C194.16 386.44 148.49 393.71 143.53 363.28C138.92 334.99 156.29 305.38 156.29 305.38L235.18 305.35Z" fill="#37474F"/>
<path d="M126.27 450.64C127.88 442.86 129.45 435.03 131.27 427.29C133.09 419.55 135 411.8 137 404.11C137.58 401.93 138.17 399.77 138.76 397.6C139.04 396.6 139.32 395.53 139.62 394.5C139.92 393.47 140.16 392.39 140.57 391.4C140.57 391.29 140.74 391.4 140.73 391.46C140.46 393.482 140.069 395.485 139.56 397.46C139.15 399.34 138.76 401.22 138.35 403.1C137.51 406.96 136.647 410.817 135.76 414.67C133.98 422.39 132.02 430.04 130.01 437.67C128.87 442.017 127.724 446.35 126.57 450.67C126.53 451 126.21 450.9 126.27 450.64Z" fill="#263238"/>
<path d="M171.82 386.41C177.06 386.03 182.31 385.86 187.57 385.75C192.83 385.64 198.08 385.7 203.34 385.8C208.6 385.9 213.85 386.17 219.09 386.64C224.339 387.033 229.555 387.788 234.7 388.9L230.79 388.39L226.88 388.02C224.26 387.8 221.65 387.58 219.03 387.46C213.8 387.16 208.56 386.95 203.31 386.86C198.06 386.77 192.82 386.64 187.57 386.57L171.82 386.41Z" fill="#263238"/>
<path d="M170.67 310.89C168.324 316.909 166.288 323.043 164.57 329.27C162.808 335.471 161.557 341.805 160.83 348.21C160.478 351.394 160.411 354.604 160.63 357.8C160.788 360.962 161.581 364.06 162.96 366.91C163.659 368.292 164.609 369.533 165.76 370.57C166.945 371.605 168.236 372.513 169.61 373.28C172.413 374.785 175.375 375.975 178.44 376.83C184.65 378.482 190.984 379.629 197.38 380.26C203.78 381.01 210.22 381.53 216.66 382.18C223.135 382.733 229.564 383.736 235.9 385.18C239.12 385.904 242.23 387.051 245.15 388.59C248.023 390.182 250.707 392.094 253.15 394.29L254.6 395.58H252.6L200.27 394.88L174.1 394.67C165.38 394.67 156.66 394.62 147.93 394.85C156.65 394.35 165.37 394.21 174.1 394.05C182.83 393.89 191.55 393.88 200.27 393.86H226.45L252.62 394.1L252.11 395.37C249.737 393.266 247.134 391.438 244.35 389.92C241.536 388.453 238.54 387.367 235.44 386.69C229.174 385.312 222.829 384.33 216.44 383.75C210.03 383.06 203.59 382.51 197.15 381.75C190.681 381.077 184.277 379.883 178 378.18C174.835 377.29 171.787 376.028 168.92 374.42C167.489 373.588 166.148 372.609 164.92 371.5C163.686 370.359 162.67 369.004 161.92 367.5C160.512 364.498 159.72 361.244 159.59 357.93C159.412 354.673 159.526 351.407 159.93 348.17C160.759 341.729 162.144 335.372 164.07 329.17C165.92 322.956 168.123 316.853 170.67 310.89Z" fill="#263238"/>
<path d="M227.69 304.64C227.69 304.606 227.704 304.572 227.728 304.548C227.753 304.524 227.786 304.51 227.82 304.51C227.855 304.51 227.888 304.524 227.912 304.548C227.936 304.572 227.95 304.606 227.95 304.64C228.22 306.98 229.04 320.34 229.45 325.37C229.59 327.17 229.45 330.37 232.11 330.37C234.18 330.37 235.21 328.12 235.44 326.37C235.72 324.23 234.57 308.72 234.31 303.56C234.31 303.41 234.54 303.4 234.56 303.56C235.51 308.73 237.36 325.19 236.81 327.5C236.38 329.3 235.45 331.02 233.61 331.63C233.766 333.662 233.736 335.704 233.52 337.73C233.52 337.9 232.98 337.94 232.94 337.81C233.03 336.6 232.39 331.91 232.41 331.89C231.771 331.946 231.128 331.836 230.545 331.569C229.961 331.303 229.456 330.89 229.08 330.37C227.25 327.9 227.65 310.59 227.69 304.64Z" fill="#263238"/>
<path d="M220.271 344.27C222.151 342.98 224.081 341.81 226.031 340.65C227.981 339.49 229.961 338.41 231.961 337.34C233.961 336.27 235.961 335.26 238.051 334.34C240.141 333.42 242.181 332.47 244.331 331.72C243.331 332.31 242.331 332.84 241.331 333.42L238.331 335.07C236.331 336.18 234.331 337.24 232.331 338.3C230.331 339.36 228.331 340.4 226.331 341.39L223.331 342.88C222.341 343.33 221.321 343.83 220.271 344.27Z" fill="#263238"/>
<path d="M171.53 333.53C175.17 333.53 186.53 334.18 191.95 329.61C196.33 325.91 198.25 313.27 199.01 309.8C199.01 309.63 199.3 309.69 199.3 309.85C199.388 313.768 198.892 317.678 197.83 321.45C196.95 324.65 195.77 328.22 193.18 330.45C190.59 332.68 186.76 333.64 183.28 334.07C179.37 334.527 175.417 334.473 171.52 333.91C171.481 333.896 171.447 333.869 171.423 333.835C171.399 333.8 171.387 333.759 171.388 333.716C171.389 333.674 171.403 333.634 171.429 333.6C171.455 333.567 171.49 333.542 171.53 333.53Z" fill="#263238"/>
<path d="M232.551 236.51C244.081 253.65 260.091 284.86 277.931 288.26C294.931 291.5 325.661 253.99 334.501 241.39C337.711 236.83 304.031 214.76 299.811 218.56C291.861 225.72 276.491 246.1 273.811 245.75C271.131 245.4 260.991 236.65 239.811 221.31C227.001 212 219.571 217.19 232.551 236.51Z" fill="#EB9481"/>
<path d="M331.341 245.15C335.041 242.28 350.871 227.62 354.341 222.55C357.811 217.48 366.821 202.19 363.211 199.12C359.601 196.05 356.611 200.32 356.611 200.32C356.611 200.32 359.391 193.26 355.471 190.5C351.551 187.74 347.131 194.5 347.131 194.5C347.131 194.5 349.451 187.04 345.351 184.57C341.251 182.1 337.941 189.68 337.941 189.68C337.941 189.68 340.371 182.95 336.141 182.34C331.051 181.6 327.951 194.5 323.681 199.8C322.681 201.01 302.271 222.8 302.271 222.8L331.341 245.15Z" fill="#EB9481"/>
<path d="M338.25 189.07C335.96 198.56 333.31 202.31 326.41 208.99C326.28 209.12 326.41 209.35 326.6 209.23C333.94 203.3 337.94 199.07 338.72 189.16C338.76 188.68 338.36 188.62 338.25 189.07Z" fill="#263238"/>
<path d="M347.32 193.78C344.07 203.42 341.24 207.52 334.53 215.05C334.43 215.16 334.61 215.33 334.71 215.23C341.91 208.39 345.8 204.08 347.78 194.02C347.87 193.57 347.47 193.34 347.32 193.78Z" fill="#263238"/>
<path d="M356.28 200.69C352.46 209.8 349.55 214.42 342.1 220.9C342.062 220.929 342.037 220.972 342.03 221.02C342.023 221.068 342.036 221.117 342.065 221.155C342.094 221.193 342.138 221.219 342.186 221.225C342.233 221.232 342.282 221.219 342.32 221.19C350.56 215.32 354.24 209.58 356.54 200.84C356.7 200.24 356.52 200.12 356.28 200.69Z" fill="#263238"/>
<path d="M295.891 224.76C295.891 224.76 297.701 212.67 299.671 207.53C301.641 202.39 316.001 186 319.751 188.86C324.561 192.61 318.121 203.74 314.261 208.77C314.261 208.77 325.401 217.44 322.511 226.42C319.621 235.4 295.891 224.76 295.891 224.76Z" fill="#EB9481"/>
<path d="M320.73 190.33C322.65 196.91 317.15 203.2 313.73 208.33C313.677 208.404 313.642 208.491 313.63 208.581C313.617 208.672 313.626 208.764 313.656 208.851C313.687 208.937 313.738 209.015 313.804 209.077C313.871 209.14 313.952 209.185 314.04 209.21C318.47 213.15 323.56 220 322.81 226.21C322.802 226.247 322.809 226.286 322.83 226.318C322.851 226.35 322.883 226.372 322.92 226.38C322.957 226.388 322.996 226.381 323.028 226.36C323.06 226.34 323.082 226.307 323.09 226.27C324.8 219.72 320.34 212.58 315.22 208.57C318.77 203.33 324.01 196.78 320.75 190.28C320.77 190.27 320.72 190.28 320.73 190.33Z" fill="#263238"/>
<path d="M291 222.93L326 255.48C326 255.48 292.16 295.56 278 292C261.74 287.92 239.59 257.44 227.9 230.19C219.81 211.34 232.09 211.29 242.84 220.51C254.05 230.11 273.36 243.91 274.62 243.51C275.88 243.11 291 222.93 291 222.93Z" fill="white"/>
<path d="M246.13 223.23C245.872 223.485 245.671 223.792 245.54 224.13C245.312 224.618 245.263 225.17 245.4 225.69C245.48 226.18 245.54 226.64 245.65 227.1C245.777 226.636 245.877 226.165 245.95 225.69C245.992 225.274 246.128 224.874 246.35 224.52C246.511 224.278 246.714 224.068 246.95 223.9L246.13 223.23ZM225.41 221.74C225.416 221.766 225.416 221.794 225.41 221.82L225.5 221.67L225.41 221.74ZM299.61 268C299.197 267.954 298.8 267.814 298.45 267.59C298.129 267.386 297.868 267.101 297.692 266.764C297.517 266.427 297.433 266.05 297.45 265.67C297.428 265.091 297.239 264.531 296.905 264.057C296.572 263.583 296.108 263.216 295.57 263C295.056 262.861 294.514 262.861 294 263C293.511 263.067 293.027 263.164 292.55 263.29C293.04 263.41 293.5 263.46 294 263.56C294.419 263.593 294.826 263.72 295.19 263.93C295.511 264.124 295.778 264.397 295.965 264.722C296.152 265.047 296.254 265.415 296.26 265.79C296.259 266.365 296.429 266.928 296.747 267.406C297.066 267.885 297.519 268.259 298.05 268.48C298.545 268.692 299.092 268.751 299.62 268.65C300.11 268.54 300.62 268.48 301.04 268.36C300.572 268.208 300.094 268.087 299.61 268ZM256.54 247.66C256.119 247.62 255.713 247.487 255.35 247.27C255.035 247.06 254.779 246.774 254.604 246.438C254.429 246.103 254.342 245.728 254.35 245.35C254.34 244.768 254.155 244.202 253.82 243.726C253.485 243.251 253.015 242.886 252.47 242.68C251.966 242.504 251.424 242.466 250.9 242.57C250.41 242.68 249.9 242.74 249.48 242.86C249.947 242.985 250.421 243.079 250.9 243.14C251.321 243.17 251.729 243.301 252.09 243.52C252.418 243.71 252.692 243.981 252.886 244.306C253.08 244.632 253.188 245.001 253.2 245.38C253.189 245.963 253.355 246.535 253.676 247.021C253.998 247.506 254.46 247.883 255 248.1C255.503 248.31 256.057 248.363 256.59 248.25C257.064 248.193 257.535 248.11 258 248C257.47 247.85 257 247.79 256.54 247.69V247.66ZM314.83 244.66C314.768 244.181 314.674 243.707 314.55 243.24C314.44 243.67 314.38 244.09 314.28 244.54V244.66C314.258 245.079 314.138 245.486 313.93 245.85C313.743 246.175 313.473 246.445 313.148 246.633C312.824 246.82 312.455 246.919 312.08 246.92C311.501 246.926 310.937 247.099 310.454 247.418C309.972 247.737 309.592 248.19 309.36 248.72C309.171 249.221 309.123 249.764 309.22 250.29C309.284 250.775 309.378 251.256 309.5 251.73C309.63 251.257 309.727 250.776 309.79 250.29C309.826 249.872 309.967 249.469 310.2 249.12C310.402 248.8 310.685 248.539 311.021 248.363C311.356 248.188 311.732 248.104 312.11 248.12C312.689 248.098 313.25 247.909 313.723 247.575C314.197 247.242 314.564 246.778 314.78 246.24C314.912 245.879 314.96 245.492 314.92 245.11C314.899 244.981 314.869 244.854 314.83 244.73V244.66ZM269.49 262.6C269.43 262.121 269.336 261.646 269.21 261.18C269.1 261.64 269.03 262.1 268.92 262.6C268.893 263.018 268.774 263.424 268.57 263.79C268.378 264.113 268.106 264.381 267.78 264.568C267.454 264.756 267.086 264.856 266.71 264.86C266.133 264.865 265.569 265.036 265.086 265.354C264.604 265.671 264.223 266.121 263.99 266.65C263.804 267.152 263.756 267.694 263.85 268.22C263.914 268.709 264.008 269.193 264.13 269.67C264.259 269.193 264.359 268.709 264.43 268.22C264.464 267.806 264.601 267.407 264.83 267.06C265.034 266.741 265.317 266.481 265.652 266.306C265.987 266.131 266.362 266.046 266.74 266.06C267.319 266.038 267.88 265.849 268.353 265.515C268.827 265.182 269.194 264.718 269.41 264.18C269.578 263.694 269.606 263.171 269.49 262.67V262.6ZM287.04 282.6C286.735 282.879 286.357 283.066 285.95 283.14C285.582 283.23 285.196 283.219 284.834 283.108C284.471 282.997 284.145 282.79 283.89 282.51C283.464 282.117 282.933 281.856 282.362 281.758C281.79 281.661 281.203 281.731 280.67 281.96C280.186 282.173 279.773 282.52 279.48 282.96C279.22 283.37 278.9 283.75 278.67 284.18C279.1 283.92 279.48 283.62 279.89 283.37C280.2 283.084 280.579 282.884 280.99 282.79C281.352 282.687 281.735 282.681 282.1 282.772C282.465 282.864 282.799 283.049 283.07 283.31C283.469 283.725 283.984 284.011 284.548 284.129C285.112 284.246 285.698 284.191 286.23 283.97C286.736 283.766 287.17 283.418 287.48 282.97C287.74 282.57 288.03 282.19 288.26 281.75C287.83 282.1 287.45 282.38 287 282.65L287.04 282.6ZM290.04 242.12C289.729 242.398 289.349 242.588 288.94 242.67C288.571 242.754 288.186 242.739 287.824 242.627C287.462 242.515 287.137 242.309 286.88 242.03C286.459 241.632 285.929 241.367 285.357 241.271C284.786 241.175 284.198 241.251 283.67 241.49C283.183 241.702 282.767 242.049 282.47 242.49C282.22 242.89 281.9 243.27 281.66 243.71C282.1 243.44 282.47 243.15 282.88 242.89C283.191 242.602 283.575 242.405 283.99 242.32C284.352 242.217 284.735 242.211 285.1 242.302C285.465 242.394 285.799 242.579 286.07 242.84C286.362 243.147 286.718 243.384 287.113 243.535C287.508 243.687 287.932 243.748 288.354 243.714C288.775 243.681 289.184 243.553 289.55 243.342C289.917 243.13 290.231 242.839 290.47 242.49C290.74 242.08 291.02 241.7 291.26 241.27C290.81 241.62 290.44 241.9 290 242.17L290.04 242.12Z" fill="white"/>
<path d="M315.74 262C310.68 257.52 290.65 238.46 286.6 234.05C286.32 233.74 286.45 233.49 286.78 233.77C302.26 246.77 311.17 257.15 315.91 261.77C316 261.87 315.87 262.07 315.74 262Z" fill="#263238"/>
<path opacity="0.1" d="M275.67 291.24C259.67 285.02 239.08 256.15 227.94 230.24C223.49 219.86 225.21 215.18 229.45 214.61C243.27 235.8 261.47 267 275.67 291.24Z" fill="#000102"/>
<path d="M143.771 323.79L240.23 334.23C239.69 336.04 249.781 276.18 242.001 224.8C240.391 214.15 223.291 211.51 215.141 215.53C179.431 233.15 143.901 323 143.771 323.79Z" fill="white"/>
<path d="M223.39 302.89C223.059 303.159 222.668 303.344 222.25 303.43C221.883 303.507 221.503 303.489 221.144 303.379C220.786 303.269 220.461 303.07 220.2 302.8C219.786 302.388 219.255 302.113 218.679 302.013C218.103 301.912 217.51 301.992 216.98 302.24C216.497 302.477 216.086 302.84 215.79 303.29C215.53 303.67 215.25 304.04 214.98 304.47C215.405 304.232 215.812 303.964 216.2 303.67C216.535 303.418 216.906 303.219 217.3 303.08C217.668 302.991 218.052 302.996 218.417 303.094C218.782 303.191 219.117 303.379 219.39 303.64C219.793 304.05 220.308 304.331 220.87 304.448C221.433 304.566 222.017 304.514 222.55 304.3C223.052 304.094 223.483 303.747 223.79 303.3C224.05 302.9 224.34 302.52 224.57 302.08C224.162 302.327 223.768 302.598 223.39 302.89ZM161.74 308.13C161.435 308.416 161.053 308.607 160.64 308.68C160.271 308.769 159.884 308.759 159.519 308.652C159.154 308.545 158.824 308.344 158.56 308.07C158.148 307.665 157.623 307.394 157.054 307.291C156.486 307.187 155.899 307.257 155.37 307.49C154.897 307.719 154.488 308.063 154.18 308.49C153.882 308.879 153.608 309.287 153.36 309.71C153.786 309.47 154.194 309.2 154.58 308.9C154.894 308.619 155.272 308.42 155.68 308.32C156.042 308.229 156.421 308.231 156.782 308.327C157.142 308.424 157.472 308.61 157.74 308.87C158.03 309.181 158.386 309.422 158.782 309.576C159.178 309.731 159.604 309.794 160.027 309.761C160.451 309.728 160.862 309.601 161.229 309.388C161.597 309.175 161.912 308.881 162.15 308.53C162.4 308.12 162.73 307.74 162.96 307.31C162.53 307.58 162.15 307.87 161.74 308.13ZM189.83 262.51C189.519 262.788 189.139 262.978 188.73 263.06C188.362 263.143 187.978 263.129 187.617 263.019C187.255 262.908 186.929 262.705 186.67 262.43C186.25 262.031 185.72 261.766 185.149 261.668C184.577 261.57 183.99 261.644 183.46 261.88C182.976 262.093 182.563 262.44 182.27 262.88C182.01 263.28 181.69 263.66 181.45 264.1C181.89 263.83 182.27 263.54 182.67 263.28C182.981 262.992 183.365 262.795 183.78 262.71C184.142 262.607 184.525 262.601 184.89 262.692C185.255 262.784 185.589 262.969 185.86 263.23C186.26 263.644 186.775 263.929 187.339 264.046C187.902 264.164 188.488 264.11 189.02 263.89C189.52 263.676 189.952 263.33 190.27 262.89C190.53 262.48 190.81 262.1 191.05 261.67C190.62 262 190.24 262.25 189.83 262.51ZM224.29 222.51C223.973 222.785 223.591 222.974 223.18 223.06C222.813 223.146 222.43 223.133 222.07 223.022C221.71 222.911 221.386 222.707 221.13 222.43C220.704 222.037 220.173 221.776 219.602 221.678C219.03 221.581 218.443 221.651 217.91 221.88C217.428 222.096 217.016 222.442 216.72 222.88C216.46 223.29 216.14 223.67 215.91 224.1C216.34 223.84 216.72 223.55 217.13 223.29C217.439 223.008 217.814 222.808 218.22 222.71C218.584 222.606 218.968 222.6 219.335 222.691C219.702 222.782 220.038 222.968 220.31 223.23C220.604 223.535 220.961 223.771 221.357 223.921C221.752 224.072 222.176 224.132 222.598 224.099C223.02 224.065 223.429 223.939 223.796 223.728C224.163 223.517 224.479 223.228 224.72 222.88C224.99 222.47 225.27 222.1 225.51 221.66C225.07 221.94 224.69 222.23 224.29 222.48V222.51ZM229.41 249.01C229.3 248.54 229.24 248.08 229.12 247.59C228.98 248.08 228.92 248.54 228.83 249.01C228.798 249.439 228.672 249.855 228.46 250.23C228.27 250.554 227.998 250.823 227.672 251.011C227.346 251.199 226.977 251.298 226.6 251.3C226.023 251.296 225.458 251.465 224.979 251.786C224.499 252.107 224.127 252.565 223.91 253.1C223.683 253.588 223.633 254.14 223.77 254.66C223.85 255.15 223.91 255.66 224.02 256.08C224.149 255.614 224.246 255.139 224.31 254.66C224.361 254.248 224.501 253.852 224.72 253.5C224.924 253.181 225.207 252.921 225.542 252.746C225.877 252.571 226.252 252.486 226.63 252.5C227.211 252.477 227.772 252.286 228.246 251.951C228.72 251.615 229.086 251.15 229.3 250.61C229.467 250.09 229.505 249.538 229.41 249V249.01ZM187 284.22C186.934 283.742 186.841 283.268 186.72 282.8C186.6 283.26 186.54 283.73 186.42 284.22C186.398 284.639 186.278 285.046 186.07 285.41C185.883 285.735 185.613 286.005 185.288 286.192C184.964 286.38 184.595 286.479 184.22 286.48C183.642 286.486 183.077 286.659 182.594 286.978C182.112 287.297 181.732 287.75 181.5 288.28C181.311 288.781 181.259 289.323 181.35 289.85C181.423 290.335 181.52 290.815 181.64 291.29C181.771 290.817 181.867 290.336 181.93 289.85C181.966 289.432 182.107 289.029 182.34 288.68C182.542 288.36 182.826 288.099 183.161 287.923C183.496 287.748 183.872 287.664 184.25 287.68C184.828 287.656 185.386 287.466 185.858 287.132C186.33 286.799 186.695 286.336 186.91 285.8C187.089 285.293 187.121 284.745 187 284.22ZM243 277.37C242.673 277.642 242.296 277.849 241.89 277.98C241.523 278.068 241.139 278.063 240.774 277.965C240.409 277.867 240.075 277.68 239.8 277.42C239.397 277.015 238.884 276.736 238.324 276.619C237.764 276.502 237.183 276.551 236.65 276.76C236.145 276.96 235.713 277.309 235.41 277.76C235.14 278.17 234.85 278.55 234.59 278.98C235.03 278.72 235.41 278.43 235.81 278.17C236.134 277.911 236.509 277.723 236.91 277.62C237.284 277.548 237.669 277.568 238.033 277.678C238.397 277.787 238.729 277.984 239 278.25C239.421 278.652 239.952 278.919 240.525 279.019C241.099 279.118 241.688 279.046 242.22 278.81C242.701 278.568 243.111 278.207 243.41 277.76C243.66 277.36 243.96 276.99 244.18 276.55C243.8 276.82 243.43 277.11 243 277.37ZM213 278.31C212.591 278.269 212.195 278.139 211.84 277.93C211.522 277.726 211.263 277.442 211.088 277.107C210.912 276.772 210.827 276.398 210.84 276.02C210.818 275.44 210.627 274.879 210.291 274.405C209.956 273.931 209.49 273.564 208.95 273.35C208.45 273.157 207.903 273.119 207.38 273.24C206.89 273.35 206.43 273.41 205.94 273.52C206.413 273.653 206.894 273.754 207.38 273.82C207.802 273.841 208.213 273.961 208.58 274.17C208.908 274.353 209.184 274.618 209.38 274.938C209.576 275.259 209.686 275.625 209.7 276C209.706 276.579 209.879 277.143 210.198 277.626C210.518 278.109 210.97 278.489 211.5 278.72C211.998 278.921 212.544 278.973 213.07 278.87C213.56 278.78 214.07 278.72 214.52 278.58C214 278.48 213.56 278.42 213.07 278.31H213ZM192.87 315.79C192.45 315.75 192.043 315.617 191.68 315.4C191.366 315.189 191.11 314.903 190.936 314.568C190.761 314.232 190.673 313.858 190.68 313.48C190.678 313.056 190.581 312.638 190.396 312.256C190.212 311.874 189.945 311.538 189.615 311.272C189.285 311.005 188.899 310.816 188.487 310.717C188.075 310.618 187.645 310.613 187.23 310.7C186.74 310.81 186.28 310.87 185.81 310.99C186.277 311.114 186.751 311.208 187.23 311.27C187.652 311.3 188.059 311.431 188.42 311.65C188.75 311.838 189.026 312.108 189.22 312.434C189.415 312.76 189.521 313.131 189.53 313.51C189.521 314.084 189.685 314.648 190.001 315.128C190.316 315.608 190.769 315.981 191.3 316.2C191.802 316.412 192.357 316.464 192.89 316.35C193.368 316.278 193.842 316.182 194.31 316.06C193.86 316 193.4 315.89 192.94 315.79H192.87ZM224.53 331.79C224.11 331.749 223.706 331.608 223.35 331.38C223.034 331.172 222.776 330.886 222.6 330.55C222.425 330.214 222.339 329.839 222.35 329.46C222.342 328.879 222.158 328.313 221.823 327.839C221.487 327.364 221.016 327.002 220.47 326.8C219.967 326.633 219.429 326.602 218.91 326.71C218.45 326.8 217.96 326.86 217.49 326.98C217.958 327.101 218.432 327.195 218.91 327.26C219.326 327.303 219.728 327.433 220.09 327.64C220.419 327.827 220.693 328.096 220.888 328.42C221.082 328.744 221.19 329.112 221.2 329.49C221.188 330.066 221.35 330.633 221.666 331.115C221.982 331.597 222.437 331.972 222.97 332.19C223.23 332.306 223.507 332.378 223.79 332.4C224.046 332.431 224.305 332.431 224.56 332.4C225.02 332.28 225.48 332.22 225.99 332.1C225.52 332 225.06 331.93 224.6 331.84L224.53 331.79ZM205.28 243.49C204.864 243.445 204.464 243.305 204.11 243.08C203.789 242.876 203.528 242.591 203.352 242.254C203.177 241.917 203.093 241.54 203.11 241.16C203.086 240.583 202.896 240.025 202.563 239.553C202.229 239.081 201.767 238.715 201.23 238.5C200.724 238.331 200.182 238.3 199.66 238.41C199.17 238.5 198.71 238.56 198.21 238.7C198.71 238.82 199.21 238.87 199.66 238.97C200.079 239.009 200.484 239.135 200.85 239.34C201.171 239.534 201.438 239.807 201.625 240.132C201.812 240.457 201.914 240.825 201.92 241.2C201.921 241.777 202.092 242.342 202.412 242.822C202.733 243.302 203.188 243.677 203.72 243.9C204.217 244.103 204.761 244.162 205.29 244.07C205.78 243.95 206.29 243.9 206.71 243.77C206.262 243.665 205.808 243.589 205.35 243.54L205.28 243.49Z" fill="white"/>
<path d="M202.4 227.22C178.47 256.33 150.69 314.22 157.91 325.06C165.91 337.13 198.97 297.66 198.63 295.49C198.37 293.84 208.19 258.49 215.73 232.8C223.27 207.11 208.32 220 202.4 227.22Z" fill="#EB9481"/>
<path d="M198.88 295.5C199.67 291.75 213.15 245.13 216.88 230.44C220.61 215.75 215.55 211.76 202.39 226.11C189.23 240.46 162.26 284.65 157.18 308.42C152.29 331.32 163.23 332.5 177.43 320.86C189.07 311.33 198.88 295.5 198.88 295.5Z" fill="white"/>
<path d="M205.35 243.54C204.933 243.495 204.533 243.355 204.18 243.13C203.859 242.926 203.597 242.641 203.422 242.304C203.246 241.967 203.163 241.59 203.18 241.21C203.156 240.633 202.966 240.075 202.632 239.603C202.299 239.131 201.836 238.765 201.3 238.55C200.794 238.381 200.252 238.35 199.73 238.46C199.24 238.55 198.78 238.61 198.28 238.75C198.78 238.87 199.28 238.92 199.73 239.02C200.148 239.059 200.553 239.185 200.92 239.39C201.241 239.584 201.507 239.857 201.694 240.182C201.881 240.507 201.983 240.875 201.99 241.25C201.99 241.827 202.162 242.392 202.482 242.872C202.802 243.352 203.257 243.727 203.79 243.95C204.287 244.153 204.831 244.212 205.36 244.12C205.85 244 206.36 243.95 206.78 243.82C206.31 243.696 205.832 243.602 205.35 243.54ZM187.28 310.7C186.79 310.81 186.33 310.87 185.86 310.99C186.283 311.106 186.714 311.193 187.15 311.25L187.66 310.65C187.532 310.656 187.405 310.672 187.28 310.7ZM187 284.22C186.933 283.742 186.84 283.268 186.72 282.8C186.6 283.26 186.54 283.73 186.42 284.22C186.397 284.639 186.277 285.046 186.07 285.41C185.882 285.735 185.613 286.005 185.288 286.193C184.963 286.38 184.595 286.479 184.22 286.48C183.641 286.486 183.076 286.659 182.594 286.978C182.111 287.297 181.731 287.75 181.5 288.28C181.311 288.781 181.259 289.323 181.35 289.85C181.422 290.335 181.519 290.815 181.64 291.29C181.77 290.817 181.867 290.336 181.93 289.85C181.965 289.432 182.106 289.029 182.34 288.68C182.542 288.36 182.825 288.099 183.16 287.923C183.496 287.748 183.871 287.664 184.25 287.68C184.827 287.656 185.385 287.466 185.857 287.132C186.329 286.799 186.694 286.336 186.91 285.8C187.089 285.293 187.12 284.745 187 284.22ZM218.05 221.79L217.9 221.85C217.417 222.066 217.005 222.412 216.71 222.85C216.45 223.26 216.13 223.64 215.9 224.07C216.33 223.81 216.71 223.52 217.12 223.26C217.39 223.014 217.711 222.83 218.06 222.72C218.078 222.41 218.078 222.1 218.06 221.79H218.05ZM189.82 262.51C189.509 262.788 189.129 262.978 188.72 263.06C188.351 263.143 187.967 263.129 187.606 263.019C187.245 262.908 186.919 262.705 186.66 262.43C186.239 262.031 185.71 261.766 185.138 261.668C184.567 261.57 183.979 261.644 183.45 261.88C182.966 262.093 182.553 262.44 182.26 262.88C182 263.28 181.68 263.66 181.44 264.1C181.88 263.83 182.26 263.54 182.66 263.28C182.971 262.992 183.355 262.795 183.77 262.71C184.132 262.607 184.514 262.601 184.879 262.692C185.244 262.784 185.579 262.969 185.85 263.23C186.249 263.644 186.765 263.929 187.328 264.046C187.892 264.164 188.478 264.11 189.01 263.89C189.509 263.676 189.941 263.33 190.26 262.89C190.52 262.48 190.8 262.1 191.04 261.67C190.62 262 190.24 262.25 189.83 262.51H189.82ZM161.73 308.13C161.424 308.416 161.042 308.607 160.63 308.68C160.26 308.769 159.873 308.759 159.508 308.652C159.144 308.545 158.813 308.344 158.55 308.07C158.23 307.755 157.839 307.521 157.41 307.39C157.33 307.74 157.25 308.08 157.18 308.39C157.18 308.39 157.18 308.46 157.18 308.49C157.396 308.577 157.59 308.71 157.75 308.88C158.04 309.191 158.396 309.432 158.791 309.586C159.187 309.741 159.613 309.804 160.036 309.771C160.46 309.738 160.871 309.611 161.238 309.398C161.606 309.185 161.921 308.891 162.16 308.54C162.41 308.13 162.74 307.75 162.97 307.32C162.53 307.58 162.15 307.87 161.74 308.13H161.73Z" fill="white"/>
<path d="M197.16 301.53C198.3 296.84 199.51 292.17 200.74 287.53C201.97 282.89 203.24 278.22 204.49 273.53L208.4 259.6L210.4 252.6C211.09 250.29 211.77 247.97 212.48 245.67C211.92 248.01 211.31 250.35 210.73 252.67L208.91 259.67L205.15 273.67C203.85 278.31 202.57 282.96 201.24 287.6C199.91 292.24 198.58 296.92 197.16 301.53Z" fill="#263238"/>
<path d="M209.71 256.57C210.146 255.377 210.667 254.218 211.27 253.1C211.56 252.54 211.86 251.99 212.19 251.44C212.52 250.89 212.84 250.36 213.19 249.82C212.836 251.046 212.35 252.229 211.74 253.35C211.152 254.477 210.473 255.553 209.71 256.57Z" fill="#263238"/>
<path d="M158 325C164.6 333.54 179.71 334.86 222 341.06C227.86 341.92 246.28 301.49 240.08 300.25C232.26 298.69 201.59 294.33 199.31 294.3C180 294 153.47 319.21 158 325Z" fill="#EB9481"/>
<path d="M225.691 300.15C225.691 300.15 241.761 298.47 252.331 297.86C258.231 297.52 268.391 297.86 272.831 299.58C279.481 302.17 305.631 317.25 302.111 323.67C298.921 329.48 278.111 313.67 278.111 313.67C278.111 313.67 300.531 327.77 295.411 334.06C290.291 340.35 269.131 319.36 269.131 319.36C269.131 319.36 291.841 334.36 285.531 340.01C280.761 344.28 260.531 326.35 260.531 326.35C260.531 326.35 279.961 339.35 275.251 343.98C270.031 349.07 250.331 333.68 250.331 333.68C236.331 343.36 225.771 342.27 218.331 340.59C216.511 340.18 225.691 300.15 225.691 300.15Z" fill="#EB9481"/>
<path d="M270.66 308.3C273.35 309.86 276.09 311.42 278.66 313.21C281.23 315 283.66 316.9 286.06 318.92C289.21 321.499 292.049 324.435 294.52 327.67C289.71 322.26 280.69 315.67 278.15 313.9C275.61 312.13 273.15 310.19 270.62 308.39C270.52 308.35 270.59 308.26 270.66 308.3Z" fill="#263238"/>
<path d="M264.001 317.37C267.351 319.51 270.761 321.52 274.001 323.81C277.241 326.1 280.121 328.53 283.201 331.03C283.441 331.22 283.201 331.29 283.011 331.1C279.831 328.73 276.721 326.78 273.511 324.45C270.301 322.12 267.201 319.65 263.921 317.45C263.901 317.41 264.001 317.34 264.001 317.37Z" fill="#263238"/>
<path d="M256.901 324.13C262.125 327.283 267.007 330.969 271.471 335.13C271.701 335.33 271.471 335.38 271.211 335.19C266.441 331.44 262.721 328.46 256.801 324.3C256.711 324.25 256.791 324.07 256.901 324.13Z" fill="#263238"/>
<path d="M235.28 298.56L200.51 341.22C200.51 341.22 163.41 334.32 157.51 325.06C153.61 318.96 179.9 292.38 201.15 294.33L235.28 298.56Z" fill="white"/>
<path d="M194.86 335.42C194.527 335.688 194.137 335.876 193.72 335.97C193.353 336.042 192.974 336.022 192.616 335.912C192.259 335.802 191.934 335.606 191.67 335.34C191.257 334.926 190.725 334.651 190.149 334.55C189.573 334.45 188.979 334.53 188.45 334.78C187.967 335.017 187.556 335.38 187.26 335.83C187 336.21 186.72 336.57 186.45 337.01C186.873 336.768 187.28 336.501 187.67 336.21C188 335.951 188.372 335.751 188.77 335.62C189.138 335.531 189.522 335.536 189.887 335.634C190.252 335.732 190.587 335.919 190.86 336.18C191.269 336.58 191.784 336.854 192.344 336.971C192.904 337.088 193.486 337.043 194.02 336.84C194.52 336.631 194.95 336.284 195.26 335.84C195.52 335.43 195.81 335.05 196.04 334.62C195.632 334.864 195.238 335.131 194.86 335.42ZM223.39 302.89C223.059 303.159 222.668 303.344 222.25 303.43C221.883 303.507 221.503 303.489 221.144 303.379C220.786 303.269 220.461 303.07 220.2 302.8C219.786 302.388 219.255 302.113 218.679 302.013C218.103 301.912 217.51 301.992 216.98 302.24C216.497 302.477 216.086 302.84 215.79 303.29C215.53 303.67 215.25 304.04 214.98 304.47C215.405 304.232 215.813 303.964 216.2 303.67C216.535 303.418 216.906 303.219 217.3 303.08C217.668 302.991 218.052 302.996 218.417 303.094C218.782 303.191 219.117 303.379 219.39 303.64C219.793 304.05 220.308 304.331 220.871 304.448C221.433 304.566 222.017 304.514 222.55 304.3C223.052 304.094 223.483 303.747 223.79 303.3C224.05 302.9 224.34 302.52 224.57 302.08C224.162 302.327 223.768 302.598 223.39 302.89ZM168.26 329.35C168.15 328.86 168.09 328.35 167.97 327.94C167.842 328.403 167.745 328.874 167.68 329.35C167.66 329.776 167.529 330.19 167.3 330.55C167.095 330.898 166.797 331.182 166.44 331.37L167.56 331.87C167.823 331.6 168.024 331.275 168.15 330.92C168.319 330.414 168.357 329.874 168.26 329.35ZM192.94 315.79C192.52 315.75 192.113 315.617 191.75 315.4C191.436 315.189 191.18 314.903 191.006 314.568C190.831 314.232 190.743 313.858 190.75 313.48C190.748 313.056 190.651 312.638 190.466 312.256C190.282 311.874 190.015 311.538 189.685 311.272C189.355 311.005 188.969 310.816 188.557 310.717C188.145 310.618 187.715 310.613 187.3 310.7C186.81 310.81 186.35 310.87 185.88 310.99C186.347 311.114 186.822 311.208 187.3 311.27C187.722 311.3 188.13 311.431 188.49 311.65C188.82 311.838 189.096 312.108 189.29 312.434C189.485 312.76 189.592 313.131 189.6 313.51C189.591 314.084 189.755 314.648 190.071 315.128C190.387 315.608 190.839 315.981 191.37 316.2C191.873 316.412 192.428 316.464 192.96 316.35C193.439 316.278 193.913 316.182 194.38 316.06C193.86 316 193.4 315.89 192.94 315.79Z" fill="white"/>
<path d="M176.26 302.19C179.55 299.56 188.85 293.35 201.15 294.29C201.26 294.29 201.27 294.48 201.15 294.48C191.92 294.66 179.72 300.07 176.34 302.34C176.26 302.39 176.18 302.25 176.26 302.19Z" fill="#263238"/>
<path d="M190.14 334.86C193.71 329.96 197.54 325.26 201.38 320.57C205.22 315.88 209.06 311.18 213.02 306.57C215.26 303.97 217.49 301.36 219.82 298.84C219.88 298.78 220 298.84 219.95 298.94C216.38 303.83 212.57 308.55 208.76 313.25C204.95 317.95 201.08 322.66 197.17 327.3C194.97 329.92 192.71 332.51 190.38 335.02C190.27 335.16 190 335 190.14 334.86Z" fill="#263238"/>
<path d="M235.321 298C233.019 297.425 230.68 297.011 228.321 296.76C225.981 296.44 223.647 296.15 221.321 295.89C216.651 295.37 206.821 293.73 198.321 294.17C198.221 294.17 198.731 294.61 198.821 294.6C202.881 294.18 232.341 298.6 234.741 298.6C234.651 298.77 234.571 298.93 234.501 299.1C234.431 299.27 234.591 299.37 234.711 299.28C235.001 299.06 235.201 298.8 235.471 298.57C235.513 298.528 235.544 298.475 235.56 298.418C235.575 298.36 235.576 298.299 235.56 298.242C235.545 298.184 235.515 298.131 235.473 298.089C235.431 298.046 235.378 298.016 235.321 298Z" fill="#263238"/>
<path d="M187.52 246.12C178.68 261.32 149.25 309.49 157.52 325.26C156.583 323.695 156 321.944 155.81 320.13C153.92 299.92 176.1 263.18 187.48 246.13L187.52 246.12Z" fill="#263238"/>
<path d="M184.811 247.88C183.981 250.26 183.161 252.57 182.101 254.88C182.467 252.373 183.393 249.98 184.811 247.88Z" fill="#263238"/>
<path d="M234.19 230.32C229.58 231.32 220.14 225.67 217.01 219.03C216.8 218.58 217.76 213.98 218.66 208.34C219.2 204.91 219.71 201.08 219.92 197.55C219.97 196.83 241.72 204.28 241.72 204.28C240.176 208.611 239.168 213.114 238.72 217.69C238.697 218.178 238.72 218.667 238.79 219.15C238.79 219.22 238.79 219.3 238.79 219.39C239.11 222.17 239.13 229.27 234.19 230.32Z" fill="#EB9481"/>
<path d="M238.82 219.15C238.82 219.22 238.82 219.31 238.82 219.39C238.065 219.45 237.306 219.45 236.55 219.39C223.55 218.31 221.11 201.8 220.7 197.63C224.59 198.43 241.7 204.3 241.7 204.3C240.157 208.634 239.15 213.141 238.7 217.72C238.695 218.199 238.735 218.678 238.82 219.15Z" fill="#263238"/>
<path d="M244.59 159.26C245.83 159.1 252.67 167.35 253.34 171.67C254.01 175.99 253.73 184.81 252.49 185.15C251.25 185.49 243.63 159.38 244.59 159.26Z" fill="#263238"/>
<path d="M215.19 172.35C213.26 180.35 218.74 202.76 224.62 207.48C233.14 214.33 246.42 214.25 252.07 204.16C257.55 194.37 249.89 165.28 243.38 161.06C233.8 154.84 218 160.56 215.19 172.35Z" fill="#EB9481"/>
<path d="M247 183.11C247 183.05 247.13 183.11 247.15 183.22C247.4 184.76 247.95 186.47 249.43 186.7C249.43 186.7 249.49 186.79 249.43 186.79C247.67 186.89 247 184.61 247 183.11Z" fill="#263238"/>
<path d="M248 181.25C250.41 180.58 251.58 185.46 249.34 186.08C247.1 186.7 246 181.81 248 181.25Z" fill="#263238"/>
<path d="M238.43 185.11C238.43 185.06 238.33 185.21 238.35 185.27C238.74 186.78 238.94 188.57 237.68 189.38C237.68 189.38 237.68 189.48 237.68 189.46C239.34 188.85 239.05 186.47 238.43 185.11Z" fill="#263238"/>
<path d="M236.72 183.84C234.24 184.21 235.17 189.14 237.46 188.84C239.75 188.54 238.8 183.53 236.72 183.84Z" fill="#263238"/>
<path d="M234.721 180.74C235.371 180.46 235.921 180.1 236.541 179.74C237.161 179.38 237.821 179.12 238.191 178.38C238.273 178.161 238.281 177.922 238.214 177.698C238.147 177.474 238.009 177.278 237.821 177.14C237.404 176.925 236.938 176.825 236.47 176.852C236.002 176.878 235.55 177.029 235.161 177.29C234.29 177.695 233.599 178.407 233.221 179.29C233.139 179.498 233.121 179.725 233.168 179.943C233.216 180.161 233.327 180.36 233.487 180.515C233.648 180.67 233.85 180.774 234.07 180.814C234.289 180.854 234.516 180.829 234.721 180.74Z" fill="#263238"/>
<path d="M249.22 177.64C248.532 177.64 247.844 177.6 247.16 177.52C246.431 177.585 245.702 177.401 245.09 177C244.922 176.838 244.811 176.624 244.777 176.392C244.743 176.161 244.786 175.924 244.9 175.72C245.186 175.349 245.566 175.061 246 174.886C246.434 174.71 246.907 174.653 247.37 174.72C248.331 174.72 249.257 175.076 249.97 175.72C250.123 175.876 250.227 176.072 250.271 176.285C250.314 176.498 250.295 176.72 250.216 176.923C250.137 177.125 250.001 177.301 249.824 177.428C249.647 177.556 249.438 177.629 249.22 177.64Z" fill="#263238"/>
<path d="M239.56 199.18C239.96 199.51 240.37 199.98 240.93 199.99C241.507 199.932 242.065 199.755 242.57 199.47C242.57 199.47 242.67 199.47 242.64 199.54C242.443 199.863 242.163 200.127 241.828 200.303C241.494 200.479 241.118 200.561 240.74 200.54C240.417 200.481 240.119 200.328 239.882 200.1C239.646 199.873 239.481 199.58 239.41 199.26C239.38 199.17 239.5 199.13 239.56 199.18Z" fill="#263238"/>
<path d="M240.19 194.16C240.695 194.687 241.305 195.104 241.979 195.383C242.654 195.662 243.38 195.797 244.11 195.78C244.75 195.782 245.387 195.687 246 195.5L246.35 195.39L246.67 195.27C246.747 195.237 246.811 195.18 246.854 195.109C246.897 195.037 246.917 194.953 246.91 194.87C246.914 194.817 246.914 194.763 246.91 194.71V194.58C246.71 193.4 246.24 191.64 246.24 191.64C246.71 191.77 249.09 192.32 248.94 191.71C247.63 186.71 246.17 181.11 243.81 176.4C243.804 176.382 243.795 176.366 243.782 176.352C243.77 176.338 243.755 176.326 243.739 176.318C243.722 176.309 243.704 176.304 243.685 176.303C243.666 176.302 243.648 176.304 243.63 176.31C243.612 176.316 243.596 176.325 243.582 176.338C243.568 176.35 243.556 176.365 243.548 176.381C243.539 176.398 243.534 176.416 243.533 176.435C243.532 176.454 243.534 176.472 243.54 176.49C244.6 181.36 246.54 186.01 247.67 190.89C246.823 190.682 245.951 190.594 245.08 190.63C244.92 190.71 246.08 194.02 246.08 194.56V194.62C244.16 195.26 242.55 194.96 240.38 194.02C240.18 193.93 240.08 194.06 240.19 194.16Z" fill="#263238"/>
<path d="M245.27 195.33C244.764 196.241 244.035 197.008 243.15 197.56C242.661 197.844 242.094 197.966 241.53 197.91C240.3 197.78 240.1 196.69 240.18 195.73C240.225 195.22 240.329 194.716 240.49 194.23C241.926 195.095 243.601 195.48 245.27 195.33Z" fill="#263238"/>
<path d="M243.15 197.56C242.661 197.844 242.094 197.966 241.53 197.91C240.3 197.78 240.1 196.69 240.18 195.73C240.809 195.656 241.445 195.796 241.984 196.128C242.523 196.461 242.934 196.965 243.15 197.56Z" fill="#FF9BBC"/>
<path d="M219.81 192.23C223.81 191.7 224.76 186.91 224.74 180.5C224.74 176.76 222.19 169.86 222.19 169.86C222.19 169.86 233.27 172.31 238.84 170.54C244.41 168.77 248.17 162.78 246.91 158.38C245.83 154.6 238.27 151.07 229.7 152.61C223.7 153.69 214.78 160.68 211.8 168.03C211.8 168.03 205.14 173.27 207.51 178.65C209.88 184.03 215.26 192.83 219.81 192.23Z" fill="#263238"/>
<path d="M220 191.72C225.41 191.66 226.4 183.27 225.62 179.18C224.81 174.94 222.23 171.04 220.62 167.1C223.49 171.69 226.79 177.58 226.26 183.18C225.93 186.7 224.74 192.67 220.01 192.04C219.82 192 219.81 191.72 220 191.72Z" fill="#263238"/>
<path d="M206.001 177.2C205.951 173.57 209.141 169.26 212.271 167.71C208.631 170.04 205.061 175.65 207.271 179.81C209.051 183.15 211.811 187.44 214.861 189.72C214.941 189.78 214.861 189.89 214.771 189.84C212.441 188.36 211.051 186.06 209.501 183.84C208.201 181.94 206.001 179.71 206.001 177.2Z" fill="#263238"/>
<path d="M211.16 168.73C214.32 160.97 222.71 151.09 231.79 151.22C222.33 151.88 215.79 161.51 211.53 168.9C211.4 169.15 211.07 168.94 211.16 168.73Z" fill="#263238"/>
<path d="M222.75 190.74C222.75 190.74 217.06 183.83 213.88 185.92C210.7 188.01 215.39 198.31 219.41 199.45C219.915 199.628 220.45 199.703 220.984 199.671C221.518 199.638 222.04 199.499 222.519 199.261C222.998 199.024 223.425 198.692 223.774 198.286C224.123 197.881 224.387 197.409 224.55 196.9L222.75 190.74Z" fill="#EB9481"/>
<path d="M215.3 188.84C215.287 188.84 215.274 188.845 215.265 188.855C215.255 188.864 215.25 188.877 215.25 188.89C215.25 188.903 215.255 188.916 215.265 188.925C215.274 188.935 215.287 188.94 215.3 188.94C218.12 189.83 219.76 192.25 220.97 194.8C220.789 194.54 220.554 194.322 220.281 194.161C220.008 194 219.703 193.9 219.388 193.868C219.073 193.835 218.754 193.872 218.454 193.974C218.154 194.076 217.88 194.242 217.65 194.46C217.58 194.52 217.65 194.63 217.74 194.6C218.209 194.413 218.724 194.374 219.215 194.488C219.707 194.603 220.152 194.865 220.49 195.24C221.042 195.881 221.531 196.574 221.95 197.31C222.09 197.55 222.52 197.38 222.41 197.11V197.04C222.16 193.55 219.07 188.89 215.3 188.84Z" fill="#263238"/>
<path d="M240.69 220C240.674 221.381 240.584 222.759 240.42 224.13C240.303 225.383 240.068 226.621 239.72 227.83C239.377 229.028 238.759 230.129 237.915 231.046C237.071 231.962 236.025 232.669 234.86 233.11C232.471 233.892 229.875 233.746 227.59 232.7C225.388 231.623 223.383 230.183 221.66 228.44C220.593 227.447 219.573 226.413 218.6 225.34C218.12 224.79 217.6 224.25 217.17 223.68C216.74 223.11 216.29 222.53 215.8 221.99C215.8 221.99 215.65 221.99 215.68 222.05C216.68 223.35 219.63 227.47 220.6 228.47C222.305 230.41 224.335 232.038 226.6 233.28C229.011 234.498 231.784 234.797 234.4 234.12C235.675 233.778 236.85 233.134 237.824 232.243C238.799 231.352 239.545 230.24 240 229C240.473 227.615 240.726 226.164 240.75 224.7C240.83 223.1 240.75 221.51 240.75 219.93C240.72 219.93 240.69 219.94 240.69 220Z" fill="#263238"/>
<path d="M340.88 69.43C340.088 63.8606 339.983 58.2148 340.57 52.62C341.359 58.1897 341.463 63.835 340.88 69.43Z" fill="#263238"/>
<path d="M302.51 80.13C299.042 75.7023 296.131 70.8662 293.84 65.73C297.309 70.1567 300.221 74.9929 302.51 80.13Z" fill="#263238"/>
<path d="M274.63 108.59C269.413 106.492 264.476 103.758 259.93 100.45C265.144 102.552 270.081 105.286 274.63 108.59Z" fill="#263238"/>
<path d="M264.72 147.17C259.154 147.958 253.512 148.062 247.92 147.48C253.486 146.687 259.128 146.583 264.72 147.17Z" fill="#263238"/>
<path d="M275.43 185.54C271 189.003 266.164 191.915 261.03 194.21C265.457 190.741 270.293 187.829 275.43 185.54Z" fill="#263238"/>
<path d="M408.71 184.16C413.926 186.258 418.864 188.992 423.41 192.3C418.197 190.196 413.26 187.462 408.71 184.16Z" fill="#263238"/>
<path d="M418.62 145.58C424.187 144.792 429.828 144.688 435.42 145.27C429.854 146.063 424.212 146.167 418.62 145.58Z" fill="#263238"/>
<path d="M407.91 107.21C412.341 103.747 417.176 100.835 422.31 98.54C417.883 102.009 413.047 104.921 407.91 107.21Z" fill="#263238"/>
<path d="M379.46 79.34C381.56 74.1237 384.291 69.1837 387.59 64.63C385.493 69.8481 382.763 74.7885 379.46 79.34Z" fill="#263238"/>
<g opacity="0.5">
<path d="M407 150.29C403.76 190.85 370 203.08 370 203.08C367.52 209.24 364.28 224.92 364.28 224.92H319.18C319.18 224.92 315.94 209.24 313.46 203.08C313.46 203.08 279.67 190.85 276.46 150.29C274.21 122.11 294.28 80.46 341.52 80.45H342.01C389.15 80.46 409.22 122.11 407 150.29Z" fill="#FFF15B"/>
</g>
<g opacity="0.7">
<path d="M401.4 150.5C398.4 187.59 367.53 198.77 367.53 198.77C365.26 204.41 362.3 224.92 362.3 224.92H321C321 224.92 318 204.41 315.77 198.77C315.77 198.77 284.87 187.59 281.91 150.5C279.85 124.72 298.2 86.62 341.41 86.61H341.85C385.1 86.62 403.45 124.72 401.4 150.5Z" fill="#FFF15B"/>
</g>
<path d="M318.935 157.44L315.986 157.99L329.25 229.002L332.199 228.451L318.935 157.44Z" fill="#263238"/>
<path d="M364.414 157.466L351.175 228.482L354.124 229.032L367.363 158.016L364.414 157.466Z" fill="#263238"/>
<path d="M341.67 181.28C337.67 181.28 333.94 177.53 331.33 172.73C330.879 173.334 330.305 173.835 329.647 174.202C328.989 174.569 328.261 174.793 327.51 174.86C320.87 174.86 318.2 161.13 318.09 160.54L319.09 160.36C319.09 160.49 321.71 173.86 327.52 173.86C328.57 173.86 329.74 173.11 330.84 171.77C328.829 167.852 327.699 163.541 327.53 159.14C327.53 155.32 328.96 153.14 331.45 153.14C332.184 153.118 332.911 153.298 333.549 153.662C334.188 154.025 334.714 154.557 335.07 155.2C337.07 158.67 335.6 165.87 332.98 170.42C332.67 170.95 332.35 171.42 331.98 171.88C334.43 176.57 337.91 180.29 341.63 180.29C345.03 180.29 348.01 177.18 350.14 173.05C347.51 170.2 346.02 165.55 346.02 161.11C346.02 156.19 347.85 153.11 350.81 153.11C353.19 153.11 354.55 155.51 354.56 159.68C354.4 164.252 353.3 168.742 351.33 172.87C352.545 174.071 354.181 174.75 355.89 174.76C360.02 174.76 363.65 164.96 364.7 161.18L365.7 161.45C365.54 162.03 361.7 175.76 355.93 175.76C354.072 175.739 352.289 175.026 350.93 173.76C348.7 178 345.55 181.28 341.67 181.28ZM350.85 154.12C348.05 154.12 347.06 157.88 347.06 161.12C347.06 164.65 348.22 169.26 350.64 172.12C352.486 168.231 353.508 164.003 353.64 159.7C353.59 158 353.33 154.12 350.85 154.12ZM331.44 154.12C328.9 154.12 328.52 157.26 328.52 159.12C328.693 163.19 329.715 167.178 331.52 170.83C331.72 170.54 331.92 170.22 332.11 169.89C334.55 165.67 336.01 158.79 334.2 155.67C333.935 155.176 333.534 154.769 333.045 154.496C332.556 154.223 331.999 154.096 331.44 154.13V154.12Z" fill="#263238"/>
<path d="M369.92 224.98H313.42V256.08H369.92V224.98Z" fill="#C7C7C7"/>
<path d="M363.52 256.07C360.19 261.96 353.82 267.23 341.67 267.23C329.52 267.23 323.15 261.96 319.83 256.07H363.52Z" fill="#C7C7C7"/>
<path d="M363.52 256.07C362.536 257.833 361.299 259.444 359.85 260.85L320.95 257.85C320.544 257.271 320.17 256.67 319.83 256.05L363.52 256.07Z" fill="#A6A6A6"/>
<path d="M371.57 230.91L311.77 236.44V233.72L371.57 228.19V230.91Z" fill="#A6A6A6"/>
<path d="M371.57 239.12L311.77 244.65V241.93L371.57 236.4V239.12Z" fill="#A6A6A6"/>
<path d="M371.57 247.32L311.77 252.85V250.14L371.57 244.61V247.32Z" fill="#A6A6A6"/>
<g opacity="0.5">
<path d="M290.6 140.82C292.68 141.16 295.36 130.47 306.85 118.1C311.96 112.6 331.33 105.73 329.94 99.38C328.55 93.03 311.26 99.56 302.56 109.63C288.57 125.84 288.7 140.5 290.6 140.82Z" fill="#FFF15B"/>
<path d="M392.529 143C396.349 143 396.349 137.08 392.529 137.08C388.709 137.08 388.719 143 392.529 143Z" fill="#FFF15B"/>
<path d="M373.89 187.58C375.97 189.17 386.08 179.84 390.64 168.71C394.43 159.47 395.08 147.78 392.53 147.1C389.98 146.42 388.34 162.46 385.28 168.36C381.42 175.81 371.66 185.88 373.89 187.58Z" fill="#FFF15B"/>
</g>
<path d="M262.63 92.72L269.9 91.38L271.52 83.72L273.14 91.38L280.41 92.73L273.18 94.5L271.52 101.73L269.87 94.5L262.63 92.72Z" fill="white"/>
<path d="M379.729 220.09L386.989 218.75L388.619 211.09L390.239 218.75L397.509 220.09L390.269 221.86L388.619 229.1L386.959 221.86L379.729 220.09Z" fill="white"/>
<path d="M283.46 204.02L287.53 203.27L288.44 198.99L289.34 203.27L293.4 204.02L289.36 205.01L288.44 209.05L287.51 205.01L283.46 204.02Z" fill="white"/>
<path d="M305.57 72.94L309.63 72.19L310.54 67.9L311.44 72.19L315.5 72.94L311.46 73.93L310.54 77.97L309.61 73.93L305.57 72.94Z" fill="white"/>
<path d="M288.43 224C288.743 224 289.043 223.876 289.264 223.654C289.486 223.433 289.61 223.133 289.61 222.82C289.61 222.507 289.486 222.207 289.264 221.986C289.043 221.764 288.743 221.64 288.43 221.64C288.117 221.64 287.817 221.764 287.596 221.986C287.374 222.207 287.25 222.507 287.25 222.82C287.25 223.133 287.374 223.433 287.596 223.654C287.817 223.876 288.117 224 288.43 224Z" fill="white"/>
<path d="M403 209.05C403.22 209.05 403.431 208.963 403.587 208.807C403.742 208.651 403.83 208.44 403.83 208.22C403.83 208 403.742 207.789 403.587 207.633C403.431 207.477 403.22 207.39 403 207.39C402.78 207.39 402.569 207.477 402.413 207.633C402.257 207.789 402.17 208 402.17 208.22C402.17 208.44 402.257 208.651 402.413 208.807C402.569 208.963 402.78 209.05 403 209.05Z" fill="white"/>
<path d="M284 100.3C284.22 100.3 284.431 100.213 284.587 100.057C284.742 99.9013 284.83 99.6901 284.83 99.47C284.83 99.2499 284.742 99.0388 284.587 98.8831C284.431 98.7275 284.22 98.64 284 98.64C283.78 98.64 283.569 98.7275 283.413 98.8831C283.257 99.0388 283.17 99.2499 283.17 99.47C283.17 99.6901 283.257 99.9013 283.413 100.057C283.569 100.213 283.78 100.3 284 100.3Z" fill="white"/>
<path d="M419.91 113C420.115 112.978 420.305 112.88 420.444 112.726C420.582 112.572 420.658 112.372 420.658 112.165C420.658 111.958 420.582 111.758 420.444 111.604C420.305 111.45 420.115 111.353 419.91 111.33C419.704 111.353 419.514 111.45 419.376 111.604C419.238 111.758 419.161 111.958 419.161 112.165C419.161 112.372 419.238 112.572 419.376 112.726C419.514 112.88 419.704 112.978 419.91 113Z" fill="white"/>
<path d="M409.24 120.63C412.15 120.63 412.15 116.11 409.24 116.11C406.33 116.11 406.33 120.63 409.24 120.63Z" fill="white"/>
<path d="M438.04 353.62H245.29V456.91H438.04V353.62Z" fill="white"/>
<path opacity="0.2" d="M438.04 353.62H245.29V456.91H438.04V353.62Z" fill="black"/>
<path opacity="0.2" d="M245.31 456.92H318.27V353.62H245.31V456.92Z" fill="black"/>
<path d="M250.33 451.1C255.73 443.64 261.083 436.157 266.39 428.65L282.22 406.08L297.85 383.42C303.03 375.853 308.16 368.26 313.24 360.64C307.827 368.1 302.47 375.583 297.17 383.09L281.35 405.66L265.72 428.32C260.573 435.887 255.443 443.48 250.33 451.1Z" fill="white"/>
<path d="M250.33 360.64C255.41 368.253 260.54 375.847 265.72 383.42L281.35 406.08L297.17 428.65C302.503 436.163 307.86 443.647 313.24 451.1C308.16 443.48 303.03 435.887 297.85 428.32L282.22 405.66L266.39 383.09C261.09 375.583 255.737 368.1 250.33 360.64Z" fill="white"/>
<path d="M292.72 353.62H270.56V377.81H292.72V353.62Z" fill="#EBEBEB"/>
<path d="M404.51 430.2H403.32V446.99H404.51V430.2Z" fill="#263238"/>
<path d="M407.37 430.2H406.18V446.99H407.37V430.2Z" fill="#263238"/>
<path d="M410.22 430.2H409.03V446.99H410.22V430.2Z" fill="#263238"/>
<path d="M413.08 430.2H411.89V446.99H413.08V430.2Z" fill="#263238"/>
<path d="M415.93 430.2H414.74V446.99H415.93V430.2Z" fill="#263238"/>
<path d="M418.79 430.2H417.6V446.99H418.79V430.2Z" fill="#263238"/>
<path d="M421.65 430.2H420.46V446.99H421.65V430.2Z" fill="#263238"/>
<path d="M424.5 430.2H423.31V446.99H424.5V430.2Z" fill="#263238"/>
<path d="M427.36 430.2H426.17V446.99H427.36V430.2Z" fill="#263238"/>
<path d="M391.64 445.71L396.22 446.98H385.47L390.05 445.69V439.52C386.77 439.09 385.47 435.86 385.47 430.2H396.22C396.22 435.84 394.92 439.09 391.64 439.52V445.71Z" fill="#263238"/>
<path d="M382.959 438.76H380.159V446.98H372.969V438.76H370.149L376.559 430.2L382.959 438.76Z" fill="#263238"/>
<path opacity="0.1" d="M438.05 456.92V446.44L318.27 427.04V456.91L438.05 456.92Z" fill="black"/>
<path d="M223.63 327.79H296.6L318.27 353.62H245.29L223.63 327.79Z" fill="white"/>
<path opacity="0.2" d="M223.63 327.79H296.6L318.27 353.62H245.29L223.63 327.79Z" fill="black"/>
<path d="M459.71 327.79H386.74L365.07 353.62H438.05L459.71 327.79Z" fill="white"/>
<path opacity="0.1" d="M459.71 327.79H386.74L365.07 353.62H438.05L459.71 327.79Z" fill="black"/>
</svg>
