<svg width="941" height="941" viewBox="0 0 941 941" fill="none" xmlns="http://www.w3.org/2000/svg">
<path d="M470.5 804.668C672.029 804.668 835.401 795.13 835.401 783.364C835.401 771.598 672.029 762.06 470.5 762.06C268.971 762.06 105.599 771.598 105.599 783.364C105.599 795.13 268.971 804.668 470.5 804.668Z" fill="#F5F5F5"/>
<path d="M461.975 442.477L465.136 446.391L164.524 685.838L177.341 701.704L179.091 703.868L479.703 464.421L482.865 468.336L488.492 442.42L461.975 442.477Z" fill="#DA8DA0"/>
<path opacity="0.7" d="M461.975 442.477L465.136 446.391L164.524 685.838L177.341 701.704L179.091 703.868L479.703 464.421L482.865 468.336L488.492 442.42L461.975 442.477Z" fill="white"/>
<path d="M120.278 702.588C120.283 699.964 121.328 697.449 123.183 695.594C125.039 693.738 127.554 692.694 130.178 692.689C131.142 692.687 132.1 692.833 133.02 693.122C132.868 692.113 132.793 691.093 132.794 690.073C132.794 687.321 133.336 684.595 134.39 682.053C135.444 679.51 136.988 677.2 138.935 675.255C140.883 673.309 143.194 671.767 145.737 670.715C148.281 669.664 151.007 669.124 153.759 669.126C155.022 669.127 156.283 669.246 157.523 669.484C159.603 666.126 162.713 663.53 166.389 662.084C170.064 660.638 174.109 660.42 177.919 661.461C181.73 662.503 185.101 664.748 187.53 667.863C189.96 670.978 191.317 674.794 191.399 678.743H191.964C194.297 678.552 196.644 678.847 198.857 679.609C201.071 680.37 203.102 681.583 204.824 683.169C206.545 684.755 207.919 686.681 208.859 688.825C209.798 690.969 210.284 693.284 210.284 695.625C210.284 697.966 209.798 700.281 208.859 702.425C207.919 704.569 206.545 706.495 204.824 708.081C203.102 709.667 201.071 710.879 198.857 711.641C196.644 712.403 194.297 712.697 191.964 712.506H129.858C127.283 712.428 124.841 711.347 123.052 709.495C121.263 707.642 120.267 705.164 120.278 702.588Z" fill="#DA8DA0"/>
<path opacity="0.8" d="M120.278 702.588C120.283 699.964 121.328 697.449 123.183 695.594C125.039 693.738 127.554 692.694 130.178 692.689C131.142 692.687 132.1 692.833 133.02 693.122C132.868 692.113 132.793 691.093 132.794 690.073C132.794 687.321 133.336 684.595 134.39 682.053C135.444 679.51 136.988 677.2 138.935 675.255C140.883 673.309 143.194 671.767 145.737 670.715C148.281 669.664 151.007 669.124 153.759 669.126C155.022 669.127 156.283 669.246 157.523 669.484C159.603 666.126 162.713 663.53 166.389 662.084C170.064 660.638 174.109 660.42 177.919 661.461C181.73 662.503 185.101 664.748 187.53 667.863C189.96 670.978 191.317 674.794 191.399 678.743H191.964C194.297 678.552 196.644 678.847 198.857 679.609C201.071 680.37 203.102 681.583 204.824 683.169C206.545 684.755 207.919 686.681 208.859 688.825C209.798 690.969 210.284 693.284 210.284 695.625C210.284 697.966 209.798 700.281 208.859 702.425C207.919 704.569 206.545 706.495 204.824 708.081C203.102 709.667 201.071 710.879 198.857 711.641C196.644 712.403 194.297 712.697 191.964 712.506H129.858C127.283 712.428 124.841 711.347 123.052 709.495C121.263 707.642 120.267 705.164 120.278 702.588Z" fill="white"/>
<path d="M750.448 594.166L757.957 603.463L618.218 716.327L648.594 753.929L652.753 759.086L792.473 646.204L799.982 655.501L813.344 594.035L750.448 594.166Z" fill="#DA8DA0"/>
<path opacity="0.5" d="M750.448 594.166L757.957 603.463L618.218 716.327L648.594 753.929L652.753 759.086L792.473 646.204L799.982 655.501L813.344 594.035L750.448 594.166Z" fill="white"/>
<path d="M674.904 712.281C672.022 707.656 668 703.848 663.225 701.223C658.449 698.598 653.079 697.243 647.63 697.288C642.18 697.334 636.834 698.778 632.102 701.482C627.371 704.186 623.413 708.06 620.608 712.732C618.069 711.988 615.391 711.85 612.788 712.327C610.185 712.805 607.731 713.886 605.621 715.483C603.512 717.081 601.806 719.15 600.64 721.525C599.474 723.901 598.882 726.516 598.909 729.162H589.913C588.758 729.108 587.605 729.289 586.522 729.693C585.439 730.098 584.45 730.717 583.614 731.515C582.778 732.313 582.112 733.272 581.657 734.335C581.202 735.398 580.968 736.541 580.968 737.697C580.968 738.853 581.202 739.997 581.657 741.059C582.112 742.122 582.778 743.081 583.614 743.879C584.45 744.677 585.439 745.297 586.522 745.701C587.605 746.106 588.758 746.286 589.913 746.232H621.06C623.631 750.293 627.088 753.719 631.172 756.253C635.256 758.787 639.86 760.364 644.64 760.866C649.42 761.368 654.252 760.781 658.773 759.149C663.294 757.517 667.387 754.884 670.745 751.445C671.284 751.474 671.824 751.474 672.363 751.445C677.374 751.455 682.2 749.557 685.862 746.137C689.524 742.717 691.747 738.032 692.08 733.033C692.413 728.033 690.831 723.094 687.655 719.219C684.479 715.344 679.947 712.823 674.979 712.168L674.904 712.281Z" fill="#DA8DA0"/>
<path opacity="0.8" d="M674.904 712.281C672.022 707.656 668 703.848 663.225 701.223C658.449 698.598 653.079 697.243 647.63 697.288C642.18 697.334 636.834 698.778 632.102 701.482C627.371 704.186 623.413 708.06 620.608 712.732C618.069 711.988 615.391 711.85 612.788 712.327C610.185 712.805 607.731 713.886 605.621 715.483C603.512 717.081 601.806 719.15 600.64 721.525C599.474 723.901 598.882 726.516 598.909 729.162H589.913C588.758 729.108 587.605 729.289 586.522 729.693C585.439 730.098 584.45 730.717 583.614 731.515C582.778 732.313 582.112 733.272 581.657 734.335C581.202 735.398 580.968 736.541 580.968 737.697C580.968 738.853 581.202 739.997 581.657 741.059C582.112 742.122 582.778 743.081 583.614 743.879C584.45 744.677 585.439 745.297 586.522 745.701C587.605 746.106 588.758 746.286 589.913 746.232H621.06C623.631 750.293 627.088 753.719 631.172 756.253C635.256 758.787 639.86 760.364 644.64 760.866C649.42 761.368 654.252 760.781 658.773 759.149C663.294 757.517 667.387 754.884 670.745 751.445C671.284 751.474 671.824 751.474 672.363 751.445C677.374 751.455 682.2 749.557 685.862 746.137C689.524 742.717 691.747 738.032 692.08 733.033C692.413 728.033 690.831 723.094 687.655 719.219C684.479 715.344 679.947 712.823 674.979 712.168L674.904 712.281Z" fill="white"/>
<path d="M465.117 330.385L462.407 327.468C462.048 327.09 461.6 326.808 461.103 326.65C460.606 326.492 460.077 326.463 459.565 326.565L455.444 327.468C454.8 327.596 454.212 327.923 453.763 328.402C453.314 328.881 453.026 329.489 452.941 330.14L450.871 347.078L457.156 349.506C464.835 346.156 464.44 336.031 464.44 336.031L465.531 334.017C465.855 333.446 465.99 332.787 465.915 332.134C465.841 331.481 465.562 330.869 465.117 330.385Z" fill="#FFB573"/>
<path d="M389.141 381.369C389.141 381.369 395.182 381.726 398.72 381.651C402.259 381.576 405.834 381.538 409.316 381.331C412.798 381.124 416.242 380.86 419.404 380.428C420.849 380.234 422.281 379.958 423.695 379.599L425.05 379.167C425.464 378.978 425.05 379.298 425.238 379.167C426.217 378.188 427.129 377.144 427.967 376.043C429.002 374.725 430.037 373.314 431.072 371.883C433.142 369.004 435.175 366.011 437.226 363L449.516 344.764L459.133 349.864C457.721 353.383 456.178 356.771 454.654 360.196C453.129 363.621 451.435 366.971 449.779 370.34C448.123 373.709 446.316 377.059 444.397 380.409C443.437 382.084 442.515 383.759 441.348 385.471C440.124 387.443 438.726 389.301 437.17 391.023C435.915 392.33 434.46 393.429 432.86 394.279C431.648 394.928 430.39 395.488 429.096 395.954C426.985 396.732 424.821 397.361 422.622 397.836C418.696 398.723 414.717 399.352 410.709 399.718C403.038 400.499 395.325 400.801 387.617 400.621L389.141 381.369Z" fill="#DA8DA0"/>
<path opacity="0.7" d="M459.208 349.901C457.797 353.402 456.272 356.79 454.748 360.215C453.223 363.64 451.53 366.99 449.855 370.378C448.18 373.765 446.411 377.077 444.491 380.427C443.531 382.102 442.609 383.777 441.423 385.49C440.213 387.466 438.821 389.325 437.264 391.042C435.978 392.349 434.492 393.442 432.86 394.279C431.65 394.937 430.392 395.504 429.096 395.973C426.988 396.74 424.832 397.369 422.641 397.855C418.714 398.733 414.735 399.361 410.728 399.737C409.053 399.906 407.397 400.038 405.759 400.17C399.718 400.602 393.771 400.753 387.636 400.621L387.937 396.669L389.123 381.481C389.123 381.481 395.145 381.858 398.683 381.764C402.221 381.67 405.797 381.651 409.298 381.444C412.798 381.237 416.223 380.992 419.385 380.54C420.832 380.362 422.266 380.085 423.676 379.712C424.137 379.598 424.59 379.454 425.031 379.279C425.445 379.091 425.031 379.43 425.219 379.279C426.199 378.301 427.11 377.257 427.948 376.155C428.983 374.838 430.018 373.426 431.035 371.996C433.105 369.117 435.156 366.124 437.208 363.113L449.497 344.876L459.208 349.901Z" fill="#A86363"/>
<path opacity="0.1" d="M405.778 400.057C399.737 400.49 393.79 400.64 387.654 400.508L387.955 396.556L389.423 393.093C395.569 393.216 401.43 395.711 405.778 400.057Z" fill="black"/>
<path d="M288.492 718.924C288.492 718.924 271.554 707.199 272.495 699.332C272.53 699.151 272.527 698.965 272.486 698.785C272.445 698.604 272.367 698.435 272.258 698.286C272.148 698.138 272.009 698.014 271.849 697.922C271.689 697.829 271.511 697.772 271.328 697.752L256.893 695.568C256.54 695.501 256.175 695.536 255.842 695.67C255.508 695.803 255.22 696.029 255.011 696.321L246.542 708.347L250.306 709.721L252.357 708.291L253.336 710.831C274.132 718.359 283.203 721.389 287.795 721.578C289.15 719.959 288.492 718.924 288.492 718.924Z" fill="black"/>
<path d="M384.436 497.601C384.436 497.601 383.57 499.859 382.046 503.774C380.408 508.008 377.999 514.181 375.101 521.521C373.219 526.414 371.017 531.834 368.702 537.537C358.069 563.885 344.33 596.651 335.24 613.156C317.832 644.736 272.476 704.715 272.476 704.715L254.352 698.09C254.352 698.09 286.986 636.323 303.453 605.025C309.696 592.388 315.201 579.399 319.94 566.125C322.669 558.841 325.379 551.257 327.995 543.748C329.18 540.36 330.347 536.972 331.476 533.641C334.469 524.833 337.273 516.346 339.738 508.78C340.04 507.839 340.341 506.898 340.642 505.995C341.639 502.889 342.524 499.953 343.427 497.243C346.965 486.102 349.167 478.762 349.243 478.423L365.409 487.231L384.436 497.601Z" fill="#263238"/>
<path opacity="0.3" d="M382.046 503.774C380.409 508.008 378 514.181 375.102 521.521C373.22 526.414 371.018 531.834 368.703 537.537C353.91 540.51 338.854 542.524 328.033 543.747C329.218 540.36 330.385 536.972 331.514 533.641C334.507 524.833 337.311 516.345 339.776 508.78C340.077 507.839 340.379 506.898 340.68 505.994C341.677 502.889 342.562 499.953 343.465 497.243C354.343 498.73 368.872 500.951 382.046 503.774Z" fill="black"/>
<path d="M326.527 391.456C329.132 400.918 330.803 410.613 331.514 420.401C332.173 428.211 332.418 435.89 332.455 442.797C332.493 449.704 332.267 455.877 332.041 460.582C331.74 466.642 331.382 470.349 331.382 470.349L388.558 473.304C405.721 411.198 389.122 381.387 389.122 381.387C384.029 380.941 378.912 380.822 373.803 381.03C372.749 381.03 371.657 381.143 370.566 381.237C361.96 382.226 353.419 383.722 344.989 385.716C343.465 386.055 341.922 386.45 340.416 386.845C332.963 388.878 326.527 391.456 326.527 391.456Z" fill="#DA8DA0"/>
<path opacity="0.7" d="M388.576 473.285L331.401 470.35C331.401 470.35 331.759 466.586 332.06 460.563C332.06 458.794 332.21 456.799 332.286 454.597C332.399 451.078 332.474 447.069 332.474 442.778C332.474 440.689 332.474 438.525 332.361 436.304C332.361 435.947 332.361 435.589 332.361 435.231C332.267 431.712 332.098 428.061 331.853 424.353C331.74 423.036 331.646 421.719 331.533 420.401C331.533 419.366 331.364 418.312 331.269 417.277C330.987 414.642 330.686 412.008 330.31 409.41C330.216 408.695 330.103 407.98 329.99 407.284C329.82 406.098 329.632 404.95 329.425 403.783C328.694 399.613 327.739 395.486 326.564 391.418C326.564 391.418 333.02 388.897 340.491 386.845C341.978 386.45 343.521 386.055 345.046 385.716C353.478 383.734 362.018 382.239 370.622 381.237C371.732 381.237 372.805 381.067 373.878 381.049C378.986 380.83 384.104 380.943 389.197 381.387C389.197 381.387 405.74 411.085 388.576 473.285Z" fill="#A86363"/>
<path d="M423.939 622.076C423.939 622.076 407.604 609.392 409.109 601.6C409.153 601.421 409.16 601.234 409.13 601.052C409.099 600.869 409.031 600.695 408.931 600.54C408.83 600.385 408.699 600.252 408.545 600.15C408.392 600.047 408.218 599.977 408.037 599.944L393.733 596.933C393.39 596.855 393.031 596.876 392.698 596.992C392.365 597.109 392.072 597.316 391.851 597.591L382.648 609.053L386.412 610.653L388.539 609.335L389.367 611.914C409.712 620.627 418.595 624.184 423.243 624.636C424.542 623.093 423.939 622.076 423.939 622.076Z" fill="black"/>
<path d="M358.747 521.86H360.083L428.645 531.834L389.574 596.594L409.109 604.122C409.109 604.122 479.778 527.938 463.988 510.568C451.003 496.283 387.391 487.588 387.391 487.588L389.48 472.683L330.686 461.09C305.524 516.082 350.334 521.314 358.747 521.86Z" fill="#263238"/>
<path d="M329.99 466.868L328.748 466.623L329.877 462.671L330.987 462.878L329.99 466.868Z" fill="#263238"/>
<path d="M376.268 475.826L351.144 470.97L352.122 466.98L377.153 471.836L376.268 475.826Z" fill="#263238"/>
<path d="M379.091 472.212L389.706 474.264L388.99 478.291L378.244 476.202L379.091 472.212Z" fill="#263238"/>
<path d="M332.926 463.254L350.202 466.604L349.186 470.575L331.966 467.244L332.926 463.254Z" fill="#263238"/>
<g opacity="0.2">
<path d="M329.99 466.868L328.748 466.623L329.877 462.671L330.987 462.878L329.99 466.868Z" fill="white"/>
<path d="M376.268 475.826L351.144 470.97L352.122 466.98L377.153 471.836L376.268 475.826Z" fill="white"/>
<path d="M379.091 472.213L389.706 474.264L388.99 478.292L378.244 476.203L379.091 472.213Z" fill="white"/>
<path d="M332.926 463.254L350.202 466.604L349.186 470.575L331.966 467.244L332.926 463.254Z" fill="white"/>
</g>
<path d="M368.006 474.659H367.78L361.494 473.53C361.318 473.503 361.15 473.438 361.001 473.341C360.852 473.243 360.725 473.115 360.629 472.966C360.528 472.819 360.461 472.652 360.432 472.476C360.402 472.301 360.412 472.121 360.459 471.949L361.08 469.427C361.157 469.103 361.357 468.821 361.638 468.642C361.919 468.462 362.259 468.4 362.586 468.468L368.815 469.672C368.989 469.7 369.154 469.765 369.3 469.862C369.446 469.96 369.57 470.087 369.662 470.237C369.758 470.382 369.822 470.546 369.851 470.718C369.88 470.889 369.874 471.065 369.832 471.234L369.267 473.662C369.199 473.946 369.038 474.198 368.809 474.379C368.581 474.56 368.298 474.659 368.006 474.659ZM362.36 469.522C362.317 469.524 362.276 469.54 362.242 469.567C362.208 469.594 362.184 469.63 362.172 469.672L361.551 472.194C361.54 472.218 361.535 472.243 361.535 472.269C361.535 472.295 361.54 472.321 361.551 472.345C361.572 472.353 361.594 472.358 361.617 472.358C361.639 472.358 361.662 472.353 361.682 472.345L367.968 473.474C368.017 473.476 368.066 473.463 368.106 473.436C368.147 473.409 368.178 473.369 368.194 473.323L368.759 470.895C368.77 470.872 368.776 470.846 368.776 470.82C368.776 470.794 368.77 470.768 368.759 470.745C368.742 470.735 368.722 470.73 368.702 470.73C368.683 470.73 368.663 470.735 368.646 470.745L362.416 469.522H362.36Z" fill="white"/>
<path d="M364.091 471.855H363.997L362.115 471.516C362.043 471.505 361.974 471.479 361.912 471.441C361.85 471.402 361.796 471.352 361.754 471.292C361.712 471.232 361.682 471.165 361.667 471.093C361.651 471.022 361.65 470.948 361.664 470.876C361.672 470.803 361.696 470.732 361.734 470.669C361.772 470.605 361.823 470.551 361.883 470.508C361.943 470.465 362.012 470.436 362.084 470.422C362.157 470.407 362.232 470.408 362.304 470.425L364.186 470.763C364.258 470.775 364.327 470.8 364.389 470.839C364.451 470.878 364.505 470.928 364.547 470.988C364.589 471.048 364.619 471.115 364.634 471.186C364.65 471.258 364.651 471.332 364.637 471.403C364.611 471.53 364.543 471.643 364.444 471.725C364.345 471.808 364.22 471.853 364.091 471.855Z" fill="white"/>
<path d="M350.936 359.744L365.861 372.128C364.411 378.188 366.952 383.777 369.888 384.812C369.888 384.812 372.071 390.007 367.874 390.872C359.349 392.642 349.638 384.398 349.638 384.398C354.154 379.562 352.517 367.479 350.936 359.744Z" fill="#EBB376"/>
<path opacity="0.2" d="M357.015 364.788L365.861 372.109C365.486 373.515 365.234 374.951 365.108 376.4C361.796 375.967 357.222 372.429 356.846 368.966C356.658 367.574 356.715 366.16 357.015 364.788Z" fill="black"/>
<path d="M364.129 335.278C367.743 337.537 372.636 344.331 366.557 345.968C360.478 347.606 357.9 331.402 364.129 335.278Z" fill="#263238"/>
<path d="M345.46 358.502C351.784 366.821 355.058 372.034 362.398 373.558C373.445 375.817 381.463 364.562 377.755 354.475C374.405 345.404 364.581 333.302 353.873 335.655C351.501 336.171 349.299 337.278 347.468 338.871C345.638 340.465 344.238 342.494 343.4 344.771C342.561 347.049 342.31 349.501 342.671 351.901C343.031 354.301 343.99 356.571 345.46 358.502Z" fill="#FFB573"/>
<path d="M347.323 349.412L339.795 340.567C339.795 340.567 329.764 347.944 334.318 352.405C331.326 359.462 343.239 369.343 353.665 367.31C354.889 360.93 345.592 350.052 345.592 350.052C346.179 349.868 346.757 349.654 347.323 349.412Z" fill="#263238"/>
<path d="M346.928 367.968C347.944 368.779 349.111 369.379 350.362 369.735C351.612 370.09 352.921 370.194 354.211 370.039C357.655 369.606 357.975 366.162 355.999 363.583C354.023 361.005 350.09 358.709 347.154 360.44C346.524 360.836 346.001 361.382 345.631 362.027C345.262 362.673 345.057 363.4 345.034 364.144C345.012 364.888 345.173 365.626 345.503 366.293C345.833 366.96 346.323 367.535 346.928 367.968Z" fill="#FFB573"/>
<path d="M360.196 351.934C360.667 352.63 361.438 352.95 361.89 352.649C362.342 352.348 362.342 351.501 361.89 350.767C361.438 350.033 360.667 349.751 360.196 350.052C359.726 350.353 359.726 351.294 360.196 351.934Z" fill="#263238"/>
<path d="M368.157 346.589C368.646 347.304 369.399 347.624 369.85 347.304C370.302 346.984 370.302 346.156 369.85 345.422C369.399 344.688 368.627 344.387 368.157 344.707C367.686 345.027 367.686 345.874 368.157 346.589Z" fill="#263238"/>
<path d="M365.861 348.659C368.126 350.166 370.59 351.35 373.182 352.179C372.692 354.061 370.208 355.02 370.208 355.02L365.861 348.659Z" fill="#ED893E"/>
<path d="M368.28 360.513C368.644 360.431 369 360.318 369.345 360.175C369.399 360.142 369.438 360.09 369.454 360.029C369.471 359.968 369.463 359.903 369.432 359.848C369.418 359.819 369.398 359.794 369.373 359.773C369.348 359.753 369.319 359.738 369.288 359.73C369.257 359.722 369.225 359.72 369.193 359.725C369.162 359.73 369.132 359.742 369.105 359.76C368.128 360.166 367.068 360.334 366.013 360.248C364.959 360.162 363.94 359.825 363.042 359.265C363.015 359.246 362.985 359.232 362.952 359.225C362.92 359.217 362.887 359.217 362.854 359.222C362.822 359.228 362.791 359.241 362.763 359.259C362.736 359.277 362.712 359.301 362.694 359.328C362.654 359.379 362.636 359.444 362.645 359.509C362.653 359.573 362.687 359.632 362.738 359.671C363.555 360.184 364.468 360.523 365.421 360.668C366.375 360.812 367.348 360.76 368.28 360.513Z" fill="#263238"/>
<path d="M354.757 349.676C354.846 349.681 354.934 349.662 355.013 349.623C355.092 349.583 355.16 349.524 355.209 349.45C355.54 348.921 355.99 348.475 356.522 348.149C357.054 347.822 357.655 347.624 358.276 347.568C358.343 347.571 358.41 347.559 358.472 347.535C358.533 347.51 358.589 347.472 358.636 347.424C358.682 347.376 358.717 347.319 358.74 347.256C358.762 347.193 358.771 347.126 358.766 347.06C358.766 346.93 358.714 346.805 358.622 346.714C358.531 346.622 358.406 346.57 358.276 346.57C357.481 346.629 356.711 346.877 356.031 347.293C355.35 347.708 354.778 348.28 354.362 348.96C354.291 349.073 354.267 349.209 354.295 349.339C354.323 349.47 354.401 349.584 354.512 349.657C354.59 349.688 354.676 349.694 354.757 349.676Z" fill="#263238"/>
<path d="M368.251 340.172C368.279 340.073 368.279 339.969 368.251 339.87C368.212 339.744 368.125 339.638 368.009 339.575C367.893 339.512 367.757 339.496 367.63 339.532C366.865 339.725 366.157 340.099 365.568 340.623C364.978 341.147 364.523 341.806 364.242 342.543C364.205 342.67 364.218 342.807 364.277 342.925C364.336 343.044 364.438 343.136 364.562 343.183C364.624 343.203 364.689 343.211 364.754 343.206C364.819 343.201 364.882 343.183 364.94 343.153C364.998 343.123 365.049 343.082 365.091 343.032C365.132 342.983 365.164 342.925 365.183 342.863C365.409 342.278 365.774 341.756 366.246 341.343C366.718 340.93 367.283 340.638 367.893 340.491C367.975 340.473 368.051 340.434 368.114 340.378C368.177 340.322 368.224 340.251 368.251 340.172Z" fill="#263238"/>
<path d="M345.535 350.052C345.535 350.052 365.409 341.696 366.633 332.173C367.856 322.65 359.443 326.527 359.443 326.527C359.443 326.527 363.339 326.264 362.963 329.087C362.963 329.087 356.244 324.513 349.789 328.447C350.663 328.448 351.527 328.642 352.318 329.016C353.108 329.391 353.807 329.935 354.362 330.611C349.686 331.791 345.3 333.91 341.47 336.84C334.714 341.922 322.462 360.008 345.535 350.052Z" fill="#263238"/>
<path opacity="0.3" d="M387.428 487.438L355.039 483.674C366.01 482.224 377.09 481.771 388.143 482.319L387.428 487.438Z" fill="black"/>
<path opacity="0.1" d="M331.834 424.354C331.721 423.036 331.627 421.719 331.514 420.401C331.514 419.366 331.345 418.312 331.251 417.277C330.969 414.642 330.668 412.008 330.291 409.41C330.197 408.695 330.084 407.98 329.971 407.284C330.864 406.578 331.814 405.948 332.813 405.402C333.845 411.716 333.512 418.179 331.834 424.354Z" fill="black"/>
<path d="M277.877 470.5L272.231 483.674L284.408 486.685C284.408 486.685 289.64 478.009 284.54 471.385L277.877 470.5Z" fill="#EBB376"/>
<path d="M273.116 493.969L282.733 494.044L284.427 486.798L272.25 483.787L273.116 493.969Z" fill="#EBB376"/>
<path d="M332.662 400.527C333.509 408.808 330.667 412.177 330.667 412.177C330.667 412.177 322.65 417.22 319.168 419.799C316.214 422.038 313.315 424.297 310.568 426.555C309.213 427.703 307.895 428.851 306.691 429.999C305.619 431.006 304.613 432.081 303.68 433.217C303.334 433.696 303.014 434.193 302.72 434.704C302.381 435.25 302.023 436.078 301.647 436.756C300.913 438.261 300.179 439.88 299.483 441.555C298.09 444.924 296.773 448.424 295.531 451.981C292.915 459.057 290.487 466.36 288.003 473.53L276.88 470.876C278.009 463.085 279.534 455.463 281.303 447.765C282.225 444.001 283.185 440.087 284.446 436.172C285.029 434.29 285.688 432.239 286.44 430.206C286.892 429.134 287.269 428.174 287.833 427.026C288.382 425.818 289.011 424.649 289.715 423.525C291.057 421.528 292.555 419.64 294.194 417.879C295.681 416.261 297.168 414.774 298.673 413.325C301.666 410.464 304.733 407.848 307.858 405.326C314.087 400.264 320.335 395.634 327.035 391.155C327.092 391.211 331.91 393.037 332.662 400.527Z" fill="#DA8DA0"/>
<path opacity="0.7" d="M332.662 400.527C333.509 408.808 330.667 412.177 330.667 412.177C330.667 412.177 322.65 417.22 319.168 419.799C316.214 422.038 313.315 424.297 310.568 426.555C309.213 427.703 307.895 428.851 306.691 429.999C305.619 431.006 304.613 432.081 303.68 433.217C303.334 433.696 303.014 434.193 302.72 434.704C302.381 435.25 302.023 436.078 301.647 436.756C300.913 438.261 300.179 439.88 299.483 441.555C298.09 444.924 296.773 448.424 295.531 451.981C292.915 459.057 290.487 466.36 288.003 473.53L276.88 470.876C278.009 463.085 279.534 455.463 281.303 447.765C282.225 444.001 283.185 440.087 284.446 436.172C285.029 434.29 285.688 432.239 286.44 430.206C286.892 429.134 287.269 428.174 287.833 427.026C288.382 425.818 289.011 424.649 289.715 423.525C291.057 421.528 292.555 419.64 294.194 417.879C295.681 416.261 297.168 414.774 298.673 413.325C301.666 410.464 304.733 407.848 307.858 405.326C314.087 400.264 320.335 395.634 327.035 391.155C327.092 391.211 331.91 393.037 332.662 400.527Z" fill="#A86363"/>
<path d="M357.938 389.423L362.116 395.991C362.116 395.991 347.53 413.682 319.601 419.516L317.719 425.162L323.666 426.724C323.666 426.724 353.778 418.914 365.861 396.293L372.071 389.367L364.75 386.901L357.938 389.423Z" fill="#1E1E1E"/>
<path d="M344.406 385.471L351.219 379.524L364.75 386.939L366.331 378.828L373.483 382.93L375.534 393.451L365.541 389.122L356.62 397.102L344.406 385.471Z" fill="#DA8DA0"/>
<path opacity="0.6" d="M373.437 382.962L375.466 393.367L365.56 389.077L365.531 389.064L365.507 389.084L356.621 397.034L344.48 385.473L351.225 379.584L364.726 386.983L364.787 387.016L364.799 386.949L366.367 378.905L373.437 382.962Z" fill="#A86363" stroke="black" stroke-width="0.1"/>
<path d="M531.081 267.752C531.081 267.752 518.416 283.448 505.58 282.149C492.745 280.851 486.177 286.064 486.177 286.064L484.916 292.331L491.804 291.39C491.804 291.39 491.804 286.421 505.204 286.986C518.604 287.551 528.654 276.033 532.568 270.801L531.081 267.752Z" fill="black"/>
<path d="M621.982 241.668L621.719 240.425C621.605 239.819 621.429 239.226 621.192 238.656C620.521 236.956 619.472 235.431 618.124 234.196C616.453 232.689 614.494 231.537 612.365 230.808C609.676 229.856 606.884 229.224 604.047 228.926C601.544 228.644 599.154 228.512 596.801 228.456C592.115 228.324 587.598 228.456 583.138 228.832C574.255 229.422 565.409 230.484 556.639 232.013L559.876 250.551C567.988 249.271 576.457 248.085 584.643 247.238C588.746 246.805 592.83 246.561 596.763 246.429C598.645 246.429 600.659 246.429 602.409 246.429C603.551 246.49 604.688 246.616 605.816 246.805C605.855 247.495 605.855 248.186 605.816 248.876C605.572 252.5 604.896 256.083 603.802 259.547C601.418 267.373 598.377 274.985 594.712 282.3L603.652 288.247C609.366 281.093 614.164 273.253 617.936 264.91C619.999 260.352 621.43 255.534 622.189 250.588C622.594 247.623 622.524 244.611 621.982 241.668Z" fill="#DA8DA0"/>
<path opacity="0.7" d="M622.076 250.57C621.475 254.698 620.369 258.737 618.783 262.596C618.482 263.367 618.162 264.139 617.842 264.892C614.064 273.23 609.259 281.063 603.539 288.21L594.712 282.3C598.414 275.039 601.511 267.486 603.972 259.716C604.718 257.25 605.29 254.734 605.684 252.188C605.845 251.166 605.946 250.135 605.985 249.102C606.024 248.412 606.024 247.721 605.985 247.031C604.858 246.842 603.721 246.716 602.579 246.655C600.697 246.542 598.815 246.542 596.933 246.655H596.5C592.736 246.787 588.765 247.05 584.794 247.445C576.852 248.273 568.684 249.327 560.798 250.664L560.046 250.777L556.809 232.22C565.574 230.7 574.412 229.639 583.288 229.039C587.768 228.757 592.284 228.531 596.971 228.663C599.323 228.663 601.694 228.851 604.216 229.134C607.052 229.44 609.843 230.072 612.535 231.016C614.66 231.751 616.618 232.903 618.294 234.403C619.641 235.638 620.69 237.163 621.361 238.863C621.588 239.437 621.765 240.029 621.888 240.633L622.152 241.875C622.574 244.76 622.548 247.692 622.076 250.57Z" fill="#A86363"/>
<path opacity="0.1" d="M596.33 246.542C592.566 246.674 588.595 246.937 584.624 247.332C576.682 248.161 568.514 249.214 560.629 250.551C563.508 243.474 566.463 236.323 566.463 236.323C576.955 237.894 587.075 241.356 596.33 246.542Z" fill="black"/>
<path opacity="0.1" d="M618.783 262.595C618.482 263.367 618.162 264.139 617.842 264.891C614.064 273.229 609.259 281.063 603.538 288.209L594.712 282.3C598.414 275.039 601.511 267.486 603.971 259.716C604.718 257.25 605.29 254.734 605.684 252.188C610.318 255.307 614.697 258.787 618.783 262.595Z" fill="black"/>
<path d="M498.504 245.394C499.031 246.034 499.088 246.843 498.673 247.276C498.259 247.709 497.488 247.276 496.961 246.711C496.434 246.147 496.377 245.244 496.81 244.924C497.243 244.604 497.996 244.66 498.504 245.394Z" fill="#263238"/>
<path d="M499.163 246.787C499.958 249.393 500.389 252.098 500.443 254.823C501.139 254.784 501.819 254.596 502.436 254.271C503.053 253.947 503.593 253.493 504.019 252.941L499.163 246.787Z" fill="#DE5753"/>
<path d="M498.034 239.899C498.075 239.853 498.107 239.8 498.127 239.741C498.146 239.683 498.153 239.621 498.146 239.56C498.144 239.495 498.129 239.432 498.102 239.374C498.075 239.315 498.037 239.263 497.99 239.219C497.943 239.175 497.887 239.141 497.827 239.119C497.767 239.097 497.703 239.087 497.638 239.089C496.866 239.107 496.11 239.309 495.432 239.679C494.754 240.049 494.175 240.576 493.743 241.216C493.679 241.329 493.661 241.462 493.692 241.588C493.724 241.714 493.802 241.824 493.912 241.893C494.022 241.956 494.153 241.973 494.275 241.942C494.398 241.91 494.504 241.832 494.571 241.724C494.922 241.219 495.388 240.805 495.932 240.517C496.475 240.229 497.08 240.075 497.695 240.068C497.76 240.066 497.824 240.05 497.883 240.02C497.941 239.991 497.993 239.95 498.034 239.899Z" fill="#263238"/>
<path d="M517.249 235.25C523.478 239.729 535.373 246.824 542.129 244.133C542.129 244.133 548.208 249.196 542.374 261.88C535.956 275.845 532.38 265.381 532.38 265.381C534.055 256.912 528.315 254.522 522.387 253.411L517.249 235.25Z" fill="#E4897B"/>
<path d="M519.131 226.875C524.946 235.25 528.786 239.861 527.976 247.144C526.791 258.116 514.031 262.2 505.825 255.782C498.429 249.948 490.148 237.226 495.455 227.872C496.617 225.802 498.289 224.062 500.312 222.82C502.336 221.577 504.643 220.872 507.015 220.772C509.387 220.672 511.746 221.18 513.866 222.249C515.987 223.317 517.799 224.909 519.131 226.875Z" fill="#E4897B"/>
<path d="M528.484 240.689C527.6 245.45 511.546 251.981 504.376 241.705C504.376 241.705 495.267 241.705 489.791 236.059C484.314 230.413 485.5 224.636 490.393 221.398C494.721 218.538 505.9 197.516 518.924 212.515C533.058 212.026 529.557 234.779 528.484 240.689Z" fill="#263238"/>
<path d="M501.477 219.215C501.477 219.215 493.084 218.801 488.303 222.64C483.523 226.48 484.822 238.299 486.685 240.519C487.125 241.132 487.686 241.646 488.333 242.032C488.981 242.417 489.701 242.665 490.449 242.759C490.449 242.759 487.607 241.272 487.607 238.995C487.607 238.995 488.849 241.912 494.552 242.759C494.106 242.41 493.75 241.96 493.511 241.446C493.272 240.933 493.158 240.37 493.178 239.804C493.178 239.804 496.264 243.813 503.416 239.804C510.568 235.796 501.477 219.215 501.477 219.215Z" fill="#263238"/>
<path d="M508.611 239.936C510.045 242.029 510.753 244.535 510.624 247.069C510.417 250.4 507.632 250.663 505.43 248.556C503.228 246.448 501.195 242.665 502.494 239.88C503.793 237.094 506.841 237.452 508.611 239.936Z" fill="#E4897B"/>
<path d="M525.323 267.752C525.323 267.752 523.761 248.8 536.125 238.167L550.862 239.522C550.862 239.522 542.374 260.243 525.323 267.752Z" fill="#DA8DA0"/>
<path opacity="0.6" d="M525.323 267.752C525.323 267.752 523.761 248.8 536.125 238.167L550.862 239.522C550.862 239.522 542.374 260.243 525.323 267.752Z" fill="#A86363"/>
<path d="M567.799 310.38C567.799 310.38 545.516 288.492 520.9 273.191C520.9 273.191 537.292 234.667 558.069 231.223C558.069 231.223 611.763 247.445 627.346 291.447L567.799 310.38Z" fill="#DA8DA0"/>
<path d="M570.622 443.813L561.024 447.897L550.617 426.047L560.234 421.963L570.622 443.813Z" fill="#E4897B"/>
<path d="M627.346 291.39L621.7 351.614C617.398 354.321 612.621 356.186 607.623 357.11C595.879 359.838 580.221 361.081 566.689 361.815C551.501 362.643 539.024 362.793 537.895 363.697C535.26 365.767 568.703 434.836 568.703 434.836L552.744 436.831C552.744 436.831 510.794 379.28 505.355 359.293C503.36 351.915 501.346 342.675 514.896 334.036C526.828 326.508 571.244 320.731 571.244 320.731L567.818 310.474L627.346 291.39Z" fill="#263238"/>
<path opacity="0.2" d="M607.604 357.053C595.86 359.782 580.202 361.024 566.67 361.758C564.788 339.551 576.08 318.246 576.08 318.246L591.964 314.181L607.604 357.053Z" fill="black"/>
<path d="M710.625 434.968L712.337 445.262L688.643 450.231L686.93 439.917L710.625 434.968Z" fill="#E4897B"/>
<path d="M712.826 445.639C712.788 445.611 712.742 445.596 712.694 445.596C712.647 445.596 712.601 445.611 712.563 445.639C712.518 445.657 712.48 445.689 712.453 445.729C712.426 445.769 712.412 445.816 712.412 445.864C712.412 446.053 712.563 450.249 713.861 451.51C714.101 451.751 714.426 451.886 714.765 451.887C714.959 451.904 715.153 451.861 715.322 451.764C715.491 451.666 715.625 451.518 715.706 451.341C715.988 450.645 715.461 449.459 714.765 448.311C714.201 447.363 713.552 446.468 712.826 445.639ZM712.939 446.523C714.2 448.029 715.574 450.287 715.254 451.04C715.254 451.153 715.103 451.285 714.765 451.303C714.552 451.299 714.349 451.211 714.2 451.059C714.087 450.949 713.991 450.822 713.918 450.682C713.33 449.371 712.998 447.959 712.939 446.523Z" fill="#DA8DA0"/>
<path d="M712.751 445.582C712.714 445.561 712.671 445.549 712.628 445.549C712.585 445.549 712.543 445.561 712.506 445.582C712.506 445.582 710.154 447.37 709.928 449.064C709.858 449.557 709.987 450.058 710.285 450.456C710.699 451.002 711.095 450.983 711.358 450.871C712.468 450.419 713.071 447.107 712.901 445.733C712.901 445.733 712.901 445.733 712.901 445.639C712.882 445.619 712.858 445.603 712.832 445.593C712.806 445.584 712.778 445.58 712.751 445.582ZM710.417 449.177C710.769 448.034 711.474 447.032 712.431 446.316C712.431 447.803 711.829 450.08 711.17 450.456C711.17 450.456 710.944 450.551 710.681 450.193C710.671 450.15 710.671 450.105 710.681 450.061C710.489 449.808 710.395 449.494 710.417 449.177Z" fill="#DA8DA0"/>
<path d="M711.038 445.507L705.054 435.796C704.95 435.614 704.909 435.404 704.936 435.197C704.964 434.99 705.058 434.797 705.204 434.648L712.017 428.023C712.183 427.863 712.382 427.743 712.601 427.671C712.82 427.599 713.052 427.578 713.28 427.609C713.508 427.64 713.727 427.722 713.919 427.849C714.111 427.976 714.271 428.145 714.388 428.343C716.496 431.882 719.413 437.057 722.123 441.517C725.285 446.674 728.315 450.927 732.023 456.987C734.281 460.639 731.214 463.913 729.934 462.633C724.118 456.611 720.524 451.04 712.996 447.314C712.191 446.901 711.514 446.276 711.038 445.507Z" fill="#263238"/>
<path d="M627.346 291.39C627.346 291.39 646.486 340.567 614.172 359.65C614.172 359.65 613.758 416.487 621.925 423.149C631.844 431.242 704.545 435.363 704.545 435.363L703.924 453.43C703.924 453.43 626.085 459.792 602.522 451.341C574.913 441.442 568.778 311.226 568.778 311.226L627.346 291.39Z" fill="#263238"/>
<path opacity="0.2" d="M605.232 321.577L616.844 318.077C617.673 323.154 618.201 328.276 618.425 333.415L613.043 338.045L607.943 336.426C607.323 331.429 606.418 326.471 605.232 321.577Z" fill="black"/>
<path d="M571.639 310.417L573.144 315.197L568.835 316.533L567.329 311.791L571.639 310.417Z" fill="#263238"/>
<path d="M591.456 304.056L593.075 309.005L575.29 314.52L573.709 309.739L591.456 304.056Z" fill="#263238"/>
<path d="M613.607 296.961L615.226 302.136L595.333 308.309L593.752 303.322L613.607 296.961Z" fill="#263238"/>
<path d="M629.792 297.619L617.54 301.421H617.522L615.884 296.227L628.042 292.331L629.792 297.619Z" fill="#263238"/>
<g opacity="0.2">
<path d="M571.639 310.417L573.144 315.197L568.835 316.533L567.329 311.791L571.639 310.417Z" fill="white"/>
<path d="M591.456 304.056L593.075 309.005L575.29 314.52L573.709 309.739L591.456 304.056Z" fill="white"/>
<path d="M613.608 296.961L615.226 302.136L595.333 308.309L593.752 303.322L613.608 296.961Z" fill="white"/>
<path d="M629.793 297.619L617.541 301.421H617.522L615.885 296.227L628.042 292.331L629.793 297.619Z" fill="white"/>
</g>
<path d="M558.07 444.848C558.117 444.835 558.16 444.808 558.193 444.772C558.227 444.735 558.249 444.69 558.258 444.641C558.267 444.589 558.26 444.535 558.236 444.487C558.212 444.44 558.174 444.401 558.126 444.378C557.975 444.378 554.268 442.307 552.48 442.816C552.153 442.906 551.876 443.123 551.708 443.418C551.597 443.578 551.538 443.769 551.538 443.964C551.538 444.159 551.597 444.349 551.708 444.509C552.16 445.093 553.459 445.243 554.795 445.206C555.895 445.19 556.992 445.071 558.07 444.848ZM557.26 444.491C555.378 444.811 552.687 444.867 552.179 444.208C552.179 444.114 552.047 443.964 552.179 443.663C552.224 443.57 552.29 443.49 552.372 443.428C552.453 443.366 552.549 443.324 552.649 443.305C552.805 443.276 552.964 443.276 553.12 443.305C554.564 443.427 555.971 443.829 557.26 444.491Z" fill="#DA8DA0"/>
<path d="M558.164 444.811C558.201 444.783 558.23 444.745 558.246 444.702C558.263 444.659 558.267 444.611 558.258 444.566C558.116 443.096 557.517 441.707 556.545 440.595C556.351 440.44 556.127 440.326 555.888 440.258C555.649 440.19 555.399 440.17 555.152 440.2C554.475 440.2 554.287 440.633 554.249 440.915C554.099 442.1 556.639 444.302 557.919 444.829H558.013L558.164 444.811ZM556.282 441.047C557.083 441.938 557.589 443.056 557.731 444.246C556.432 443.493 554.682 441.762 554.776 441.047C554.776 441.047 554.776 440.821 555.265 440.764H555.416C555.707 440.747 555.995 440.82 556.244 440.971L556.282 441.047Z" fill="#DA8DA0"/>
<path d="M559.086 443.362L570.491 443.098C570.699 443.089 570.904 443.154 571.07 443.281C571.235 443.409 571.35 443.59 571.394 443.794L573.69 453.016C573.74 453.239 573.741 453.47 573.691 453.693C573.641 453.916 573.542 454.124 573.402 454.305C573.261 454.485 573.083 454.631 572.879 454.734C572.675 454.836 572.45 454.893 572.222 454.898C568.101 454.898 562.154 454.898 556.997 454.898C550.937 455.03 545.705 455.482 538.647 455.651C534.356 455.764 533.001 451.454 534.883 451.021C543.014 449.026 549.676 448.688 556.639 444.171C557.369 443.69 558.213 443.411 559.086 443.362Z" fill="#263238"/>
<path opacity="0.7" d="M627.346 291.409L567.799 310.379C567.799 310.379 557.298 300.085 542.75 288.661C539.983 286.497 537.104 284.295 534.074 282.112C529.839 279.025 525.398 275.995 520.9 273.191C520.9 273.191 537.311 234.666 558.088 231.241C558.069 231.241 611.763 247.445 627.346 291.409Z" fill="#A86363"/>
<path opacity="0.1" d="M542.75 288.661C539.983 286.497 537.104 284.295 534.074 282.112L535.241 278.592C538.409 281.397 540.965 284.824 542.75 288.661Z" fill="black"/>
<path d="M456.724 327.957L452.621 328.936C452.12 329.052 451.665 329.314 451.313 329.69C450.961 330.065 450.729 330.536 450.645 331.044L449.723 336.69C449.625 337.275 449.73 337.876 450.021 338.393C450.312 338.91 450.771 339.312 451.322 339.532L454.334 340.717C454.334 340.717 462.991 346.966 470.312 342.938L467.15 334.563L460.958 328.917C460.382 328.427 459.696 328.084 458.959 327.917C458.222 327.75 457.455 327.764 456.724 327.957Z" fill="#E4897B"/>
<path d="M531.458 274.772C533.047 275.876 534.375 277.314 535.35 278.985C536.325 280.656 536.924 282.519 537.104 284.446C537.104 284.446 532.964 295.738 530.574 301.252C528.936 305.016 527.242 308.78 525.266 312.544C523.228 316.673 520.781 320.588 517.964 324.231L517.305 325.003L516.553 325.831C515.957 326.441 515.329 327.019 514.671 327.562C514.269 327.9 513.848 328.214 513.41 328.503C512.996 328.786 512.393 329.181 512.224 329.256L510.624 330.084C508.554 331.119 506.616 331.966 504.677 332.738C500.8 334.319 496.98 335.711 493.141 337.029C485.424 339.607 477.765 341.96 469.898 343.936L466.134 333.867C473.191 330.254 480.381 326.828 487.4 323.309C490.92 321.559 494.42 319.809 497.77 318.039C499.426 317.155 501.083 316.157 502.513 315.367L503.529 314.727C503.661 314.614 503.661 314.595 503.83 314.351L504.056 314.068L504.32 313.673C506.14 310.833 507.726 307.85 509.062 304.752C510.549 301.365 512.055 297.846 513.428 294.251C516.157 287.099 518.773 279.647 521.22 272.42C524.805 271.93 528.446 272.767 531.458 274.772Z" fill="#DA8DA0"/>
<path opacity="0.7" d="M531.458 274.772C533.047 275.876 534.375 277.314 535.35 278.985C536.325 280.656 536.924 282.519 537.104 284.446C537.104 284.446 532.964 295.738 530.574 301.252C528.936 305.016 527.242 308.78 525.266 312.544C523.228 316.673 520.781 320.588 517.964 324.231L517.305 325.003L516.553 325.831C515.957 326.441 515.329 327.019 514.671 327.562C514.269 327.9 513.848 328.214 513.41 328.503C512.996 328.786 512.393 329.181 512.224 329.256L510.624 330.084C508.554 331.119 506.616 331.966 504.677 332.738C500.8 334.319 496.98 335.711 493.141 337.029C485.424 339.607 477.765 341.96 469.898 343.936L466.134 333.867C473.191 330.254 480.381 326.828 487.4 323.309C490.92 321.559 494.42 319.809 497.77 318.039C499.426 317.155 501.083 316.157 502.513 315.367L503.529 314.727C503.661 314.614 503.661 314.595 503.83 314.351L504.056 314.068L504.32 313.673C506.14 310.833 507.726 307.85 509.062 304.752C510.549 301.365 512.055 297.846 513.428 294.251C516.157 287.099 518.773 279.647 521.22 272.42C524.805 271.93 528.446 272.767 531.458 274.772Z" fill="#A86363"/>
<path d="M187.278 774.104H505.11L673.323 638.224L680.701 647.352H722.123L764.337 453.073L722.876 453.148L722.895 453.073L524.081 453.468L547.813 482.846L187.278 774.104Z" fill="#DA8DA0"/>
<path opacity="0.2" d="M187.278 774.104H463.687L656.95 617.974L680.701 647.352L722.895 453.073L524.081 453.468L547.812 482.846L187.278 774.104Z" fill="white"/>
<path d="M180.804 762.888H409.015C408.902 761.913 408.846 760.933 408.845 759.952C408.843 756.468 409.527 753.018 410.859 749.798C412.19 746.579 414.143 743.653 416.606 741.189C419.068 738.725 421.992 736.77 425.211 735.436C428.429 734.102 431.879 733.416 435.363 733.416H436.341C438.268 728.264 441.943 723.953 446.724 721.234C451.506 718.516 457.09 717.563 462.502 718.543C467.914 719.522 472.811 722.371 476.336 726.593C479.862 730.814 481.793 736.14 481.792 741.64C487.338 741.903 492.589 744.217 496.525 748.132C500.462 752.048 502.804 757.287 503.096 762.831H504.169C505.757 762.768 507.341 763.026 508.827 763.59C510.313 764.154 511.67 765.012 512.816 766.113C513.962 767.214 514.873 768.536 515.496 769.998C516.119 771.46 516.44 773.033 516.44 774.622C516.44 776.211 516.119 777.784 515.496 779.246C514.873 780.709 513.962 782.03 512.816 783.131C511.67 784.232 510.313 785.09 508.827 785.654C507.341 786.218 505.757 786.476 504.169 786.413H180.804C179.216 786.476 177.631 786.218 176.145 785.654C174.659 785.09 173.303 784.232 172.157 783.131C171.011 782.03 170.099 780.709 169.476 779.246C168.853 777.784 168.532 776.211 168.532 774.622C168.532 773.033 168.853 771.46 169.476 769.998C170.099 768.536 171.011 767.214 172.157 766.113C173.303 765.012 174.659 764.154 176.145 763.59C177.631 763.026 179.216 762.768 180.804 762.831V762.888Z" fill="#DA8DA0"/>
<path opacity="0.7" d="M180.804 762.888H409.015C408.902 761.913 408.846 760.933 408.845 759.952C408.843 756.468 409.527 753.018 410.859 749.798C412.19 746.579 414.143 743.653 416.606 741.189C419.068 738.725 421.992 736.77 425.211 735.436C428.429 734.102 431.879 733.416 435.363 733.416H436.341C438.268 728.264 441.943 723.953 446.724 721.234C451.506 718.516 457.09 717.563 462.502 718.543C467.914 719.522 472.811 722.371 476.336 726.593C479.862 730.814 481.793 736.14 481.792 741.64C487.338 741.903 492.589 744.217 496.525 748.132C500.462 752.048 502.804 757.287 503.096 762.831H504.169C505.757 762.768 507.341 763.026 508.827 763.59C510.313 764.154 511.67 765.012 512.816 766.113C513.962 767.214 514.873 768.536 515.496 769.998C516.119 771.46 516.44 773.033 516.44 774.622C516.44 776.211 516.119 777.784 515.496 779.246C514.873 780.709 513.962 782.03 512.816 783.131C511.67 784.232 510.313 785.09 508.827 785.654C507.341 786.218 505.757 786.476 504.169 786.413H180.804C179.216 786.476 177.631 786.218 176.145 785.654C174.659 785.09 173.303 784.232 172.157 783.131C171.011 782.03 170.099 780.709 169.476 779.246C168.853 777.784 168.532 776.211 168.532 774.622C168.532 773.033 168.853 771.46 169.476 769.998C170.099 768.536 171.011 767.214 172.157 766.113C173.303 765.012 174.659 764.154 176.145 763.59C177.631 763.026 179.216 762.768 180.804 762.831V762.888Z" fill="white"/>
</svg>
