<svg width="740" height="740" viewBox="0 0 740 740" fill="none" xmlns="http://www.w3.org/2000/svg">
<path d="M614.703 480.911C614.703 480.911 669.655 414.504 654.855 298.871C640.055 183.239 563.984 149.865 515.38 149.48C466.777 149.095 420.32 202.508 354.756 213.283C289.192 224.057 198.32 193.466 124.409 219.336C50.4975 245.206 44.1039 400.769 104.34 462.026C164.576 523.284 292.418 520.871 368.52 505.494C444.621 490.117 558.7 551.581 614.703 480.911Z" fill="#FFA4BB"/>
<path opacity="0.7" d="M614.703 480.911C614.703 480.911 669.655 414.504 654.855 298.871C640.055 183.239 563.984 149.865 515.38 149.48C466.777 149.095 420.32 202.508 354.756 213.283C289.192 224.057 198.32 193.466 124.409 219.336C50.4975 245.206 44.1039 400.769 104.34 462.026C164.576 523.284 292.418 520.871 368.52 505.494C444.621 490.117 558.7 551.581 614.703 480.911Z" fill="white"/>
<path d="M399.349 171.843C392.259 167.98 388.989 171.191 386.458 167.98C383.927 164.768 393.547 156.377 374.218 148.015C374.218 148.015 372.931 129.973 346.527 129.322C320.124 128.671 327.199 147.363 320.109 151.877C313.02 156.391 311.096 149.302 304.007 153.801C296.918 158.301 300.144 167.329 294.343 168.601C288.541 169.874 280.815 162.815 273.741 167.314C266.667 171.813 266.652 175.691 263.381 175.691C260.11 175.691 253.717 173.115 249.854 175.691C245.991 178.266 241.477 181.492 241.477 181.492H404.499C404.499 181.492 406.423 175.705 399.349 171.843Z" fill="#FFA4BB"/>
<path d="M399.349 171.843C392.259 167.98 388.989 171.191 386.458 167.98C383.927 164.768 393.547 156.377 374.218 148.015C374.218 148.015 372.931 129.973 346.527 129.322C320.124 128.671 327.199 147.363 320.109 151.877C313.02 156.391 311.096 149.302 304.007 153.801C296.918 158.301 300.144 167.329 294.343 168.601C288.541 169.874 280.815 162.815 273.741 167.314C266.667 171.813 266.652 175.691 263.381 175.691C260.11 175.691 253.717 173.115 249.854 175.691C245.991 178.266 241.477 181.492 241.477 181.492H404.499C404.499 181.492 406.423 175.705 399.349 171.843Z" fill="#FFA4BB"/>
<path opacity="0.7" d="M399.349 171.843C392.259 167.98 388.989 171.191 386.458 167.98C383.927 164.768 393.547 156.377 374.218 148.015C374.218 148.015 372.931 129.973 346.527 129.322C320.124 128.671 327.199 147.363 320.109 151.877C313.02 156.391 311.096 149.302 304.007 153.801C296.918 158.301 300.144 167.329 294.343 168.601C288.541 169.874 280.815 162.815 273.741 167.314C266.667 171.813 266.652 175.691 263.381 175.691C260.11 175.691 253.717 173.115 249.854 175.691C245.991 178.266 241.477 181.492 241.477 181.492H404.499C404.499 181.492 406.423 175.705 399.349 171.843Z" fill="white"/>
<path opacity="0.8" d="M597.047 241.24C593.14 239.094 591.364 240.885 589.943 239.094C588.522 237.303 593.85 232.7 583.179 228.068C583.179 228.068 582.469 218.107 567.876 217.708C553.283 217.308 557.205 227.668 553.298 230.169C549.391 232.671 548.311 228.689 544.418 231.235C540.526 233.781 542.287 238.635 539.075 239.419C535.864 240.204 531.601 236.208 527.694 238.694C523.787 241.181 523.787 243.327 521.996 243.327C520.205 243.327 516.668 241.847 514.596 243.327C512.524 244.807 509.964 246.523 509.964 246.523H599.977C599.977 246.523 600.969 243.297 597.047 241.24Z" fill="white"/>
<path opacity="0.8" d="M174.936 322.092C171.029 319.961 169.238 321.737 167.817 319.961C166.396 318.185 171.739 313.553 161.068 308.92C161.068 308.92 160.358 298.96 145.765 298.56C131.172 298.161 135.094 308.521 131.172 311.022C127.25 313.523 126.2 309.542 122.292 312.088C118.385 314.633 120.146 319.488 116.95 320.272C113.753 321.056 109.55 317.06 105.568 319.562C101.587 322.063 101.646 324.179 99.8704 324.179C98.0944 324.179 94.5424 322.699 92.3964 324.179C90.2504 325.659 87.7788 327.376 87.7788 327.376H177.778C177.778 327.376 178.858 324.224 174.936 322.092Z" fill="white"/>
<path d="M374.573 452.185L372.19 205.72L420.808 205.247L419.388 460.295L374.573 452.185Z" fill="white" stroke="#263238" stroke-linecap="round" stroke-linejoin="round"/>
<path d="M378.051 210.841L378.436 311.481" stroke="#263238" stroke-width="0.75" stroke-linecap="round" stroke-linejoin="round"/>
<path d="M385.185 211.226V333.666" stroke="#263238" stroke-width="0.75" stroke-linecap="round" stroke-linejoin="round"/>
<path d="M393.103 210.841L393.902 335.25" stroke="#263238" stroke-width="0.75" stroke-linecap="round" stroke-linejoin="round"/>
<path d="M403.004 212.025V333.666" stroke="#263238" stroke-width="0.75" stroke-linecap="round" stroke-linejoin="round"/>
<path d="M412.121 212.425V424.42" stroke="#263238" stroke-width="0.75" stroke-linecap="round" stroke-linejoin="round"/>
<path d="M374.484 221.926L417.271 222.326" stroke="#263238" stroke-width="0.75" stroke-linecap="round" stroke-linejoin="round"/>
<path d="M374.884 237.777L416.886 238.961" stroke="#263238" stroke-width="0.75" stroke-linecap="round" stroke-linejoin="round"/>
<path d="M375.668 254.027L416.087 256.011" stroke="#263238" stroke-width="0.75" stroke-linecap="round" stroke-linejoin="round"/>
<path d="M375.269 270.278L416.886 273.045" stroke="#263238" stroke-width="0.75" stroke-linecap="round" stroke-linejoin="round"/>
<path d="M375.668 286.128L415.688 290.48" stroke="#263238" stroke-width="0.75" stroke-linecap="round" stroke-linejoin="round"/>
<path d="M420.808 205.247L458.474 205.72L455.618 435.031L419.387 460.295L420.808 205.247Z" fill="#263238" stroke="#263238" stroke-linecap="round" stroke-linejoin="round"/>
<path d="M454.597 211.226V333.666" stroke="white" stroke-width="0.75" stroke-linecap="round" stroke-linejoin="round"/>
<path d="M446.679 210.841L446.768 350.982" stroke="white" stroke-width="0.75" stroke-linecap="round" stroke-linejoin="round"/>
<path d="M436.777 212.025L436.97 356.118" stroke="white" stroke-width="0.75" stroke-linecap="round" stroke-linejoin="round"/>
<path d="M427.661 212.425V424.42" stroke="white" stroke-width="0.75" stroke-linecap="round" stroke-linejoin="round"/>
<path d="M457.483 221.837L422.51 222.326" stroke="white" stroke-width="0.75" stroke-linecap="round" stroke-linejoin="round"/>
<path d="M457.483 238.62L422.895 238.961" stroke="white" stroke-width="0.75" stroke-linecap="round" stroke-linejoin="round"/>
<path d="M458.415 253.998L423.694 256.01" stroke="white" stroke-width="0.75" stroke-linecap="round" stroke-linejoin="round"/>
<path d="M457.024 271.254L422.895 273.045" stroke="white" stroke-width="0.75" stroke-linecap="round" stroke-linejoin="round"/>
<path d="M457.024 287.105L424.094 290.48" stroke="white" stroke-width="0.75" stroke-linecap="round" stroke-linejoin="round"/>
<path d="M456.092 303.43L423.162 306.804" stroke="white" stroke-width="0.75" stroke-linecap="round" stroke-linejoin="round"/>
<path d="M456.091 317.875L422.229 323.114" stroke="white" stroke-width="0.75" stroke-linecap="round" stroke-linejoin="round"/>
<path d="M454.596 333.666L421.296 339.438" stroke="white" stroke-width="0.75" stroke-linecap="round" stroke-linejoin="round"/>
<path d="M418.366 124.32H415.066V176.298H418.366V124.32Z" fill="white" stroke="#263238" stroke-linecap="round" stroke-linejoin="round"/>
<path d="M395.737 185.4L395.574 172.953L436.363 173.604L436.689 186.228L395.737 185.4Z" fill="white" stroke="#263238" stroke-linecap="round" stroke-linejoin="round"/>
<path d="M418.011 185.725V173.604H436.363L436.689 186.228L418.011 185.725Z" fill="#263238" stroke="#263238" stroke-linecap="round" stroke-linejoin="round"/>
<path d="M372.19 205.72L382.195 194.28L420.808 193.806V205.247L372.19 205.72Z" fill="white" stroke="#263238" stroke-linecap="round" stroke-linejoin="round"/>
<path d="M420.808 193.806L449.89 194.753L458.474 205.72L420.808 205.247V193.806Z" fill="#263238" stroke="#263238" stroke-linecap="round" stroke-linejoin="round"/>
<path d="M382.195 194.28V185.696L420.793 185.4L420.808 193.806L382.195 194.28Z" fill="white" stroke="#263238" stroke-linecap="round" stroke-linejoin="round"/>
<path d="M420.793 185.4L449.949 186.391L449.89 194.753L420.808 193.806L420.793 185.4Z" fill="#263238" stroke="#263238" stroke-linecap="round" stroke-linejoin="round"/>
<path d="M567.373 422.007L596.351 428.519L598.527 371.302L620.978 361.15L652.132 368.402L650.682 461.124L667.347 464.024L665.896 616.834L584.037 590.801L518.118 571.236L567.373 422.007Z" fill="#263238"/>
<path d="M452.865 291.116L536.5 298.205L563.91 290.642L479.328 284.027L452.865 291.116Z" fill="white" stroke="#263238" stroke-linecap="round" stroke-linejoin="round"/>
<path d="M536.5 298.205L534.132 437.118L561.541 424.361L563.909 290.643L536.5 298.205Z" fill="#263238" stroke="#263238" stroke-linecap="round" stroke-linejoin="round"/>
<path d="M452.865 291.116L452.392 419.639L534.132 437.118L536.5 298.205L452.865 291.116Z" fill="white" stroke="#263238" stroke-linecap="round" stroke-linejoin="round"/>
<path d="M522.972 330.499L460.679 324.46V298.62L522.972 304.658V330.499Z" fill="#FFA4BB" stroke="#263238" stroke-miterlimit="10"/>
<path d="M471.62 311.062V302.758L474.39 303.035V304.125L472.878 303.974V306.39L474.314 306.533V307.599L472.878 307.456V310.098L474.446 310.255V311.345L471.62 311.062ZM474.948 311.395L476.22 307.068L474.953 303.092L476.014 303.198L476.835 305.747L477.497 303.346L478.676 303.464L477.427 307.59L478.774 311.777L477.685 311.669L476.845 309.032L476.164 311.516L474.948 311.395ZM479.591 311.859V303.555L481.488 303.745C481.816 303.778 482.089 303.855 482.305 303.978C482.524 304.1 482.696 304.267 482.821 304.478C482.946 304.688 483.035 304.943 483.089 305.24C483.142 305.535 483.168 305.873 483.168 306.253V306.428C483.168 306.963 483.121 307.414 483.028 307.782C482.937 308.147 482.772 308.415 482.535 308.587C482.297 308.758 481.962 308.822 481.53 308.779L480.849 308.711V311.985L479.591 311.859ZM480.849 307.668L481.281 307.711C481.466 307.73 481.604 307.696 481.694 307.611C481.785 307.526 481.845 307.376 481.873 307.162C481.904 306.945 481.92 306.654 481.92 306.289V306.128C481.917 305.678 481.877 305.335 481.802 305.098C481.727 304.857 481.557 304.724 481.291 304.697L480.849 304.653V307.668ZM484.023 312.302V303.999L486.793 304.276V305.365L485.281 305.214V307.63L486.718 307.774V308.84L485.281 308.696V311.338L486.849 311.495V312.585L484.023 312.302ZM487.779 312.678V304.374L489.858 304.582C490.29 304.625 490.612 304.742 490.825 304.934C491.038 305.125 491.177 305.387 491.243 305.721C491.312 306.055 491.346 306.458 491.346 306.93C491.346 307.417 491.296 307.796 491.196 308.066C491.099 308.333 490.899 308.498 490.595 308.562C490.739 308.602 490.86 308.674 490.957 308.778C491.054 308.879 491.132 309.022 491.191 309.207C491.251 309.389 491.293 309.621 491.318 309.904C491.346 310.183 491.36 310.524 491.36 310.927C491.36 310.959 491.36 311.047 491.36 311.191C491.36 311.336 491.36 311.507 491.36 311.706C491.364 311.901 491.367 312.096 491.37 312.292C491.373 312.487 491.378 312.654 491.384 312.793C491.39 312.932 491.398 313.015 491.407 313.041L490.149 312.915C490.14 312.898 490.132 312.817 490.126 312.672C490.123 312.524 490.118 312.336 490.112 312.109C490.109 311.882 490.105 311.638 490.102 311.377C490.102 311.116 490.102 310.859 490.102 310.608C490.102 310.353 490.102 310.128 490.102 309.933C490.102 309.685 490.084 309.496 490.046 309.366C490.012 309.234 489.946 309.137 489.849 309.077C489.755 309.018 489.619 308.974 489.44 308.947L489.037 308.883V312.804L487.779 312.678ZM489.041 307.902L489.544 307.952C489.697 307.968 489.813 307.945 489.891 307.883C489.972 307.822 490.027 307.7 490.055 307.518C490.087 307.335 490.102 307.069 490.102 306.72V306.668C490.102 306.376 490.088 306.149 490.06 305.989C490.032 305.829 489.972 305.715 489.882 305.646C489.794 305.577 489.656 305.534 489.469 305.515L489.041 305.472V307.902ZM492.867 313.187V305.978L491.9 305.881V304.786L495.05 305.101V306.196L494.121 306.103V313.312L492.867 313.187ZM497.266 313.721C496.922 313.687 496.634 313.604 496.402 313.474C496.174 313.341 495.992 313.164 495.858 312.943C495.726 312.719 495.633 312.455 495.576 312.151C495.52 311.843 495.492 311.497 495.492 311.114V310.373L496.684 310.492V311.327C496.684 311.774 496.722 312.099 496.797 312.301C496.872 312.504 497.021 312.616 497.243 312.638C497.393 312.653 497.506 312.63 497.581 312.568C497.659 312.504 497.711 312.396 497.736 312.244C497.764 312.09 497.778 311.887 497.778 311.635C497.778 311.324 497.712 311.032 497.581 310.761C497.453 310.49 497.257 310.204 496.994 309.9L496.384 309.207C496.215 309.014 496.061 308.812 495.924 308.6C495.789 308.388 495.681 308.157 495.6 307.907C495.521 307.654 495.482 307.376 495.482 307.074C495.482 306.637 495.536 306.273 495.642 305.981C495.748 305.69 495.928 305.48 496.182 305.351C496.435 305.219 496.783 305.175 497.224 305.22C497.556 305.253 497.828 305.332 498.041 305.457C498.257 305.579 498.424 305.745 498.543 305.955C498.665 306.163 498.751 306.41 498.801 306.698C498.852 306.983 498.877 307.307 498.877 307.668V308.183L497.717 308.067V307.472C497.717 307.221 497.703 307.01 497.675 306.841C497.65 306.671 497.601 306.542 497.529 306.453C497.457 306.361 497.352 306.308 497.215 306.294C497.083 306.281 496.977 306.3 496.895 306.352C496.814 306.401 496.755 306.484 496.717 306.603C496.683 306.719 496.665 306.873 496.665 307.065C496.665 307.238 496.687 307.39 496.731 307.52C496.775 307.65 496.842 307.778 496.933 307.903C497.024 308.029 497.136 308.171 497.271 308.329L497.952 309.138C498.277 309.522 498.531 309.914 498.712 310.313C498.894 310.712 498.985 311.145 498.985 311.614C498.985 312.111 498.931 312.524 498.825 312.853C498.718 313.179 498.54 313.416 498.29 313.564C498.039 313.712 497.698 313.764 497.266 313.721ZM472.225 324.123L471.216 315.718L472.343 315.831L472.948 321.808L473.718 315.968L474.732 316.07L475.507 322.063L476.042 316.2L477.173 316.314L476.225 324.523L474.972 324.397L474.239 318.804L473.479 324.248L472.225 324.123ZM477.516 324.652L478.691 316.486L480.349 316.652L481.599 325.06L480.429 324.943L480.232 323.445L478.902 323.312L478.724 324.772L477.516 324.652ZM479.024 322.313L480.101 322.42L479.548 318.205L479.529 318.203L479.024 322.313ZM482.349 325.135V316.852L483.332 316.95L485.079 322.095L484.99 319.827V317.116L486.118 317.229V325.512L485.229 325.423L483.435 320.1L483.505 322.281V325.251L482.349 325.135ZM487.79 325.679V318.488L486.825 318.391V317.299L489.968 317.614V318.706L489.04 318.613V325.804L487.79 325.679ZM490.675 325.967V317.684L493.438 317.961V319.048L491.93 318.897V321.307L493.363 321.45V322.514L491.93 322.37V325.006L493.494 325.162V326.249L490.675 325.967ZM494.421 326.342V318.059L496.271 318.244C496.689 318.286 497.025 318.404 497.278 318.599C497.531 318.79 497.713 319.05 497.826 319.378C497.941 319.707 497.999 320.095 497.999 320.544L498.004 324.281C498.004 324.824 497.944 325.27 497.826 325.619C497.71 325.965 497.523 326.213 497.264 326.363C497.005 326.513 496.66 326.566 496.229 326.523L494.421 326.342ZM495.676 325.489L496.088 325.53C496.235 325.545 496.357 325.527 496.454 325.477C496.553 325.427 496.627 325.33 496.674 325.184C496.724 325.035 496.749 324.821 496.749 324.542L496.744 320.452C496.744 320.028 496.692 319.718 496.589 319.523C496.486 319.328 496.305 319.217 496.046 319.191L495.676 319.154V325.489Z" fill="#263238"/>
<path d="M437.976 362.23L491.848 368.964L524.097 354.786L472.712 348.762L437.976 362.23Z" fill="white" stroke="#263238" stroke-linecap="round" stroke-linejoin="round"/>
<path d="M447.981 361.446L489.332 366.611L514.093 355.733L474.651 351.101L447.981 361.446Z" fill="white" stroke="#263238" stroke-width="0.75" stroke-linecap="round" stroke-linejoin="round"/>
<path d="M437.976 362.23L436.57 471.38L489.007 485.544L491.848 368.964L437.976 362.23Z" fill="white" stroke="#263238" stroke-linecap="round" stroke-linejoin="round"/>
<path d="M491.848 368.964L524.098 354.786L521.966 471.025L489.007 485.544L491.848 368.964Z" fill="#263238" stroke="#263238" stroke-linecap="round" stroke-linejoin="round"/>
<path d="M309.645 502.697L305.057 367.41L260.258 359.374L264.565 491.168L309.645 502.697Z" fill="white" stroke="#263238" stroke-linecap="round" stroke-linejoin="round"/>
<path d="M263.529 407.37L303.948 417.286" stroke="#263238" stroke-width="0.75" stroke-linecap="round" stroke-linejoin="round"/>
<path d="M265.512 412.136L304.347 422.037" stroke="#263238" stroke-width="0.75" stroke-linecap="round" stroke-linejoin="round"/>
<path d="M265.912 437.488L304.747 447.389" stroke="#263238" stroke-width="0.75" stroke-linecap="round" stroke-linejoin="round"/>
<path d="M263.928 433.522L304.347 444.222" stroke="#263238" stroke-width="0.75" stroke-linecap="round" stroke-linejoin="round"/>
<path d="M305.058 367.41L341.821 357.08L343.538 474.296L309.646 502.697L305.058 367.41Z" fill="#263238" stroke="#263238" stroke-linecap="round" stroke-linejoin="round"/>
<path d="M260.258 359.374L311.377 347.312L341.821 357.08L305.057 367.41L260.258 359.374Z" fill="white" stroke="#263238" stroke-linecap="round" stroke-linejoin="round"/>
<path d="M263.987 366.848L301.52 373.034L302.038 400.281L264.92 393.251L263.987 366.848Z" fill="#FFA4BB" stroke="#263238" stroke-linecap="round" stroke-linejoin="round"/>
<path d="M268.414 379.066V373.481L269.253 373.614V375.874L270.006 375.993V373.734L270.845 373.867V379.451L270.006 379.318V376.722L269.253 376.603V379.199L268.414 379.066ZM271.691 379.585V374.001L272.531 374.134V379.718L271.691 379.585ZM273.377 379.852V374.268L274.766 374.488C275.054 374.533 275.269 374.625 275.411 374.761C275.553 374.898 275.646 375.08 275.69 375.307C275.736 375.534 275.759 375.806 275.759 376.124C275.759 376.451 275.726 376.704 275.659 376.882C275.594 377.058 275.46 377.161 275.258 377.193C275.354 377.225 275.434 377.278 275.499 377.351C275.564 377.423 275.616 377.522 275.656 377.649C275.695 377.774 275.724 377.932 275.74 378.123C275.759 378.312 275.768 378.542 275.768 378.812C275.768 378.834 275.768 378.893 275.768 378.99C275.768 379.087 275.768 379.203 275.768 379.336C275.771 379.467 275.773 379.599 275.775 379.73C275.777 379.862 275.78 379.974 275.784 380.068C275.788 380.162 275.794 380.218 275.8 380.236L274.96 380.103C274.954 380.091 274.948 380.036 274.944 379.938C274.942 379.839 274.939 379.712 274.935 379.559C274.933 379.407 274.931 379.242 274.929 379.066C274.929 378.891 274.929 378.719 274.929 378.549C274.929 378.378 274.929 378.227 274.929 378.096C274.929 377.928 274.916 377.801 274.891 377.712C274.868 377.622 274.824 377.554 274.759 377.51C274.697 377.467 274.606 377.432 274.487 377.407L274.217 377.348V379.985L273.377 379.852ZM274.22 376.689L274.556 376.742C274.658 376.758 274.735 376.747 274.788 376.709C274.842 376.671 274.878 376.591 274.897 376.469C274.918 376.348 274.929 376.17 274.929 375.935V375.9C274.929 375.703 274.919 375.551 274.9 375.442C274.882 375.333 274.842 375.254 274.781 375.204C274.723 375.155 274.631 375.12 274.506 375.1L274.22 375.055V376.689ZM276.505 380.347V374.763L277.345 374.896V380.48L276.505 380.347ZM278.191 380.614V375.03L278.849 375.135L280.018 378.67L279.958 377.138V375.31L280.713 375.43V381.014L280.118 380.92L278.918 377.262L278.965 378.735V380.737L278.191 380.614ZM282.581 381.367C282.249 381.314 281.982 381.14 281.779 380.843C281.576 380.545 281.475 380.097 281.475 379.501V377.073C281.475 376.824 281.498 376.604 281.544 376.415C281.592 376.226 281.665 376.071 281.763 375.952C281.863 375.83 281.993 375.747 282.152 375.702C282.311 375.655 282.502 375.65 282.725 375.685C282.968 375.724 283.165 375.792 283.318 375.89C283.47 375.986 283.587 376.11 283.668 376.263C283.752 376.414 283.81 376.592 283.841 376.798C283.872 377.004 283.888 377.234 283.888 377.487V377.884L283.104 377.76V377.176C283.104 376.924 283.078 376.742 283.026 376.628C282.976 376.514 282.88 376.446 282.738 376.423C282.581 376.398 282.472 376.444 282.412 376.559C282.351 376.672 282.321 376.886 282.321 377.201V379.622C282.321 379.973 282.346 380.229 282.396 380.389C282.448 380.547 282.556 380.64 282.719 380.665C282.878 380.691 282.99 380.631 283.054 380.487C283.121 380.341 283.155 380.086 283.155 379.722V378.97L282.732 378.903V378.285L283.888 378.468V381.517L283.512 381.457L283.383 380.888C283.337 381.073 283.239 381.207 283.089 381.289C282.94 381.371 282.771 381.397 282.581 381.367ZM268.414 387.066V381.481L269.802 381.701C270.09 381.747 270.305 381.838 270.447 381.975C270.589 382.112 270.682 382.294 270.726 382.52C270.772 382.748 270.795 383.02 270.795 383.337C270.795 383.665 270.762 383.918 270.695 384.096C270.63 384.271 270.497 384.375 270.294 384.406C270.39 384.439 270.47 384.491 270.535 384.565C270.6 384.637 270.652 384.736 270.692 384.863C270.732 384.988 270.76 385.145 270.776 385.336C270.795 385.525 270.805 385.755 270.805 386.026C270.805 386.047 270.805 386.106 270.805 386.204C270.805 386.301 270.805 386.416 270.805 386.55C270.807 386.681 270.809 386.813 270.811 386.944C270.813 387.075 270.816 387.188 270.82 387.282C270.825 387.376 270.83 387.431 270.836 387.449L269.996 387.316C269.99 387.305 269.985 387.25 269.98 387.152C269.978 387.052 269.975 386.926 269.971 386.773C269.969 386.62 269.967 386.456 269.965 386.28C269.965 386.105 269.965 385.932 269.965 385.763C269.965 385.592 269.965 385.44 269.965 385.309C269.965 385.142 269.952 385.014 269.927 384.926C269.904 384.835 269.86 384.768 269.796 384.724C269.733 384.68 269.642 384.646 269.523 384.621L269.253 384.562V387.199L268.414 387.066ZM269.257 383.903L269.592 383.956C269.694 383.972 269.772 383.961 269.824 383.923C269.878 383.885 269.915 383.805 269.933 383.683C269.954 383.561 269.965 383.383 269.965 383.149V383.114C269.965 382.917 269.955 382.764 269.937 382.656C269.918 382.547 269.878 382.468 269.818 382.418C269.759 382.368 269.667 382.334 269.542 382.314L269.257 382.269V383.903ZM271.522 387.558V381.974L273.371 382.267V383L272.362 382.84V384.464L273.321 384.616V385.333L272.362 385.181V386.958L273.409 387.124V387.857L271.522 387.558ZM275.161 388.198C274.893 388.155 274.671 388.058 274.493 387.905C274.315 387.752 274.182 387.549 274.092 387.296C274.004 387.041 273.96 386.743 273.96 386.402V383.969C273.96 383.713 273.981 383.486 274.023 383.287C274.065 383.088 274.133 382.924 274.227 382.793C274.321 382.662 274.446 382.569 274.603 382.516C274.759 382.462 274.953 382.454 275.182 382.49C275.391 382.523 275.569 382.586 275.715 382.679C275.863 382.771 275.984 382.888 276.076 383.032C276.17 383.175 276.237 383.343 276.279 383.533C276.323 383.722 276.345 383.931 276.345 384.159V384.927L275.533 384.799V384.085C275.533 383.81 275.51 383.604 275.464 383.468C275.419 383.329 275.327 383.249 275.189 383.227C275.036 383.203 274.934 383.258 274.882 383.391C274.831 383.523 274.806 383.715 274.806 383.966V386.574C274.806 386.769 274.817 386.93 274.838 387.058C274.861 387.185 274.898 387.282 274.951 387.349C275.003 387.415 275.076 387.455 275.17 387.47C275.312 387.492 275.408 387.44 275.458 387.312C275.508 387.185 275.533 386.974 275.533 386.68V385.88L276.358 386.011V386.801C276.358 387.154 276.317 387.443 276.235 387.667C276.154 387.889 276.024 388.044 275.847 388.132C275.671 388.221 275.443 388.242 275.161 388.198ZM277.069 388.437V382.853L278.457 383.072C278.745 383.118 278.961 383.209 279.103 383.346C279.245 383.483 279.338 383.665 279.382 383.892C279.428 384.119 279.451 384.391 279.451 384.708C279.451 385.036 279.417 385.289 279.35 385.467C279.285 385.643 279.152 385.746 278.949 385.777C279.045 385.81 279.126 385.863 279.19 385.936C279.255 386.008 279.307 386.107 279.347 386.234C279.387 386.359 279.415 386.517 279.432 386.707C279.451 386.897 279.46 387.126 279.46 387.397C279.46 387.418 279.46 387.478 279.46 387.575C279.46 387.672 279.46 387.787 279.46 387.921C279.462 388.052 279.464 388.184 279.466 388.315C279.468 388.447 279.471 388.559 279.476 388.653C279.48 388.747 279.485 388.802 279.491 388.82L278.651 388.687C278.645 388.676 278.64 388.621 278.636 388.523C278.634 388.423 278.631 388.297 278.626 388.144C278.624 387.991 278.622 387.827 278.62 387.651C278.62 387.476 278.62 387.303 278.62 387.134C278.62 386.963 278.62 386.812 278.62 386.68C278.62 386.513 278.608 386.385 278.583 386.297C278.56 386.206 278.516 386.139 278.451 386.095C278.388 386.051 278.297 386.017 278.178 385.992L277.909 385.933V388.57L277.069 388.437ZM277.912 385.274L278.247 385.327C278.35 385.343 278.427 385.332 278.479 385.294C278.533 385.256 278.57 385.176 278.589 385.054C278.61 384.933 278.62 384.754 278.62 384.52V384.485C278.62 384.288 278.611 384.135 278.592 384.027C278.573 383.918 278.533 383.839 278.473 383.789C278.414 383.739 278.322 383.705 278.197 383.685L277.912 383.64V385.274ZM281.356 389.179C281.07 389.134 280.837 389.043 280.657 388.907C280.477 388.768 280.346 388.582 280.262 388.349C280.179 388.114 280.137 387.827 280.137 387.489V383.339L280.977 383.472V387.606C280.977 387.762 280.983 387.901 280.995 388.021C281.01 388.142 281.044 388.239 281.096 388.313C281.148 388.387 281.234 388.433 281.353 388.452C281.472 388.471 281.557 388.453 281.61 388.398C281.664 388.341 281.697 388.254 281.71 388.138C281.722 388.021 281.729 387.884 281.729 387.725V383.591L282.569 383.724V387.874C282.569 388.212 282.527 388.486 282.443 388.695C282.362 388.902 282.231 389.046 282.052 389.128C281.874 389.207 281.642 389.225 281.356 389.179ZM283.374 389.435V383.851L284.214 383.984V389.569L283.374 389.435ZM285.348 389.748V384.9L284.703 384.798V384.062L286.805 384.395V385.131L286.185 385.033V389.881L285.348 389.748ZM287.279 390.054V384.47L289.127 384.763V385.496L288.118 385.336V386.96L289.077 387.112V387.829L288.118 387.677V389.454L289.165 389.62V390.353L287.279 390.054ZM289.785 390.451V384.867L291.174 385.087C291.462 385.133 291.677 385.224 291.819 385.361C291.961 385.497 292.054 385.679 292.098 385.906C292.144 386.133 292.167 386.406 292.167 386.723C292.167 387.051 292.134 387.303 292.067 387.481C292.002 387.657 291.868 387.761 291.666 387.792C291.762 387.824 291.842 387.877 291.907 387.951C291.972 388.022 292.024 388.122 292.064 388.248C292.103 388.373 292.132 388.531 292.148 388.722C292.167 388.911 292.176 389.141 292.176 389.412C292.176 389.433 292.176 389.492 292.176 389.589C292.176 389.687 292.176 389.802 292.176 389.935C292.179 390.067 292.181 390.198 292.183 390.33C292.185 390.461 292.188 390.574 292.192 390.667C292.196 390.761 292.202 390.817 292.208 390.835L291.368 390.702C291.362 390.69 291.357 390.636 291.352 390.538C291.35 390.438 291.347 390.311 291.343 390.159C291.341 390.006 291.339 389.842 291.337 389.666C291.337 389.49 291.337 389.318 291.337 389.149C291.337 388.977 291.337 388.826 291.337 388.695C291.337 388.528 291.324 388.4 291.299 388.311C291.276 388.221 291.232 388.154 291.167 388.11C291.105 388.066 291.014 388.031 290.895 388.006L290.625 387.948V390.584L289.785 390.451ZM290.628 387.288L290.964 387.341C291.066 387.358 291.143 387.347 291.196 387.308C291.25 387.27 291.287 387.19 291.305 387.069C291.326 386.947 291.337 386.769 291.337 386.534V386.499C291.337 386.303 291.327 386.15 291.308 386.041C291.29 385.932 291.25 385.853 291.189 385.803C291.131 385.754 291.039 385.719 290.914 385.699L290.628 385.654V387.288ZM293.9 391.166C293.67 391.13 293.478 391.064 293.323 390.967C293.171 390.869 293.05 390.743 292.96 390.589C292.872 390.434 292.81 390.252 292.772 390.045C292.734 389.836 292.715 389.603 292.715 389.345V388.847L293.511 388.973V389.534C293.511 389.835 293.537 390.054 293.587 390.194C293.637 390.333 293.736 390.414 293.884 390.437C293.985 390.453 294.06 390.442 294.11 390.403C294.162 390.363 294.197 390.292 294.213 390.191C294.232 390.088 294.242 389.952 294.242 389.783C294.242 389.574 294.198 389.375 294.11 389.188C294.024 389.001 293.894 388.801 293.718 388.587L293.311 388.097C293.198 387.961 293.096 387.819 293.004 387.671C292.914 387.523 292.842 387.364 292.788 387.192C292.735 387.019 292.709 386.831 292.709 386.628C292.709 386.334 292.745 386.091 292.816 385.899C292.887 385.707 293.007 385.573 293.176 385.496C293.345 385.417 293.577 385.401 293.872 385.448C294.093 385.483 294.275 385.547 294.417 385.639C294.561 385.729 294.673 385.848 294.752 385.993C294.834 386.137 294.891 386.307 294.925 386.503C294.958 386.697 294.975 386.915 294.975 387.158V387.504L294.201 387.381V386.982C294.201 386.812 294.191 386.67 294.173 386.555C294.156 386.44 294.124 386.352 294.076 386.289C294.027 386.224 293.957 386.185 293.866 386.17C293.778 386.156 293.707 386.165 293.652 386.197C293.598 386.226 293.558 386.28 293.533 386.359C293.51 386.435 293.499 386.538 293.499 386.667C293.499 386.784 293.514 386.886 293.543 386.976C293.572 387.065 293.617 387.153 293.678 387.241C293.738 387.329 293.813 387.429 293.903 387.54L294.358 388.111C294.575 388.382 294.744 388.655 294.865 388.93C294.986 389.205 295.047 389.501 295.047 389.816C295.047 390.15 295.011 390.426 294.94 390.643C294.869 390.858 294.75 391.01 294.583 391.1C294.416 391.19 294.188 391.212 293.9 391.166Z" fill="#263238"/>
<path d="M314.248 310.563L319.902 501.972L367.558 515.173L364.79 317.445L314.248 310.563Z" fill="white" stroke="#263238" stroke-linecap="round" stroke-linejoin="round"/>
<path d="M321.13 325.748L325.718 488.933" stroke="#263238" stroke-width="0.75" stroke-linecap="round" stroke-linejoin="round"/>
<path d="M320.849 316.01L320.997 320.879" stroke="#263238" stroke-width="0.75" stroke-linecap="round" stroke-linejoin="round"/>
<path d="M328.648 317.919L332.186 490.073" stroke="#263238" stroke-width="0.75" stroke-linecap="round" stroke-linejoin="round"/>
<path d="M336.566 319.813L339.023 492.352" stroke="#263238" stroke-width="0.75" stroke-linecap="round" stroke-linejoin="round"/>
<path d="M344.174 320.775L346.631 493.107" stroke="#263238" stroke-width="0.75" stroke-linecap="round" stroke-linejoin="round"/>
<path d="M352.403 323.306L354.608 496.54" stroke="#263238" stroke-width="0.75" stroke-linecap="round" stroke-linejoin="round"/>
<path d="M360.75 350.124L362.6 496.91" stroke="#263238" stroke-width="0.75" stroke-linecap="round" stroke-linejoin="round"/>
<path d="M360.483 323.499L360.676 343.168" stroke="#263238" stroke-width="0.75" stroke-linecap="round" stroke-linejoin="round"/>
<path d="M410.167 307.115L464.542 428.43V543.042L403.152 517.66L410.167 307.115Z" fill="#263238"/>
<path d="M438.346 382.58V418.603" stroke="white" stroke-width="0.75" stroke-linecap="round" stroke-linejoin="round"/>
<path d="M364.79 317.445L410.167 307.115V526.288L366.522 515.292L364.79 317.445Z" fill="#263238" stroke="#263238" stroke-linecap="round" stroke-linejoin="round"/>
<path d="M401.021 326.68L402.352 508.291" stroke="white" stroke-width="0.75" stroke-linecap="round" stroke-linejoin="round"/>
<path d="M400.961 315.506L400.991 320.879" stroke="white" stroke-width="0.75" stroke-linecap="round" stroke-linejoin="round"/>
<path d="M393.043 318.23L394.731 507.152" stroke="white" stroke-width="0.75" stroke-linecap="round" stroke-linejoin="round"/>
<path d="M385.436 319.976L386.531 507.152" stroke="white" stroke-width="0.75" stroke-linecap="round" stroke-linejoin="round"/>
<path d="M377.192 323.365L378.628 503.2" stroke="white" stroke-width="0.75" stroke-linecap="round" stroke-linejoin="round"/>
<path d="M369.126 324.401L371.272 501.217" stroke="white" stroke-width="0.75" stroke-linecap="round" stroke-linejoin="round"/>
<path d="M314.248 310.563L363.65 301.935L410.167 307.115L364.79 317.445L314.248 310.563Z" fill="white" stroke="#263238" stroke-linecap="round" stroke-linejoin="round"/>
<path d="M324.253 310.371L363.34 303.563L400.162 307.648L364.257 315.832L324.253 310.371Z" fill="white" stroke="#263238" stroke-width="0.75" stroke-linecap="round" stroke-linejoin="round"/>
<path d="M367.928 351.012L408.539 339.009V363.473L367.928 376.852V351.012Z" fill="#FFA4BB" stroke="#263238" stroke-miterlimit="10"/>
<path d="M378.657 364.341C378.052 364.529 377.578 364.487 377.235 364.215C376.895 363.939 376.722 363.431 376.714 362.691L376.697 360.966L378.056 360.544L378.072 362.197C378.074 362.388 378.086 362.56 378.109 362.715C378.135 362.868 378.185 362.981 378.26 363.054C378.334 363.126 378.448 363.138 378.602 363.09C378.756 363.042 378.869 362.961 378.942 362.847C379.014 362.729 379.062 362.582 379.084 362.406C379.107 362.226 379.117 362.019 379.115 361.785L379.041 354.414L380.447 353.977L380.52 361.276C380.528 362.071 380.366 362.735 380.035 363.267C379.707 363.799 379.248 364.157 378.657 364.341ZM383.896 362.711C383.417 362.86 383.025 362.876 382.718 362.758C382.416 362.639 382.19 362.393 382.043 362.02C381.895 361.648 381.818 361.154 381.812 360.538L381.768 356.117C381.762 355.56 381.828 355.063 381.964 354.624C382.099 354.185 382.318 353.812 382.621 353.505C382.923 353.198 383.32 352.968 383.813 352.814C384.184 352.699 384.498 352.662 384.754 352.704C385.01 352.745 385.219 352.857 385.378 353.039C385.538 353.217 385.654 353.46 385.727 353.767C385.804 354.07 385.845 354.431 385.849 354.848L385.893 359.27C385.899 359.885 385.834 360.423 385.699 360.884C385.566 361.344 385.353 361.726 385.058 362.031C384.763 362.336 384.376 362.562 383.896 362.711ZM383.884 361.437C384.059 361.383 384.189 361.287 384.275 361.15C384.362 361.013 384.418 360.828 384.444 360.596C384.473 360.36 384.486 360.069 384.482 359.725L384.437 355.221C384.433 354.8 384.391 354.488 384.312 354.285C384.236 354.077 384.074 354.011 383.826 354.089C383.571 354.168 383.399 354.334 383.31 354.585C383.221 354.833 383.179 355.173 383.184 355.605L383.229 360.115C383.232 360.466 383.249 360.751 383.279 360.969C383.313 361.183 383.376 361.329 383.468 361.407C383.563 361.483 383.702 361.494 383.884 361.437ZM387.2 361.574L387.103 351.907L389.102 351.286C389.567 351.141 389.938 351.101 390.216 351.165C390.493 351.226 390.695 351.398 390.821 351.682C390.95 351.962 391.017 352.362 391.022 352.881L391.025 353.178C391.03 353.68 390.971 354.113 390.849 354.478C390.73 354.838 390.525 355.128 390.237 355.346C390.479 355.355 390.672 355.448 390.818 355.623C390.967 355.793 391.075 356.026 391.141 356.321C391.207 356.613 391.242 356.945 391.245 357.319L391.248 357.566C391.251 358.212 391.184 358.759 391.049 359.209C390.913 359.656 390.697 360.018 390.402 360.298C390.106 360.577 389.719 360.791 389.24 360.94L387.2 361.574ZM388.594 359.995L389.092 359.84C389.278 359.782 389.424 359.694 389.532 359.576C389.643 359.454 389.722 359.284 389.769 359.067C389.816 358.851 389.837 358.569 389.834 358.221L389.826 357.441C389.821 356.972 389.774 356.645 389.685 356.46C389.599 356.27 389.421 356.217 389.152 356.301L388.559 356.485L388.594 359.995ZM388.548 355.381L389.067 355.219C389.19 355.181 389.289 355.132 389.366 355.071C389.442 355.011 389.501 354.93 389.542 354.829C389.583 354.725 389.61 354.59 389.622 354.424C389.638 354.258 389.645 354.05 389.642 353.801L389.637 353.219C389.634 352.959 389.609 352.768 389.562 352.647C389.516 352.525 389.445 352.456 389.35 352.437C389.258 352.418 389.139 352.431 388.992 352.477L388.52 352.624L388.548 355.381Z" fill="#263238"/>
<path d="M454.967 412.21L409.027 432.323L471.202 445.229L507.803 420.261L454.967 412.21Z" fill="white" stroke="#263238" stroke-linecap="round" stroke-linejoin="round"/>
<path d="M455.44 414.504L415.88 431.82L469.426 442.934L500.95 421.43L455.44 414.504Z" fill="white" stroke="#263238" stroke-width="0.75" stroke-linecap="round" stroke-linejoin="round"/>
<path d="M409.027 432.323L410.167 526.288L470.477 541.221L471.202 445.228L409.027 432.323Z" fill="white" stroke="#263238" stroke-linecap="round" stroke-linejoin="round"/>
<path d="M418.648 513.605L418.115 497.887L453.753 507.315V523.032L418.648 513.605Z" fill="#263238"/>
<path d="M414.074 445.598L456.062 454.834L456.639 485.351L415.11 475.198L414.074 445.598Z" fill="#FFA4BB" stroke="#263238" stroke-linecap="round" stroke-linejoin="round"/>
<path d="M420.747 458.561L419.968 451.886L420.837 452.068L421.305 456.806L421.898 452.291L422.681 452.455L423.278 457.221L423.691 452.667L424.564 452.851L423.832 459.209L422.865 459.006L422.3 454.558L421.714 458.764L420.747 458.561ZM425.205 459.497V452.985L427.341 453.434V454.289L426.175 454.044V455.938L427.283 456.171V457.007L426.175 456.774V458.846L427.384 459.1V459.955L425.205 459.497ZM429.057 460.306L429.966 453.985L431.248 454.254L432.215 460.97L431.31 460.779L431.158 459.586L430.129 459.37L429.992 460.503L429.057 460.306ZM430.223 458.594L431.056 458.769L430.629 455.408L430.615 455.405L430.223 458.594ZM432.795 461.091V454.579L434.399 454.916C434.732 454.986 434.98 455.105 435.145 455.272C435.309 455.44 435.416 455.657 435.467 455.925C435.52 456.192 435.547 456.511 435.547 456.881C435.547 457.264 435.508 457.556 435.431 457.76C435.356 457.961 435.201 458.074 434.967 458.099C435.078 458.142 435.171 458.208 435.246 458.298C435.321 458.385 435.381 458.504 435.427 458.654C435.473 458.802 435.506 458.988 435.525 459.211C435.547 459.433 435.557 459.702 435.557 460.018C435.557 460.042 435.557 460.111 435.557 460.225C435.557 460.338 435.557 460.473 435.557 460.628C435.56 460.781 435.562 460.935 435.565 461.088C435.567 461.242 435.571 461.373 435.576 461.483C435.58 461.592 435.586 461.658 435.594 461.679L434.623 461.475C434.616 461.461 434.61 461.397 434.605 461.283C434.603 461.166 434.599 461.019 434.594 460.84C434.592 460.662 434.589 460.47 434.587 460.265C434.587 460.06 434.587 459.859 434.587 459.662C434.587 459.462 434.587 459.286 434.587 459.133C434.587 458.938 434.573 458.788 434.544 458.683C434.517 458.577 434.466 458.496 434.391 458.441C434.319 458.386 434.214 458.34 434.076 458.304L433.765 458.22V461.295L432.795 461.091ZM433.769 457.451L434.156 457.533C434.274 457.558 434.364 457.549 434.424 457.508C434.487 457.467 434.529 457.375 434.551 457.235C434.575 457.094 434.587 456.887 434.587 456.613V456.572C434.587 456.343 434.576 456.164 434.554 456.036C434.533 455.909 434.487 455.814 434.417 455.752C434.349 455.691 434.243 455.645 434.098 455.615L433.769 455.546V457.451ZM436.387 461.846V455.333L438.523 455.782V456.637L437.357 456.392V458.286L438.465 458.519V459.355L437.357 459.123V461.195L438.567 461.449V462.303L436.387 461.846Z" fill="#263238"/>
<path d="M420.694 469.058V462.546L421.665 462.75V465.384L422.534 465.567V462.932L423.504 463.136V469.648L422.534 469.444V466.418L421.665 466.235V469.262L420.694 469.058ZM424.482 469.854V463.341L425.453 463.545V470.057L424.482 469.854ZM426.43 470.263V463.75L428.034 464.087C428.368 464.157 428.616 464.276 428.78 464.444C428.945 464.611 429.052 464.829 429.103 465.096C429.156 465.364 429.182 465.683 429.182 466.053C429.182 466.435 429.144 466.728 429.066 466.931C428.992 467.132 428.837 467.246 428.603 467.27C428.714 467.313 428.807 467.38 428.882 467.47C428.957 467.557 429.017 467.676 429.063 467.826C429.109 467.974 429.141 468.159 429.161 468.383C429.182 468.605 429.193 468.873 429.193 469.189C429.193 469.214 429.193 469.283 429.193 469.396C429.193 469.51 429.193 469.644 429.193 469.799C429.196 469.953 429.198 470.106 429.2 470.26C429.203 470.413 429.206 470.545 429.211 470.654C429.216 470.764 429.222 470.829 429.229 470.851L428.259 470.647C428.252 470.633 428.246 470.569 428.241 470.454C428.238 470.338 428.235 470.19 428.23 470.012C428.228 469.833 428.225 469.642 428.223 469.437C428.223 469.232 428.223 469.031 428.223 468.833C428.223 468.634 428.223 468.457 428.223 468.304C428.223 468.109 428.208 467.96 428.179 467.855C428.153 467.748 428.102 467.667 428.027 467.612C427.955 467.557 427.85 467.512 427.712 467.476L427.401 467.392V470.466L426.43 470.263ZM427.404 466.623L427.792 466.704C427.91 466.729 427.999 466.721 428.06 466.679C428.123 466.638 428.165 466.547 428.187 466.406C428.211 466.265 428.223 466.058 428.223 465.785V465.744C428.223 465.514 428.212 465.336 428.19 465.208C428.168 465.08 428.123 464.985 428.053 464.924C427.985 464.863 427.879 464.817 427.734 464.786L427.404 464.717V466.623ZM430.044 471.022V464.509L431.015 464.713V471.225L430.044 471.022ZM431.992 471.431V464.918L432.753 465.078L434.103 469.269L434.035 467.479V465.347L434.907 465.531V472.043L434.219 471.898L432.832 467.563L432.887 469.284V471.619L431.992 471.431ZM437.066 472.563C436.682 472.482 436.373 472.263 436.139 471.906C435.904 471.546 435.787 471.018 435.787 470.322V467.491C435.787 467.2 435.814 466.946 435.867 466.727C435.923 466.51 436.007 466.334 436.12 466.2C436.236 466.064 436.386 465.974 436.57 465.931C436.753 465.886 436.974 465.891 437.232 465.945C437.512 466.004 437.74 466.095 437.917 466.218C438.093 466.339 438.228 466.491 438.322 466.673C438.419 466.854 438.485 467.065 438.521 467.307C438.558 467.549 438.576 467.818 438.576 468.114V468.577L437.67 468.386V467.706C437.67 467.412 437.64 467.197 437.58 467.061C437.522 466.926 437.411 466.841 437.247 466.806C437.066 466.768 436.94 466.815 436.87 466.946C436.8 467.074 436.765 467.322 436.765 467.689V470.513C436.765 470.922 436.794 471.222 436.852 471.412C436.912 471.599 437.037 471.713 437.225 471.753C437.408 471.791 437.538 471.728 437.612 471.564C437.69 471.397 437.728 471.102 437.728 470.678V469.801L437.239 469.698V468.977L438.576 469.257V472.813L438.141 472.722L437.993 472.051C437.94 472.264 437.826 472.414 437.652 472.501C437.481 472.588 437.285 472.609 437.066 472.563Z" fill="#263238"/>
<path d="M471.631 392.111L470.477 541.221L533.081 558.449L537.683 403.596L471.631 392.111Z" fill="white" stroke="#263238" stroke-linecap="round" stroke-linejoin="round"/>
<path d="M479.815 398.831L478.38 528.804" stroke="#263238" stroke-width="0.75" stroke-linecap="round" stroke-linejoin="round"/>
<path d="M488.03 400.888L487.29 532.475" stroke="#263238" stroke-width="0.75" stroke-linecap="round" stroke-linejoin="round"/>
<path d="M498.715 403.759L498.301 536.663" stroke="#263238" stroke-width="0.75" stroke-linecap="round" stroke-linejoin="round"/>
<path d="M511.058 406.23L509.83 540.333" stroke="#263238" stroke-width="0.75" stroke-linecap="round" stroke-linejoin="round"/>
<path d="M525.03 408.702L521.359 542.953" stroke="#263238" stroke-width="0.75" stroke-linecap="round" stroke-linejoin="round"/>
<path d="M537.684 403.596L572.716 383.498L509.535 374.307L471.632 392.111L537.684 403.596Z" fill="white" stroke="#263238" stroke-linecap="round" stroke-linejoin="round"/>
<path d="M534.546 400.651L562.533 384.593L512.08 377.267L481.799 391.475L534.546 400.651Z" fill="white" stroke="#263238" stroke-width="0.75" stroke-linecap="round" stroke-linejoin="round"/>
<path d="M572.715 383.498L566.973 562.859L533.081 558.448L537.684 403.596L572.715 383.498Z" fill="#263238" stroke="#263238" stroke-linecap="round" stroke-linejoin="round"/>
<path d="M544.536 407.592L540.836 552.38" stroke="white" stroke-width="0.75" stroke-linecap="round" stroke-linejoin="round"/>
<path d="M553.801 401.302L550.516 544.004" stroke="white" stroke-width="0.75" stroke-linecap="round" stroke-linejoin="round"/>
<path d="M563.658 394.316L561.187 540.851" stroke="white" stroke-width="0.75" stroke-linecap="round" stroke-linejoin="round"/>
<path d="M487.438 430.369V459.91L473.141 457.601L474.429 448.914L458.83 461.745L474.059 475.139L474.518 468.672L498.508 474.207L499.426 435.919L487.438 430.369Z" fill="#FFA4BB" stroke="#263238" stroke-linecap="round" stroke-linejoin="round"/>
<path d="M477.3 467.784C477.3 468.133 477.196 468.474 477.002 468.764C476.808 469.054 476.532 469.279 476.209 469.412C475.886 469.545 475.531 469.579 475.189 469.51C474.847 469.441 474.534 469.272 474.288 469.024C474.042 468.776 473.876 468.461 473.809 468.118C473.743 467.776 473.78 467.421 473.916 467.099C474.051 466.778 474.279 466.504 474.571 466.312C474.862 466.12 475.204 466.02 475.553 466.023C475.784 466.023 476.012 466.068 476.225 466.157C476.438 466.246 476.631 466.376 476.793 466.539C476.956 466.703 477.084 466.897 477.171 467.111C477.258 467.324 477.302 467.553 477.3 467.784Z" fill="white" stroke="#263238" stroke-linecap="round" stroke-linejoin="round"/>
<path d="M482.747 471.395C483.719 471.395 484.508 470.606 484.508 469.634C484.508 468.661 483.719 467.873 482.747 467.873C481.774 467.873 480.985 468.661 480.985 469.634C480.985 470.606 481.774 471.395 482.747 471.395Z" fill="white" stroke="#263238" stroke-linecap="round" stroke-linejoin="round"/>
<path d="M491.715 471.469C491.715 471.817 491.611 472.158 491.418 472.447C491.224 472.737 490.949 472.963 490.628 473.096C490.306 473.229 489.952 473.264 489.61 473.196C489.268 473.128 488.955 472.961 488.708 472.714C488.462 472.468 488.294 472.154 488.226 471.813C488.158 471.471 488.193 471.117 488.326 470.795C488.46 470.473 488.685 470.198 488.975 470.005C489.265 469.811 489.605 469.708 489.954 469.708C490.421 469.708 490.869 469.893 491.199 470.224C491.529 470.554 491.715 471.002 491.715 471.469Z" fill="white" stroke="#263238" stroke-linecap="round" stroke-linejoin="round"/>
<path d="M498.923 473.319C498.923 473.667 498.82 474.008 498.626 474.297C498.432 474.587 498.157 474.813 497.836 474.946C497.514 475.079 497.16 475.114 496.818 475.046C496.476 474.978 496.163 474.81 495.916 474.564C495.67 474.318 495.502 474.004 495.434 473.662C495.366 473.321 495.401 472.967 495.534 472.645C495.668 472.323 495.894 472.048 496.183 471.854C496.473 471.661 496.813 471.558 497.162 471.558C497.629 471.558 498.077 471.743 498.407 472.073C498.737 472.404 498.923 472.852 498.923 473.319Z" fill="white" stroke="#263238" stroke-linecap="round" stroke-linejoin="round"/>
<path d="M499.752 464.439C499.752 464.787 499.649 465.128 499.455 465.417C499.262 465.707 498.986 465.933 498.665 466.066C498.343 466.199 497.989 466.234 497.647 466.166C497.305 466.098 496.992 465.931 496.745 465.684C496.499 465.438 496.331 465.124 496.263 464.783C496.195 464.441 496.23 464.087 496.364 463.765C496.497 463.443 496.723 463.168 497.012 462.975C497.302 462.781 497.642 462.678 497.991 462.678C498.458 462.678 498.906 462.863 499.236 463.194C499.566 463.524 499.752 463.972 499.752 464.439Z" fill="white" stroke="#263238" stroke-linecap="round" stroke-linejoin="round"/>
<path d="M500.092 454.552C500.092 454.901 499.988 455.241 499.795 455.531C499.601 455.821 499.326 456.046 499.005 456.18C498.683 456.313 498.329 456.348 497.987 456.28C497.645 456.212 497.331 456.044 497.085 455.798C496.839 455.552 496.671 455.238 496.603 454.896C496.535 454.554 496.57 454.2 496.703 453.878C496.837 453.557 497.062 453.282 497.352 453.088C497.642 452.895 497.982 452.791 498.331 452.791C498.798 452.791 499.246 452.977 499.576 453.307C499.906 453.637 500.092 454.085 500.092 454.552Z" fill="white" stroke="#263238" stroke-linecap="round" stroke-linejoin="round"/>
<path d="M500.595 444.755C500.595 445.103 500.491 445.444 500.298 445.733C500.104 446.023 499.829 446.249 499.507 446.382C499.186 446.515 498.831 446.55 498.49 446.482C498.148 446.414 497.834 446.247 497.588 446C497.342 445.754 497.174 445.44 497.106 445.098C497.038 444.757 497.073 444.403 497.206 444.081C497.34 443.759 497.565 443.484 497.855 443.29C498.145 443.097 498.485 442.994 498.833 442.994C499.301 442.994 499.749 443.179 500.079 443.509C500.409 443.84 500.595 444.288 500.595 444.755Z" fill="white" stroke="#263238" stroke-linecap="round" stroke-linejoin="round"/>
<path d="M500.417 436.793C500.417 437.141 500.313 437.483 500.119 437.772C499.925 438.062 499.649 438.288 499.326 438.421C499.004 438.554 498.649 438.588 498.307 438.519C497.965 438.45 497.651 438.28 497.405 438.033C497.159 437.785 496.993 437.47 496.927 437.127C496.86 436.784 496.897 436.43 497.033 436.108C497.168 435.787 497.397 435.513 497.688 435.321C497.98 435.129 498.322 435.028 498.671 435.031C498.901 435.031 499.129 435.077 499.342 435.166C499.555 435.254 499.748 435.384 499.911 435.548C500.073 435.712 500.201 435.906 500.288 436.12C500.375 436.333 500.419 436.562 500.417 436.793Z" fill="white" stroke="#263238" stroke-linecap="round" stroke-linejoin="round"/>
<path d="M495.4 433.27C495.403 433.619 495.302 433.961 495.111 434.253C494.919 434.544 494.645 434.772 494.323 434.908C494.002 435.043 493.647 435.08 493.305 435.014C492.962 434.948 492.647 434.781 492.399 434.535C492.151 434.29 491.982 433.976 491.913 433.634C491.844 433.292 491.878 432.937 492.011 432.614C492.143 432.292 492.369 432.016 492.659 431.822C492.949 431.627 493.29 431.524 493.639 431.524C494.104 431.524 494.549 431.707 494.879 432.034C495.209 432.361 495.396 432.806 495.4 433.27Z" fill="white" stroke="#263238" stroke-linecap="round" stroke-linejoin="round"/>
<path d="M487.867 432.19C488.839 432.19 489.628 431.401 489.628 430.428C489.628 429.456 488.839 428.667 487.867 428.667C486.894 428.667 486.105 429.456 486.105 430.428C486.105 431.401 486.894 432.19 487.867 432.19Z" fill="white" stroke="#263238" stroke-linecap="round" stroke-linejoin="round"/>
<path d="M489.125 440.034C489.125 440.382 489.022 440.723 488.828 441.012C488.635 441.302 488.36 441.527 488.038 441.661C487.716 441.794 487.362 441.829 487.02 441.761C486.678 441.693 486.365 441.525 486.118 441.279C485.872 441.033 485.704 440.719 485.636 440.377C485.568 440.036 485.603 439.681 485.737 439.36C485.87 439.038 486.096 438.763 486.385 438.569C486.675 438.376 487.015 438.272 487.364 438.272C487.831 438.272 488.279 438.458 488.609 438.788C488.939 439.119 489.125 439.567 489.125 440.034Z" fill="white" stroke="#263238" stroke-linecap="round" stroke-linejoin="round"/>
<path d="M488.622 449.639C488.622 449.987 488.519 450.328 488.325 450.617C488.132 450.907 487.857 451.133 487.535 451.266C487.213 451.399 486.859 451.434 486.517 451.366C486.176 451.298 485.862 451.131 485.615 450.884C485.369 450.638 485.201 450.324 485.133 449.983C485.065 449.641 485.1 449.287 485.234 448.965C485.367 448.643 485.593 448.368 485.882 448.175C486.172 447.981 486.512 447.878 486.861 447.878C487.093 447.876 487.323 447.92 487.537 448.008C487.752 448.096 487.947 448.225 488.111 448.389C488.275 448.553 488.404 448.748 488.492 448.963C488.58 449.177 488.624 449.407 488.622 449.639Z" fill="white" stroke="#263238" stroke-linecap="round" stroke-linejoin="round"/>
<path d="M488.134 459.229C488.134 459.578 488.03 459.918 487.837 460.208C487.643 460.497 487.368 460.723 487.047 460.856C486.725 460.99 486.371 461.025 486.029 460.957C485.687 460.889 485.373 460.721 485.127 460.475C484.881 460.228 484.713 459.914 484.645 459.573C484.577 459.231 484.612 458.877 484.745 458.555C484.879 458.233 485.104 457.958 485.394 457.765C485.684 457.571 486.024 457.468 486.373 457.468C486.84 457.468 487.288 457.654 487.618 457.984C487.948 458.314 488.134 458.762 488.134 459.229Z" fill="white" stroke="#263238" stroke-linecap="round" stroke-linejoin="round"/>
<path d="M475.731 457.72C475.734 458.068 475.633 458.41 475.442 458.702C475.25 458.994 474.976 459.222 474.654 459.357C474.333 459.493 473.978 459.53 473.636 459.463C473.293 459.397 472.978 459.231 472.73 458.985C472.482 458.739 472.313 458.425 472.244 458.083C472.175 457.741 472.209 457.386 472.342 457.064C472.474 456.741 472.7 456.465 472.99 456.271C473.28 456.077 473.621 455.973 473.97 455.973C474.435 455.973 474.88 456.157 475.21 456.484C475.54 456.811 475.727 457.255 475.731 457.72Z" fill="white" stroke="#263238" stroke-linecap="round" stroke-linejoin="round"/>
<path d="M476.071 449.18C476.071 449.528 475.968 449.869 475.774 450.159C475.581 450.448 475.306 450.674 474.984 450.807C474.662 450.941 474.308 450.975 473.966 450.908C473.625 450.84 473.311 450.672 473.065 450.426C472.818 450.179 472.651 449.865 472.583 449.524C472.515 449.182 472.55 448.828 472.683 448.506C472.816 448.184 473.042 447.909 473.332 447.716C473.621 447.522 473.962 447.419 474.31 447.419C474.777 447.419 475.225 447.604 475.555 447.935C475.886 448.265 476.071 448.713 476.071 449.18Z" fill="white" stroke="#263238" stroke-linecap="round" stroke-linejoin="round"/>
<path d="M461.227 461.582C461.227 461.931 461.124 462.271 460.93 462.561C460.737 462.851 460.462 463.076 460.14 463.21C459.818 463.343 459.464 463.378 459.122 463.31C458.781 463.242 458.467 463.074 458.22 462.828C457.974 462.582 457.806 462.268 457.738 461.926C457.67 461.584 457.705 461.23 457.839 460.909C457.972 460.587 458.198 460.312 458.487 460.118C458.777 459.925 459.117 459.821 459.466 459.821C459.933 459.821 460.381 460.007 460.711 460.337C461.041 460.667 461.227 461.115 461.227 461.582Z" fill="white" stroke="#263238" stroke-linecap="round" stroke-linejoin="round"/>
<path d="M475.805 476.323C475.805 476.672 475.701 477.012 475.508 477.302C475.314 477.591 475.039 477.817 474.717 477.95C474.396 478.084 474.041 478.119 473.7 478.051C473.358 477.983 473.044 477.815 472.798 477.569C472.552 477.322 472.384 477.008 472.316 476.667C472.248 476.325 472.283 475.971 472.416 475.649C472.55 475.327 472.775 475.052 473.065 474.859C473.355 474.665 473.695 474.562 474.043 474.562C474.51 474.562 474.958 474.748 475.289 475.078C475.619 475.408 475.805 475.856 475.805 476.323Z" fill="white" stroke="#263238" stroke-linecap="round" stroke-linejoin="round"/>
<path d="M466.747 467.784C466.747 468.133 466.644 468.474 466.45 468.764C466.255 469.054 465.98 469.279 465.657 469.412C465.334 469.545 464.979 469.579 464.637 469.51C464.295 469.441 463.981 469.272 463.736 469.024C463.49 468.776 463.323 468.461 463.257 468.118C463.191 467.776 463.228 467.421 463.363 467.099C463.499 466.778 463.727 466.504 464.019 466.312C464.31 466.12 464.652 466.02 465.001 466.023C465.232 466.023 465.46 466.068 465.673 466.157C465.886 466.246 466.079 466.376 466.241 466.539C466.404 466.703 466.532 466.897 466.619 467.111C466.706 467.324 466.749 467.553 466.747 467.784Z" fill="white" stroke="#263238" stroke-linecap="round" stroke-linejoin="round"/>
<path d="M467.932 455.722C467.932 456.07 467.828 456.41 467.635 456.7C467.441 456.99 467.166 457.215 466.844 457.349C466.523 457.482 466.168 457.517 465.827 457.449C465.485 457.381 465.171 457.213 464.925 456.967C464.679 456.721 464.511 456.407 464.443 456.065C464.375 455.724 464.41 455.369 464.543 455.048C464.677 454.726 464.902 454.451 465.192 454.257C465.482 454.064 465.822 453.96 466.17 453.96C466.637 453.96 467.085 454.146 467.416 454.476C467.746 454.807 467.932 455.255 467.932 455.722Z" fill="white" stroke="#263238" stroke-linecap="round" stroke-linejoin="round"/>
<path d="M93.4766 511.829L227.476 451.948L605.956 558.315L527.768 617.501" fill="white"/>
<path d="M93.4766 511.829L227.476 451.948L605.956 558.315L527.768 617.501" stroke="#263238" stroke-linecap="round" stroke-linejoin="round"/>
<path d="M122.248 519.362L230.791 470.862L537.358 557.028L474.029 604.95" fill="white"/>
<path d="M122.248 519.362L230.791 470.862L537.358 557.028L474.029 604.95" stroke="#263238" stroke-linecap="round" stroke-linejoin="round"/>
<path d="M230.791 470.862V484.404L523.343 567.092L537.358 557.028L235.438 472.608" fill="#263238"/>
<path d="M122.248 532.904L230.791 484.404L522.617 566.411" stroke="#263238" stroke-linecap="round" stroke-linejoin="round"/>
<path d="M684.204 616.834L605.956 558.315L528.626 616.834H684.204Z" fill="#263238"/>
<path d="M209.064 563.836C238.27 563.836 261.945 552.922 261.945 539.46C261.945 525.998 238.27 515.084 209.064 515.084C179.859 515.084 156.184 525.998 156.184 539.46C156.184 552.922 179.859 563.836 209.064 563.836Z" fill="#FFA4BB"/>
<path opacity="0.5" d="M209.064 563.836C238.27 563.836 261.945 552.922 261.945 539.46C261.945 525.998 238.27 515.084 209.064 515.084C179.859 515.084 156.184 525.998 156.184 539.46C156.184 552.922 179.859 563.836 209.064 563.836Z" fill="white"/>
<path d="M222 246.035C222 246.035 225.7 254.915 224.96 259.355C224.22 263.795 214.244 267.495 212.764 268.235C211.284 268.975 203.529 265.645 203.529 257.135C203.529 248.625 217.56 239.02 222 246.035Z" fill="white" stroke="#263238" stroke-linecap="round" stroke-linejoin="round"/>
<path d="M217.664 222L238.472 219.588C239.446 219.481 240.431 219.569 241.371 219.847C242.311 220.124 243.186 220.585 243.946 221.203C244.706 221.821 245.335 222.584 245.798 223.448C246.261 224.311 246.548 225.258 246.642 226.233C246.725 227.235 246.603 228.243 246.283 229.196C245.963 230.149 245.453 231.027 244.782 231.777C244.112 232.526 243.296 233.131 242.384 233.554C241.472 233.978 240.484 234.211 239.479 234.24L220.239 234.639L217.664 222Z" fill="#263238"/>
<path d="M220.12 217.56C220.12 217.56 224.56 216.08 227.52 217.56C230.48 219.04 233.07 221.26 232.7 222.74C232.33 224.22 230.11 223.85 227.15 224.22C224.19 224.59 221.008 226.633 220.386 225.064C219.765 223.495 220.12 217.56 220.12 217.56Z" fill="white" stroke="#263238" stroke-linecap="round" stroke-linejoin="round"/>
<path d="M231.042 223.969L251.984 223.436C252.967 223.418 253.944 223.596 254.857 223.96C255.77 224.324 256.602 224.867 257.303 225.556C258.005 226.244 258.562 227.066 258.942 227.973C259.322 228.879 259.518 229.853 259.518 230.836C259.52 231.847 259.314 232.849 258.914 233.778C258.514 234.707 257.927 235.544 257.191 236.237C256.454 236.931 255.583 237.466 254.632 237.81C253.68 238.154 252.669 238.298 251.659 238.236L232.419 236.889L231.042 223.969Z" fill="#263238"/>
<path d="M222.962 223.969L233.647 224.205C234.334 224.736 234.902 225.406 235.312 226.171C235.723 226.936 235.968 227.779 236.03 228.645C236.05 231.213 235.726 233.771 235.068 236.253H223.672C222.115 235.038 220.959 233.382 220.357 231.502C219.41 228.468 222.962 223.969 222.962 223.969Z" fill="#263238"/>
<path d="M219.04 272.231C219.04 272.231 232.493 273.844 239.375 274.481C246.257 275.117 261.812 266.37 270.544 264.121C280.904 261.412 286.365 267.288 289.073 270.899C291.782 274.51 310.8 287.594 310.8 287.594L314.411 297.539L299.048 302.512C299.048 302.512 293.128 295.275 284.13 283.982C275.132 272.69 271.106 266.948 263.839 271.402C256.572 275.857 246.183 283.982 238.043 282.177C229.903 280.371 219.04 272.231 219.04 272.231Z" fill="#263238"/>
<path d="M224.96 528.76L226.025 529.115L247.9 536.278C247.9 536.278 250.667 537.847 249.868 540.23C249.069 542.612 226.188 545.365 217.057 545.365C207.925 545.365 202.035 544.581 202.035 541.014C202.035 537.447 224.96 528.76 224.96 528.76Z" fill="#FFA4BB" stroke="#263238" stroke-linecap="round" stroke-linejoin="round"/>
<path d="M249.912 540.2C250.06 539.704 250.075 539.177 249.955 538.674C249.836 538.17 249.586 537.706 249.232 537.329C240.61 539.686 231.756 541.096 222.828 541.532C215.988 542.124 209.115 542.262 202.256 541.946C203.278 544.684 208.887 545.336 217.056 545.336C226.188 545.365 249.128 542.598 249.912 540.2Z" fill="white" stroke="#263238" stroke-linecap="round" stroke-linejoin="round"/>
<path d="M185.074 515.321C185.074 515.321 196.529 510.57 198.512 514.522C200.496 518.474 195.745 524.408 192.977 525.592C190.21 526.776 188.226 527.576 186.658 529.544C185.089 531.512 180.323 536.278 175.188 535.464C170.052 534.65 170.037 527.96 170.437 526.762C170.836 525.563 185.074 515.321 185.074 515.321Z" fill="#FFA4BB" stroke="#263238" stroke-linecap="round" stroke-linejoin="round"/>
<path d="M197.476 513.56C197.15 516.772 196.218 520.294 193.865 521.611C189.114 524.246 187.012 523.713 182.794 529.011C181.495 530.541 179.813 531.698 177.92 532.364C176.027 533.03 173.991 533.18 172.02 532.8L171.546 533.14C171.931 533.794 172.458 534.351 173.088 534.772C173.719 535.192 174.436 535.464 175.187 535.568C180.323 536.367 185.074 531.616 186.657 529.648C188.241 527.679 190.209 526.88 192.977 525.696C195.744 524.512 200.495 518.577 198.512 514.626C198.294 514.166 197.929 513.791 197.476 513.56Z" fill="white" stroke="#263238" stroke-linecap="round" stroke-linejoin="round"/>
<path d="M175.972 350.035C175.972 350.035 172.805 363.089 175.187 369.009C177.57 374.929 177.955 384.43 178.355 387.597C178.754 390.765 174.388 417.197 172.805 431.095C171.221 444.992 164.502 460.354 167.269 470.241C170.037 480.127 167.669 516.121 168.468 521.641C169.267 527.161 170.836 532.001 172.02 532.711C173.204 533.422 177.555 533.895 181.122 532.312C184.689 530.728 187.042 518.873 187.841 515.321C188.641 511.769 191.793 470.241 192.977 463.906C194.161 457.572 197.728 429.111 197.728 429.111C197.728 429.111 200.88 452.451 200.096 458.711C199.311 464.972 196.529 477.3 197.728 488.311C198.927 499.323 200.88 540.496 200.88 540.496C202.592 541.483 204.467 542.154 206.415 542.479C208.399 542.479 223.421 532.193 225.004 528.641C226.588 525.089 225.004 518.755 225.004 518.755C225.004 518.755 227.772 455.885 230.539 434.528C233.307 413.172 226.987 355.052 226.987 355.052C226.987 355.052 195.745 362.289 175.972 350.035Z" fill="#263238"/>
<path d="M197.328 424.375L192.193 395.515L183.49 380.479" stroke="white" stroke-linecap="round" stroke-linejoin="round"/>
<path d="M223.48 214.6C224.411 217.136 225.037 219.775 225.345 222.459C225.345 225.064 223.865 226.899 224.22 228.808C224.575 230.717 227.579 233.663 224.975 238.517C222.37 243.371 224.59 250.475 220.86 251.97C218.346 252.897 215.695 253.397 213.016 253.45L211.891 261.664L193.214 255.744V240.767C193.214 240.767 201.058 241.137 204.047 237.392C207.037 233.648 206.282 225.819 207.777 220.579C209.272 215.34 215.251 211.995 217.871 211.995C220.49 211.995 223.48 214.6 223.48 214.6Z" fill="white" stroke="#263238" stroke-linecap="round" stroke-linejoin="round"/>
<path d="M228.838 207.836C228.438 209.263 227.759 210.596 226.839 211.757C225.919 212.918 224.777 213.885 223.48 214.6C219.736 216.85 214.881 216.08 214.881 217.974C214.881 219.869 218.241 219.454 217.116 224.324C216.404 227.304 214.865 230.023 212.676 232.168C212.676 232.168 216.05 236.282 212.676 237.022C209.302 237.762 208.576 242.631 204.462 243.756C200.348 244.881 196.618 247.856 193.258 244.866C189.899 241.876 179.05 229.548 177.556 221.334C176.061 213.12 184.29 204.521 184.29 204.521C184.29 204.521 183.92 199.667 186.909 197.787C189.899 195.908 197.891 195.286 198.646 192.296C201.783 179.864 223.347 191.571 227.136 198.142C228.892 201.049 229.499 204.506 228.838 207.836Z" fill="#263238"/>
<path d="M222 205.098C222.036 206.709 221.643 208.3 220.863 209.709C220.083 211.118 218.943 212.295 217.56 213.12C212.764 215.784 202.094 213.653 198.32 218.714C194.546 223.776 197.254 231.768 191.66 233.1" stroke="white" stroke-width="0.5" stroke-linecap="round" stroke-linejoin="round"/>
<path d="M213.8 221.882C213.8 221.882 208.724 223.48 206.593 226.677C204.462 229.874 203.396 237.333 197.002 239.198" stroke="white" stroke-width="0.5" stroke-linecap="round" stroke-linejoin="round"/>
<path d="M213.016 238.887C213.016 238.887 210.056 229.918 205.912 232.168C201.768 234.417 205.172 241.137 207.392 243.001C209.612 244.866 212.246 242.261 212.246 242.261" fill="white"/>
<path d="M213.016 238.887C213.016 238.887 210.056 229.918 205.912 232.168C201.768 234.417 205.172 241.137 207.392 243.001C209.612 244.866 212.246 242.261 212.246 242.261" stroke="#263238" stroke-linecap="round" stroke-linejoin="round"/>
<path d="M184.245 257.194C179.612 260.527 175.721 264.786 172.819 269.7C168.379 277.544 174.151 313.997 175.646 323.706C177.141 333.414 173.781 349.487 176.401 353.972C179.02 358.456 187.604 362.186 195.818 362.94C204.032 363.695 216.746 362.57 221.6 361.076C226.454 359.581 229.074 355.466 229.074 353.602C229.074 351.737 228.704 328.945 228.704 324.076C228.704 319.206 228.334 284.471 225.344 277.752C222.624 271.921 218.014 267.18 212.261 264.298C207.777 262.064 190.92 253.835 184.245 257.194Z" fill="#FFA4BB" stroke="#263238" stroke-linecap="round" stroke-linejoin="round"/>
<path d="M217.382 301.609C217.382 301.609 213.386 305.235 202.108 306.7" stroke="#263238" stroke-miterlimit="10"/>
<path d="M209.331 317.179C208.258 318.303 207.056 319.297 205.75 320.139" stroke="#263238" stroke-miterlimit="10"/>
<path d="M218.833 301.609C217.095 305.966 214.833 310.096 212.099 313.908" stroke="#263238" stroke-miterlimit="10"/>
<path d="M217.012 341.954C210.326 350.65 200.577 356.472 189.75 358.234C189.75 358.234 205.749 358.604 216.287 347.326" stroke="#263238" stroke-linecap="round" stroke-linejoin="round"/>
<path d="M187.604 250.845C187.604 250.845 198.438 251.6 205.542 255.7C212.646 259.799 217.5 263.928 220.105 264.668C222.71 265.408 227.579 265.793 226.025 266.148C224.471 266.504 222.666 266.903 218.936 268.013C215.206 269.123 209.967 266.903 202.123 263.159C194.279 259.414 185.68 257.239 184.186 257.239C182.691 257.239 184.615 250.845 187.604 250.845Z" fill="#FFA4BB" stroke="#263238" stroke-linecap="round" stroke-linejoin="round"/>
<path d="M251.126 288.215C251.126 288.215 263.543 296.518 265.364 302.69" stroke="#263238" stroke-linecap="round" stroke-linejoin="round"/>
<path d="M250.371 274.762L237.303 244.2C235.651 242.346 233.766 240.714 231.694 239.346C231.356 239.189 231.06 238.956 230.83 238.664C230.599 238.372 230.441 238.029 230.367 237.665C230.294 237.3 230.307 236.923 230.407 236.565C230.506 236.206 230.688 235.876 230.939 235.601C230.939 235.601 234.683 236.356 234.683 234.861C234.638 232.378 234.386 229.903 233.929 227.461C233.559 226.336 232.449 225.582 232.449 224.501C232.449 223.421 235.068 221.882 238.058 222.636C241.047 223.391 240.544 222.947 240.544 222.947C244.821 222 245.65 222.947 247.781 226.736C249.114 229.664 249.752 232.86 249.646 236.075C249.646 237.954 247.397 243.549 247.397 243.549L263.469 274.629L250.371 274.762Z" fill="white" stroke="#263238" stroke-linecap="round" stroke-linejoin="round"/>
<path d="M251.866 283.361C251.866 283.361 247.012 283.361 247.426 282.236C247.84 281.111 246.316 276.997 246.316 275.132C246.316 273.267 249.676 271.018 253.716 270.278C257.756 269.538 262.315 271.018 263.81 271.403C265.304 271.787 265.674 274.762 266.77 276.627C267.865 278.492 268.634 280.741 267.894 282.236C267.177 283.283 266.138 284.068 264.934 284.471L251.866 283.361Z" fill="#FFA4BB" stroke="#263238" stroke-linecap="round" stroke-linejoin="round"/>
<path d="M198.068 277.752C198.068 277.752 200.688 268.783 205.912 266.918C211.137 265.053 217.501 267.658 223.85 271.772C230.199 275.887 251.126 288.215 251.126 288.215L248.877 279.246C248.877 279.246 262.33 275.132 265.69 281.481C269.049 287.83 271.299 311.007 271.299 314.041C271.299 317.075 263.455 319.636 258.6 319.266C253.746 318.896 210.767 297.598 210.767 297.598" fill="#FFA4BB"/>
<path d="M198.068 277.752C198.068 277.752 200.688 268.783 205.912 266.918C211.137 265.053 217.501 267.658 223.85 271.772C230.199 275.887 251.126 288.215 251.126 288.215L248.877 279.246C248.877 279.246 262.33 275.132 265.69 281.481C269.049 287.83 271.299 311.007 271.299 314.041C271.299 317.075 263.455 319.636 258.6 319.266C253.746 318.896 210.767 297.598 210.767 297.598" stroke="#263238" stroke-linecap="round" stroke-linejoin="round"/>
<path d="M256.632 291.797C260.491 292.94 263.915 295.22 266.459 298.338" stroke="#263238" stroke-linecap="round" stroke-linejoin="round"/>
</svg>
