<svg xmlns="http://www.w3.org/2000/svg" viewBox="0 0 750 500"><g id="freepik--Locators--inject-18"><path d="M629.32,412.32a14.5,14.5,0,0,1-4.14,1.73,14.34,14.34,0,1,1,4.14-1.73Z" style="fill:#c7c7c7"></path><path d="M626.14,398.47a4.37,4.37,0,1,1-4.37-4.37A4.37,4.37,0,0,1,626.14,398.47Z" style="fill:#fff"></path><path d="M629.32,410.51v1.81a14.5,14.5,0,0,1-4.14,1.73,14.26,14.26,0,0,1-10.95-1.74v-1.8a7.55,7.55,0,0,1,15.09,0Z" style="fill:#fff"></path><path d="M628.09,378.45c-.31-3.16-2.49-6.31-6.32-6.31s-6,3.15-6.31,6.31c-.49,4.88,2.8,9.3,6.31,13.33C625.29,387.75,628.58,383.33,628.09,378.45ZM621.77,382a3.46,3.46,0,1,1,3.47-3.46A3.46,3.46,0,0,1,621.77,382Z" style="fill:#FFA4BB"></path><path d="M492.52,188.79a14.35,14.35,0,1,1,6.4-15.61A14.27,14.27,0,0,1,492.52,188.79Z" style="fill:#c7c7c7"></path><circle cx="484.98" cy="174.94" r="4.37" style="fill:#fff"></circle><path d="M492.52,187v1.81a14.36,14.36,0,0,1-15.09,0V187a7.55,7.55,0,0,1,15.09,0Z" style="fill:#fff"></path><path d="M491.3,154.92c-.32-3.16-2.49-6.31-6.32-6.31s-6,3.15-6.32,6.31c-.48,4.88,2.81,9.3,6.32,13.33C488.49,164.22,491.78,159.8,491.3,154.92ZM485,158.43a3.46,3.46,0,1,1,3.46-3.46A3.45,3.45,0,0,1,485,158.43Z" style="fill:#FFA4BB"></path><path d="M263.17,337.83a14,14,0,0,1-4.14,1.73,14.34,14.34,0,1,1,4.14-1.73Z" style="fill:#c7c7c7"></path><path d="M260,324a4.37,4.37,0,1,1-4.37-4.36A4.37,4.37,0,0,1,260,324Z" style="fill:#fff"></path><path d="M263.17,336v1.8a14,14,0,0,1-4.14,1.73,14.29,14.29,0,0,1-11-1.74V336a7.55,7.55,0,0,1,15.1,0Z" style="fill:#fff"></path><path d="M261.94,304c-.31-3.16-2.49-6.3-6.32-6.3s-6,3.14-6.31,6.3c-.49,4.88,2.8,9.3,6.31,13.33C259.14,313.26,262.43,308.84,261.94,304Zm-6.32,3.51a3.46,3.46,0,1,1,3.47-3.46A3.46,3.46,0,0,1,255.62,307.47Z" style="fill:#FFA4BB"></path><path d="M287,137.27a14.35,14.35,0,1,1,6.4-15.61A14.32,14.32,0,0,1,287,137.27Z" style="fill:#c7c7c7"></path><path d="M283.79,123.42a4.37,4.37,0,1,1-4.37-4.37A4.37,4.37,0,0,1,283.79,123.42Z" style="fill:#fff"></path><path d="M287,135.46v1.81a14.34,14.34,0,0,1-15.09,0v-1.8a7.55,7.55,0,0,1,15.09,0Z" style="fill:#fff"></path><path d="M285.74,103.4c-.31-3.16-2.49-6.31-6.32-6.31s-6,3.15-6.32,6.31c-.48,4.88,2.81,9.3,6.32,13.33C282.93,112.7,286.22,108.28,285.74,103.4Zm-6.32,3.51a3.46,3.46,0,1,1,3.46-3.46A3.46,3.46,0,0,1,279.42,106.91Z" style="fill:#FFA4BB"></path></g><g id="freepik--character-3--inject-18"><rect x="512.78" y="143.19" width="164.25" height="224.25" style="fill:#fff"></rect><path d="M677.53,367.94H512.28V142.69H677.53Zm-164.25-1H676.53V143.69H513.28Z" style="fill:#ebebeb"></path><rect x="512.78" y="143.19" width="164.25" height="15.71" style="fill:#FFA4BB"></rect><path d="M677.53,159.4H512.28V142.69H677.53Zm-164.25-1H676.53V143.69H513.28Z" style="fill:#ebebeb"></path><path d="M527.52,151.16a4,4,0,1,1-3.95-3.95A4,4,0,0,1,527.52,151.16Z" style="fill:#263238"></path><path d="M543.65,151.16a3.95,3.95,0,1,1-3.95-3.95A4,4,0,0,1,543.65,151.16Z" style="fill:#ebebeb"></path><path d="M559.79,151.16a4,4,0,1,1-3.95-3.95A4,4,0,0,1,559.79,151.16Z" style="fill:#455a64"></path><rect x="512.78" y="158.4" width="164.25" height="1" style="fill:#ebebeb"></rect><rect x="524.22" y="319.74" width="80.56" height="7.52" style="fill:#c7c7c7"></rect><rect x="524.22" y="334.36" width="141.36" height="4.54" style="fill:#ebebeb"></rect><rect x="524.22" y="343.01" width="141.36" height="4.54" style="fill:#ebebeb"></rect><rect x="524.22" y="351.65" width="141.36" height="4.54" style="fill:#ebebeb"></rect><rect x="524.22" y="168.43" width="141.36" height="141.36" style="fill:#dbdbdb"></rect><path d="M521.79,317.48c0-.21.07-.41.11-.62,0,.26-.1.51-.13.77C521.78,317.58,521.78,317.53,521.79,317.48Z" style="fill:#FFA4BB"></path><path d="M556.27,323.58a3,3,0,0,1-.36.19l0-.09h0l.37-.08Z" style="fill:#FFA4BB"></path><path d="M568.49,173.65c3.36-7,11.44-10.68,20.13-11.42s19.64.45,24.33,13.29c3.81,10.42,3.34,21.77,6.82,33.62s25.84,36.8,7.37,57.26c-16.59,18.39-61,18.34-69.76-7.39-7-20.4,13.24-46.77,13.59-55.72S564.81,181.26,568.49,173.65Z" style="fill:#263238"></path><path d="M568.16,186.36a45.89,45.89,0,0,1,1.42,18.51,17.62,17.62,0,0,1-1.43,4.65c-.65,1.48-1.39,2.9-2.11,4.31-1.5,2.82-3,5.62-4.3,8.46A62.48,62.48,0,0,0,556.11,240a46.62,46.62,0,0,0,1,18.25,39.56,39.56,0,0,1-2.29-9,43.05,43.05,0,0,1-.12-9.36,55.56,55.56,0,0,1,5.34-18.19c1.36-2.9,2.89-5.72,4.41-8.51s3.09-5.51,3.68-8.48a37.52,37.52,0,0,0,.74-9.11A72.79,72.79,0,0,0,568.16,186.36Z" style="fill:#263238"></path><path d="M615,184.62c1.58,6.08,2.92,12.21,4.82,18.16a71.91,71.91,0,0,0,3.36,8.69c1.3,2.77,3,5.43,4.66,8.15s3.15,5.52,4.53,8.39a51.92,51.92,0,0,1,3.24,9,32,32,0,0,1,.82,9.51,23.2,23.2,0,0,1-3.07,9.14,24.6,24.6,0,0,0,2.17-9.16,31.69,31.69,0,0,0-1.3-9.13,76.92,76.92,0,0,0-8-16.85,94.48,94.48,0,0,1-4.64-8.34,58.34,58.34,0,0,1-3.12-9A146.78,146.78,0,0,1,615,184.62Z" style="fill:#263238"></path><path d="M587.24,229.78c-2.07,8.95-26.91,92.8-32,94-15.05,3.59-33.15,6.31-33-6.07.17-19.44,36.07-71.06,53.35-88.29C586.92,218.1,589.27,221,587.24,229.78Z" style="fill:#ad6359"></path><path d="M522.12,322.18c-6.54-21.94,45.61-87.38,55.81-95.75s11.58-5.81,9.61,4.63-26,89.6-31.26,92.52S525.09,332.13,522.12,322.18Z" style="fill:#FFA4BB"></path><path d="M579.08,229.52a.44.44,0,0,1-.44.44.44.44,0,0,1-.44-.44.44.44,0,0,1,.44-.44A.43.43,0,0,1,579.08,229.52Z" style="fill:#fff"></path><circle cx="585.43" cy="229.52" r="0.44" style="fill:#fff"></circle><path d="M582.48,225.2a.45.45,0,1,1-.45-.44A.45.45,0,0,1,582.48,225.2Z" style="fill:#fff"></path><path d="M572.3,238.19a.45.45,0,1,1-.44-.45A.44.44,0,0,1,572.3,238.19Z" style="fill:#fff"></path><path d="M579.08,238.19a.44.44,0,0,1-.44.44.45.45,0,1,1,.44-.44Z" style="fill:#fff"></path><path d="M585.82,238a5.54,5.54,0,0,1-.14.55.41.41,0,0,1-.25.08.44.44,0,0,1-.45-.43.45.45,0,0,1,.45-.45A.42.42,0,0,1,585.82,238Z" style="fill:#fff"></path><path d="M575.69,233.87a.44.44,0,0,1-.44.44.43.43,0,0,1-.44-.44.44.44,0,0,1,.44-.44A.44.44,0,0,1,575.69,233.87Z" style="fill:#fff"></path><path d="M582.48,233.87a.45.45,0,1,1-.45-.44A.45.45,0,0,1,582.48,233.87Z" style="fill:#fff"></path><path d="M565.51,246.85a.43.43,0,0,1-.44.44.44.44,0,0,1-.44-.44.44.44,0,0,1,.44-.44A.44.44,0,0,1,565.51,246.85Z" style="fill:#fff"></path><circle cx="571.86" cy="246.85" r="0.44" style="fill:#fff"></circle><path d="M579.08,246.85a.43.43,0,0,1-.44.44.44.44,0,0,1-.44-.44.44.44,0,0,1,.44-.44A.44.44,0,0,1,579.08,246.85Z" style="fill:#fff"></path><path d="M568.91,242.54a.45.45,0,1,1-.45-.45A.45.45,0,0,1,568.91,242.54Z" style="fill:#fff"></path><path d="M575.69,242.54a.44.44,0,0,1-.44.44.45.45,0,0,1,0-.89A.45.45,0,0,1,575.69,242.54Z" style="fill:#fff"></path><path d="M582.48,242.54a.45.45,0,1,1-.45-.45A.45.45,0,0,1,582.48,242.54Z" style="fill:#fff"></path><path d="M558.73,255.52a.45.45,0,1,1-.44-.44A.44.44,0,0,1,558.73,255.52Z" style="fill:#fff"></path><path d="M565.51,255.52a.44.44,0,0,1-.44.44.44.44,0,0,1-.44-.44.44.44,0,0,1,.44-.44A.43.43,0,0,1,565.51,255.52Z" style="fill:#fff"></path><path d="M572.3,255.52a.45.45,0,1,1-.44-.44A.44.44,0,0,1,572.3,255.52Z" style="fill:#fff"></path><path d="M579.08,255.52a.44.44,0,0,1-.44.44.44.44,0,0,1-.44-.44.44.44,0,0,1,.44-.44A.43.43,0,0,1,579.08,255.52Z" style="fill:#fff"></path><path d="M562.12,251.2a.45.45,0,0,1-.44.45.45.45,0,1,1,.44-.45Z" style="fill:#fff"></path><path d="M568.91,251.2a.45.45,0,1,1-.45-.44A.45.45,0,0,1,568.91,251.2Z" style="fill:#fff"></path><path d="M575.69,251.2a.45.45,0,0,1-.44.45.45.45,0,1,1,.44-.45Z" style="fill:#fff"></path><path d="M582.2,250.79c-.09.28-.17.56-.25.84a.43.43,0,0,1-.35-.42.44.44,0,0,1,.43-.45A1,1,0,0,1,582.2,250.79Z" style="fill:#fff"></path><path d="M551.94,264.18a.44.44,0,1,1-.44-.44A.45.45,0,0,1,551.94,264.18Z" style="fill:#fff"></path><circle cx="558.29" cy="264.18" r="0.44" style="fill:#fff"></circle><path d="M565.51,264.18a.44.44,0,0,1-.44.45.45.45,0,0,1,0-.89A.44.44,0,0,1,565.51,264.18Z" style="fill:#fff"></path><circle cx="571.86" cy="264.18" r="0.44" style="fill:#fff"></circle><circle cx="554.89" cy="259.87" r="0.44" style="fill:#fff"></circle><path d="M562.12,259.87a.44.44,0,0,1-.44.44.44.44,0,1,1,0-.88A.44.44,0,0,1,562.12,259.87Z" style="fill:#fff"></path><path d="M568.91,259.87a.45.45,0,1,1-.45-.44A.45.45,0,0,1,568.91,259.87Z" style="fill:#fff"></path><path d="M575.69,259.87a.44.44,0,0,1-.44.44.44.44,0,0,1,0-.88A.44.44,0,0,1,575.69,259.87Z" style="fill:#fff"></path><path d="M545.16,272.85a.45.45,0,1,1-.45-.44A.45.45,0,0,1,545.16,272.85Z" style="fill:#fff"></path><path d="M551.94,272.85a.44.44,0,0,1-.88,0,.44.44,0,0,1,.88,0Z" style="fill:#fff"></path><circle cx="558.29" cy="272.85" r="0.44" style="fill:#fff"></circle><path d="M565.51,272.85a.43.43,0,0,1-.44.44.44.44,0,0,1-.44-.44.44.44,0,0,1,.44-.44A.44.44,0,0,1,565.51,272.85Z" style="fill:#fff"></path><circle cx="571.86" cy="272.85" r="0.44" style="fill:#fff"></circle><path d="M548.55,268.54a.45.45,0,1,1-.44-.45A.44.44,0,0,1,548.55,268.54Z" style="fill:#fff"></path><path d="M555.33,268.54a.44.44,0,0,1-.44.44.45.45,0,1,1,.44-.44Z" style="fill:#fff"></path><path d="M562.12,268.54a.44.44,0,0,1-.44.44.45.45,0,0,1,0-.89A.45.45,0,0,1,562.12,268.54Z" style="fill:#fff"></path><path d="M568.91,268.54a.45.45,0,1,1-.45-.45A.45.45,0,0,1,568.91,268.54Z" style="fill:#fff"></path><path d="M575.69,268.54a.44.44,0,0,1-.44.44.45.45,0,0,1,0-.89A.45.45,0,0,1,575.69,268.54Z" style="fill:#fff"></path><path d="M538.37,281.52a.44.44,0,0,1-.44.44.45.45,0,0,1,0-.89A.45.45,0,0,1,538.37,281.52Z" style="fill:#fff"></path><path d="M545.16,281.52a.45.45,0,1,1-.45-.45A.45.45,0,0,1,545.16,281.52Z" style="fill:#fff"></path><path d="M551.94,281.52a.44.44,0,1,1-.44-.45A.44.44,0,0,1,551.94,281.52Z" style="fill:#fff"></path><path d="M558.73,281.52a.45.45,0,1,1-.44-.45A.44.44,0,0,1,558.73,281.52Z" style="fill:#fff"></path><path d="M565.51,281.52a.44.44,0,0,1-.44.44.45.45,0,1,1,.44-.44Z" style="fill:#fff"></path><path d="M572.3,281.52a.45.45,0,1,1-.44-.45A.44.44,0,0,1,572.3,281.52Z" style="fill:#fff"></path><circle cx="541.32" cy="277.2" r="0.44" style="fill:#fff"></circle><circle cx="548.11" cy="277.2" r="0.44" style="fill:#fff"></circle><circle cx="554.89" cy="277.2" r="0.44" style="fill:#fff"></circle><path d="M562.12,277.2a.45.45,0,0,1-.44.45.45.45,0,1,1,.44-.45Z" style="fill:#fff"></path><path d="M568.91,277.2a.45.45,0,1,1-.45-.44A.45.45,0,0,1,568.91,277.2Z" style="fill:#fff"></path><path d="M531.58,290.19a.43.43,0,0,1-.43.43.43.43,0,0,1-.28-.1c.12-.25.26-.5.4-.75A.41.41,0,0,1,531.58,290.19Z" style="fill:#fff"></path><path d="M538.37,290.18a.45.45,0,0,1-.44.45.45.45,0,1,1,.44-.45Z" style="fill:#fff"></path><path d="M545.16,290.18a.45.45,0,1,1-.45-.44A.45.45,0,0,1,545.16,290.18Z" style="fill:#fff"></path><path d="M551.94,290.18a.44.44,0,1,1-.44-.44A.45.45,0,0,1,551.94,290.18Z" style="fill:#fff"></path><path d="M558.73,290.18a.45.45,0,1,1-.44-.44A.45.45,0,0,1,558.73,290.18Z" style="fill:#fff"></path><path d="M565.51,290.18a.44.44,0,0,1-.44.45.45.45,0,0,1,0-.89A.44.44,0,0,1,565.51,290.18Z" style="fill:#fff"></path><path d="M535,285.87a.45.45,0,1,1-.44-.44A.44.44,0,0,1,535,285.87Z" style="fill:#fff"></path><path d="M541.76,285.87a.44.44,0,0,1-.44.44.44.44,0,0,1-.44-.44.44.44,0,0,1,.44-.44A.43.43,0,0,1,541.76,285.87Z" style="fill:#fff"></path><path d="M548.55,285.87a.45.45,0,1,1-.44-.44A.44.44,0,0,1,548.55,285.87Z" style="fill:#fff"></path><path d="M555.33,285.87a.44.44,0,0,1-.44.44.44.44,0,0,1-.44-.44.44.44,0,0,1,.44-.44A.43.43,0,0,1,555.33,285.87Z" style="fill:#fff"></path><path d="M562.12,285.87a.44.44,0,0,1-.44.44.44.44,0,0,1-.44-.44.43.43,0,0,1,.44-.44A.44.44,0,0,1,562.12,285.87Z" style="fill:#fff"></path><path d="M568.91,285.87a.45.45,0,0,1-.89,0,.45.45,0,0,1,.89,0Z" style="fill:#fff"></path><circle cx="531.14" cy="298.85" r="0.44" style="fill:#fff"></circle><path d="M538.37,298.85a.44.44,0,0,1-.44.44.44.44,0,1,1,0-.88A.44.44,0,0,1,538.37,298.85Z" style="fill:#fff"></path><path d="M545.16,298.85a.45.45,0,1,1-.45-.44A.45.45,0,0,1,545.16,298.85Z" style="fill:#fff"></path><path d="M551.94,298.85a.44.44,0,1,1-.44-.44A.44.44,0,0,1,551.94,298.85Z" style="fill:#fff"></path><circle cx="558.29" cy="298.85" r="0.44" style="fill:#fff"></circle><path d="M565.51,298.85a.44.44,0,0,1-.44.44.44.44,0,0,1,0-.88A.44.44,0,0,1,565.51,298.85Z" style="fill:#fff"></path><circle cx="534.54" cy="294.54" r="0.44" style="fill:#fff"></circle><circle cx="541.32" cy="294.54" r="0.44" style="fill:#fff"></circle><circle cx="548.11" cy="294.54" r="0.44" style="fill:#fff"></circle><circle cx="554.89" cy="294.54" r="0.44" style="fill:#fff"></circle><path d="M562.12,294.54a.44.44,0,0,1-.44.44.45.45,0,0,1,0-.89A.45.45,0,0,1,562.12,294.54Z" style="fill:#fff"></path><path d="M568.53,294.1c-.08.27-.18.55-.28.82a.44.44,0,0,1-.23-.38.45.45,0,0,1,.44-.45Z" style="fill:#fff"></path><path d="M524.8,307.52a.45.45,0,1,1-.44-.45A.44.44,0,0,1,524.8,307.52Z" style="fill:#fff"></path><circle cx="531.14" cy="307.52" r="0.44" style="fill:#fff"></circle><path d="M538.37,307.52a.44.44,0,0,1-.44.44.45.45,0,0,1,0-.89A.45.45,0,0,1,538.37,307.52Z" style="fill:#fff"></path><path d="M545.16,307.52a.45.45,0,1,1-.45-.45A.45.45,0,0,1,545.16,307.52Z" style="fill:#fff"></path><path d="M551.94,307.52a.44.44,0,1,1-.44-.45A.44.44,0,0,1,551.94,307.52Z" style="fill:#fff"></path><circle cx="558.29" cy="307.52" r="0.44" style="fill:#fff"></circle><path d="M528.19,303.2a.44.44,0,1,1-.88,0,.44.44,0,0,1,.88,0Z" style="fill:#fff"></path><circle cx="534.54" cy="303.2" r="0.44" style="fill:#fff"></circle><circle cx="541.32" cy="303.2" r="0.44" style="fill:#fff"></circle><circle cx="548.11" cy="303.2" r="0.44" style="fill:#fff"></circle><circle cx="554.89" cy="303.2" r="0.44" style="fill:#fff"></circle><path d="M562.12,303.2a.44.44,0,0,1-.44.44.43.43,0,0,1-.44-.44.44.44,0,0,1,.44-.44A.44.44,0,0,1,562.12,303.2Z" style="fill:#fff"></path><path d="M524.8,316.18a.45.45,0,1,1-.44-.44A.45.45,0,0,1,524.8,316.18Z" style="fill:#fff"></path><circle cx="531.14" cy="316.18" r="0.44" style="fill:#fff"></circle><path d="M538.37,316.18a.45.45,0,0,1-.44.45.45.45,0,1,1,.44-.45Z" style="fill:#fff"></path><path d="M545.16,316.18a.45.45,0,1,1-.45-.44A.45.45,0,0,1,545.16,316.18Z" style="fill:#fff"></path><path d="M551.94,316.18a.44.44,0,1,1-.44-.44A.45.45,0,0,1,551.94,316.18Z" style="fill:#fff"></path><circle cx="558.29" cy="316.18" r="0.44" style="fill:#fff"></circle><path d="M528.19,311.87a.44.44,0,1,1-.88,0,.44.44,0,0,1,.88,0Z" style="fill:#fff"></path><path d="M535,311.87a.45.45,0,1,1-.44-.44A.44.44,0,0,1,535,311.87Z" style="fill:#fff"></path><path d="M541.76,311.87a.44.44,0,0,1-.44.44.44.44,0,0,1-.44-.44.44.44,0,0,1,.44-.44A.43.43,0,0,1,541.76,311.87Z" style="fill:#fff"></path><path d="M548.55,311.87a.45.45,0,1,1-.44-.44A.44.44,0,0,1,548.55,311.87Z" style="fill:#fff"></path><path d="M555.33,311.87a.44.44,0,0,1-.44.44.44.44,0,0,1-.44-.44.44.44,0,0,1,.44-.44A.43.43,0,0,1,555.33,311.87Z" style="fill:#fff"></path><path d="M562.12,311.87a.44.44,0,0,1-.44.44.44.44,0,0,1-.44-.44.43.43,0,0,1,.44-.44A.44.44,0,0,1,562.12,311.87Z" style="fill:#fff"></path><path d="M524.8,324.85a.45.45,0,1,1-.44-.44A.44.44,0,0,1,524.8,324.85Z" style="fill:#fff"></path><path d="M531.59,324.85a.45.45,0,0,1-.89,0,.45.45,0,0,1,.89,0Z" style="fill:#fff"></path><path d="M538.37,324.85a.44.44,0,0,1-.44.44.44.44,0,0,1-.44-.44.43.43,0,0,1,.44-.44A.44.44,0,0,1,538.37,324.85Z" style="fill:#fff"></path><path d="M545.16,324.85a.45.45,0,0,1-.89,0,.45.45,0,0,1,.89,0Z" style="fill:#fff"></path><path d="M551.94,324.85a.44.44,0,1,1-.88,0,.44.44,0,0,1,.88,0Z" style="fill:#fff"></path><path d="M528.19,320.53a.44.44,0,1,1-.44-.44A.45.45,0,0,1,528.19,320.53Z" style="fill:#fff"></path><circle cx="534.54" cy="320.53" r="0.44" style="fill:#fff"></circle><circle cx="541.32" cy="320.53" r="0.44" style="fill:#fff"></circle><circle cx="548.11" cy="320.53" r="0.44" style="fill:#fff"></circle><circle cx="554.89" cy="320.53" r="0.44" style="fill:#fff"></circle><path d="M557.54,305.54l-1.24,4.18h40.93v-.08H631.1c-4.62-37-9.23-69.35-22.63-83.44-4-4.21-14.74-10-22.14-4.59-7.88,5.73-26.62,34.51-28.75,39.14-4.23,9.13,3.06,21.86,3.06,21.86Z" style="fill:#FFA4BB"></path><path d="M556.3,263.4a20.44,20.44,0,0,1,2.56-5.43c.36-.63,1.19-1.93,2.18-3.45a23,23,0,0,1,1-2.15,33.32,33.32,0,0,0,1.57-3.17c.05-.11.22,0,.16.07a32,32,0,0,0-1.33,3.19c1.67-2.53,3.43-5.15,4.18-6.22.06-.09.21,0,.15.09-1.61,2.1-6.85,11.29-8.12,13.63a15.62,15.62,0,0,0-1.84,7.5,33.7,33.7,0,0,0,1,8c.06.22-.16.33-.25.12a22.16,22.16,0,0,1-1.49-6A17.4,17.4,0,0,1,556.3,263.4Z" style="fill:#263238"></path><path d="M592.66,220.85a.45.45,0,1,1-.45-.44A.45.45,0,0,1,592.66,220.85Z" style="fill:#fff"></path><path d="M579.08,229.52a.44.44,0,0,1-.43.44l-.19,0c.19-.23.37-.45.53-.67A.37.37,0,0,1,579.08,229.52Z" style="fill:#fff"></path><circle cx="585.43" cy="229.52" r="0.44" style="fill:#fff"></circle><circle cx="592.21" cy="229.52" r="0.44" style="fill:#fff"></circle><path d="M582.48,225.22a.44.44,0,0,1-.37.41Z" style="fill:#fff"></path><path d="M589.26,225.2a.44.44,0,1,1-.44-.44A.45.45,0,0,1,589.26,225.2Z" style="fill:#fff"></path><path d="M572.3,238.19a.43.43,0,0,1-.4.42c.13-.18.26-.34.38-.52A.18.18,0,0,1,572.3,238.19Z" style="fill:#fff"></path><path d="M579.08,238.19a.44.44,0,0,1-.44.44.45.45,0,1,1,.44-.44Z" style="fill:#fff"></path><path d="M585.87,238.19a.44.44,0,0,1-.44.44.45.45,0,0,1,0-.89A.45.45,0,0,1,585.87,238.19Z" style="fill:#fff"></path><path d="M592.66,238.19a.45.45,0,1,1-.45-.45A.45.45,0,0,1,592.66,238.19Z" style="fill:#fff"></path><path d="M575.69,233.87a.43.43,0,0,1-.44.44l-.17,0,.52-.69A.48.48,0,0,1,575.69,233.87Z" style="fill:#fff"></path><path d="M582.48,233.87a.45.45,0,1,1-.45-.44A.45.45,0,0,1,582.48,233.87Z" style="fill:#fff"></path><path d="M589.26,233.87a.44.44,0,1,1-.88,0,.44.44,0,1,1,.88,0Z" style="fill:#fff"></path><circle cx="571.86" cy="246.85" r="0.44" style="fill:#fff"></circle><path d="M579.08,246.85a.43.43,0,0,1-.44.44.44.44,0,0,1-.44-.44.44.44,0,0,1,.44-.44A.44.44,0,0,1,579.08,246.85Z" style="fill:#fff"></path><circle cx="585.43" cy="246.85" r="0.44" style="fill:#fff"></circle><circle cx="592.21" cy="246.85" r="0.44" style="fill:#fff"></circle><path d="M575.69,242.54a.44.44,0,0,1-.44.44.45.45,0,0,1,0-.89A.45.45,0,0,1,575.69,242.54Z" style="fill:#fff"></path><path d="M582.48,242.54a.45.45,0,1,1-.45-.45A.45.45,0,0,1,582.48,242.54Z" style="fill:#fff"></path><path d="M589.26,242.54a.44.44,0,1,1-.44-.45A.44.44,0,0,1,589.26,242.54Z" style="fill:#fff"></path><path d="M565.51,255.52a.44.44,0,0,1-.44.44.44.44,0,0,1-.44-.44.44.44,0,0,1,.44-.44A.43.43,0,0,1,565.51,255.52Z" style="fill:#fff"></path><path d="M572.3,255.52a.45.45,0,1,1-.44-.44A.44.44,0,0,1,572.3,255.52Z" style="fill:#fff"></path><path d="M579.08,255.52a.44.44,0,0,1-.44.44.44.44,0,0,1-.44-.44.44.44,0,0,1,.44-.44A.43.43,0,0,1,579.08,255.52Z" style="fill:#fff"></path><path d="M585.87,255.52a.44.44,0,0,1-.44.44.44.44,0,0,1-.44-.44.43.43,0,0,1,.44-.44A.44.44,0,0,1,585.87,255.52Z" style="fill:#fff"></path><path d="M592.66,255.52a.45.45,0,0,1-.89,0,.45.45,0,0,1,.89,0Z" style="fill:#fff"></path><path d="M568.91,251.2a.45.45,0,1,1-.45-.44A.45.45,0,0,1,568.91,251.2Z" style="fill:#fff"></path><path d="M575.69,251.2a.45.45,0,0,1-.44.45.45.45,0,1,1,.44-.45Z" style="fill:#fff"></path><path d="M582.48,251.2a.45.45,0,1,1-.45-.44A.45.45,0,0,1,582.48,251.2Z" style="fill:#fff"></path><path d="M589.26,251.2a.44.44,0,1,1-.44-.44A.45.45,0,0,1,589.26,251.2Z" style="fill:#fff"></path><circle cx="558.29" cy="264.18" r="0.44" style="fill:#fff"></circle><path d="M565.51,264.18a.44.44,0,0,1-.44.45.45.45,0,0,1,0-.89A.44.44,0,0,1,565.51,264.18Z" style="fill:#fff"></path><circle cx="571.86" cy="264.18" r="0.44" style="fill:#fff"></circle><path d="M579.08,264.18a.44.44,0,0,1-.44.45.45.45,0,0,1,0-.89A.44.44,0,0,1,579.08,264.18Z" style="fill:#fff"></path><circle cx="585.43" cy="264.18" r="0.44" style="fill:#fff"></circle><circle cx="592.21" cy="264.18" r="0.44" style="fill:#fff"></circle><path d="M562.12,259.87a.44.44,0,0,1-.44.44.44.44,0,1,1,0-.88A.44.44,0,0,1,562.12,259.87Z" style="fill:#fff"></path><path d="M568.91,259.87a.45.45,0,1,1-.45-.44A.45.45,0,0,1,568.91,259.87Z" style="fill:#fff"></path><path d="M575.69,259.87a.44.44,0,0,1-.44.44.44.44,0,0,1,0-.88A.44.44,0,0,1,575.69,259.87Z" style="fill:#fff"></path><path d="M582.48,259.87a.45.45,0,1,1-.45-.44A.45.45,0,0,1,582.48,259.87Z" style="fill:#fff"></path><path d="M589.26,259.87a.44.44,0,1,1-.44-.44A.44.44,0,0,1,589.26,259.87Z" style="fill:#fff"></path><circle cx="558.29" cy="272.85" r="0.44" style="fill:#fff"></circle><path d="M565.51,272.85a.43.43,0,0,1-.44.44.44.44,0,0,1-.44-.44.44.44,0,0,1,.44-.44A.44.44,0,0,1,565.51,272.85Z" style="fill:#fff"></path><circle cx="571.86" cy="272.85" r="0.44" style="fill:#fff"></circle><path d="M579.08,272.85a.43.43,0,0,1-.44.44.44.44,0,0,1-.44-.44.44.44,0,0,1,.44-.44A.44.44,0,0,1,579.08,272.85Z" style="fill:#fff"></path><circle cx="585.43" cy="272.85" r="0.44" style="fill:#fff"></circle><circle cx="592.21" cy="272.85" r="0.44" style="fill:#fff"></circle><path d="M562.12,268.54a.44.44,0,0,1-.44.44.45.45,0,0,1,0-.89A.45.45,0,0,1,562.12,268.54Z" style="fill:#fff"></path><path d="M568.91,268.54a.45.45,0,1,1-.45-.45A.45.45,0,0,1,568.91,268.54Z" style="fill:#fff"></path><path d="M575.69,268.54a.44.44,0,0,1-.44.44.45.45,0,0,1,0-.89A.45.45,0,0,1,575.69,268.54Z" style="fill:#fff"></path><path d="M582.48,268.54a.45.45,0,1,1-.45-.45A.45.45,0,0,1,582.48,268.54Z" style="fill:#fff"></path><path d="M589.26,268.54a.44.44,0,1,1-.44-.45A.44.44,0,0,1,589.26,268.54Z" style="fill:#fff"></path><path d="M599.44,220.85a.44.44,0,1,1-.88,0,.44.44,0,0,1,.43-.44l.3.11s0,0,0,0A.48.48,0,0,1,599.44,220.85Z" style="fill:#fff"></path><circle cx="599" cy="229.52" r="0.44" style="fill:#fff"></circle><circle cx="605.78" cy="229.52" r="0.44" style="fill:#fff"></circle><path d="M596.05,225.2a.45.45,0,1,1-.44-.44A.45.45,0,0,1,596.05,225.2Z" style="fill:#fff"></path><path d="M602.83,225.2a.44.44,0,0,1-.44.45.45.45,0,0,1,0-.89A.44.44,0,0,1,602.83,225.2Z" style="fill:#fff"></path><path d="M599.44,238.19a.44.44,0,0,1-.44.44.45.45,0,0,1,0-.89A.45.45,0,0,1,599.44,238.19Z" style="fill:#fff"></path><path d="M606.23,238.19a.45.45,0,1,1-.45-.45A.45.45,0,0,1,606.23,238.19Z" style="fill:#fff"></path><path d="M613,238.19a.44.44,0,1,1-.44-.45A.44.44,0,0,1,613,238.19Z" style="fill:#fff"></path><path d="M596.05,233.87a.45.45,0,0,1-.89,0,.45.45,0,0,1,.89,0Z" style="fill:#fff"></path><path d="M602.83,233.87a.43.43,0,0,1-.44.44.44.44,0,0,1-.44-.44.44.44,0,0,1,.44-.44A.44.44,0,0,1,602.83,233.87Z" style="fill:#fff"></path><path d="M609.62,233.87a.45.45,0,0,1-.89,0,.45.45,0,0,1,.89,0Z" style="fill:#fff"></path><circle cx="599" cy="246.85" r="0.44" style="fill:#fff"></circle><circle cx="605.78" cy="246.85" r="0.44" style="fill:#fff"></circle><path d="M613,246.85a.44.44,0,1,1-.88,0,.44.44,0,1,1,.88,0Z" style="fill:#fff"></path><path d="M619.69,247.13h0a.43.43,0,0,1-.33.15.44.44,0,0,1-.45-.44.45.45,0,0,1,.45-.44.18.18,0,0,1,.1,0C619.54,246.66,619.62,246.89,619.69,247.13Z" style="fill:#fff"></path><path d="M596.05,242.54a.45.45,0,1,1-.44-.45A.44.44,0,0,1,596.05,242.54Z" style="fill:#fff"></path><path d="M602.83,242.54a.44.44,0,0,1-.44.44.45.45,0,1,1,.44-.44Z" style="fill:#fff"></path><path d="M609.62,242.54a.45.45,0,1,1-.44-.45A.44.44,0,0,1,609.62,242.54Z" style="fill:#fff"></path><path d="M616.41,242.54a.45.45,0,1,1-.45-.45A.45.45,0,0,1,616.41,242.54Z" style="fill:#fff"></path><path d="M599.44,255.52a.44.44,0,0,1-.44.44.44.44,0,0,1-.44-.44.43.43,0,0,1,.44-.44A.44.44,0,0,1,599.44,255.52Z" style="fill:#fff"></path><path d="M606.23,255.52a.45.45,0,0,1-.89,0,.45.45,0,0,1,.89,0Z" style="fill:#fff"></path><path d="M613,255.52a.44.44,0,1,1-.88,0,.44.44,0,1,1,.88,0Z" style="fill:#fff"></path><path d="M619.8,255.52a.45.45,0,1,1-.44-.44A.44.44,0,0,1,619.8,255.52Z" style="fill:#fff"></path><path d="M596.05,251.2a.45.45,0,1,1-.44-.44A.45.45,0,0,1,596.05,251.2Z" style="fill:#fff"></path><path d="M602.83,251.2a.44.44,0,0,1-.44.45.45.45,0,0,1,0-.89A.44.44,0,0,1,602.83,251.2Z" style="fill:#fff"></path><path d="M609.62,251.2a.45.45,0,1,1-.44-.44A.45.45,0,0,1,609.62,251.2Z" style="fill:#fff"></path><circle cx="615.96" cy="251.2" r="0.44" style="fill:#fff"></circle><circle cx="599" cy="264.18" r="0.44" style="fill:#fff"></circle><circle cx="605.78" cy="264.18" r="0.44" style="fill:#fff"></circle><path d="M613,264.18a.44.44,0,1,1-.44-.44A.45.45,0,0,1,613,264.18Z" style="fill:#fff"></path><path d="M619.8,264.18a.45.45,0,1,1-.44-.44A.45.45,0,0,1,619.8,264.18Z" style="fill:#fff"></path><path d="M596.05,259.87a.45.45,0,1,1-.44-.44A.44.44,0,0,1,596.05,259.87Z" style="fill:#fff"></path><path d="M602.83,259.87a.44.44,0,0,1-.44.44.44.44,0,1,1,0-.88A.44.44,0,0,1,602.83,259.87Z" style="fill:#fff"></path><path d="M609.62,259.87a.45.45,0,1,1-.44-.44A.44.44,0,0,1,609.62,259.87Z" style="fill:#fff"></path><circle cx="615.96" cy="259.87" r="0.44" style="fill:#fff"></circle><circle cx="622.75" cy="259.87" r="0.44" style="fill:#fff"></circle><circle cx="599" cy="272.85" r="0.44" style="fill:#fff"></circle><circle cx="605.78" cy="272.85" r="0.44" style="fill:#fff"></circle><path d="M613,272.85a.44.44,0,1,1-.88,0,.44.44,0,1,1,.88,0Z" style="fill:#fff"></path><path d="M619.8,272.85a.45.45,0,0,1-.89,0,.45.45,0,0,1,.89,0Z" style="fill:#fff"></path><path d="M625.92,273.22a.43.43,0,0,1-.23-.37.31.31,0,0,1,.12-.26C625.83,272.8,625.88,273,625.92,273.22Z" style="fill:#fff"></path><path d="M596.05,268.54a.45.45,0,1,1-.44-.45A.44.44,0,0,1,596.05,268.54Z" style="fill:#fff"></path><path d="M602.83,268.54a.44.44,0,0,1-.44.44.45.45,0,1,1,.44-.44Z" style="fill:#fff"></path><path d="M609.62,268.54a.45.45,0,1,1-.44-.45A.44.44,0,0,1,609.62,268.54Z" style="fill:#fff"></path><path d="M616.41,268.54a.45.45,0,1,1-.45-.45A.45.45,0,0,1,616.41,268.54Z" style="fill:#fff"></path><path d="M623.19,268.54a.44.44,0,0,1-.44.44.45.45,0,0,1,0-.89A.45.45,0,0,1,623.19,268.54Z" style="fill:#fff"></path><path d="M565.51,281.52a.44.44,0,0,1-.44.44.45.45,0,1,1,.44-.44Z" style="fill:#fff"></path><path d="M572.3,281.52a.45.45,0,1,1-.44-.45A.44.44,0,0,1,572.3,281.52Z" style="fill:#fff"></path><path d="M579.08,281.52a.44.44,0,0,1-.44.44.45.45,0,1,1,.44-.44Z" style="fill:#fff"></path><path d="M585.87,281.52a.44.44,0,0,1-.44.44.45.45,0,0,1,0-.89A.45.45,0,0,1,585.87,281.52Z" style="fill:#fff"></path><path d="M592.66,281.52a.45.45,0,1,1-.45-.45A.45.45,0,0,1,592.66,281.52Z" style="fill:#fff"></path><path d="M562.12,277.2a.45.45,0,0,1-.44.45.45.45,0,1,1,.44-.45Z" style="fill:#fff"></path><path d="M568.91,277.2a.45.45,0,1,1-.45-.44A.45.45,0,0,1,568.91,277.2Z" style="fill:#fff"></path><path d="M575.69,277.2a.45.45,0,0,1-.44.45.45.45,0,1,1,.44-.45Z" style="fill:#fff"></path><path d="M582.48,277.2a.45.45,0,1,1-.45-.44A.45.45,0,0,1,582.48,277.2Z" style="fill:#fff"></path><path d="M589.26,277.2a.44.44,0,1,1-.44-.44A.45.45,0,0,1,589.26,277.2Z" style="fill:#fff"></path><path d="M565.51,290.18a.44.44,0,0,1-.44.45.45.45,0,0,1,0-.89A.44.44,0,0,1,565.51,290.18Z" style="fill:#fff"></path><path d="M572.3,290.18a.45.45,0,1,1-.44-.44A.45.45,0,0,1,572.3,290.18Z" style="fill:#fff"></path><path d="M579.08,290.18a.44.44,0,0,1-.44.45.45.45,0,0,1,0-.89A.44.44,0,0,1,579.08,290.18Z" style="fill:#fff"></path><path d="M585.87,290.18a.45.45,0,0,1-.44.45.45.45,0,1,1,.44-.45Z" style="fill:#fff"></path><path d="M592.66,290.18a.45.45,0,1,1-.45-.44A.45.45,0,0,1,592.66,290.18Z" style="fill:#fff"></path><path d="M562.12,285.87a.44.44,0,0,1-.44.44.44.44,0,0,1-.44-.44.43.43,0,0,1,.44-.44A.44.44,0,0,1,562.12,285.87Z" style="fill:#fff"></path><path d="M568.91,285.87a.45.45,0,0,1-.89,0,.45.45,0,0,1,.89,0Z" style="fill:#fff"></path><path d="M575.69,285.87a.44.44,0,0,1-.44.44.44.44,0,0,1-.44-.44.43.43,0,0,1,.44-.44A.44.44,0,0,1,575.69,285.87Z" style="fill:#fff"></path><path d="M582.48,285.87a.45.45,0,0,1-.89,0,.45.45,0,0,1,.89,0Z" style="fill:#fff"></path><path d="M589.26,285.87a.44.44,0,1,1-.88,0,.44.44,0,1,1,.88,0Z" style="fill:#fff"></path><path d="M558.73,298.85a.43.43,0,0,1-.34.43l.1-.81A.42.42,0,0,1,558.73,298.85Z" style="fill:#fff"></path><path d="M565.51,298.85a.44.44,0,0,1-.44.44.44.44,0,0,1,0-.88A.44.44,0,0,1,565.51,298.85Z" style="fill:#fff"></path><circle cx="571.86" cy="298.85" r="0.44" style="fill:#fff"></circle><path d="M579.08,298.85a.44.44,0,0,1-.44.44.44.44,0,1,1,0-.88A.44.44,0,0,1,579.08,298.85Z" style="fill:#fff"></path><circle cx="585.43" cy="298.85" r="0.44" style="fill:#fff"></circle><circle cx="592.21" cy="298.85" r="0.44" style="fill:#fff"></circle><path d="M562.12,294.54a.44.44,0,0,1-.44.44.45.45,0,0,1,0-.89A.45.45,0,0,1,562.12,294.54Z" style="fill:#fff"></path><path d="M568.91,294.54a.45.45,0,1,1-.45-.45A.45.45,0,0,1,568.91,294.54Z" style="fill:#fff"></path><path d="M575.69,294.54a.44.44,0,0,1-.44.44.45.45,0,0,1,0-.89A.45.45,0,0,1,575.69,294.54Z" style="fill:#fff"></path><path d="M582.48,294.54a.45.45,0,1,1-.45-.45A.45.45,0,0,1,582.48,294.54Z" style="fill:#fff"></path><path d="M589.26,294.54a.44.44,0,1,1-.44-.45A.44.44,0,0,1,589.26,294.54Z" style="fill:#fff"></path><circle cx="558.29" cy="307.52" r="0.44" style="fill:#fff"></circle><path d="M565.51,307.52a.44.44,0,0,1-.44.44.45.45,0,1,1,.44-.44Z" style="fill:#fff"></path><circle cx="571.86" cy="307.52" r="0.44" style="fill:#fff"></circle><path d="M579.08,307.52a.44.44,0,0,1-.44.44.45.45,0,1,1,.44-.44Z" style="fill:#fff"></path><circle cx="585.43" cy="307.52" r="0.44" style="fill:#fff"></circle><circle cx="592.21" cy="307.52" r="0.44" style="fill:#fff"></circle><path d="M562.12,303.2a.44.44,0,0,1-.44.44.43.43,0,0,1-.44-.44.44.44,0,0,1,.44-.44A.44.44,0,0,1,562.12,303.2Z" style="fill:#fff"></path><path d="M568.91,303.2a.45.45,0,1,1-.45-.44A.45.45,0,0,1,568.91,303.2Z" style="fill:#fff"></path><path d="M575.69,303.2a.44.44,0,0,1-.44.44.43.43,0,0,1-.44-.44.44.44,0,0,1,.44-.44A.44.44,0,0,1,575.69,303.2Z" style="fill:#fff"></path><path d="M582.48,303.2a.45.45,0,1,1-.45-.44A.45.45,0,0,1,582.48,303.2Z" style="fill:#fff"></path><path d="M589.26,303.2a.44.44,0,1,1-.88,0,.44.44,0,1,1,.88,0Z" style="fill:#fff"></path><path d="M599.44,281.52a.44.44,0,0,1-.44.44.45.45,0,0,1,0-.89A.45.45,0,0,1,599.44,281.52Z" style="fill:#fff"></path><path d="M606.23,281.52a.45.45,0,1,1-.45-.45A.45.45,0,0,1,606.23,281.52Z" style="fill:#fff"></path><path d="M613,281.52a.44.44,0,1,1-.44-.45A.44.44,0,0,1,613,281.52Z" style="fill:#fff"></path><path d="M619.8,281.52a.45.45,0,1,1-.44-.45A.44.44,0,0,1,619.8,281.52Z" style="fill:#fff"></path><path d="M626.58,281.52a.44.44,0,0,1-.44.44.45.45,0,1,1,.44-.44Z" style="fill:#fff"></path><path d="M596.05,277.2a.45.45,0,1,1-.44-.44A.45.45,0,0,1,596.05,277.2Z" style="fill:#fff"></path><path d="M602.83,277.2a.44.44,0,0,1-.44.45.45.45,0,0,1,0-.89A.44.44,0,0,1,602.83,277.2Z" style="fill:#fff"></path><path d="M609.62,277.2a.45.45,0,1,1-.44-.44A.45.45,0,0,1,609.62,277.2Z" style="fill:#fff"></path><circle cx="615.96" cy="277.2" r="0.44" style="fill:#fff"></circle><circle cx="622.75" cy="277.2" r="0.44" style="fill:#fff"></circle><path d="M599.44,290.18a.45.45,0,0,1-.44.45.45.45,0,1,1,.44-.45Z" style="fill:#fff"></path><path d="M606.23,290.18a.45.45,0,1,1-.45-.44A.45.45,0,0,1,606.23,290.18Z" style="fill:#fff"></path><path d="M613,290.18a.44.44,0,1,1-.44-.44A.45.45,0,0,1,613,290.18Z" style="fill:#fff"></path><path d="M619.8,290.18a.45.45,0,1,1-.44-.44A.45.45,0,0,1,619.8,290.18Z" style="fill:#fff"></path><path d="M626.58,290.18a.44.44,0,0,1-.44.45.45.45,0,0,1,0-.89A.44.44,0,0,1,626.58,290.18Z" style="fill:#fff"></path><path d="M596.05,285.87a.45.45,0,1,1-.44-.44A.44.44,0,0,1,596.05,285.87Z" style="fill:#fff"></path><path d="M602.83,285.87a.44.44,0,0,1-.44.44.44.44,0,0,1-.44-.44.44.44,0,0,1,.44-.44A.43.43,0,0,1,602.83,285.87Z" style="fill:#fff"></path><path d="M609.62,285.87a.45.45,0,1,1-.44-.44A.44.44,0,0,1,609.62,285.87Z" style="fill:#fff"></path><path d="M616.41,285.87a.45.45,0,0,1-.89,0,.45.45,0,0,1,.89,0Z" style="fill:#fff"></path><path d="M623.19,285.87a.44.44,0,0,1-.44.44.44.44,0,0,1-.44-.44.43.43,0,0,1,.44-.44A.44.44,0,0,1,623.19,285.87Z" style="fill:#fff"></path><circle cx="599" cy="298.85" r="0.44" style="fill:#fff"></circle><circle cx="605.78" cy="298.85" r="0.44" style="fill:#fff"></circle><path d="M613,298.85a.44.44,0,1,1-.44-.44A.44.44,0,0,1,613,298.85Z" style="fill:#fff"></path><path d="M619.8,298.85a.45.45,0,1,1-.44-.44A.44.44,0,0,1,619.8,298.85Z" style="fill:#fff"></path><path d="M626.58,298.85a.44.44,0,0,1-.44.44.44.44,0,1,1,0-.88A.44.44,0,0,1,626.58,298.85Z" style="fill:#fff"></path><path d="M596.05,294.54a.45.45,0,1,1-.44-.45A.44.44,0,0,1,596.05,294.54Z" style="fill:#fff"></path><path d="M602.83,294.54a.44.44,0,0,1-.44.44.45.45,0,1,1,.44-.44Z" style="fill:#fff"></path><path d="M609.62,294.54a.45.45,0,1,1-.44-.45A.44.44,0,0,1,609.62,294.54Z" style="fill:#fff"></path><circle cx="615.96" cy="294.54" r="0.44" style="fill:#fff"></circle><circle cx="622.75" cy="294.54" r="0.44" style="fill:#fff"></circle><path d="M629.19,294.8a.4.4,0,0,1-.1-.26.65.65,0,0,1,0-.2C629.15,294.5,629.18,294.65,629.19,294.8Z" style="fill:#fff"></path><circle cx="599" cy="307.52" r="0.44" style="fill:#fff"></circle><circle cx="605.78" cy="307.52" r="0.44" style="fill:#fff"></circle><path d="M613,307.52a.44.44,0,1,1-.44-.45A.44.44,0,0,1,613,307.52Z" style="fill:#fff"></path><path d="M619.8,307.52a.45.45,0,1,1-.44-.45A.44.44,0,0,1,619.8,307.52Z" style="fill:#fff"></path><path d="M626.58,307.52a.44.44,0,0,1-.44.44.45.45,0,1,1,.44-.44Z" style="fill:#fff"></path><path d="M596.05,303.2a.45.45,0,0,1-.89,0,.45.45,0,0,1,.89,0Z" style="fill:#fff"></path><path d="M602.83,303.2a.43.43,0,0,1-.44.44.44.44,0,0,1-.44-.44.44.44,0,0,1,.44-.44A.44.44,0,0,1,602.83,303.2Z" style="fill:#fff"></path><path d="M609.62,303.2a.45.45,0,0,1-.89,0,.45.45,0,0,1,.89,0Z" style="fill:#fff"></path><circle cx="615.96" cy="303.2" r="0.44" style="fill:#fff"></circle><circle cx="622.75" cy="303.2" r="0.44" style="fill:#fff"></circle><path d="M630,303.2a.45.45,0,1,1-.45-.44A.45.45,0,0,1,630,303.2Z" style="fill:#fff"></path><path d="M586.26,236.78c-.35,5.7-1,11.37-1.86,17s-1.86,11.27-2.85,16.88-2.09,11.21-3.09,16.82q-.75,4.2-1.41,8.43l-.66,4.22-.59,4.24c.18-2.85.46-5.69.76-8.53s.73-5.66,1.14-8.49c.84-5.64,1.88-11.25,2.87-16.87s2.09-11.21,3.07-16.82S585.5,242.44,586.26,236.78Z" style="fill:#263238"></path><path d="M578.47,257.21a1.15,1.15,0,1,0,1.33-.94A1.15,1.15,0,0,0,578.47,257.21Z" style="fill:#263238"></path><path d="M576.9,269a1.15,1.15,0,1,0,1.33-.94A1.15,1.15,0,0,0,576.9,269Z" style="fill:#263238"></path><path d="M575.32,280.74a1.15,1.15,0,1,0,1.34-.94A1.17,1.17,0,0,0,575.32,280.74Z" style="fill:#263238"></path><path d="M573.75,292.51a1.15,1.15,0,1,0,1.33-.94A1.15,1.15,0,0,0,573.75,292.51Z" style="fill:#263238"></path><path d="M572.18,304.27a1.15,1.15,0,1,0,1.33-.93A1.16,1.16,0,0,0,572.18,304.27Z" style="fill:#263238"></path><path d="M632.64,273.39c.87,2.8-6.28,9.11-6.23,10.25.15,3,3.85,17.19,7.57,26H646.7c9.41-10.13,23.26-28.15,21.31-37.8C665.38,258.93,614.52,226,606.37,223s-8.48,3.4-3.63,10.69S631.77,270.6,632.64,273.39Z" style="fill:#eb9481"></path><path d="M651,306.14l-22.88-25s4.12-6.12,4.08-7-21.1-25.24-29.27-38.58S598,218,613.4,225.47s52.77,35.73,54.75,45.09C671.17,284.83,651,306.14,651,306.14Z" style="fill:#FFA4BB"></path><circle cx="605.78" cy="229.52" r="0.44" style="fill:#fff"></circle><path d="M613,229.52a.44.44,0,1,1-.88,0,.44.44,0,1,1,.88,0Z" style="fill:#fff"></path><path d="M619.8,229.52a.45.45,0,1,1-.44-.44A.44.44,0,0,1,619.8,229.52Z" style="fill:#fff"></path><path d="M602.83,225.2a.44.44,0,0,1-.44.45.45.45,0,0,1,0-.89A.44.44,0,0,1,602.83,225.2Z" style="fill:#fff"></path><path d="M609.62,225.2a.45.45,0,1,1-.44-.44A.45.45,0,0,1,609.62,225.2Z" style="fill:#fff"></path><path d="M606.23,238.19a.45.45,0,1,1-.45-.45A.45.45,0,0,1,606.23,238.19Z" style="fill:#fff"></path><path d="M613,238.19a.44.44,0,1,1-.44-.45A.44.44,0,0,1,613,238.19Z" style="fill:#fff"></path><path d="M619.8,238.19a.45.45,0,1,1-.44-.45A.44.44,0,0,1,619.8,238.19Z" style="fill:#fff"></path><path d="M626.58,238.19a.44.44,0,0,1-.44.44.45.45,0,1,1,.44-.44Z" style="fill:#fff"></path><path d="M633.37,238.19a.45.45,0,1,1-.44-.45A.44.44,0,0,1,633.37,238.19Z" style="fill:#fff"></path><path d="M602.83,233.87a.43.43,0,0,1-.44.44.44.44,0,0,1-.44-.44.44.44,0,0,1,.44-.44A.44.44,0,0,1,602.83,233.87Z" style="fill:#fff"></path><path d="M609.62,233.87a.45.45,0,0,1-.89,0,.45.45,0,0,1,.89,0Z" style="fill:#fff"></path><path d="M616.41,233.87a.45.45,0,1,1-.45-.44A.45.45,0,0,1,616.41,233.87Z" style="fill:#fff"></path><path d="M623.19,233.87a.44.44,0,0,1-.44.44.43.43,0,0,1-.44-.44.44.44,0,0,1,.44-.44A.44.44,0,0,1,623.19,233.87Z" style="fill:#fff"></path><path d="M613,246.85a.44.44,0,1,1-.88,0,.44.44,0,1,1,.88,0Z" style="fill:#fff"></path><path d="M619.8,246.85a.45.45,0,0,1-.89,0,.45.45,0,0,1,.89,0Z" style="fill:#fff"></path><path d="M626.58,246.85a.43.43,0,0,1-.44.44.44.44,0,0,1-.44-.44.44.44,0,0,1,.44-.44A.44.44,0,0,1,626.58,246.85Z" style="fill:#fff"></path><circle cx="632.93" cy="246.85" r="0.44" style="fill:#fff"></circle><path d="M640.16,246.85a.45.45,0,1,1-.45-.44A.45.45,0,0,1,640.16,246.85Z" style="fill:#fff"></path><path d="M609.62,242.54a.45.45,0,1,1-.44-.45A.44.44,0,0,1,609.62,242.54Z" style="fill:#fff"></path><path d="M616.41,242.54a.45.45,0,1,1-.45-.45A.45.45,0,0,1,616.41,242.54Z" style="fill:#fff"></path><path d="M623.19,242.54a.44.44,0,0,1-.44.44.45.45,0,0,1,0-.89A.45.45,0,0,1,623.19,242.54Z" style="fill:#fff"></path><path d="M630,242.54a.45.45,0,1,1-.45-.45A.45.45,0,0,1,630,242.54Z" style="fill:#fff"></path><path d="M636.76,242.54a.44.44,0,1,1-.44-.45A.44.44,0,0,1,636.76,242.54Z" style="fill:#fff"></path><path d="M619.8,255.52a.45.45,0,1,1-.44-.44A.44.44,0,0,1,619.8,255.52Z" style="fill:#fff"></path><path d="M626.58,255.52a.44.44,0,0,1-.44.44.44.44,0,0,1-.44-.44.44.44,0,0,1,.44-.44A.43.43,0,0,1,626.58,255.52Z" style="fill:#fff"></path><path d="M633.37,255.52a.45.45,0,1,1-.44-.44A.44.44,0,0,1,633.37,255.52Z" style="fill:#fff"></path><path d="M640.16,255.52a.45.45,0,0,1-.89,0,.45.45,0,0,1,.89,0Z" style="fill:#fff"></path><path d="M646.94,255.52a.44.44,0,0,1-.44.44.44.44,0,0,1-.44-.44.43.43,0,0,1,.44-.44A.44.44,0,0,1,646.94,255.52Z" style="fill:#fff"></path><path d="M653.73,255.52a.45.45,0,0,1-.89,0,.45.45,0,0,1,.89,0Z" style="fill:#fff"></path><circle cx="615.96" cy="251.2" r="0.44" style="fill:#fff"></circle><circle cx="622.75" cy="251.2" r="0.44" style="fill:#fff"></circle><path d="M630,251.2a.45.45,0,1,1-.45-.44A.45.45,0,0,1,630,251.2Z" style="fill:#fff"></path><circle cx="636.32" cy="251.2" r="0.44" style="fill:#fff"></circle><circle cx="643.11" cy="251.2" r="0.44" style="fill:#fff"></circle><path d="M650.33,251.2a.44.44,0,0,1-.44.45.45.45,0,0,1,0-.89A.44.44,0,0,1,650.33,251.2Z" style="fill:#fff"></path><path d="M626.58,264.18a.44.44,0,0,1-.44.45.45.45,0,0,1,0-.89A.44.44,0,0,1,626.58,264.18Z" style="fill:#fff"></path><circle cx="632.93" cy="264.18" r="0.44" style="fill:#fff"></circle><path d="M640.16,264.18a.45.45,0,1,1-.45-.44A.45.45,0,0,1,640.16,264.18Z" style="fill:#fff"></path><path d="M646.94,264.18a.45.45,0,0,1-.44.45.45.45,0,1,1,.44-.45Z" style="fill:#fff"></path><path d="M653.73,264.18a.45.45,0,1,1-.45-.44A.45.45,0,0,1,653.73,264.18Z" style="fill:#fff"></path><circle cx="660.07" cy="264.18" r="0.44" style="fill:#fff"></circle><circle cx="622.75" cy="259.87" r="0.44" style="fill:#fff"></circle><path d="M630,259.87a.45.45,0,1,1-.45-.44A.45.45,0,0,1,630,259.87Z" style="fill:#fff"></path><circle cx="636.32" cy="259.87" r="0.44" style="fill:#fff"></circle><circle cx="643.11" cy="259.87" r="0.44" style="fill:#fff"></circle><path d="M650.33,259.87a.44.44,0,0,1-.44.44.44.44,0,1,1,0-.88A.44.44,0,0,1,650.33,259.87Z" style="fill:#fff"></path><path d="M657.12,259.87a.45.45,0,1,1-.44-.44A.44.44,0,0,1,657.12,259.87Z" style="fill:#fff"></path><circle cx="632.93" cy="272.85" r="0.44" style="fill:#fff"></circle><path d="M640.16,272.85a.45.45,0,1,1-.45-.44A.45.45,0,0,1,640.16,272.85Z" style="fill:#fff"></path><path d="M646.94,272.85a.44.44,0,0,1-.44.44.43.43,0,0,1-.44-.44.44.44,0,0,1,.44-.44A.44.44,0,0,1,646.94,272.85Z" style="fill:#fff"></path><path d="M653.73,272.85a.45.45,0,1,1-.45-.44A.45.45,0,0,1,653.73,272.85Z" style="fill:#fff"></path><circle cx="660.07" cy="272.85" r="0.44" style="fill:#fff"></circle><path d="M667.3,272.85a.45.45,0,1,1-.45-.44A.45.45,0,0,1,667.3,272.85Z" style="fill:#fff"></path><path d="M630,268.54a.45.45,0,1,1-.45-.45A.45.45,0,0,1,630,268.54Z" style="fill:#fff"></path><path d="M636.76,268.54a.44.44,0,1,1-.44-.45A.44.44,0,0,1,636.76,268.54Z" style="fill:#fff"></path><path d="M643.55,268.54a.45.45,0,1,1-.44-.45A.44.44,0,0,1,643.55,268.54Z" style="fill:#fff"></path><path d="M650.33,268.54a.44.44,0,0,1-.44.44.45.45,0,1,1,.44-.44Z" style="fill:#fff"></path><path d="M657.12,268.54a.45.45,0,1,1-.44-.45A.44.44,0,0,1,657.12,268.54Z" style="fill:#fff"></path><path d="M663.9,268.54a.44.44,0,0,1-.44.44.45.45,0,1,1,.44-.44Z" style="fill:#fff"></path><path d="M633.37,281.52a.45.45,0,1,1-.44-.45A.44.44,0,0,1,633.37,281.52Z" style="fill:#fff"></path><path d="M640.16,281.52a.45.45,0,1,1-.45-.45A.45.45,0,0,1,640.16,281.52Z" style="fill:#fff"></path><path d="M646.94,281.52a.44.44,0,0,1-.44.44.45.45,0,0,1,0-.89A.45.45,0,0,1,646.94,281.52Z" style="fill:#fff"></path><path d="M653.73,281.52a.45.45,0,1,1-.45-.45A.45.45,0,0,1,653.73,281.52Z" style="fill:#fff"></path><path d="M660.51,281.52a.44.44,0,0,1-.44.44.45.45,0,0,1,0-.89A.45.45,0,0,1,660.51,281.52Z" style="fill:#fff"></path><path d="M667.08,281.15a7.52,7.52,0,0,1-.27.8.44.44,0,0,1-.4-.43.46.46,0,0,1,.44-.45A.38.38,0,0,1,667.08,281.15Z" style="fill:#fff"></path><circle cx="636.32" cy="277.2" r="0.44" style="fill:#fff"></circle><circle cx="643.11" cy="277.2" r="0.44" style="fill:#fff"></circle><path d="M650.33,277.2a.44.44,0,0,1-.44.45.45.45,0,0,1,0-.89A.44.44,0,0,1,650.33,277.2Z" style="fill:#fff"></path><path d="M657.12,277.2a.45.45,0,1,1-.44-.44A.45.45,0,0,1,657.12,277.2Z" style="fill:#fff"></path><path d="M663.9,277.2a.44.44,0,0,1-.44.45.45.45,0,0,1,0-.89A.44.44,0,0,1,663.9,277.2Z" style="fill:#fff"></path><path d="M640.16,290.18a.45.45,0,1,1-.45-.44A.45.45,0,0,1,640.16,290.18Z" style="fill:#fff"></path><path d="M646.94,290.18a.45.45,0,0,1-.44.45.45.45,0,1,1,.44-.45Z" style="fill:#fff"></path><path d="M653.73,290.18a.45.45,0,1,1-.45-.44A.45.45,0,0,1,653.73,290.18Z" style="fill:#fff"></path><path d="M660.51,290.18a.45.45,0,0,1-.44.45.45.45,0,1,1,.44-.45Z" style="fill:#fff"></path><path d="M636.76,285.87a.44.44,0,1,1-.88,0,.44.44,0,1,1,.88,0Z" style="fill:#fff"></path><path d="M643.55,285.87a.45.45,0,1,1-.44-.44A.44.44,0,0,1,643.55,285.87Z" style="fill:#fff"></path><path d="M650.33,285.87a.44.44,0,0,1-.44.44.44.44,0,0,1-.44-.44.44.44,0,0,1,.44-.44A.43.43,0,0,1,650.33,285.87Z" style="fill:#fff"></path><path d="M657.12,285.87a.45.45,0,1,1-.44-.44A.44.44,0,0,1,657.12,285.87Z" style="fill:#fff"></path><path d="M663.9,285.87a.44.44,0,0,1-.44.44.44.44,0,0,1-.44-.44.44.44,0,0,1,.44-.44A.43.43,0,0,1,663.9,285.87Z" style="fill:#fff"></path><path d="M646.94,298.85a.44.44,0,0,1-.44.44.44.44,0,0,1,0-.88A.44.44,0,0,1,646.94,298.85Z" style="fill:#fff"></path><path d="M653.73,298.85a.45.45,0,1,1-.45-.44A.45.45,0,0,1,653.73,298.85Z" style="fill:#fff"></path><circle cx="643.11" cy="294.54" r="0.44" style="fill:#fff"></circle><path d="M650.33,294.54a.44.44,0,0,1-.44.44.45.45,0,1,1,.44-.44Z" style="fill:#fff"></path><path d="M657.12,294.54a.45.45,0,1,1-.44-.45A.44.44,0,0,1,657.12,294.54Z" style="fill:#fff"></path><path d="M650.33,303.2a.43.43,0,0,1-.44.44.44.44,0,0,1-.44-.44.44.44,0,0,1,.44-.44A.44.44,0,0,1,650.33,303.2Z" style="fill:#fff"></path><polygon points="650.59 309.63 654.69 305.42 629.27 278.76 626.84 282.21 647.3 309.63 650.59 309.63" style="fill:#FFA4BB"></polygon><path d="M630.53,279.58a75.42,75.42,0,0,1,5.72,5.73c1.88,1.94,3.72,3.93,5.56,5.9,3.69,4,7.3,8,10.78,12.12.06.09-.05.2-.13.12-3.91-3.8-7.66-7.73-11.36-11.73-1.84-2-3.68-4-5.47-6a73.53,73.53,0,0,1-5.23-6.06C630.35,279.59,630.47,279.52,630.53,279.58Z" style="fill:#263238"></path><path d="M612.39,250.83c.9.79,1.81,1.56,2.74,2.32l.32.27c-1.6-2.12-3.18-4.27-4.73-6.43,0-.05,0-.11.09-.06a188.52,188.52,0,0,1,13.28,16.81c0,.08-.07.18-.13.1-2.58-2.84-5-5.83-7.35-8.88-.58-.49-1.14-1-1.69-1.53-.87-.85-1.75-1.67-2.65-2.48C612.19,250.88,612.31,250.76,612.39,250.83Z" style="fill:#263238"></path><path d="M612.59,302.2c-.45.06-7.36,1-5.77,5.77a4.48,4.48,0,0,0,1,1.67h38.25a3.7,3.7,0,0,0-.15-1.08c-1-3.25-4.63-3.65-4.63-3.65s2.33-2.7,1.66-4.54c-1.32-3.56-5.89-3.87-5.89-3.87a4.74,4.74,0,0,0,.49-5.63c-1.13-2-4.21-3.14-7.57-4.79-2.71-1.34-3.94-4.82-3.94-4.82.08.26.19,8.61.19,8.61-4.23,3.09-20.75.77-20.11,7.21C606.5,300.82,612.16,302.11,612.59,302.2Z" style="fill:#ffc4c0"></path><path d="M633.16,309.64a38.51,38.51,0,0,0,8.34-4.58c.07-.06,0-.19-.08-.15A68.93,68.93,0,0,1,629,309.64Z" style="fill:#263238"></path><path d="M612,301.92c8.77.6,16.86-1.67,24.83-5.2.1-.05.16.1.08.17-3.43,2.78-8.74,4.5-13,5.49a23.13,23.13,0,0,1-11.94-.16C611.8,302.18,611.79,301.9,612,301.92Z" style="fill:#263238"></path><path d="M627.52,284.21a8.5,8.5,0,0,0,1.68,1.6,37.73,37.73,0,0,0,5,2.52,7.48,7.48,0,0,1,3.48,3.35,4.48,4.48,0,0,1-.7,4.66.11.11,0,0,0,.09.19,13.33,13.33,0,0,1,3.06.93,4.5,4.5,0,0,1,1.94,1.77,5.74,5.74,0,0,1-.77,5.68,9.73,9.73,0,0,1,3.12,1.46,4.07,4.07,0,0,1,1.24,2,4.53,4.53,0,0,1,.18,1.27h1a4.09,4.09,0,0,0-1.7-4,7.33,7.33,0,0,0-3.3-.92c1.45-1.66,2.29-4,1.21-6.07a4.15,4.15,0,0,0-2.34-1.87,14,14,0,0,0-3.53-.5,4.85,4.85,0,0,0,1.78-4,5.23,5.23,0,0,0-2.53-4,24.64,24.64,0,0,0-5.31-2.32,12.14,12.14,0,0,1-2.69-1.3,5.57,5.57,0,0,1-2-2.54c-.08-.18-.1,0,0,.14A6.87,6.87,0,0,0,627.52,284.21Z" style="fill:#263238"></path><path d="M600.48,223.35c-.41,1.4-7.67,10.24-14.13,9.59-2.1-.21-1.44-11.75-1.44-11.75l-.15-.86-2-12.09L597.23,200l2.09-1.08s.34,3.34.72,7.5c0,.2,0,.39.05.6s.06.45.08.68c.06.62.12,1.25.17,1.89,0,.48.08.95.11,1.45s.06,1,.1,1.52A80.35,80.35,0,0,1,600.48,223.35Z" style="fill:#ffc4c0"></path><path d="M600,206.41a24.6,24.6,0,0,1-15.28,13.92l-2-12.09L597.23,200l2.09-1.08S599.66,202.25,600,206.41Z" style="fill:#263238"></path><path d="M564.8,190.83c-1.09,21.48,11.65,24.56,16.29,24.78,4.2.21,18.54.38,21.84-20.87S596.59,166.2,587,165.22,565.88,169.36,564.8,190.83Z" style="fill:#ffc4c0"></path><path d="M571.75,186.22a12.11,12.11,0,0,0,1.45-.32,2.36,2.36,0,0,0,1.42-.59.78.78,0,0,0,0-.94,1.92,1.92,0,0,0-1.87-.44,2.82,2.82,0,0,0-1.75,1A.82.82,0,0,0,571.75,186.22Z" style="fill:#263238"></path><path d="M586.25,186.53a14.46,14.46,0,0,1-1.46-.28,2.33,2.33,0,0,1-1.43-.57.75.75,0,0,1,0-.93,1.88,1.88,0,0,1,1.86-.48,2.82,2.82,0,0,1,1.77.95A.82.82,0,0,1,586.25,186.53Z" style="fill:#263238"></path><path d="M583.49,192c0-.06.12.07.11.13-.05,1.46.14,3.15,1.46,3.64,0,0,0,.09,0,.08C583.43,195.63,583.21,193.39,583.49,192Z" style="fill:#263238"></path><path d="M584.8,190.49c2.36-.17,2.53,4.55.34,4.71S582.83,190.63,584.8,190.49Z" style="fill:#263238"></path><path d="M585.74,190.7c.42.26.84.71,1.34.75s1-.48,1.36-1c0,0,.08,0,.08.05.05.91-.27,1.85-1.24,2s-1.54-.63-1.8-1.53C585.43,190.86,585.57,190.6,585.74,190.7Z" style="fill:#263238"></path><path d="M574.6,191.57c0-.06-.11.07-.11.13.08,1.46-.07,3.15-1.38,3.67,0,0,0,.09,0,.08C574.74,195.18,574.91,192.94,574.6,191.57Z" style="fill:#263238"></path><path d="M573.25,190.07c-2.36-.11-2.42,4.61-.23,4.72S575.23,190.17,573.25,190.07Z" style="fill:#263238"></path><path d="M572.26,190.37c-.38.25-.75.7-1.2.72s-.89-.49-1.21-1c0-.05-.08,0-.08,0,0,.9.25,1.85,1.12,2s1.38-.6,1.61-1.5C572.54,190.53,572.41,190.27,572.26,190.37Z" style="fill:#263238"></path><path d="M582.63,203.36c-.32.37-.63.86-1.16.95a3.83,3.83,0,0,1-1.6-.24s-.09,0,0,.08a2,2,0,0,0,1.91.64,1.53,1.53,0,0,0,1-1.38C582.79,203.32,582.68,203.3,582.63,203.36Z" style="fill:#263238"></path><path d="M576.39,198.21s-.25,2.19-.23,3.22c0,.1.25.14.6.15h0a4.9,4.9,0,0,0,4.71-1.94.1.1,0,0,0-.15-.14,7.45,7.45,0,0,1-4.45,1.39c-.08-.29.56-3.74.39-3.75a8.91,8.91,0,0,0-2.33.58c.39-4.58,1.51-9.07,1.83-13.64a.14.14,0,0,0-.27-.06c-1.51,4.62-2.07,9.89-2.59,14.61C573.87,199.22,576,198.39,576.39,198.21Z" style="fill:#263238"></path><path d="M577.08,201.18a5.74,5.74,0,0,0,2.28,1.85,2.6,2.6,0,0,0,1.59.14c1.16-.28,1.21-1.33,1-2.24a6.52,6.52,0,0,0-.49-1.39A7.54,7.54,0,0,1,577.08,201.18Z" style="fill:#263238"></path><path d="M579.36,203a2.6,2.6,0,0,0,1.59.14c1.16-.28,1.21-1.33,1-2.24A2.72,2.72,0,0,0,579.36,203Z" style="fill:#ff9cbd"></path><path d="M601.72,194.65c-2.32-.29-8-7.1-7.47-18.4,0,0,.23,10.18.89,11.71s-3.17-3.83-2.87-13c0,0-5.27,3.32-9.64,4.25s-7,.72-7.29.39,6.16-1.92,8-3.78c0,0-11.77,4.59-17.06,4.66-.62,0-.55-12.58,7.94-17.38s21,1.76,24.28,5.34c0,0,4,.83,8.08,7.14S604.23,195,601.72,194.65Z" style="fill:#263238"></path><path d="M598.69,195.78s4.44-6.87,7.55-5.31-.07,11.41-3.6,12.87a3.64,3.64,0,0,1-4.94-1.78Z" style="fill:#ffc4c0"></path><path d="M605.26,193.27s.07.07,0,.1c-2.47,1.1-3.7,3.47-4.54,5.91a2,2,0,0,1,3-.65c.07,0,0,.15-.06.13a2.24,2.24,0,0,0-2.43.87,10.86,10.86,0,0,0-1.11,2c-.11.22-.52.12-.44-.14a.14.14,0,0,1,0-.06C599.52,198.28,601.84,193.72,605.26,193.27Z" style="fill:#263238"></path><path d="M584.75,221.2l3.08,9.79,12.73-11.1,3,4.11s-13,18.2-13,17.33l-3.28-8.48-6.09,5.26,1.56-14.27Z" style="fill:#FFA4BB"></path><path d="M581.58,231c.34-2.34.61-4.71,1.06-7,0-.09.15-.11.16,0,.3,2.31-1,11.28-1.19,13.44l0,0c.26-.23,5.63-4.61,5.67-4.53.75,1.36,3.16,7.54,3.32,8.1,2.06-2.89,9.9-13.38,12.28-16.08a.09.09,0,0,1,.14.1c-1.86,3.07-12.26,17.21-12.4,17.15a92.92,92.92,0,0,1-3.43-9c-.92,1-6.39,6-6.38,5.61A77.56,77.56,0,0,1,581.58,231Z" style="fill:#263238"></path><path d="M578.2,276.46c2.61,2.41,1,5.73,1,5.73a7.56,7.56,0,0,1,4.42,2.63c1.86,2.5-1.25,6.51-1.25,6.51a9.38,9.38,0,0,1,4.22,3.52c1.54,2.58-1,7.07-1,7.07a8.16,8.16,0,0,1,1.76,5.44c-.44,5.23-7.57,8.9-12.08,11.28s-19.54,4.9-22.35,5.68l-15.52-28.83S554.6,279.06,560.3,277C565.11,275.3,575.28,273.75,578.2,276.46Z" style="fill:#ffc4c0"></path><path d="M539.44,293.58c-5.15,4.05-20.54,19.62-16.78,27.39s16.28,6.83,33.62,2.61Z" style="fill:#ffc4c0"></path><path d="M539.44,293.58c-5.15,4.05-21.36,19.26-17.08,29.25,3.4,7.94,18.15,8.72,35.49,4.5Z" style="fill:#FFA4BB"></path><path d="M557.85,327.34c-3.22.78-6.34,1.38-9.32,1.8l-.85.13a55.92,55.92,0,0,1-13,.35c-.14,0-.3,0-.44-.06-6-.73-10.29-2.9-11.93-6.73-4.26-10,11.95-25.2,17.09-29.24l12.09,22.15.36.66Z" style="fill:#FFA4BB"></path><path d="M538.37,298.85a.44.44,0,0,1-.44.44.44.44,0,1,1,0-.88A.44.44,0,0,1,538.37,298.85Z" style="fill:#fff"></path><circle cx="531.14" cy="307.52" r="0.44" style="fill:#fff"></circle><path d="M538.37,307.52a.44.44,0,0,1-.44.44.45.45,0,0,1,0-.89A.45.45,0,0,1,538.37,307.52Z" style="fill:#fff"></path><path d="M545.16,307.52a.45.45,0,1,1-.45-.45A.45.45,0,0,1,545.16,307.52Z" style="fill:#fff"></path><circle cx="534.54" cy="303.2" r="0.44" style="fill:#fff"></circle><circle cx="541.32" cy="303.2" r="0.44" style="fill:#fff"></circle><path d="M524.8,316.18a.45.45,0,1,1-.44-.44A.45.45,0,0,1,524.8,316.18Z" style="fill:#fff"></path><circle cx="531.14" cy="316.18" r="0.44" style="fill:#fff"></circle><path d="M538.37,316.18a.45.45,0,0,1-.44.45.45.45,0,1,1,.44-.45Z" style="fill:#fff"></path><path d="M545.16,316.18a.45.45,0,1,1-.45-.44A.45.45,0,0,1,545.16,316.18Z" style="fill:#fff"></path><path d="M551.89,316.4a.43.43,0,0,1-.39.22.44.44,0,0,1-.45-.43.45.45,0,0,1,.45-.45h0Z" style="fill:#fff"></path><path d="M528.19,311.87a.44.44,0,1,1-.88,0,.44.44,0,0,1,.88,0Z" style="fill:#fff"></path><path d="M535,311.87a.45.45,0,1,1-.44-.44A.44.44,0,0,1,535,311.87Z" style="fill:#fff"></path><path d="M541.76,311.87a.44.44,0,0,1-.44.44.44.44,0,0,1-.44-.44.44.44,0,0,1,.44-.44A.43.43,0,0,1,541.76,311.87Z" style="fill:#fff"></path><path d="M548.55,311.87a.45.45,0,1,1-.44-.44A.44.44,0,0,1,548.55,311.87Z" style="fill:#fff"></path><path d="M524.8,324.85a.45.45,0,1,1-.44-.44A.44.44,0,0,1,524.8,324.85Z" style="fill:#fff"></path><path d="M531.59,324.85a.45.45,0,0,1-.89,0,.45.45,0,0,1,.89,0Z" style="fill:#fff"></path><path d="M538.37,324.85a.44.44,0,0,1-.44.44.44.44,0,0,1-.44-.44.43.43,0,0,1,.44-.44A.44.44,0,0,1,538.37,324.85Z" style="fill:#fff"></path><path d="M545.16,324.85a.45.45,0,0,1-.89,0,.45.45,0,0,1,.89,0Z" style="fill:#fff"></path><path d="M551.94,324.85a.44.44,0,1,1-.88,0,.44.44,0,0,1,.88,0Z" style="fill:#fff"></path><path d="M528.19,320.53a.44.44,0,1,1-.44-.44A.45.45,0,0,1,528.19,320.53Z" style="fill:#fff"></path><circle cx="534.54" cy="320.53" r="0.44" style="fill:#fff"></circle><circle cx="541.32" cy="320.53" r="0.44" style="fill:#fff"></circle><circle cx="548.11" cy="320.53" r="0.44" style="fill:#fff"></circle><path d="M535,329.2a.47.47,0,0,1-.26.42c-.14,0-.3,0-.44-.06a.44.44,0,0,1,.25-.8A.45.45,0,0,1,535,329.2Z" style="fill:#fff"></path><path d="M541.76,329.2a.43.43,0,0,1-.44.44.44.44,0,0,1-.44-.44.44.44,0,0,1,.44-.44A.44.44,0,0,1,541.76,329.2Z" style="fill:#fff"></path><path d="M548.53,329.14l-.85.13a.2.2,0,0,1,0-.07.44.44,0,0,1,.44-.44A.41.41,0,0,1,548.53,329.14Z" style="fill:#fff"></path><path d="M548.91,327.73c-5.6-12.86-13.44-25.52-14.65-27.82,0-.11-.22,0-.16.1,1.3,2.2,8.69,17.64,14.63,27.83C548.8,328,549,327.85,548.91,327.73Z" style="fill:#263238"></path><path d="M578.78,281.83c-5.54.61-10.61,2.82-15.79,4.74-.11,0,0,.22.07.18,5.13-2,10.59-2.9,15.79-4.66A.14.14,0,0,0,578.78,281.83Z" style="fill:#263238"></path><path d="M582.11,291a14.44,14.44,0,0,0-3.59,1.25c-1.24.53-2.47,1.09-3.69,1.66-2.44,1.14-4.86,2.34-7.24,3.61-.11.06-.05.23.07.18,2.43-1.14,4.89-2.24,7.37-3.27,1.24-.52,2.49-1,3.74-1.52a16.94,16.94,0,0,0,3.47-1.57A.19.19,0,0,0,582.11,291Z" style="fill:#263238"></path><path d="M585.5,302a10.16,10.16,0,0,0-3.17,1.3L579,304.89c-2.22,1.06-4.43,2.12-6.69,3.11-.11.05,0,.23.07.18,2.3-1,4.6-1.95,6.89-3l3.36-1.51a9.74,9.74,0,0,0,2.92-1.63A.07.07,0,0,0,585.5,302Z" style="fill:#263238"></path><path d="M538.76,293.85a48.71,48.71,0,0,0-5.11,4.46l-1.2,1.27-.52.35a25.56,25.56,0,0,0-2.14,1.57,38.84,38.84,0,0,0-3.72,3.54c-.09.09,0,.21.14.13a34.06,34.06,0,0,1,4-3.32l.56-.38c-.67.76-1.32,1.54-1.93,2.34a66.33,66.33,0,0,0-4.46,6.68c-.06.11.1.19.17.09,2.48-4.1,13.39-15.11,14.58-16.43S539.67,293.1,538.76,293.85Z" style="fill:#263238"></path><path d="M556.22,323.59l-.36.09h0Z" style="fill:#ffc4c0"></path><path d="M521.9,316.86c0,.26-.1.51-.13.77,0-.05,0-.1,0-.15C521.82,317.27,521.86,317.07,521.9,316.86Z" style="fill:#FFA4BB"></path><path d="M521.9,316.86c0,.26-.1.51-.13.77,0-.05,0-.1,0-.15C521.82,317.27,521.86,317.07,521.9,316.86Z" style="fill:#FFA4BB"></path><path d="M557.85,327.33h0l-1.12.26Z" style="fill:#FFA4BB"></path><path d="M521.9,316.86c0,.26-.1.51-.13.77,0-.05,0-.1,0-.15C521.82,317.27,521.86,317.07,521.9,316.86Z" style="fill:#dbdbdb"></path><path d="M647.42,309.79h-.86c.11-.11.22-.23.32-.35s0-.23,0-.34l.14.18Z" style="fill:#dbdbdb"></path></g><g id="freepik--character-2--inject-18"><rect x="292.88" y="143.19" width="164.25" height="224.25" style="fill:#fff"></rect><path d="M457.62,367.94H292.38V142.69H457.62Zm-164.24-1H456.62V143.69H293.38Z" style="fill:#ebebeb"></path><rect x="292.88" y="143.19" width="164.25" height="15.71" style="fill:#FFA4BB"></rect><path d="M457.62,159.4H292.38V142.69H457.62Zm-164.24-1H456.62V143.69H293.38Z" style="fill:#ebebeb"></path><path d="M307.61,151.16a4,4,0,1,1-3.95-3.95A3.95,3.95,0,0,1,307.61,151.16Z" style="fill:#263238"></path><path d="M323.75,151.16a3.95,3.95,0,1,1-3.95-3.95A4,4,0,0,1,323.75,151.16Z" style="fill:#ebebeb"></path><path d="M339.88,151.16a3.95,3.95,0,1,1-3.95-3.95A4,4,0,0,1,339.88,151.16Z" style="fill:#455a64"></path><rect x="292.88" y="158.4" width="164.25" height="1" style="fill:#ebebeb"></rect><rect x="304.32" y="319.74" width="80.56" height="7.52" style="fill:#c7c7c7"></rect><rect x="304.32" y="334.36" width="141.36" height="4.54" style="fill:#ebebeb"></rect><rect x="304.32" y="343.01" width="141.36" height="4.54" style="fill:#ebebeb"></rect><rect x="304.32" y="351.65" width="141.36" height="4.54" style="fill:#ebebeb"></rect><rect x="304.32" y="168.43" width="141.36" height="141.36" style="fill:#dbdbdb"></rect><path d="M359.33,233.07c7.49,7.75,45.95,44.39,62.6,40.82,20.17-4.33,43.54-16.8,52.64-25.6,5.1-4.94-19.85-29.5-25-25.64-8.1,6.09-27.62,16.25-31.06,17.66s-32.75-13.4-49.82-19.16C353.33,216,354.05,227.61,359.33,233.07Z" style="fill:#d3766a"></path><path d="M488.45,237.08c-4.44,6-18.32,14.75-22.48,15.57s-19.81-22.3-18.45-26.43,17.87-23.21,25.24-25.17S493.05,230.85,488.45,237.08Z" style="fill:#d3766a"></path><path d="M449.76,222.47s2.58-9.37,2-17.91c-.52-7.18-2.1-17.78,1.75-18.2,7.91-.87,11.84,25.57,11.84,25.57s-.13,11.95-7.89,13.5A7.86,7.86,0,0,1,449.76,222.47Z" style="fill:#d3766a"></path><path d="M462,206.34c-.36,3.94,4.49,2.11,4.49,2.11s-6.35,4.32-5.16,8.52,6.95,1.65,7.37,1.48c-.34.23-6.07,4.34-4.43,8.45,1.7,4.27,7.09.85,7.44.63-.25.31-3.44,4.56-1.49,7.4,3.36,4.87,11.83-5.77,16.61-6.11,0,0,1.5,8,1.59,8.26,0,0,8.27-10,7.45-16.38a4.12,4.12,0,0,0-3.67-3.65s3-2.92,1.83-6.19c-.61-1.68-3.85-2.19-3.85-2.19s2.32-2.44,1.09-5.28c-1-2.28-4.07-2.44-4.07-2.44s1.14-3.37-.61-5.37C483.08,191.54,462.82,197.9,462,206.34Z" style="fill:#d3766a"></path><path d="M486.74,200.85a.06.06,0,1,0,0-.11,36.8,36.8,0,0,0-20.48,7.78c-.18.16,0,.52.22.39A75.26,75.26,0,0,1,486.74,200.85Z" style="fill:#263238"></path><path d="M490.3,208.6c.08,0,.05-.16,0-.15-7.39.52-16,3.81-21.82,9.88-.2.21-.17.59.08.37C472.69,215,483.6,210.08,490.3,208.6Z" style="fill:#263238"></path><path d="M471.48,228.09c5.78-5.61,12.78-8.8,20.44-11,.1,0,.05-.17,0-.16-4.05.07-8.78,2-12.33,3.83a21.14,21.14,0,0,0-8.26,7.17C471.2,228,471.36,228.21,471.48,228.09Z" style="fill:#263238"></path><path d="M466.39,208.42c-.22.18.29.3.08.49-.9.79-5.89,6-4.63,8.29,1,1.8,4.13,1.69,5.32,1.18l3-1.29-2.35,2.25a13.1,13.1,0,0,0-2.62,3.41,4.77,4.77,0,0,0-.49,3.86,2.72,2.72,0,0,0,2.85,1.88,8.18,8.18,0,0,0,3.83-1.48l3.2-2.14-2.31,3a12.22,12.22,0,0,0-1.59,2.76,5.11,5.11,0,0,0-.42,2.94A2.44,2.44,0,0,0,472,235.5a5.3,5.3,0,0,0,3-.5,41.91,41.91,0,0,0,5.81-3.27c.95-.59,1.91-1.19,2.9-1.74a8.12,8.12,0,0,1,3.17-1.17,8.63,8.63,0,0,0-3,1.44c-.93.62-1.84,1.28-2.74,2a37,37,0,0,1-5.76,3.65,6.3,6.3,0,0,1-3.56.71,3.49,3.49,0,0,1-2.7-2.68,6.27,6.27,0,0,1,.42-3.66,13.84,13.84,0,0,1,1.72-3.1l.89.92a9.42,9.42,0,0,1-4.52,1.79,4,4,0,0,1-2.57-.67,4.46,4.46,0,0,1-1.57-2.11,6,6,0,0,1,.62-4.88,14.29,14.29,0,0,1,2.94-3.71l.62,1c-1.52.6-5,1.1-6.93-1.5C458.72,214.17,465.15,209.24,466.39,208.42Z" style="fill:#263238"></path><path d="M466.52,208.45a8,8,0,0,1-2.43,0,1.81,1.81,0,0,1-1.48-1.12,3.69,3.69,0,0,1,.07-2.12c.22-.77.48-1.57.79-2.38a6.44,6.44,0,0,0-1.6,2.08,3.72,3.72,0,0,0-.3,2.81,2.57,2.57,0,0,0,1,1.22,2.7,2.7,0,0,0,1.44.37A4.17,4.17,0,0,0,466.52,208.45Z" style="fill:#263238"></path><path d="M446.92,223.05l20.22,35.11s-36.57,22.07-53.35,16.22-45.53-31-51.61-36.87C348.85,224.76,356,215.6,369.25,221s46.19,18.38,48.18,18.56S446.92,223.05,446.92,223.05Z" style="fill:#455a64"></path><path d="M441.33,233.26a1.8,1.8,0,1,0-.42-2.51A1.81,1.81,0,0,0,441.33,233.26Z" style="fill:#263238"></path><path d="M433.23,237.89a1.8,1.8,0,1,0-.42-2.51A1.79,1.79,0,0,0,433.23,237.89Z" style="fill:#263238"></path><path d="M395.64,264.43a308.11,308.11,0,0,1-33.46-26.92c-11.59-11.09-7.73-19.46,2.21-17.93Z" style="fill:#263238"></path><path d="M393.61,309.76c-5.8-29-17.72-81.52-24.33-90.14-1.93-2.52-8.32-3.22-13.74-2.55a23.35,23.35,0,0,0-4.18.86l-.14,0a9.76,9.76,0,0,0-3.07,1.51c-10.89,8.69-29.09,61.3-38.13,90.29Z" style="fill:#455a64"></path><polygon points="360.85 241.15 364.77 233.5 369.84 239.03 368.6 244.54 363.6 245.18 360.85 241.15" style="fill:#263238"></polygon><polygon points="374.43 309.76 377.22 299.1 368.6 244.54 363.6 245.18 361.2 301.43 365.93 309.76 374.43 309.76" style="fill:#263238"></polygon><path d="M366.41,232.8c-4.76,1.71-14-4.81-18-10.49-.27-.39-.13-4.84-.21-10.26-.07-3.29-.22-7-.6-10.27-.08-.69,2.39.3,2.39.3l4.43.56L369,204.48a53.23,53.23,0,0,0-.56,13,7,7,0,0,0,.3,1.35c0,.06,0,.13.05.22C369.54,221.61,371,231.14,366.41,232.8Z" style="fill:#d3766a"></path><path d="M368.77,218.84c0,.06,0,.13.05.22a12.76,12.76,0,0,1-2.13.36C352.6,220.7,348.81,203,348.81,203l5.59-.39L369,204.48a53.23,53.23,0,0,0-.56,13A7,7,0,0,0,368.77,218.84Z" style="fill:#263238"></path><path d="M342.76,176.1c-1.95,7.53,2.89,28.87,8.39,33.44,8,6.62,20.56,6.75,26.07-2.72,5.34-9.19-1.46-36.88-7.56-41C360.68,159.79,345.65,165,342.76,176.1Z" style="fill:#d3766a"></path><path d="M350.61,209.35h0" style="fill:none;stroke:#f3a59c;stroke-linecap:round;stroke-linejoin:round;stroke-width:0px"></path><path d="M361.07,188.85s-.1.1-.08.15c.36,1.43.54,3.13-.66,3.9,0,0,0,.09,0,.07C361.9,192.4,361.64,190.15,361.07,188.85Z" style="fill:#263238"></path><path d="M359.45,187.64c-2.35.33-1.5,5,.68,4.7S361.42,187.35,359.45,187.64Z" style="fill:#263238"></path><path d="M369.83,187c0-.06.12.05.13.1.22,1.46.71,3.1,2.11,3.34.05,0,.05.08,0,.08C370.43,190.59,369.8,188.41,369.83,187Z" style="fill:#263238"></path><path d="M370.85,185.25c2.3-.6,3.33,4,1.2,4.6S368.92,185.75,370.85,185.25Z" style="fill:#263238"></path><path d="M357.22,185.83a17.6,17.6,0,0,0,1.69-1c.65-.38,1.21-.61,1.55-1.31a1,1,0,0,0-.38-1.17,2.49,2.49,0,0,0-2.52.19,3.69,3.69,0,0,0-1.79,1.94A1.07,1.07,0,0,0,357.22,185.83Z" style="fill:#263238"></path><path d="M372.23,182.56a18.08,18.08,0,0,1-2-.14,3.18,3.18,0,0,1-1.95-.53,1,1,0,0,1-.17-1.22,2.51,2.51,0,0,1,2.36-.9,3.63,3.63,0,0,1,2.45,1A1.07,1.07,0,0,1,372.23,182.56Z" style="fill:#263238"></path><path d="M362.56,202.28c.41.28.84.69,1.37.63a3.77,3.77,0,0,0,1.5-.64,0,0,0,0,1,.07.06,2,2,0,0,1-1.69,1.12,1.58,1.58,0,0,1-1.38-1.08C362.39,202.29,362.5,202.24,362.56,202.28Z" style="fill:#263238"></path><path d="M363.3,197.67a5,5,0,0,0,3.69,1.6,6.38,6.38,0,0,0,1.79-.24l.33-.1.31-.11a.36.36,0,0,0,.23-.38h0a.74.74,0,0,0,0-.14v0l0-.12c-.17-1.12-.58-2.8-.58-2.8.44.13,2.69.69,2.55.11-1.16-4.78-2.46-10.09-4.62-14.59a.14.14,0,0,0-.26.08c.94,4.64,2.68,9.07,3.7,13.71a8.77,8.77,0,0,0-2.46-.28c-.15.07.86,3.23.9,3.74v0c-1.84.58-3.35.27-5.4-.66C363.29,197.45,363.19,197.57,363.3,197.67Z" style="fill:#263238"></path><path d="M368,198.76a6,6,0,0,1-2.11,2.15,2.63,2.63,0,0,1-1.6.32c-1.21-.15-1.38-1.21-1.29-2.16a6.47,6.47,0,0,1,.33-1.47A7.73,7.73,0,0,0,368,198.76Z" style="fill:#263238"></path><path d="M365.91,200.91a2.63,2.63,0,0,1-1.6.32c-1.21-.15-1.38-1.21-1.29-2.16A2.78,2.78,0,0,1,365.91,200.91Z" style="fill:#ff99ba"></path><path d="M344.74,192.34c4.93-1,4.17-10.1,4.17-10.1s8.21-3,8.22-9.62c0,0,9,3.6,14.9.1s3.51-11.19,2.5-12.58c-2.31-3.17-6.71,2.32-6.71,2.32s-8.89-3.3-17.75-.68c-7.22,2.13-9.59,9.77-9.59,9.77s-3.79,1.59-4.54,4.6S341.59,193,344.74,192.34Z" style="fill:#263238"></path><path d="M346.93,182.68c6.72-.38,10.23-5.56,10-12a.06.06,0,1,1,.12,0c.93,5.88-3.29,13.44-10.12,12.33A.15.15,0,0,1,346.93,182.68Z" style="fill:#263238"></path><path d="M340.63,171.39a.07.07,0,0,1,.07.13c-1.67,1.2-3.65,2.23-4.62,4.15-1.17,2.32-.33,4.9.69,7.08,1.58,3.39,4.29,7.65,7.87,9.14.21.08.07.39-.14.31-4.24-1.52-7.6-7.09-8.93-11.17C334.09,176.46,336.5,173.23,340.63,171.39Z" style="fill:#263238"></path><path d="M364.64,173a9.18,9.18,0,0,0,10-2.16c3-3.31,1.43-7.49-.73-10.81-.11-.16.09-.4.24-.25,2.62,2.78,3.68,7.57,1.36,10.85s-7.46,4.31-11,2.86C364.15,173.32,364.35,172.83,364.64,173Z" style="fill:#263238"></path><path d="M348.1,193.42s-5.29-6.64-8.33-4.71,1.24,11.77,5,12.91a3.77,3.77,0,0,0,4.92-2.33Z" style="fill:#d3766a"></path><path d="M341.06,191.5c-.06,0-.06.08,0,.1,2.66.89,4.18,3.21,5.29,5.64a2.08,2.08,0,0,0-3.14-.37c-.07,0,0,.15.08.13a2.33,2.33,0,0,1,2.59.65,10.89,10.89,0,0,1,1.35,2c.14.22.55.07.44-.19a.14.14,0,0,0,0-.06C347.5,196.08,344.64,191.61,341.06,191.5Z" style="fill:#263238"></path><path d="M368.76,218.61l-4.56,12.62-16-15.07-4.17,5.19s16,24.29,16,23.17l4.69-10.86,7.64,7.14-1.3-18.6Z" style="fill:#455a64"></path><path d="M372.31,231.57c-.32-3.07-.56-6.16-1-9.21a.11.11,0,0,0-.21,0c-.5,3,.78,14.7.88,17.52l0,0c-.32-.31-7.07-6.27-7.13-6.17-1,1.73-4.49,9.64-4.71,10.36-2.53-3.86-12.19-17.87-15.15-21.5a.11.11,0,0,0-.18.11c2.26,4.09,15.06,23,15.24,22.91a121.35,121.35,0,0,0,4.9-11.48c1.16,1.31,8,8.07,8,7.61A94.54,94.54,0,0,0,372.31,231.57Z" style="fill:#263238"></path><path d="M348,245.1c5.81-21,3.15-28.23-7.68-18.4-15.46,14-28.32,34.13-36,50.31v32.75h45.81c-7.33-4.51-17.37-13.61-18-14.11C330.57,294.31,342.87,263.69,348,245.1Z" style="fill:#d3766a"></path><path d="M332.47,295.12c-.09-1.35,13.48-38.43,17.59-56.68s2.06-27-15.9-6.61a267.32,267.32,0,0,0-29.84,41.44v36.49h47.2C349.37,308.25,332.55,296.38,332.47,295.12Z" style="fill:#455a64"></path><path d="M333.51,296.52l1.36,1.08c1.84,1.42,3.67,2.84,5.53,4.22,3.65,2.72,7.38,5.31,11.1,7.94h.28c-3.18-2.57-6.33-5.19-9.56-7.7-1.64-1.27-3.28-2.53-4.94-3.76l-2.4-1.78c-.57-.41-1.76-1.52-1.73-1.72s1.63-6.05,2.55-8.82c1-3,2-5.9,2.93-8.86q2.3-7.08,4.55-14.16a15.71,15.71,0,0,0,1.65-2.84c.69-1.37,1.25-2.8,1.87-4.2,0,0,0-.07-.05,0-.75,1.3-1.55,2.58-2.22,3.93l-.66,1.31.51-1.58c1.05-3.31,2.07-6.63,3-10,0-.08-.11-.13-.14-.05-2.38,5.69-4.33,11.57-6.27,17.42s-3.8,11.83-5.56,17.79c-.95,3.26-3.1,10.21-2.92,10.55A5.31,5.31,0,0,0,333.51,296.52Z" style="fill:#263238"></path></g><g id="freepik--character-1--inject-18"><rect x="72.97" y="143.19" width="164.25" height="224.25" style="fill:#fff"></rect><path d="M237.72,367.94H72.47V142.69H237.72Zm-164.25-1H236.72V143.69H73.47Z" style="fill:#ebebeb"></path><rect x="72.97" y="143.19" width="164.25" height="15.71" style="fill:#FFA4BB"></rect><path d="M237.72,159.4H72.47V142.69H237.72Zm-164.25-1H236.72V143.69H73.47Z" style="fill:#ebebeb"></path><path d="M87.71,151.16a4,4,0,1,1-3.95-3.95A4,4,0,0,1,87.71,151.16Z" style="fill:#263238"></path><path d="M103.84,151.16a4,4,0,1,1-4-3.95A3.95,3.95,0,0,1,103.84,151.16Z" style="fill:#ebebeb"></path><path d="M120,151.16a4,4,0,1,1-4-3.95A4,4,0,0,1,120,151.16Z" style="fill:#455a64"></path><rect x="72.97" y="158.4" width="164.25" height="1" style="fill:#ebebeb"></rect><rect x="84.41" y="319.74" width="80.56" height="7.52" style="fill:#c7c7c7"></rect><rect x="84.41" y="334.36" width="141.36" height="4.54" style="fill:#ebebeb"></rect><rect x="84.41" y="343.01" width="141.36" height="4.54" style="fill:#ebebeb"></rect><rect x="84.41" y="351.65" width="141.36" height="4.54" style="fill:#ebebeb"></rect><rect x="84.41" y="168.43" width="141.36" height="141.36" style="fill:#dbdbdb"></rect><ellipse cx="145.77" cy="184.96" rx="30.97" ry="32.17" style="fill:#263238"></ellipse><path d="M130.94,208.11a4.27,4.27,0,1,1-4.26-4.26A4.27,4.27,0,0,1,130.94,208.11Z" style="fill:#263238"></path><path d="M176.19,201.72a4.27,4.27,0,1,1-4.27-4.26A4.27,4.27,0,0,1,176.19,201.72Z" style="fill:#263238"></path><path d="M180.46,181.81a4.27,4.27,0,1,1-4.27-4.26A4.27,4.27,0,0,1,180.46,181.81Z" style="fill:#263238"></path><path d="M121.19,177.94a4.27,4.27,0,1,1-4.27-4.27A4.27,4.27,0,0,1,121.19,177.94Z" style="fill:#263238"></path><path d="M126.68,166.45a4.27,4.27,0,1,1-4.27-4.27A4.27,4.27,0,0,1,126.68,166.45Z" style="fill:#263238"></path><path d="M131.87,161.63a4.27,4.27,0,1,1-4.27-4.27A4.27,4.27,0,0,1,131.87,161.63Z" style="fill:#263238"></path><path d="M137,156.3a4.27,4.27,0,1,1-4.27-4.26A4.27,4.27,0,0,1,137,156.3Z" style="fill:#263238"></path><path d="M143.75,155.56a4.27,4.27,0,1,1-4.27-4.27A4.27,4.27,0,0,1,143.75,155.56Z" style="fill:#263238"></path><path d="M163.52,155.56a4.27,4.27,0,1,1-4.27-4.27A4.27,4.27,0,0,1,163.52,155.56Z" style="fill:#263238"></path><path d="M173,163.93a4.27,4.27,0,1,1-4.27-4.27A4.27,4.27,0,0,1,173,163.93Z" style="fill:#263238"></path><circle cx="119.07" cy="196.68" r="4.27" style="fill:#263238"></circle><path d="M142.19,213.83a4.27,4.27,0,1,1-4.26-4.27A4.26,4.26,0,0,1,142.19,213.83Z" style="fill:#263238"></path><path d="M148.24,213.88a4.27,4.27,0,1,1-4.26-4.27A4.27,4.27,0,0,1,148.24,213.88Z" style="fill:#263238"></path><path d="M121.19,190.43a4.27,4.27,0,1,1-4.27-4.27A4.27,4.27,0,0,1,121.19,190.43Z" style="fill:#263238"></path><circle cx="121.97" cy="202.94" r="3.87" style="fill:#263238"></circle><path d="M150,153.48a3.88,3.88,0,1,1-3.87-3.87A3.88,3.88,0,0,1,150,153.48Z" style="fill:#263238"></path><path d="M120.8,184.21a3.88,3.88,0,1,1-3.88-3.88A3.88,3.88,0,0,1,120.8,184.21Z" style="fill:#263238"></path><circle cx="119.07" cy="172.07" r="3.87" style="fill:#263238"></circle><circle cx="152.44" cy="153.94" r="3.87" style="fill:#263238"></circle><path d="M136.22,211.45a3.88,3.88,0,1,1-3.87-3.88A3.87,3.87,0,0,1,136.22,211.45Z" style="fill:#263238"></path><path d="M153.91,215.32a3.88,3.88,0,1,1-3.88-3.87A3.88,3.88,0,0,1,153.91,215.32Z" style="fill:#263238"></path><circle cx="156.96" cy="213.88" r="3.87" style="fill:#263238"></circle><circle cx="162.42" cy="210" r="3.87" style="fill:#263238"></circle><path d="M172.58,207.32a3.88,3.88,0,1,1-3.88-3.88A3.88,3.88,0,0,1,172.58,207.32Z" style="fill:#263238"></path><path d="M179.45,196.26a3.88,3.88,0,1,1-3.87-3.88A3.87,3.87,0,0,1,179.45,196.26Z" style="fill:#263238"></path><path d="M179.45,189.1a3.88,3.88,0,1,1-3.87-3.87A3.88,3.88,0,0,1,179.45,189.1Z" style="fill:#263238"></path><path d="M168.7,158.31a3.88,3.88,0,1,1-3.87-3.88A3.87,3.87,0,0,1,168.7,158.31Z" style="fill:#263238"></path><circle cx="173.81" cy="168.88" r="3.87" style="fill:#263238"></circle><circle cx="174.66" cy="175.02" r="3.87" style="fill:#263238"></circle><path d="M143.9,232.63c6.19,8.17,39.89,34.38,69.06,34.9,9.91.17,38.86-41.18,44.49-57.09,4-11.41-20.28-18.07-27.26-16.64-8.71,1.79-23.95,37.22-30.13,37.61-9.91.63-28.65-5.75-49.34-9.32C140.07,220.24,139.13,226.35,143.9,232.63Z" style="fill:#774442"></path><path d="M256.72,212.21c1.71-3.42,8.15-19.76,8.93-24.71s2-19.36-1.76-20.34-4.42,3.21-4.42,3.21-.46-6.16-4.31-6.81-4.7,5.91-4.7,5.91-.93-6.29-4.81-6.66-3.64,6.37-3.64,6.37-.58-5.8-3.91-4.75c-4,1.25-1.71,11.82-3,17.22-.29,1.22-7.59,24.44-7.59,24.44Z" style="fill:#774442"></path><path d="M242,168.6c1.66,7.77,1,11.46-1.66,18.81-.05.14.15.25.22.11,3.3-7,4.74-11.47,1.81-19C242.23,168.13,241.92,168.23,242,168.6Z" style="fill:#263238"></path><path d="M250.32,168.86c1,8.22.38,12.23-1.88,20.13a.11.11,0,0,0,.2.07c2.87-7.57,4.2-12.1,2.1-20.19C250.65,168.51,250.27,168.48,250.32,168.86Z" style="fill:#263238"></path><path d="M259.34,170.77c.41,8-.1,12.45-3.28,19.84a.15.15,0,0,0,.27.13c4-7.21,4.65-12.73,3.25-20C259.49,170.29,259.31,170.26,259.34,170.77Z" style="fill:#263238"></path><path d="M222.13,209.55s-.78-9.93-.15-14.36,9-20.12,12.52-18.5c4.51,2.1,1.43,12.11-.71,16.81,0,0,10.43,4.84,9.78,12.5S222.13,209.55,222.13,209.55Z" style="fill:#774442"></path><path d="M235.55,177.68c2.73,4.87-.49,10.87-2.22,15.59a.45.45,0,0,0,.4.63c4.23,2.33,9.53,6.83,10.08,11.9a.12.12,0,1,0,.23,0c.15-5.51-4.69-10.36-9.49-12.61,1.86-4.81,4.82-11,1-15.53C235.57,177.62,235.53,177.64,235.55,177.68Z" style="fill:#263238"></path><path d="M210.31,215.57l34.52,22.68s-18.57,27.94-29.55,30.34-46.74-11.51-65-28.08-11.23-22.35,8.3-17.78,38.33,8.41,41.39,7S210.31,215.57,210.31,215.57Z" style="fill:#FFA4BB"></path><path d="M150.16,240.59a5.48,5.48,0,0,1,0-3.8,5.63,5.63,0,0,1,0,3.8Z" style="fill:#fff"></path><path d="M177.88,253.33a5.66,5.66,0,0,1,0-3.81,5.51,5.51,0,0,1,0,3.81Z" style="fill:#fff"></path><path d="M195.48,238.23a5.63,5.63,0,0,1,0-3.8,5.48,5.48,0,0,1,0,3.8Z" style="fill:#fff"></path><path d="M218,225a5.66,5.66,0,0,1,0-3.81,5.13,5.13,0,0,1,.34,1.9A5.35,5.35,0,0,1,218,225Z" style="fill:#fff"></path><path d="M215.57,255.23a5.3,5.3,0,0,1-.34-1.9,5.06,5.06,0,0,1,.34-1.9,5.63,5.63,0,0,1,0,3.8Z" style="fill:#fff"></path><path d="M237.22,246.94a5.66,5.66,0,0,1,0-3.81,5.66,5.66,0,0,1,0,3.81Z" style="fill:#fff"></path><path d="M152.08,223.71a5.66,5.66,0,0,1,3.81,0,5.51,5.51,0,0,1-3.81,0Z" style="fill:#fff"></path><path d="M167,241.61a5.66,5.66,0,0,1,3.81,0,5.66,5.66,0,0,1-3.81,0Z" style="fill:#fff"></path><path d="M213.33,264.33a5.66,5.66,0,0,1,3.81,0,5.51,5.51,0,0,1-3.81,0Z" style="fill:#fff"></path><path d="M192,250.33a5.66,5.66,0,0,1,3.81,0,5.51,5.51,0,0,1-3.81,0Z" style="fill:#fff"></path><path d="M223.87,246.05a5.51,5.51,0,0,1,3.81,0,5.66,5.66,0,0,1-3.81,0Z" style="fill:#fff"></path><path d="M206.68,230.57a5.48,5.48,0,0,1,3.8,0,5.63,5.63,0,0,1-3.8,0Z" style="fill:#fff"></path><path d="M205.67,258.85a5.21,5.21,0,0,1-1.59-1.11,5.29,5.29,0,0,1-1.11-1.58,5.57,5.57,0,0,1,2.7,2.69Z" style="fill:#fff"></path><path d="M219.32,238.13a5,5,0,0,1-1.58-1.11,4.89,4.89,0,0,1-1.11-1.58,5.12,5.12,0,0,1,1.58,1.11A5.29,5.29,0,0,1,219.32,238.13Z" style="fill:#fff"></path><path d="M191.2,261.58a5.12,5.12,0,0,1-1.58-1.11,4.89,4.89,0,0,1-1.11-1.58,5.29,5.29,0,0,1,1.58,1.11A5.12,5.12,0,0,1,191.2,261.58Z" style="fill:#fff"></path><path d="M175.27,232.25a5.29,5.29,0,0,1-1.58-1.11,5.12,5.12,0,0,1-1.11-1.58,5.12,5.12,0,0,1,1.58,1.11A5,5,0,0,1,175.27,232.25Z" style="fill:#fff"></path><path d="M144.73,232.75a5.12,5.12,0,0,1-1.58-1.11,5,5,0,0,1-1.11-1.58,4.89,4.89,0,0,1,1.58,1.11A5.12,5.12,0,0,1,144.73,232.75Z" style="fill:#fff"></path><path d="M183.91,238.79a5.14,5.14,0,0,1-1.1,1.58,5,5,0,0,1-1.59,1.11,5.61,5.61,0,0,1,2.69-2.69Z" style="fill:#fff"></path><path d="M228.47,254.81a5.29,5.29,0,0,1-1.11,1.58,5.12,5.12,0,0,1-1.58,1.11,5.61,5.61,0,0,1,2.69-2.69Z" style="fill:#fff"></path><path d="M162.19,232.75a4.89,4.89,0,0,1-1.11,1.58,5,5,0,0,1-1.58,1.11,5.12,5.12,0,0,1,1.11-1.58A5.29,5.29,0,0,1,162.19,232.75Z" style="fill:#fff"></path><path d="M208,243.69a5.61,5.61,0,0,1-2.69,2.69,5.61,5.61,0,0,1,2.69-2.69Z" style="fill:#fff"></path><path d="M231.16,232.27a5.61,5.61,0,0,1-2.69,2.69,5,5,0,0,1,1.11-1.58A5.12,5.12,0,0,1,231.16,232.27Z" style="fill:#fff"></path><path d="M202.41,266.18a3.63,3.63,0,0,1-.65,1.05l-.67-.18A5,5,0,0,1,202.41,266.18Z" style="fill:#fff"></path><path d="M199.47,266.61c-15.4-4.37-36.5-14.59-49.16-26.1-17.52-15.92-11.75-21.88,6-18.27Z" style="opacity:0.1"></path><path d="M238.67,243.5c-3.72-2.88-7.68-5.49-11.58-8.13s-7.81-5.13-11.78-7.6c-2.3-1.42-4.64-2.79-6.93-4.22-.07-.05-.16.08-.08.13,3.93,2.59,7.77,5.33,11.68,8s7.8,5.17,11.72,7.7c2.27,1.47,4.53,3,6.86,4.34C238.66,243.74,238.76,243.58,238.67,243.5Z" style="fill:#263238"></path><path d="M143,224c.41,1.4,7.66,10.25,14.13,9.6,2.1-.22,1.44-11.76,1.44-11.76l.15-.86,2-12.08-14.51-8.26-2.09-1.08s-.34,3.34-.72,7.51c0,.19,0,.38,0,.59s-.06.46-.08.68c-.06.62-.12,1.26-.17,1.89,0,.48-.09.95-.11,1.46s-.06,1-.1,1.51A80.3,80.3,0,0,0,143,224Z" style="fill:#774442"></path><path d="M143.48,207.05A24.58,24.58,0,0,0,158.76,221l2-12.08-14.51-8.26-2.09-1.08S143.86,202.88,143.48,207.05Z" style="fill:#263238"></path><path d="M175.86,187c5.06,20.9-6.89,26.29-11.4,27.38-4.09,1-18.15,3.82-25.34-16.45s.93-29.23,10.17-32S170.81,166.05,175.86,187Z" style="fill:#774442"></path><path d="M169.05,183.94a12.13,12.13,0,0,1-1.48-.06,2.41,2.41,0,0,1-1.51-.35.77.77,0,0,1-.15-.92,1.89,1.89,0,0,1,1.77-.75,2.82,2.82,0,0,1,1.89.68A.82.82,0,0,1,169.05,183.94Z" style="fill:#263238"></path><path d="M155,187a13.6,13.6,0,0,0,1.38-.54,2.36,2.36,0,0,0,1.3-.82.76.76,0,0,0-.15-.92,1.91,1.91,0,0,0-1.92-.13,2.79,2.79,0,0,0-1.56,1.26A.82.82,0,0,0,155,187Z" style="fill:#263238"></path><path d="M158.75,191.57s-.1.09-.09.15c.32,1.43.45,3.12-.75,3.85,0,0,0,.09,0,.08C159.48,195.12,159.28,192.88,158.75,191.57Z" style="fill:#263238"></path><path d="M157.17,190.32c-2.34.27-1.63,4.94.55,4.69S159.14,190.09,157.17,190.32Z" style="fill:#263238"></path><path d="M156.29,190.71c-.36.32-.69.85-1.18,1s-1.06-.28-1.51-.69c0,0-.08,0-.07.07.13.89.61,1.76,1.59,1.75s1.4-.9,1.49-1.84C156.62,190.8,156.44,190.57,156.29,190.71Z" style="fill:#263238"></path><path d="M167.15,189.7c0-.06.12.05.13.11.16,1.46.59,3.1,2,3.39.05,0,.05.08,0,.08C167.62,193.29,167.07,191.1,167.15,189.7Z" style="fill:#263238"></path><path d="M168.22,188c2.31-.52,3.17,4.13,1,4.61S166.29,188.43,168.22,188Z" style="fill:#263238"></path><path d="M169.25,188.12c.41.18.86.56,1.3.51s.8-.63,1-1.18c0,0,.07,0,.09,0,.18.89.06,1.87-.76,2.19s-1.46-.35-1.84-1.2C169,188.32,169.08,188.05,169.25,188.12Z" style="fill:#263238"></path><path d="M160.63,202.88c.39.31.78.74,1.32.73a3.8,3.8,0,0,0,1.52-.54c.05,0,.1,0,.07.07a2,2,0,0,1-1.76,1A1.56,1.56,0,0,1,160.5,203C160.47,202.88,160.57,202.84,160.63,202.88Z" style="fill:#263238"></path><path d="M165.81,196.66s.65,2.11.82,3.13c0,.1-.22.18-.56.26h0a4.92,4.92,0,0,1-5-1c-.09-.08,0-.21.13-.16a7.44,7.44,0,0,0,4.62.54c0-.3-1.24-3.58-1.08-3.62a8.75,8.75,0,0,1,2.4.15c-1.23-4.44-3.17-8.63-4.33-13.06,0-.16.18-.25.25-.11,2.34,4.25,3.87,9.32,5.27,13.86C168.47,197.19,166.25,196.77,165.81,196.66Z" style="fill:#263238"></path><path d="M165.86,199.69a6.07,6.07,0,0,1-2,2.3,2.69,2.69,0,0,1-1.59.42c-1.22-.08-1.47-1.14-1.43-2.09a6.4,6.4,0,0,1,.24-1.51A7.7,7.7,0,0,0,165.86,199.69Z" style="fill:#263238"></path><path d="M163.87,202a2.69,2.69,0,0,1-1.59.42c-1.22-.08-1.47-1.14-1.43-2.09A2.79,2.79,0,0,1,163.87,202Z" style="fill:#ff99ba"></path><path d="M140.22,197.81c3.84,1.36,1.85-4.95,1.85-4.95s3.15-2.1,1.24-6.57c0,0,4.56,1.09,4.71-5.3,0,0,3.85-.51,3.33-4.9,0,0,5.44,2.67,7.34-2.39,0,0,4.06,4.05,6.88-.31,0,0,1.7,2.85,4.7,1.69,0,0,.69,3.06,3,3.91,0,0-7.56-21.83-27.18-13C128,174.15,135.78,196.24,140.22,197.81Z" style="fill:#263238"></path><path d="M157.21,199.61a6.62,6.62,0,1,1,5.51-8.89h0a6.63,6.63,0,0,1-3.91,8.51A6.9,6.9,0,0,1,157.21,199.61Zm-1.31-12.3a5.66,5.66,0,0,0-1.38.33,5.71,5.71,0,1,0,1.38-.33Z" style="fill:#FFA4BB"></path><path d="M172,196.17c-2.52.27-5.08-2.07-5.85-5.44a8,8,0,0,1,.34-4.83,4.13,4.13,0,0,1,6.89-1.56,7.89,7.89,0,0,1,2.39,4.21c.81,3.56-.69,6.95-3.34,7.55Zm-2-12.18-.34,0a3.55,3.55,0,0,0-2.38,2.21,7,7,0,0,0-.29,4.28c.7,3.09,3,5.2,5.21,4.7s3.37-3.4,2.68-6.48a7.11,7.11,0,0,0-2.11-3.74A3.61,3.61,0,0,0,170.05,184Z" style="fill:#FFA4BB"></path><path d="M162.67,191.51,162,191c.79-1,2.81-2.67,4.77-1.34l-.5.74C164.48,189.18,162.75,191.42,162.67,191.51Z" style="fill:#FFA4BB"></path><path d="M135.6,199.64l-.86-.22c.11-.4,1.07-3.93,2.93-4.68s12.23-2.18,12.73-2.24l.11.88c-3.39.43-11.17,1.64-12.51,2.19S135.85,198.68,135.6,199.64Z" style="fill:#FFA4BB"></path><path d="M141.89,197.54s-5.65-5.93-8.41-3.82,2.19,11.2,5.92,12a3.64,3.64,0,0,0,4.53-2.66Z" style="fill:#774442"></path><path d="M135,196.29c-.06,0-.06.08,0,.1,2.63.62,4.28,2.72,5.56,5a2,2,0,0,0-3.05-.09c-.06,0,0,.15.08.12a2.23,2.23,0,0,1,2.55.4,10.53,10.53,0,0,1,1.47,1.79c.15.21.53,0,.41-.21l0-.06C141.53,200.14,138.4,196.09,135,196.29Z" style="fill:#263238"></path><path d="M184.62,309.79l-4.4-30.2s5.6-9.53,3.82-18.18-17.06-29.54-21.8-35.58c0,0-1.09-6.65-1.34-7.16s-21.16-3.22-21.66-2.72-.35,7.54-1.41,8.42a27,27,0,0,0-2,2c-13.46,14.62-24.37,63.05-28.48,83.43Z" style="fill:#FFA4BB"></path><path d="M157.17,265.39a5.66,5.66,0,0,1,0-3.81,5.66,5.66,0,0,1,0,3.81Z" style="fill:#fff"></path><path d="M168.26,287.1a5.66,5.66,0,0,1,0-3.81,5.51,5.51,0,0,1,0,3.81Z" style="fill:#fff"></path><path d="M140.32,287.83a5.66,5.66,0,0,1,0-3.81,4.9,4.9,0,0,1,.34,1.9A5.35,5.35,0,0,1,140.32,287.83Z" style="fill:#fff"></path><path d="M154.94,309.79a5.45,5.45,0,0,0,.32-1.84,5.35,5.35,0,0,0-.34-1.91,5.13,5.13,0,0,0-.33,1.91,5.2,5.2,0,0,0,.31,1.84Z" style="fill:#fff"></path><path d="M150.16,240.59a5.48,5.48,0,0,1,0-3.8,5.63,5.63,0,0,1,0,3.8Z" style="fill:#fff"></path><path d="M132.67,262.1a5.63,5.63,0,0,1,0-3.8,5.48,5.48,0,0,1,0,3.8Z" style="fill:#fff"></path><path d="M114.63,296.83a5.63,5.63,0,0,1,0-3.8,4.9,4.9,0,0,1,.34,1.9A5.3,5.3,0,0,1,114.63,296.83Z" style="fill:#fff"></path><path d="M177.88,253.33a5.66,5.66,0,0,1,0-3.81,5.51,5.51,0,0,1,0,3.81Z" style="fill:#fff"></path><path d="M143.39,256.94a5.63,5.63,0,0,1,3.8,0,5.48,5.48,0,0,1-3.8,0Z" style="fill:#fff"></path><path d="M141.48,299.32a5.66,5.66,0,0,1,3.81,0,5.51,5.51,0,0,1-3.81,0Z" style="fill:#fff"></path><path d="M175.42,264.33a5.66,5.66,0,0,1,3.81,0,5.51,5.51,0,0,1-3.81,0Z" style="fill:#fff"></path><path d="M128.55,241.16a5.63,5.63,0,0,1,3.8,0,5.48,5.48,0,0,1-3.8,0Z" style="fill:#fff"></path><path d="M128.41,274a5.66,5.66,0,0,1,3.81,0,5.51,5.51,0,0,1-3.81,0Z" style="fill:#fff"></path><path d="M115.13,307.61a5.63,5.63,0,0,1,3.8,0,4.87,4.87,0,0,1-1.9.34A5.3,5.3,0,0,1,115.13,307.61Z" style="fill:#fff"></path><path d="M167,241.61a5.66,5.66,0,0,1,3.81,0,5.66,5.66,0,0,1-3.81,0Z" style="fill:#fff"></path><path d="M154.59,277.07a5.3,5.3,0,0,1,1.9-.34,4.87,4.87,0,0,1,1.9.34,5.63,5.63,0,0,1-3.8,0Z" style="fill:#fff"></path><path d="M166,299.66a5.51,5.51,0,0,1,3.81,0,5.66,5.66,0,0,1-3.81,0Z" style="fill:#fff"></path><path d="M118.38,283a4.89,4.89,0,0,1-1.58-1.11,5.12,5.12,0,0,1-1.11-1.58,5.12,5.12,0,0,1,1.58,1.11A5.29,5.29,0,0,1,118.38,283Z" style="fill:#fff"></path><path d="M146.08,272a5.61,5.61,0,0,1-2.69-2.69,5.12,5.12,0,0,1,1.58,1.11A5.29,5.29,0,0,1,146.08,272Z" style="fill:#fff"></path><path d="M130.85,301a5.61,5.61,0,0,1-2.69-2.69,4.89,4.89,0,0,1,1.58,1.11A5.12,5.12,0,0,1,130.85,301Z" style="fill:#fff"></path><path d="M126.81,252.77a5.12,5.12,0,0,1-1.58-1.11,5,5,0,0,1-1.11-1.58,4.89,4.89,0,0,1,1.58,1.11A5.12,5.12,0,0,1,126.81,252.77Z" style="fill:#fff"></path><path d="M158.52,250.5a5,5,0,0,1-1.59-1.11,5.17,5.17,0,0,1-1.11-1.58,5,5,0,0,1,1.59,1.11A5.29,5.29,0,0,1,158.52,250.5Z" style="fill:#fff"></path><path d="M179.56,294.38a5.29,5.29,0,0,1-1.58-1.11,5.21,5.21,0,0,1-1.11-1.59,5.47,5.47,0,0,1,2.69,2.7Z" style="fill:#fff"></path><path d="M144.73,232.75a5.12,5.12,0,0,1-1.58-1.11,5,5,0,0,1-1.11-1.58,4.89,4.89,0,0,1,1.58,1.11A5.12,5.12,0,0,1,144.73,232.75Z" style="fill:#fff"></path><path d="M169.82,272.69a5,5,0,0,1-1.58-1.11,4.89,4.89,0,0,1-1.11-1.58,5.12,5.12,0,0,1,1.58,1.11A5.29,5.29,0,0,1,169.82,272.69Z" style="fill:#fff"></path><path d="M169.82,254.81a5.29,5.29,0,0,1-1.11,1.58,5.12,5.12,0,0,1-1.58,1.11,5.12,5.12,0,0,1,1.11-1.58A5,5,0,0,1,169.82,254.81Z" style="fill:#fff"></path><path d="M128.16,286.48a5.29,5.29,0,0,1-1.11,1.58,5.12,5.12,0,0,1-1.58,1.11,5.12,5.12,0,0,1,1.11-1.58A5,5,0,0,1,128.16,286.48Z" style="fill:#fff"></path><path d="M180.58,278.93a5,5,0,0,1-1.11,1.58,4.89,4.89,0,0,1-1.59,1.11A5.29,5.29,0,0,1,179,280,5.21,5.21,0,0,1,180.58,278.93Z" style="fill:#fff"></path><path d="M141.67,247.05a5.61,5.61,0,0,1-2.69,2.69,5,5,0,0,1,1.11-1.58A5.12,5.12,0,0,1,141.67,247.05Z" style="fill:#fff"></path><path d="M155.93,291.68a5.57,5.57,0,0,1-2.69,2.7,5.21,5.21,0,0,1,1.11-1.59A5.29,5.29,0,0,1,155.93,291.68Z" style="fill:#fff"></path><path d="M180,306a5.21,5.21,0,0,1-1.11,1.59,5.29,5.29,0,0,1-1.58,1.11,5,5,0,0,1,1.11-1.59A5.17,5.17,0,0,1,180,306Z" style="fill:#fff"></path><path d="M121.92,265.54a5.29,5.29,0,0,1-1.11,1.58,5,5,0,0,1-1.59,1.11,5.57,5.57,0,0,1,2.7-2.69Z" style="fill:#fff"></path><path d="M162.19,232.75a4.89,4.89,0,0,1-1.11,1.58,5,5,0,0,1-1.58,1.11,5.12,5.12,0,0,1,1.11-1.58A5.29,5.29,0,0,1,162.19,232.75Z" style="fill:#fff"></path><g style="opacity:0.1"><path d="M141.05,223.31a15.11,15.11,0,0,1-.18-2.84,14.26,14.26,0,0,1,.32-2.82,15,15,0,0,1,.18,2.83A14.27,14.27,0,0,1,141.05,223.31Z"></path><path d="M144.81,223.73a16.48,16.48,0,0,1,.13-5.66,14.33,14.33,0,0,1,.19,2.84A15,15,0,0,1,144.81,223.73Z"></path><path d="M148.57,224.16a14.28,14.28,0,0,1-.19-2.84,15,15,0,0,1,.32-2.82,14.22,14.22,0,0,1,.18,2.83A15,15,0,0,1,148.57,224.16Z"></path><path d="M152.32,224.58a15,15,0,0,1-.18-2.83,14.17,14.17,0,0,1,.32-2.82,16.09,16.09,0,0,1-.14,5.65Z"></path><path d="M156.08,225a15,15,0,0,1-.18-2.83,14.27,14.27,0,0,1,.32-2.83,15.06,15.06,0,0,1,.18,2.84A14.26,14.26,0,0,1,156.08,225Z"></path><path d="M159.84,225.44a15.06,15.06,0,0,1-.18-2.84,14.26,14.26,0,0,1,.32-2.82,15,15,0,0,1,.18,2.83A14.27,14.27,0,0,1,159.84,225.44Z"></path></g><path d="M131.74,229.14c-15.36,15.26-44.85,47.95-45.92,64a48.48,48.48,0,0,0,2.34,16.69h38.41c-3.68-5.87-6.66-10.71-6.88-12.06-.59-3.75,15.22-36.35,23.43-52.8C153.47,224.18,144.8,216.17,131.74,229.14Z" style="fill:#774442"></path><path d="M129.29,230.09c-14.94,14.18-38.79,45.15-43.54,59.08-1.61,4.7-.36,12.81,1.62,20.62h42.52c-2.67-3.83-8.37-12.26-8.09-14.18s15.42-35.39,23.4-51.79C153.41,226.94,148.56,211.8,129.29,230.09Z" style="fill:#FFA4BB"></path><path d="M133.52,231a5.26,5.26,0,0,1-.34-1.9,5.09,5.09,0,0,1,.34-1.9,5.63,5.63,0,0,1,0,3.8Z" style="fill:#fff"></path><path d="M132.67,262.1a5.63,5.63,0,0,1,0-3.8,5.48,5.48,0,0,1,0,3.8Z" style="fill:#fff"></path><path d="M110.23,275.09a5.35,5.35,0,0,1-.34-1.91,4.9,4.9,0,0,1,.34-1.9,5.66,5.66,0,0,1,0,3.81Z" style="fill:#fff"></path><path d="M114.63,296.83a5.63,5.63,0,0,1,0-3.8,4.9,4.9,0,0,1,.34,1.9A5.3,5.3,0,0,1,114.63,296.83Z" style="fill:#fff"></path><path d="M91.72,288.38a5.3,5.3,0,0,1-.34-1.9,4.9,4.9,0,0,1,.34-1.9,5.63,5.63,0,0,1,0,3.8Z" style="fill:#fff"></path><path d="M128.55,241.16a5.63,5.63,0,0,1,3.8,0,5.48,5.48,0,0,1-3.8,0Z" style="fill:#fff"></path><path d="M128.41,274a5.66,5.66,0,0,1,3.81,0,5.51,5.51,0,0,1-3.81,0Z" style="fill:#fff"></path><path d="M105,287.1a5.51,5.51,0,0,1,3.81,0,5.66,5.66,0,0,1-3.81,0Z" style="fill:#fff"></path><path d="M86.93,301a5.66,5.66,0,0,1,3.81,0,5.51,5.51,0,0,1-3.81,0Z" style="fill:#fff"></path><path d="M112.73,258.3a5.51,5.51,0,0,1,3.81,0,5.66,5.66,0,0,1-3.81,0Z" style="fill:#fff"></path><path d="M115.13,307.61a5.63,5.63,0,0,1,3.8,0,4.87,4.87,0,0,1-1.9.34A5.3,5.3,0,0,1,115.13,307.61Z" style="fill:#fff"></path><path d="M118.38,283a4.89,4.89,0,0,1-1.58-1.11,5.12,5.12,0,0,1-1.11-1.58,5.12,5.12,0,0,1,1.58,1.11A5.29,5.29,0,0,1,118.38,283Z" style="fill:#fff"></path><path d="M100.17,295.72a5.12,5.12,0,0,1-1.58-1.11A5,5,0,0,1,97.48,293a5.61,5.61,0,0,1,2.69,2.69Z" style="fill:#fff"></path><path d="M105.06,264.83a5,5,0,0,1-1.59-1.11,5.17,5.17,0,0,1-1.11-1.58,5,5,0,0,1,1.59,1.11A5.29,5.29,0,0,1,105.06,264.83Z" style="fill:#fff"></path><path d="M126.81,252.77a5.12,5.12,0,0,1-1.58-1.11,5,5,0,0,1-1.11-1.58,4.89,4.89,0,0,1,1.58,1.11A5.12,5.12,0,0,1,126.81,252.77Z" style="fill:#fff"></path><path d="M144.73,232.75a5.12,5.12,0,0,1-1.58-1.11,5,5,0,0,1-1.11-1.58,4.89,4.89,0,0,1,1.58,1.11A5.12,5.12,0,0,1,144.73,232.75Z" style="fill:#fff"></path><path d="M102.36,277.59a5.26,5.26,0,0,1-1.1,1.58,5,5,0,0,1-1.59,1.11,5,5,0,0,1,1.11-1.58A5.12,5.12,0,0,1,102.36,277.59Z" style="fill:#fff"></path><path d="M106.91,301.47a5,5,0,0,1-1.11,1.58,5.12,5.12,0,0,1-1.58,1.11,5.09,5.09,0,0,1,1.1-1.58A5.21,5.21,0,0,1,106.91,301.47Z" style="fill:#fff"></path><path d="M141.67,247.05a5.61,5.61,0,0,1-2.69,2.69,5,5,0,0,1,1.11-1.58A5.12,5.12,0,0,1,141.67,247.05Z" style="fill:#fff"></path><path d="M121.92,265.54a5.29,5.29,0,0,1-1.11,1.58,5,5,0,0,1-1.59,1.11,5.57,5.57,0,0,1,2.7-2.69Z" style="fill:#fff"></path><path d="M119.72,241.61a5.12,5.12,0,0,1-1.11,1.58A4.89,4.89,0,0,1,117,244.3a5.29,5.29,0,0,1,1.11-1.58A5.12,5.12,0,0,1,119.72,241.61Z" style="fill:#fff"></path><path d="M130.26,309.79c-2.48-4.08-8-13.31-8.06-13.69,0-1,1.74-4.64,2.17-5.57q5.32-11.37,10.45-22.82c.29-.65.57-1.31.86-2,.75-.93,1.43-1.92,2.08-2.9a32.79,32.79,0,0,0,2.29-4c0-.09-.08-.15-.13-.07-.88,1.25-1.72,2.53-2.56,3.8-.28.44-.57.88-.86,1.32q2-4.61,3.95-9.25a.11.11,0,0,0-.19-.1c-3.89,7.68-7.56,15.46-11.16,23.28-1.81,3.93-3.59,7.87-5.37,11.82-.45,1-2.53,5.23-2.53,6.15,0,1.46,5,9.44,8.29,14Z" style="fill:#263238"></path><path d="M121.6,309.79c1.47-.74,2.93-1.49,4.35-2.29.11-.06,0-.23-.09-.19-1.91.77-3.8,1.61-5.68,2.48Z" style="fill:#263238"></path></g><g id="freepik--magnifying-glass--inject-18"><path d="M407.39,286.81a77.25,77.25,0,0,0-11.91-131H326.66a77.14,77.14,0,0,0-40.61,50.75v36.88a77.28,77.28,0,0,0,121.34,43.35Z" style="fill:#dbdbdb"></path><path d="M438,231.42c-8.12,4.7-16.18,9.17-17.31,9.07-2.38-.21-41.52-15.71-57.36-22.1s-24.3,4.52-8.43,19.7c7,6.69,39,34.74,59.2,43A77.09,77.09,0,0,0,438,231.42Z" style="fill:#455a64"></path><path d="M394.78,270.14a368,368,0,0,1-39.84-32c-13.8-13.21-9.2-23.17,2.63-21.35Z" style="fill:#263238"></path><path d="M347,213.75a28.86,28.86,0,0,0-5,1,.91.91,0,0,1-.17,0,11.78,11.78,0,0,0-3.66,1.79c-8.38,6.69-20.42,35.28-30.79,64a77.37,77.37,0,0,0,79.39,17.25c-7.37-33.47-17.31-73.07-23.43-81C361.1,213.78,353.49,213,347,213.75Z" style="fill:#455a64"></path><polygon points="353.36 242.42 358.03 233.31 364.06 239.9 362.59 246.45 356.63 247.22 353.36 242.42" style="fill:#263238"></polygon><path d="M356.63,247.22l-2.33,54.71a77.28,77.28,0,0,0,17-.38l-8.7-55.1Z" style="fill:#263238"></path><path d="M360,232.48c-5.67,2-16.68-5.73-21.45-12.49-.33-.47-.16-5.77-.26-12.22-.08-3.91-.26-8.27-.71-12.23-.09-.81,2.85.37,2.85.37l5.27.66,17.42,2.19s-1.5,8.58-.67,15.49a8.53,8.53,0,0,0,.35,1.6c0,.08.05.17.07.27C363.7,219.15,365.45,230.51,360,232.48Z" style="fill:#d3766a"></path><path d="M362.78,215.85c0,.08.05.17.07.27a16.16,16.16,0,0,1-2.54.43C343.53,218.07,339,197,339,197l6.65-.46,17.42,2.19s-1.5,8.58-.67,15.49A8.53,8.53,0,0,0,362.78,215.85Z" style="fill:#263238"></path><path d="M331.82,165c-2.33,9,3.44,34.37,10,39.81,9.48,7.89,24.48,8,31-3.24,6.36-10.93-1.74-43.9-9-48.79C353.16,145.55,335.26,151.71,331.82,165Z" style="fill:#d3766a"></path><path d="M341.16,204.56s0,0,0,0" style="fill:none;stroke:#f3a59c;stroke-linecap:round;stroke-linejoin:round;stroke-width:0px"></path><path d="M353.62,180.15c0-.06-.11.12-.1.19.44,1.7.65,3.72-.77,4.63-.05,0,0,.11,0,.09C354.61,184.38,354.31,181.7,353.62,180.15Z" style="fill:#263238"></path><path d="M351.69,178.71c-2.8.4-1.79,6,.81,5.6S354,178.37,351.69,178.71Z" style="fill:#263238"></path><path d="M364.05,178c0-.07.15.05.16.12.26,1.74.85,3.68,2.51,4,0,0,.06.1,0,.1C364.77,182.22,364,179.63,364.05,178Z" style="fill:#263238"></path><path d="M365.26,175.86c2.74-.71,4,4.82,1.43,5.48S363,176.46,365.26,175.86Z" style="fill:#263238"></path><path d="M349,176.56a21.14,21.14,0,0,0,2-1.16,3.81,3.81,0,0,0,1.84-1.56,1.19,1.19,0,0,0-.45-1.39,3,3,0,0,0-3,.23,4.32,4.32,0,0,0-2.13,2.3A1.28,1.28,0,0,0,349,176.56Z" style="fill:#263238"></path><path d="M366.91,172.67a22.43,22.43,0,0,1-2.32-.18,3.73,3.73,0,0,1-2.33-.62,1.2,1.2,0,0,1-.19-1.45,3,3,0,0,1,2.81-1.08,4.38,4.38,0,0,1,2.92,1.16A1.28,1.28,0,0,1,366.91,172.67Z" style="fill:#263238"></path><path d="M355.4,196.15c.48.33,1,.81,1.63.75a4.71,4.71,0,0,0,1.78-.77.06.06,0,0,1,.09.07,2.37,2.37,0,0,1-2,1.34,1.88,1.88,0,0,1-1.64-1.29C355.2,196.16,355.32,196.1,355.4,196.15Z" style="fill:#263238"></path><path d="M356.27,190.65a6,6,0,0,0,4.4,1.9,7.34,7.34,0,0,0,2.13-.28,2.34,2.34,0,0,0,.4-.12l.36-.13a.44.44,0,0,0,.28-.45h0a.55.55,0,0,0,0-.17v0l0-.15c-.21-1.33-.7-3.33-.7-3.33.53.15,3.21.82,3,.13-1.39-5.68-2.93-12-5.51-17.37a.16.16,0,0,0-.3.1c1.11,5.51,3.19,10.8,4.4,16.32a10.74,10.74,0,0,0-2.93-.34c-.18.09,1,3.85,1.07,4.46a.09.09,0,0,1,0,.06c-2.18.69-4,.32-6.42-.78C356.26,190.39,356.14,190.53,356.27,190.65Z" style="fill:#263238"></path><path d="M361.9,192a7.09,7.09,0,0,1-2.52,2.57,3.29,3.29,0,0,1-1.9.38c-1.44-.18-1.65-1.45-1.54-2.58a7.52,7.52,0,0,1,.39-1.75A9.22,9.22,0,0,0,361.9,192Z" style="fill:#263238"></path><path d="M359.38,194.52a3.29,3.29,0,0,1-1.9.38c-1.44-.18-1.65-1.45-1.54-2.58C357.45,192.28,359.06,193.09,359.38,194.52Z" style="fill:#ff99ba"></path><path d="M334.17,184.3c5.87-1.14,5-12,5-12s9.77-3.58,9.78-11.45c0,0,10.74,4.28,17.75.12s4.17-13.33,3-15c-2.75-3.77-8,2.75-8,2.75s-10.58-3.92-21.14-.8c-8.59,2.54-11.41,11.63-11.41,11.63s-4.52,1.9-5.41,5.48S330.43,185,334.17,184.3Z" style="fill:#263238"></path><path d="M336.79,172.81c8-.46,12.18-6.63,11.89-14.32a.07.07,0,1,1,.14,0c1.11,7-3.91,16-12,14.69C336.58,173.13,336.58,172.82,336.79,172.81Z" style="fill:#263238"></path><path d="M329.29,159.37a.08.08,0,0,1,.08.14c-2,1.43-4.34,2.67-5.5,5-1.39,2.76-.39,5.83.82,8.43,1.88,4,5.11,9.11,9.37,10.88.25.1.08.46-.17.37-5.05-1.81-9.05-8.44-10.63-13.3C321.5,165.39,324.36,161.56,329.29,159.37Z" style="fill:#263238"></path><path d="M357.88,161.22a10.92,10.92,0,0,0,11.85-2.57c3.52-3.94,1.7-8.92-.87-12.87-.12-.19.11-.48.28-.29,3.13,3.3,4.39,9,1.63,12.91s-8.88,5.13-13.13,3.4C357.29,161.65,357.52,161.07,357.88,161.22Z" style="fill:#263238"></path><path d="M338.18,185.6s-6.3-7.91-9.92-5.61,1.47,14,6,15.37a4.48,4.48,0,0,0,5.85-2.78Z" style="fill:#d3766a"></path><path d="M329.8,183.31c-.07,0-.08.09,0,.12,3.16,1,5,3.82,6.29,6.71-1-1.08-2.28-1.63-3.74-.44-.08.06,0,.18.09.16a2.77,2.77,0,0,1,3.1.77,13.06,13.06,0,0,1,1.6,2.36c.16.27.65.09.53-.22l0-.07C337.46,188.76,334.05,183.44,329.8,183.31Z" style="fill:#263238"></path><path d="M362.78,215.58l-5.44,15-19-17.94-5,6.18s19,28.92,19.09,27.58l5.59-12.93,9.1,8.5-1.55-22.14Z" style="fill:#455a64"></path><path d="M367,231c-.38-3.65-.66-7.33-1.21-11,0-.13-.22-.18-.25,0-.59,3.56.93,17.5,1,20.85l0,0c-.38-.37-8.42-7.47-8.49-7.35-1.24,2.07-5.34,11.48-5.61,12.34-3-4.6-14.52-21.28-18-25.6a.12.12,0,0,0-.21.13c2.69,4.87,17.93,27.35,18.14,27.28A141.68,141.68,0,0,0,358.17,234c1.37,1.57,9.52,9.61,9.53,9.06A115.36,115.36,0,0,0,367,231Z" style="fill:#263238"></path><path d="M321.58,231.32a329.65,329.65,0,0,0-26.2,34.28c1.2,1.94,2.48,3.86,3.88,5.72A76.85,76.85,0,0,0,324,292.78c5.13-15.2,13.25-39.26,16.47-53.59C345.39,217.46,343,207.09,321.58,231.32Z" style="fill:#455a64"></path><path d="M332.32,268.39a18.28,18.28,0,0,0,2-3.38c.83-1.63,1.5-3.33,2.24-5,0-.05,0-.08-.07,0-.89,1.56-1.84,3.08-2.64,4.68l-.79,1.56c.2-.62.41-1.25.61-1.88,1.25-3.94,2.46-7.89,3.52-11.89,0-.1-.13-.16-.17-.07-2.82,6.79-5.15,13.78-7.46,20.75-2.13,6.41-4.13,12.86-6.06,19.34l.9.49c.85-2.56,1.71-5.13,2.54-7.7Q329.63,276.82,332.32,268.39Z" style="fill:#263238"></path><rect x="421.6" y="283.37" width="19.14" height="70.35" transform="translate(-104.89 322.19) rotate(-36.85)" style="fill:#37474f"></rect><rect x="450.69" y="324.89" width="28.95" height="78.02" rx="6.27" transform="translate(-125.3 351.63) rotate(-36.85)" style="fill:#263238"></rect><g style="opacity:0.2"><path d="M422.89,178.67a77.25,77.25,0,1,1-108.15-15.5A77.24,77.24,0,0,1,422.89,178.67Z" style="fill:#fff"></path><path d="M433.4,197.84a77.33,77.33,0,0,1-44.53,99.25Z" style="fill:#ebebeb"></path><path d="M372.91,148.66l-61,135.93A77.37,77.37,0,0,1,289.06,253l45-100.36A77.27,77.27,0,0,1,372.91,148.66Z" style="fill:#ebebeb"></path><path d="M418,172.75l-58.1,129.48a78,78,0,0,1-15.06-1.73l61.86-137.87A74.72,74.72,0,0,1,418,172.75Z" style="fill:#ebebeb"></path><path d="M383.22,151l-62.7,139.75c-.8-.49-1.59-1-2.36-1.51l62.36-139C381.42,150.47,382.33,150.71,383.22,151Z" style="fill:#ebebeb"></path><path d="M311.7,165.58l-27.83,62c-.09-2.31-.06-4.63.08-6.94l22.63-50.45C308.2,168.6,309.9,167.06,311.7,165.58Z" style="fill:#ebebeb"></path></g><path d="M361.07,312.22A87.23,87.23,0,1,1,448.3,225,87.33,87.33,0,0,1,361.07,312.22Zm0-164.46A77.23,77.23,0,1,0,438.3,225,77.32,77.32,0,0,0,361.07,147.76Z" style="fill:#263238"></path></g></svg>