<svg width="54" height="63" viewBox="0 0 54 63" fill="none" xmlns="http://www.w3.org/2000/svg">
<path d="M16.3921 62.4017C18.2836 62.8227 20.2562 62.697 22.0787 62.0392C23.9013 61.3814 25.4983 60.2188 26.6827 58.6876C26.6827 58.6876 29.7963 63.5516 37.0511 62.3706C44.3059 61.1895 54.9545 46.2401 53.242 31.3839C51.5295 16.5276 39.4486 10.3427 26.6204 18.6877C13.8389 10.3738 1.71127 16.6053 0.154449 31.4615C-1.40237 46.3178 9.15286 61.2362 16.3921 62.4017Z" fill="#FFA4BB"/>
<path d="M18.3854 0.303789C21.7494 2.20266 24.5304 4.98184 26.4289 8.34188C28.3273 11.7019 29.2711 15.5154 29.1587 19.3714C29.0497 22.93 23.4918 22.9611 23.6008 19.3714C23.7876 13.3885 19.4597 9.70548 14.2599 6.75288C11.1307 5.0124 15.2718 -1.46777 18.3854 0.303789Z" fill="#37474F"/>
<path d="M24.8301 21.982C24.8301 21.982 29.5005 6.44206 45.1933 7.87174C43.5602 11.9584 40.7588 15.4752 37.1379 17.9842C33.5171 20.4932 29.2368 21.8835 24.8301 21.982Z" fill="#37474F"/>
</svg>
