<svg width="115" height="117" viewBox="0 0 115 117" fill="none" xmlns="http://www.w3.org/2000/svg">
<path d="M71.8398 53.426C72.7949 54.3474 73.4553 55.5311 73.7379 56.8277C74.0205 58.1243 73.9125 59.4756 73.4275 60.7108C72.9425 61.946 72.1023 63.0097 71.013 63.7677C69.9237 64.5256 68.6342 64.9436 67.3074 64.969C65.9806 64.9945 64.6761 64.6261 63.5586 63.9104C62.4411 63.1947 61.5607 62.1639 61.0288 60.9482C60.4968 59.7324 60.3371 58.3863 60.5699 57.0799C60.8026 55.7734 61.4174 54.5652 62.3364 53.608C62.9479 52.9711 63.679 52.4611 64.4879 52.1071C65.2968 51.7532 66.1676 51.5623 67.0504 51.5454C67.9331 51.5285 68.8106 51.6859 69.6324 52.0086C70.4543 52.3313 71.2044 52.813 71.8398 53.426Z" fill="#FFA4BB"/>
<path opacity="0.3" d="M71.8398 53.426C72.7949 54.3474 73.4553 55.5311 73.7379 56.8277C74.0205 58.1243 73.9125 59.4756 73.4275 60.7108C72.9425 61.946 72.1023 63.0097 71.013 63.7677C69.9237 64.5256 68.6342 64.9436 67.3074 64.969C65.9806 64.9945 64.6761 64.6261 63.5586 63.9104C62.4411 63.1947 61.5607 62.1639 61.0288 60.9482C60.4968 59.7324 60.3371 58.3863 60.5699 57.0799C60.8026 55.7734 61.4174 54.5652 62.3364 53.608C62.9479 52.9711 63.679 52.4611 64.4879 52.1071C65.2968 51.7532 66.1676 51.5623 67.0504 51.5454C67.9331 51.5285 68.8106 51.6859 69.6324 52.0086C70.4543 52.3313 71.2044 52.813 71.8398 53.426Z" fill="white"/>
<path opacity="0.2" d="M68.5236 62.6463C66.9332 63.0947 65.2323 62.9276 63.7596 62.1781C62.2869 61.4287 61.1507 60.1519 60.5771 58.6023C60.5954 59.5938 60.8325 60.569 61.2714 61.4583C61.7103 62.3476 62.3403 63.1289 63.1162 63.7465C63.8921 64.364 64.7949 64.8026 65.76 65.0307C66.7251 65.2589 67.7286 65.2711 68.699 65.0664C69.6693 64.8617 70.5824 64.4452 71.3731 63.8467C72.1638 63.2482 72.8126 62.4824 73.273 61.604C73.7333 60.7257 73.994 59.7565 74.0364 58.7657C74.0787 57.7749 73.9017 56.787 73.5179 55.8726C73.9628 57.571 72.0014 61.5139 68.5236 62.6463Z" fill="black"/>
<path d="M64.9245 40.9704C66.3534 42.3602 67.3397 44.1415 67.7592 46.0902C68.1787 48.039 68.0128 50.0683 67.2823 51.923C66.5517 53.7777 65.2892 55.375 63.6534 56.5143C62.0176 57.6535 60.0815 58.2837 58.0885 58.3257C56.0956 58.3677 54.1347 57.8195 52.4524 56.7502C50.7701 55.6809 49.4414 54.1382 48.6334 52.3159C47.8254 50.4936 47.5742 48.4731 47.9112 46.5084C48.2483 44.5437 49.1586 42.7225 50.5278 41.2737C51.4481 40.2999 52.5528 39.5188 53.7777 38.9757C55.0025 38.4326 56.3231 38.1384 57.6627 38.1102C59.0023 38.0819 60.3341 38.3203 61.5807 38.8113C62.8273 39.3023 63.964 40.0362 64.9245 40.9704Z" fill="#FFA4BB"/>
<path opacity="0.2" d="M59.7285 54.7806C57.31 55.4582 54.7244 55.192 52.4947 54.0358C50.2649 52.8797 48.5575 50.9199 47.7178 48.5528C47.7842 50.0139 48.1669 51.4432 48.8395 52.742C49.512 54.0409 50.4583 55.1783 51.6132 56.0759C52.768 56.9735 54.1039 57.6098 55.5285 57.9409C56.9532 58.272 58.4327 58.2901 59.865 57.9939C61.2973 57.6976 62.6483 57.0941 63.8247 56.225C65.0011 55.3559 65.975 54.2419 66.679 52.9599C67.3831 51.6779 67.8005 50.2584 67.9027 48.7993C68.0048 47.3402 67.7891 45.8764 67.2705 44.5088C68.1198 47.1374 65.1676 53.1023 59.7285 54.7806Z" fill="black"/>
<path d="M64.0145 59.4919C65.4464 60.8805 66.4355 62.6617 66.8574 64.6111C67.2793 66.5606 67.1152 68.5914 66.3856 70.4478C65.6559 72.3042 64.3935 73.9032 62.7571 75.0438C61.1208 76.1843 59.1836 76.8153 57.1894 76.8574C55.1952 76.8995 53.2332 76.3507 51.5502 75.2802C49.8672 74.2097 48.5384 72.6653 47.7312 70.8413C46.9239 69.0173 46.6743 66.9953 47.0136 65.0298C47.3529 63.0642 48.266 61.243 49.6381 59.7952C50.5581 58.8245 51.6615 58.0459 52.8845 57.5046C54.1075 56.9633 55.4258 56.6701 56.763 56.6419C58.1001 56.6137 59.4295 56.8511 60.6743 57.3403C61.9191 57.8295 63.0544 58.5608 64.0145 59.4919Z" fill="#FFA4BB"/>
<path opacity="0.2" d="M58.8183 73.3428C56.3973 74.0144 53.8117 73.743 51.5828 72.5836C49.3539 71.4241 47.6475 69.4627 46.8076 67.0948C46.8741 68.5559 47.2567 69.9852 47.9293 71.284C48.6018 72.5829 49.5481 73.7203 50.703 74.6179C51.8578 75.5155 53.1937 76.1518 54.6183 76.4829C56.043 76.814 57.5225 76.8321 58.9548 76.5359C60.3871 76.2396 61.7381 75.6361 62.9145 74.767C64.0909 73.8979 65.0648 72.7839 65.7688 71.5019C66.4728 70.2199 66.8904 68.8003 66.9925 67.3413C67.0946 65.8822 66.8789 64.4184 66.3603 63.0508C67.2096 65.6794 64.2575 71.6241 58.8183 73.3428Z" fill="black"/>
<path d="M51.5993 54.2146C52.5632 55.135 53.2322 56.3208 53.5216 57.6217C53.8111 58.9226 53.708 60.2801 53.2254 61.5224C52.7428 62.7647 51.9023 63.8358 50.8105 64.6001C49.7188 65.3644 48.4247 65.7875 47.0923 65.8158C45.7599 65.8442 44.449 65.4765 43.3257 64.7593C42.2024 64.0421 41.3172 63.0077 40.7822 61.7871C40.2472 60.5665 40.0864 59.2146 40.3203 57.9025C40.5542 56.5905 41.1721 55.3774 42.0959 54.4168C43.3309 53.1326 45.0246 52.3903 46.8059 52.3524C48.5871 52.3145 50.3108 52.9841 51.5993 54.2146Z" fill="#FFA4BB"/>
<path opacity="0.3" d="M51.5993 54.2146C52.5632 55.135 53.2322 56.3208 53.5216 57.6217C53.8111 58.9226 53.708 60.2801 53.2254 61.5224C52.7428 62.7647 51.9023 63.8358 50.8105 64.6001C49.7188 65.3644 48.4247 65.7875 47.0923 65.8158C45.7599 65.8442 44.449 65.4765 43.3257 64.7593C42.2024 64.0421 41.3172 63.0077 40.7822 61.7871C40.2472 60.5665 40.0864 59.2146 40.3203 57.9025C40.5542 56.5905 41.1721 55.3774 42.0959 54.4168C43.3309 53.1326 45.0246 52.3903 46.8059 52.3524C48.5871 52.3145 50.3108 52.9841 51.5993 54.2146Z" fill="white"/>
<path opacity="0.2" d="M48.1623 63.354C46.5719 63.8025 44.8709 63.6353 43.3983 62.8859C41.9256 62.1364 40.7893 60.8597 40.2158 59.31C40.2341 60.3016 40.4712 61.2768 40.9101 62.1661C41.349 63.0553 41.9789 63.8367 42.7549 64.4542C43.5308 65.0718 44.4336 65.5103 45.3987 65.7385C46.3638 65.9667 47.3673 65.9789 48.3376 65.7742C49.308 65.5695 50.2211 65.153 51.0118 64.5545C51.8025 63.9559 52.4512 63.1901 52.9116 62.3118C53.372 61.4334 53.6327 60.4642 53.6751 59.4734C53.7174 58.4827 53.5404 57.4948 53.1566 56.5803C53.7025 58.299 51.7614 62.2419 48.1623 63.354Z" fill="black"/>
<path d="M55.421 38.443C32.2489 28.1713 12.2513 24.471 5.70002 29.2632C4.85568 29.847 4.19458 30.6588 3.79365 31.6038C3.39273 32.5488 3.26848 33.5883 3.43539 34.6012C4.44639 44.1249 24.0598 60.402 48.9506 73.0192C48.5164 72.4868 48.1496 71.9028 47.8587 71.2803C23.9587 58.8652 5.39675 43.4374 4.46663 34.4192C4.35431 33.7428 4.39986 33.0495 4.59979 32.3936C4.79972 31.7377 5.14864 31.1369 5.61918 30.6381C5.82346 30.4034 6.05414 30.1931 6.30665 30.0113C9.40031 27.7669 15.9516 27.6051 24.5047 29.2632C35.0002 31.5115 45.2182 34.9017 54.9761 39.3732C84.2143 52.3342 108.923 71.3814 110.035 81.8352C110.175 82.6686 110.076 83.5244 109.75 84.3042C109.425 85.084 108.886 85.756 108.195 86.2431C102.028 90.7319 82.0103 86.8901 59.4852 76.9217L59.1213 76.7599C58.4577 76.9072 57.7789 76.9751 57.0993 76.9621L59.1213 77.8923C82.3338 88.164 102.311 91.8643 108.862 87.0923C109.161 86.876 109.438 86.6323 109.691 86.3644C110.27 85.7544 110.7 85.0196 110.949 84.2166C111.198 83.4137 111.259 82.5643 111.127 81.734C110.723 77.8922 107.285 72.9181 101.684 67.58C91.5744 57.9351 74.448 46.8748 55.421 38.443Z" fill="#455A64"/>
<path d="M68.1395 0.429319C57.8879 3.96782 44.563 32.6802 38.4565 64.4256C33.6644 89.3367 34.554 109.658 40.7009 114.976C41.4621 115.66 42.3997 116.117 43.4075 116.296C44.4153 116.475 45.453 116.367 46.403 115.987C48.5011 115.127 50.3703 113.791 51.8624 112.084C60.9816 102.561 71.0108 78.3168 76.1264 51.9701C80.9388 27.0591 80.0491 6.75818 73.9224 1.42009C73.1541 0.719434 72.2009 0.253716 71.176 0.0781161C70.1511 -0.0974838 69.0973 0.0243989 68.1395 0.429319ZM75.0749 51.7477C74.6908 53.7697 74.3066 55.5895 73.882 57.5104C74.0634 59.0898 73.6918 60.6832 72.8305 62.0194C66.1782 89.1345 54.9156 111.922 46.0795 114.976C45.2986 115.303 44.4405 115.401 43.6059 115.258C42.7714 115.115 41.9951 114.736 41.3682 114.167C35.6257 109.172 34.8372 88.8109 39.4878 64.6278C44.5226 38.3418 54.3899 14.3811 63.2867 5.10013C64.7224 3.47795 66.5151 2.21127 68.5237 1.39987C69.3029 1.07416 70.1592 0.97914 70.9908 1.12611C71.8225 1.27308 72.5944 1.65586 73.2147 2.2289L73.4371 2.43109C78.9572 7.76918 79.6447 27.8881 75.0749 51.7477Z" fill="#455A64"/>
<path d="M62.4577 39.0293C31.1167 46.996 3.23331 61.9992 0.281191 72.4125C-0.0429059 73.3887 -0.0878256 74.436 0.151546 75.4364C0.390917 76.4368 0.905083 77.3503 1.63596 78.0741C7.29756 83.8773 27.6187 83.5942 52.186 77.326L54.5921 76.7194C53.9733 76.5783 53.3704 76.3751 52.7925 76.1128L51.9433 76.315C28.0634 82.381 7.68171 82.8056 2.36385 77.326C1.76012 76.7381 1.3367 75.9901 1.14329 75.1699C0.949883 74.3497 0.9945 73.4913 1.27195 72.6956C2.03607 70.5285 3.30438 68.5741 4.97225 66.9936C13.9297 57.6317 37.1625 46.5511 62.7003 40.0403C86.5397 33.9743 106.942 33.5699 112.239 39.0495C112.845 39.636 113.27 40.384 113.464 41.2047C113.657 42.0255 113.611 42.8845 113.331 43.6799C110.905 52.2734 90.6241 64.1425 65.5311 72.3518C65.2193 72.8909 64.8387 73.3871 64.3988 73.8279C85.0839 67.216 102.817 58.0159 110.48 49.9481C112.235 48.265 113.56 46.1845 114.342 43.8821C114.676 42.9085 114.728 41.8605 114.492 40.8588C114.256 39.857 113.741 38.9425 113.008 38.2205C107.306 32.4982 86.9846 32.7813 62.4577 39.0293Z" fill="#455A64"/>
<path d="M7.47966 63.3337C8.08342 63.9203 8.50013 64.6724 8.67739 65.4953C8.85465 66.3182 8.7845 67.1752 8.47579 67.9583C8.16708 68.7415 7.63361 69.4158 6.94251 69.8964C6.25141 70.377 5.4336 70.6424 4.59198 70.6593C3.75036 70.6761 2.92253 70.4436 2.21276 69.991C1.503 69.5384 0.942986 68.8859 0.603209 68.1158C0.263433 67.3456 0.159103 66.4921 0.303316 65.6628C0.447528 64.8334 0.833846 64.0653 1.41366 63.455C1.80375 63.0484 2.27021 62.7226 2.78633 62.4963C3.30244 62.2701 3.85808 62.1479 4.42149 62.1366C4.9849 62.1253 5.54504 62.2253 6.06979 62.4307C6.59454 62.6361 7.07363 62.943 7.47966 63.3337Z" fill="#FFA4BB"/>
<path opacity="0.5" d="M7.47966 63.3337C8.08342 63.9203 8.50013 64.6724 8.67739 65.4953C8.85465 66.3182 8.7845 67.1752 8.47579 67.9583C8.16708 68.7415 7.63361 69.4158 6.94251 69.8964C6.25141 70.377 5.4336 70.6424 4.59198 70.6593C3.75036 70.6761 2.92253 70.4436 2.21276 69.991C1.503 69.5384 0.942986 68.8859 0.603209 68.1158C0.263433 67.3456 0.159103 66.4921 0.303316 65.6628C0.447528 64.8334 0.833846 64.0653 1.41366 63.455C1.80375 63.0484 2.27021 62.7226 2.78633 62.4963C3.30244 62.2701 3.85808 62.1479 4.42149 62.1366C4.9849 62.1253 5.54504 62.2253 6.06979 62.4307C6.59454 62.6361 7.07363 62.943 7.47966 63.3337Z" fill="white"/>
<path opacity="0.2" d="M5.29556 69.1369C4.28195 69.4492 3.18619 69.3508 2.24442 68.8629C1.30266 68.375 0.590241 67.5366 0.260742 66.5285C0.277295 67.154 0.431293 67.7683 0.711755 68.3277C0.992218 68.8871 1.39233 69.378 1.88369 69.7656C2.37504 70.1531 2.94563 70.4278 3.55501 70.5701C4.16438 70.7125 4.79758 70.7191 5.40978 70.5894C6.02199 70.4597 6.59821 70.197 7.09752 69.8198C7.59683 69.4425 8.00703 68.9601 8.29907 68.4066C8.5911 67.8532 8.7578 67.2422 8.78735 66.6171C8.81691 65.992 8.70857 65.3681 8.47006 64.7896C8.49202 65.7623 8.19305 66.7152 7.61925 67.501C7.04545 68.2867 6.22881 68.8616 5.29556 69.1369Z" fill="black"/>
<path d="M62.7001 5.28206C63.3058 5.86666 63.725 6.61735 63.9049 7.43966C64.0848 8.26196 64.0176 9.11913 63.7115 9.90326C63.4053 10.6874 62.8741 11.3634 62.1846 11.8463C61.4951 12.3292 60.6782 12.5973 59.8366 12.617C58.9951 12.6366 58.1666 12.4069 57.4553 11.9567C56.7441 11.5065 56.1819 10.8559 55.8395 10.0869C55.4972 9.31793 55.3899 8.46484 55.5313 7.63504C55.6727 6.80523 56.0564 6.03581 56.6341 5.4236C57.0229 5.01555 57.4883 4.68816 58.0037 4.46017C58.5191 4.23218 59.0744 4.10806 59.6378 4.09492C60.2013 4.08177 60.7617 4.17986 61.2872 4.38356C61.8127 4.58727 62.2928 4.89259 62.7001 5.28206Z" fill="#FFA4BB"/>
<path opacity="0.5" d="M62.7001 5.28206C63.3058 5.86666 63.725 6.61735 63.9049 7.43966C64.0848 8.26196 64.0176 9.11913 63.7115 9.90326C63.4053 10.6874 62.8741 11.3634 62.1846 11.8463C61.4951 12.3292 60.6782 12.5973 59.8366 12.617C58.9951 12.6366 58.1666 12.4069 57.4553 11.9567C56.7441 11.5065 56.1819 10.8559 55.8395 10.0869C55.4972 9.31793 55.3899 8.46484 55.5313 7.63504C55.6727 6.80523 56.0564 6.03581 56.6341 5.4236C57.0229 5.01555 57.4883 4.68816 58.0037 4.46017C58.5191 4.23218 59.0744 4.10806 59.6378 4.09492C60.2013 4.08177 60.7617 4.17986 61.2872 4.38356C61.8127 4.58727 62.2928 4.89259 62.7001 5.28206Z" fill="white"/>
<path opacity="0.2" d="M60.4359 11.1055C59.4171 11.3865 58.3297 11.2717 57.3921 10.7841C56.4544 10.2965 55.7359 9.47233 55.3809 8.47694C55.4203 9.5999 55.891 10.6645 56.6951 11.4493C57.3995 12.14 58.3214 12.5653 59.304 12.6527C60.2866 12.7402 61.2692 12.4844 62.0845 11.929C62.8997 11.3736 63.4973 10.5528 63.7755 9.60634C64.0538 8.6599 63.9954 7.6463 63.6104 6.73804C63.6335 7.71341 63.3351 8.66931 62.7615 9.45851C62.1879 10.2477 61.3707 10.8264 60.4359 11.1055Z" fill="black"/>
<path d="M91.756 85.2927C92.3598 85.8793 92.7766 86.6314 92.9538 87.4543C93.1311 88.2772 93.0609 89.1342 92.7522 89.9173C92.4435 90.7005 91.91 91.3748 91.2189 91.8554C90.5278 92.336 89.71 92.6014 88.8683 92.6182C88.0267 92.6351 87.199 92.4026 86.4892 91.95C85.7794 91.4974 85.2194 90.8449 84.8796 90.0748C84.5398 89.3046 84.4355 88.4511 84.5797 87.6218C84.7239 86.7924 85.1102 86.0243 85.69 85.414C86.0801 85.0074 86.5466 84.6816 87.0627 84.4553C87.5788 84.2291 88.1345 84.1069 88.6979 84.0956C89.2613 84.0843 89.8214 84.1843 90.3462 84.3897C90.8709 84.5951 91.35 84.9019 91.756 85.2927Z" fill="#FFA4BB"/>
<path opacity="0.5" d="M91.756 85.2927C92.3598 85.8793 92.7766 86.6314 92.9538 87.4543C93.1311 88.2772 93.0609 89.1342 92.7522 89.9173C92.4435 90.7005 91.91 91.3748 91.2189 91.8554C90.5278 92.336 89.71 92.6014 88.8683 92.6182C88.0267 92.6351 87.199 92.4026 86.4892 91.95C85.7794 91.4974 85.2194 90.8449 84.8796 90.0748C84.5398 89.3046 84.4355 88.4511 84.5797 87.6218C84.7239 86.7924 85.1102 86.0243 85.69 85.414C86.0801 85.0074 86.5466 84.6816 87.0627 84.4553C87.5788 84.2291 88.1345 84.1069 88.6979 84.0956C89.2613 84.0843 89.8214 84.1843 90.3462 84.3897C90.8709 84.5951 91.35 84.9019 91.756 85.2927Z" fill="white"/>
<path opacity="0.2" d="M89.5728 91.0959C88.5592 91.4082 87.4635 91.3098 86.5217 90.8219C85.5799 90.334 84.8676 89.4956 84.5381 88.4875C84.549 89.0453 84.6708 89.5954 84.8965 90.1057C85.1221 90.616 85.4471 91.0763 85.8524 91.4598C86.5592 92.1377 87.4777 92.5517 88.4537 92.6325C89.4297 92.7132 90.4038 92.4557 91.2124 91.9032C92.021 91.3507 92.6149 90.5368 92.8944 89.5982C93.174 88.6596 93.122 87.6534 92.7474 86.7485C92.7694 87.7213 92.4703 88.6742 91.8965 89.46C91.3227 90.2457 90.5061 90.8206 89.5728 91.0959Z" fill="black"/>
</svg>
