<svg width="126" height="185" viewBox="0 0 126 185" fill="none" xmlns="http://www.w3.org/2000/svg">
<path d="M44.8803 6.68268C35.4432 5.985 20.5349 15.3853 16.7895 22.5273C12.8788 30.0365 -5.71988 133.642 1.75264 143.869C11.1346 156.721 59.3847 183.581 81.178 184.169C87.4159 184.289 93.5867 182.865 99.1412 180.024C104.696 177.183 109.461 173.012 113.014 167.883C117.953 160.282 118.522 52.5643 113.437 43.1823C105.064 28.0169 56.8877 7.58232 44.8803 6.68268Z" fill="#FFA4BB"/>
<path opacity="0.2" d="M44.8803 6.68268C35.4432 5.985 20.5349 15.3853 16.7895 22.5273C12.8788 30.0365 -5.71988 133.642 1.75264 143.869C11.1346 156.721 59.3847 183.581 81.178 184.169C87.4159 184.289 93.5867 182.865 99.1412 180.024C104.696 177.183 109.461 173.012 113.014 167.883C117.953 160.282 118.522 52.5643 113.437 43.1823C105.064 28.0169 56.8877 7.58232 44.8803 6.68268Z" fill="white"/>
<path opacity="0.1" d="M117.016 98.1156C117.016 93.599 117.016 89.1559 116.87 84.8413C116.87 83.1154 116.87 81.4079 116.759 79.7372C116.759 76.3957 116.576 73.1643 116.447 70.0982C116.447 68.5743 116.319 67.0688 116.245 65.6367C116.135 63.4702 116.007 61.4139 115.878 59.4861C115.75 57.5583 115.603 55.8141 115.437 54.1066L115.272 52.5093C115.121 49.375 114.502 46.2809 113.436 43.3293C113.198 42.907 112.922 42.4664 112.628 42.0441L112.316 41.6035L111.637 40.7222L111.215 40.1898L110.462 39.3452L109.966 38.8128L108.754 37.6193C108.479 37.3439 108.185 37.0869 107.891 36.8299L107.304 36.2974L106.313 35.4529L105.798 35.0306L104.642 34.0942C95.9575 37.142 94.966 36.6463 94.7274 36.7932C94.1949 37.0869 85.2719 41.7687 84.9231 54.9879L81.857 108.195L81.5449 113.263C81.2511 120.35 71.3551 185.252 91.5511 182.663H92.3589C106.074 178.679 110.719 171.647 113.014 167.975C113.558 166.866 113.918 165.675 114.079 164.45C114.226 163.771 114.354 163 114.483 162.137C114.483 161.715 114.593 161.274 114.666 160.815C114.832 159.438 115.015 157.877 115.162 156.188C115.162 155.619 115.272 155.05 115.327 154.444C116.098 145.503 116.612 133.091 116.851 119.799C116.851 117.137 116.851 114.438 116.98 111.739C116.98 109.903 116.98 108.067 116.98 106.231V103.513C117.035 101.677 117.035 99.9516 117.016 98.1156Z" fill="black"/>
<path opacity="0.4" d="M114.887 49.2411C114.706 47.1669 114.217 45.1312 113.437 43.2007C105.065 28.017 56.8882 7.58232 44.8807 6.68268C35.4437 5.985 20.5354 15.3853 16.7899 22.5273C15.6313 25.6104 14.7346 28.7857 14.1094 32.0195C32.4694 43.1273 79.8015 68.207 84.9239 66.6648C91.203 64.8288 114.3 50.1408 114.869 49.2778L114.887 49.2411Z" fill="black"/>
<path d="M59.5312 125.527C49.8004 120.258 28.3192 106.322 22.2421 103.128C21.2406 102.455 20.0773 102.063 18.873 101.992C17.6687 101.921 16.4674 102.174 15.3938 102.724C14.4758 103.293 11.2995 105.294 10.4733 105.753C9.80697 106.12 9.2439 106.648 8.83629 107.29C8.42868 107.932 8.18973 108.666 8.14159 109.425C7.35211 120.698 6.83804 125.325 7.02164 130.778C7.15016 134.45 7.62751 137.847 12.8601 142.088C18.0927 146.329 40.8591 160.172 47.634 163.918C54.0049 167.443 60.8715 170.178 63.8091 168.232C64.5619 167.718 68.0136 165.717 68.9316 165.111C69.4046 164.752 69.7837 164.285 70.0363 163.747C70.289 163.21 70.4076 162.62 70.382 162.027C70.6207 156.262 71.502 143.96 71.7774 139.756C72.1078 134.597 69.8128 131.163 59.5312 125.527Z" fill="#FFA4BB"/>
<path opacity="0.3" d="M59.5312 125.527C49.8004 120.258 28.3192 106.322 22.2421 103.128C21.2406 102.455 20.0773 102.063 18.873 101.992C17.6687 101.921 16.4674 102.174 15.3938 102.724C14.4758 103.293 11.2995 105.294 10.4733 105.753C9.80697 106.12 9.2439 106.648 8.83629 107.29C8.42868 107.932 8.18973 108.666 8.14159 109.425C7.35211 120.698 6.83804 125.325 7.02164 130.778C7.15016 134.45 7.62751 137.847 12.8601 142.088C18.0927 146.329 40.8591 160.172 47.634 163.918C54.0049 167.443 60.8715 170.178 63.8091 168.232C64.5619 167.718 68.0136 165.717 68.9316 165.111C69.4046 164.752 69.7837 164.285 70.0363 163.747C70.289 163.21 70.4076 162.62 70.382 162.027C70.6207 156.262 71.502 143.96 71.7774 139.756C72.1078 134.597 69.8128 131.163 59.5312 125.527Z" fill="black"/>
<path opacity="0.4" d="M65.9393 138.159L71.1352 135.276C69.8683 132.173 66.5819 129.327 59.5316 125.527C49.8008 120.258 28.3196 106.322 22.2425 103.128C21.241 102.455 20.0777 102.063 18.8734 101.992C17.6691 101.921 16.4678 102.174 15.3942 102.724C14.4762 103.293 11.2999 105.294 10.4737 105.753C9.47212 106.306 8.71753 107.218 8.3623 108.305L65.9393 138.159Z" fill="black"/>
<path d="M8.14159 109.443C7.35211 120.717 6.83804 125.343 7.02164 130.796C7.15016 134.468 7.62751 137.865 12.8601 142.106C18.0927 146.347 40.8591 160.191 47.634 163.936C55.9143 168.508 65.0392 171.776 65.2963 165.166C65.535 159.401 66.4162 147.081 66.6733 142.895C67.0221 137.718 64.7088 134.193 54.4455 128.63C44.7147 123.379 23.2335 109.443 17.1564 106.23C12.089 103.623 8.38027 106.065 8.14159 109.443Z" fill="#FFA4BB"/>
<path opacity="0.18" d="M8.14159 109.443C7.35211 120.717 6.83804 125.343 7.02164 130.796C7.15016 134.468 7.62751 137.865 12.8601 142.106C18.0927 146.347 40.8591 160.191 47.634 163.936C55.9143 168.508 65.0392 171.776 65.2963 165.166C65.535 159.401 66.4162 147.081 66.6733 142.895C67.0221 137.718 64.7088 134.193 54.4455 128.63C44.7147 123.379 23.2335 109.443 17.1564 106.23C12.089 103.623 8.38027 106.065 8.14159 109.443Z" fill="black"/>
<path d="M71.1356 135.276C70.1441 132.284 65.1869 134.248 64.0302 138.159C62.8736 142.069 62.8919 147.339 62.3228 148.973C61.7536 150.607 8.43615 118.899 6.98571 117.1C6.30639 116.274 7.15095 106.781 9.11547 105.092C11.08 103.403 15.6149 100.447 18.5709 101.09C21.5268 101.732 53.8771 121.286 60.2113 124.664C66.5455 128.042 71.5211 131.586 71.1356 135.276Z" fill="#FFA4BB"/>
<path opacity="0.1" d="M71.1356 135.276C70.1441 132.284 65.1869 134.248 64.0302 138.159C62.8736 142.069 62.8919 147.339 62.3228 148.973C61.7536 150.607 8.43615 118.899 6.98571 117.1C6.30639 116.274 7.15095 106.781 9.11547 105.092C11.08 103.403 15.6149 100.447 18.5709 101.09C21.5268 101.732 53.8771 121.286 60.2113 124.664C66.5455 128.042 71.5211 131.586 71.1356 135.276Z" fill="black"/>
<path d="M45.7978 145.191L52.2422 148.697C52.4062 148.812 52.5968 148.883 52.796 148.904C52.9951 148.924 53.1962 148.893 53.3801 148.814C53.5641 148.735 53.7247 148.61 53.8469 148.452C53.9691 148.293 54.0487 148.106 54.0782 147.908L54.886 144.64C54.9421 144.287 54.8938 143.925 54.747 143.598C54.6002 143.272 54.3614 142.996 54.0598 142.804L47.5971 139.132C47.4375 139.006 47.2471 138.925 47.0457 138.898C46.8443 138.871 46.6393 138.898 46.4519 138.977C46.2646 139.055 46.1017 139.183 45.9802 139.346C45.8587 139.508 45.7831 139.701 45.7611 139.903L44.9165 143.299C44.8541 143.667 44.905 144.045 45.0625 144.382C45.2199 144.72 45.4764 145.002 45.7978 145.191Z" fill="#37474F"/>
<path d="M14.0169 126.169L20.4613 129.695C20.6266 129.804 20.8166 129.871 21.0142 129.889C21.2118 129.907 21.4107 129.875 21.593 129.797C21.7753 129.718 21.9351 129.596 22.0581 129.44C22.1811 129.284 22.2633 129.101 22.2973 128.905L23.1051 125.637C23.1807 125.27 23.1421 124.888 22.9944 124.544C22.8467 124.199 22.597 123.908 22.2789 123.709L15.8162 120.037C15.6549 119.917 15.4651 119.841 15.2655 119.817C15.066 119.793 14.8636 119.821 14.6783 119.899C14.4929 119.977 14.3311 120.102 14.2087 120.261C14.0863 120.421 14.0075 120.609 13.9802 120.808L13.1356 124.223C13.0611 124.599 13.106 124.989 13.2641 125.338C13.4221 125.687 13.6854 125.978 14.0169 126.169Z" fill="#37474F"/>
<path opacity="0.15" d="M5.3877 79.7555C6.63618 71.5853 7.37058 65.9855 8.74758 59.1188C11.4098 57.2828 15.1185 54.896 15.1185 54.896L38.1236 62.9744L59.6599 70.5755L64.5436 72.2829C66.0675 72.8337 67.6097 73.7885 69.1336 74.2108C73.0627 75.2756 78.9379 72.0993 81.9856 69.8227C85.0334 67.546 86.8143 65.4163 90.5965 64.6085C90.0579 72.0626 89.4459 79.5107 88.7605 86.9526C88.1362 93.9478 88.0261 101.053 85.6209 107.681C85.032 109.375 84.033 110.897 82.7132 112.111C81.3934 113.325 79.7936 114.194 78.0566 114.639C73.8944 115.459 69.6088 115.422 65.4616 114.529C65.4616 114.529 64.8557 120.808 64.1581 123.911C63.6073 125.042 62.8364 126.051 61.8906 126.881C60.9449 127.71 59.8432 128.342 58.6501 128.74C54.9781 127.785 54.9781 110.766 54.9781 110.766L27.6951 95.8755C27.6951 95.8755 26.722 101.989 25.8591 105.056C24.3352 107.424 21.3976 110.013 20.3511 109.737C15.7795 108.562 17.7807 90.2574 17.7807 90.2574C17.7807 90.2574 9.44526 85.5939 5.3877 79.7555Z" fill="black"/>
<path d="M43.9068 6.62769C33.5334 5.98509 21.7463 12.1357 15.9812 19.9203C10.2162 27.705 2.54172 67.2157 5.97504 74.4312C9.40836 81.6466 37.5175 98.2991 54.574 106.488C68.2154 113.079 75.3391 111.537 80.8104 108.819C84.923 106.781 85.0699 100.098 85.6024 95.1596C87.0161 82.4178 88.8337 59.5596 97.0039 52.5277C105.174 45.4958 112.885 43.4579 114.868 49.2596C114.868 49.2596 117.677 40.9058 102.255 31.7074C76.7161 16.4686 56.667 7.41717 43.9068 6.62769Z" fill="#FFA4BB"/>
<path opacity="0.1" d="M43.9068 6.62769C33.5334 5.98509 21.7463 12.1357 15.9812 19.9203C10.2162 27.705 2.54172 67.2157 5.97504 74.4312C9.40836 81.6466 37.5175 98.2991 54.574 106.488C68.2154 113.079 75.3391 111.537 80.8104 108.819C84.923 106.781 85.0699 100.098 85.6024 95.1596C87.0161 82.4178 88.8337 59.5596 97.0039 52.5277C105.174 45.4958 112.885 43.4579 114.868 49.2596C114.868 49.2596 117.677 40.9058 102.255 31.7074C76.7161 16.4686 56.667 7.41717 43.9068 6.62769Z" fill="black"/>
<path d="M36.9857 43.3476L46.79 37.7477C47.0296 37.6105 47.2941 37.522 47.5681 37.4874C47.842 37.4528 48.1202 37.4728 48.3864 37.5462C48.6527 37.6196 48.9017 37.7449 49.1193 37.915C49.3369 38.0851 49.5187 38.2966 49.6541 38.5372L59.7154 56.016C59.8534 56.2545 59.943 56.518 59.9789 56.7912C60.0148 57.0644 59.9964 57.3421 59.9248 57.6082C59.8531 57.8743 59.7296 58.1237 59.5614 58.342C59.3931 58.5602 59.1834 58.7431 58.9443 58.8801L49.2686 64.535C48.7857 64.8088 48.2143 64.8814 47.6783 64.7371C47.1422 64.5928 46.6846 64.2431 46.4044 63.7639L36.233 46.1934C36.0946 45.9573 36.0044 45.6962 35.9673 45.4251C35.9303 45.154 35.9473 44.8783 36.0172 44.6138C36.0872 44.3493 36.2088 44.1013 36.375 43.884C36.5412 43.6666 36.7488 43.4844 36.9857 43.3476Z" fill="#FAFAFA"/>
<path d="M47.506 62.5339L37.8487 45.8813C37.7797 45.7621 37.7349 45.6303 37.7169 45.4937C37.699 45.3571 37.7082 45.2183 37.744 45.0853C37.7798 44.9522 37.8416 44.8275 37.9257 44.7184C38.0098 44.6092 38.1147 44.5178 38.2342 44.4493L47.1205 39.3636C47.2398 39.2946 47.3715 39.2498 47.5081 39.2318C47.6447 39.2139 47.7835 39.2231 47.9166 39.2589C48.0497 39.2947 48.1743 39.3565 48.2835 39.4406C48.3926 39.5247 48.4841 39.6295 48.5526 39.7491L58.0998 56.2731C58.2343 56.5151 58.2692 56.8 58.1973 57.0673C58.1253 57.3347 57.952 57.5634 57.7142 57.7052L48.9381 62.8276C48.7083 62.9752 48.4299 63.0271 48.1623 62.9723C47.8947 62.9174 47.6592 62.76 47.506 62.5339Z" fill="#37474F"/>
<path d="M45.4307 54.5657C45.1686 54.4153 44.9477 54.2025 44.7876 53.9463C44.6275 53.6901 44.533 53.3984 44.5127 53.0969V45.1287C44.5127 44.6146 44.9166 44.431 45.4307 44.7431C45.6937 44.8895 45.9167 45.0985 46.08 45.3514C46.2433 45.6043 46.3419 45.8935 46.367 46.1935V54.1618C46.367 54.6758 45.9448 54.8594 45.4307 54.5657Z" fill="#FFA4BB"/>
<path d="M50.6268 57.5581C50.3664 57.404 50.1459 57.1907 49.9833 56.9355C49.8206 56.6804 49.7203 56.3904 49.6904 56.0893V48.1211C49.6904 47.607 50.1127 47.4234 50.6268 47.7355C50.8888 47.8859 51.1097 48.0987 51.2699 48.3549C51.43 48.6111 51.5244 48.9028 51.5448 49.2043V57.1726C51.5631 57.7234 51.1409 57.8519 50.6268 57.5581Z" fill="#FFA4BB"/>
<path d="M56.4475 84.8962L65.4623 88.9355C65.4623 88.9355 62.5797 111.335 61.9371 122.369C61.9371 122.369 59.4769 126.977 57.4206 127.638C55.3643 128.299 53.0509 122.81 52.8673 118.807C52.6837 114.805 54.8685 94.4434 56.4475 84.8962Z" fill="#455A64"/>
<path d="M56.0436 87.0996L65.2236 90.9368C65.4579 91.0553 65.7177 91.1142 65.9802 91.1083C66.2427 91.1023 66.4997 91.0318 66.7284 90.9029C66.9571 90.774 67.1506 90.5907 67.2916 90.3693C67.4326 90.1478 67.5169 89.895 67.5369 89.6333L68.1795 85.0983C68.2335 84.589 68.1282 84.0754 67.8784 83.6283C67.6285 83.1811 67.2462 82.8224 66.7842 82.6014L57.6042 78.6173C57.3738 78.4976 57.1172 78.4374 56.8577 78.4419C56.5981 78.4464 56.3438 78.5156 56.1177 78.6432C55.8917 78.7708 55.701 78.9528 55.5631 79.1727C55.4251 79.3926 55.3441 79.6434 55.3275 79.9024L54.6666 84.6393C54.6163 85.1411 54.7214 85.6462 54.9677 86.0863C55.214 86.5263 55.5896 86.8801 56.0436 87.0996Z" fill="#37474F"/>
<path d="M57.6409 114.382C58.3687 114.784 58.9715 115.379 59.383 116.101C59.7944 116.824 59.9984 117.646 59.9726 118.477C60.0135 118.811 59.9615 119.151 59.8222 119.458C59.6829 119.765 59.4617 120.028 59.1829 120.218C58.9041 120.407 58.5784 120.516 58.2417 120.533C57.9049 120.55 57.57 120.474 57.2737 120.313C56.5445 119.913 55.9405 119.318 55.5289 118.595C55.1173 117.873 54.9141 117.05 54.942 116.218C55.0521 114.493 56.2639 113.722 57.6409 114.382Z" fill="#E0E0E0"/>
<path d="M19.1766 66.114L27.9894 70.6673C27.9894 70.6673 25.3823 92.6993 24.1522 103.715C24.1522 103.715 21.4716 108.195 19.3786 108.746C17.2855 109.297 15.2659 103.697 15.2843 99.6761C15.8715 88.4177 17.1716 77.2079 19.1766 66.114Z" fill="#455A64"/>
<path d="M18.6619 68.2622L27.6583 72.5768C27.8893 72.7049 28.1482 72.7745 28.4123 72.7793C28.6765 72.7842 28.9378 72.7242 29.1733 72.6046C29.4089 72.485 29.6116 72.3094 29.7635 72.0933C29.9155 71.8772 30.0122 71.6271 30.0451 71.365L30.908 66.8852C30.9934 66.3805 30.9168 65.8618 30.6892 65.4033C30.4616 64.9449 30.0947 64.5703 29.6411 64.3332L20.6264 59.8717C20.4029 59.7382 20.1495 59.6627 19.8893 59.6522C19.6292 59.6416 19.3706 59.6963 19.137 59.8113C18.9034 59.9263 18.7022 60.0978 18.5519 60.3104C18.4016 60.523 18.3068 60.7698 18.2763 61.0283L17.395 65.7285C17.322 66.2296 17.4043 66.7412 17.6308 67.1942C17.8573 67.6472 18.2171 68.0199 18.6619 68.2622Z" fill="#37474F"/>
<path d="M20.3509 95.5267C21.0572 95.965 21.6293 96.5891 22.0049 97.3306C22.3805 98.072 22.5451 98.9025 22.4807 99.7312C22.4893 100.061 22.4088 100.387 22.2477 100.675C22.0866 100.963 21.8508 101.203 21.5652 101.368C21.2796 101.533 20.9547 101.619 20.6247 101.615C20.2947 101.611 19.9718 101.519 19.69 101.347C18.9798 100.914 18.4054 100.29 18.0321 99.547C17.6588 98.8037 17.5017 97.9706 17.5786 97.1424C17.6888 95.5084 18.9372 94.7923 20.3509 95.5267Z" fill="#E0E0E0"/>
<path d="M124.214 122.167C123.663 121.855 115.732 115.209 114.796 114.676C113.162 113.721 87.7513 128.997 85.4195 131.696C83.7304 133.532 84.575 164.01 85.4195 166.213C85.7133 167.002 94.5995 172.914 94.8382 173.722C95.6828 175.925 122.378 160.448 124.214 156.445C126.05 152.443 126.638 123.562 124.214 122.167Z" fill="#FFA4BB"/>
<path opacity="0.18" d="M124.214 122.167C123.663 121.855 115.732 115.209 114.796 114.676C113.162 113.721 87.7513 128.997 85.4195 131.696C83.7304 133.532 84.575 164.01 85.4195 166.213C85.7133 167.002 94.5995 172.914 94.8382 173.722C95.6828 175.925 122.378 160.448 124.214 156.445C126.05 152.443 126.638 123.562 124.214 122.167Z" fill="black"/>
<path d="M94.7465 139.187C93.0574 141.023 93.8836 171.5 94.7465 173.722C95.6095 175.943 122.287 160.448 124.123 156.445C125.959 152.443 126.546 123.562 124.123 122.167C122.58 121.231 97.1517 136.506 94.7465 139.187Z" fill="#FFA4BB"/>
<path opacity="0.4" d="M114.813 114.64C115.731 115.172 123.663 121.818 124.214 122.13C122.58 121.194 97.151 136.47 94.8376 139.15L85.4189 131.659C87.7323 128.997 113.161 113.722 114.813 114.64Z" fill="black"/>
<path opacity="0.3" d="M94.7465 139.187C93.0574 141.023 93.8836 171.5 94.7465 173.722C95.6095 175.943 122.287 160.448 124.123 156.445C125.959 152.443 126.546 123.562 124.123 122.167C122.58 121.231 97.1517 136.506 94.7465 139.187Z" fill="black"/>
<path d="M85.3271 131.696C87.1631 130.594 92.5243 133.807 94.7642 135.955C97.0041 138.104 99.0788 147.743 105.083 149.56C111.086 151.378 120.101 143.795 122.176 138.728C124.25 133.66 126.949 122.957 124.214 118.936C121.478 114.915 116.429 112.528 112.004 114.639C107.579 116.751 86.0983 126.977 85.3271 131.696Z" fill="#FFA4BB"/>
<path opacity="0.2" d="M85.3271 131.696C87.1631 130.594 92.5243 133.807 94.7642 135.955C97.0041 138.104 99.0788 147.743 105.083 149.56C111.086 151.378 120.101 143.795 122.176 138.728C124.25 133.66 126.949 122.957 124.214 118.936C121.478 114.915 116.429 112.528 112.004 114.639C107.579 116.751 86.0983 126.977 85.3271 131.696Z" fill="black"/>
<path d="M112.501 137.332C111.78 137.737 111.182 138.33 110.771 139.048C110.361 139.766 110.153 140.582 110.169 141.408C110.128 141.743 110.18 142.083 110.319 142.39C110.459 142.697 110.68 142.96 110.959 143.149C111.237 143.339 111.563 143.448 111.9 143.465C112.237 143.482 112.571 143.405 112.868 143.244C113.603 142.851 114.211 142.258 114.624 141.533C115.036 140.809 115.236 139.983 115.199 139.15C115.108 137.443 113.988 136.671 112.501 137.332Z" fill="#37474F"/>
<path d="M85.0152 32.0195C86.5207 32.9008 90.8904 30.7343 91.5514 29.6511C92.2123 28.5678 92.3776 19.2043 89.1095 14.0267C85.8414 8.84921 65.4802 -0.661315 60.4495 0.0363648C58.5645 0.340339 56.7615 1.0265 55.1513 2.05261C53.5411 3.07873 52.1577 4.42314 51.0859 6.00336C50.4617 7.34364 49.7824 16.0463 51.0859 17.8272C52.3895 19.6081 57.0529 16.8725 57.4569 16.1197C57.8608 15.367 55.933 8.99609 59.2929 7.65581C62.2672 6.46241 76.4595 12.4845 82.2429 17.3499C84.7582 19.4429 84.6297 24.6939 84.5195 27.301C84.4093 29.9081 84.2625 31.5238 85.0152 32.0195Z" fill="#455A64"/>
<path d="M60.4494 7.4539C56.7774 7.12342 53.4726 7.45392 52.6097 11.0341C51.7468 14.6143 52.0589 17.9008 52.6097 18.3781C54.4307 18.1562 56.131 17.3511 57.4567 16.0831C57.8607 15.312 55.9329 8.95941 59.2927 7.61913C59.6899 7.49307 60.1072 7.44326 60.5229 7.47228L60.4494 7.4539Z" fill="#37474F"/>
</svg>
