<svg width="190" height="155" viewBox="0 0 190 155" fill="none" xmlns="http://www.w3.org/2000/svg">
<path d="M4.60971 111.473L7.5416 109.916L4.87258 109.269C4.6186 109.571 4.4584 109.94 4.41169 110.332C4.36499 110.723 4.43382 111.12 4.60971 111.473Z" fill="#FFA4BB"/>
<path opacity="0.5" d="M4.60971 111.473L7.5416 109.916L4.87258 109.269C4.6186 109.571 4.4584 109.94 4.41169 110.332C4.36499 110.723 4.43382 111.12 4.60971 111.473Z" fill="black"/>
<path d="M82.3153 150.639C81.3781 151.125 80.3379 151.378 79.2823 151.378C78.2267 151.378 77.1865 151.125 76.2493 150.639L9.24023 111.938L109.754 54.9986L112.099 53.6438L179.007 91.3946C179.362 91.5238 179.668 91.759 179.885 92.0683C180.101 92.3775 180.217 92.7459 180.217 93.1234C180.217 93.5009 180.101 93.8692 179.885 94.1785C179.668 94.4877 179.362 94.7229 179.007 94.8522L82.3153 150.639Z" fill="#FFA4BB"/>
<path d="M57.1822 78.4941L33.8079 91.9404L18.7642 83.3065L1.17285 93.4165V105.144C1.17285 106.681 2.89156 108.885 3.51838 108.521C4.67523 108.802 5.79999 109.202 6.87488 109.714C8.63937 110.711 10.2758 111.92 11.7479 113.313L65.2702 83.3065L57.1822 78.4941Z" fill="#FFA4BB"/>
<path opacity="0.15" d="M57.1822 78.4941L33.8079 91.9404L18.7642 83.3065L1.17285 93.4165V105.144C1.17285 106.681 2.89156 108.885 3.51838 108.521C4.67523 108.802 5.79999 109.202 6.87488 109.714C8.63937 110.711 10.2758 111.92 11.7479 113.313L65.2702 83.3065L57.1822 78.4941Z" fill="black"/>
<path d="M10.6766 94.7915V107.571C10.6138 107.523 10.546 107.482 10.4743 107.449C9.6183 106.905 8.63622 106.592 7.62334 106.539C6.95807 106.474 6.28989 106.63 5.72266 106.984V91.9607L10.6766 94.7915Z" fill="#37474F"/>
<path d="M14.0121 111.918C13.9633 111.119 13.6664 110.356 13.1628 109.734C12.9101 109.403 12.6402 109.086 12.354 108.784L12.071 108.521L11.6868 108.218L11.3835 107.975L10.6758 107.571V94.832L13.9514 96.7327V111.918H14.0121Z" fill="#E0E0E0"/>
<path opacity="0.4" d="M1.07129 105.104C1.07129 106.64 2.79 108.844 3.41682 108.48L5.76234 106.944V97.2583L3.41682 93.2143L2.12274 92.7493L1.07129 93.3761V105.104Z" fill="black"/>
<path d="M79.424 134.403V148.941C78.7203 148.972 78.0213 148.811 77.402 148.476L70.0419 144.23L14.0527 111.878V96.6519L79.424 134.403Z" fill="#EBEBEB"/>
<path d="M177.33 79.7681V90.7475C177.287 91.4391 177.081 92.1108 176.73 92.708C176.378 93.3052 175.891 93.8112 175.308 94.1849L88.6246 144.229L81.2847 148.476C80.6626 148.804 79.9657 148.964 79.2627 148.941V136.04L177.33 79.7681Z" fill="#F5F5F5"/>
<path d="M109.754 36.0727L9.44293 93.9827V95.4386C9.44293 96.1665 8.3915 96.4496 7.11764 95.7014C5.84378 94.9533 4.77212 94.0232 4.77212 92.7493L4.61035 91.3946L106.802 32.4128L107.227 32.1702C107.33 32.356 107.385 32.5644 107.389 32.7768V33.4036C107.328 34.1113 108.359 35.3043 109.754 36.0727Z" fill="#FFA4BB"/>
<path opacity="0.1" d="M109.754 36.0727L9.44293 93.9827V95.4386C9.44293 96.1665 8.3915 96.4496 7.11764 95.7014C5.84378 94.9533 4.77212 94.0232 4.77212 92.7493L4.61035 91.3946L106.802 32.4128L107.227 32.1702C107.33 32.356 107.385 32.5644 107.389 32.7768V33.4036C107.328 34.1113 108.359 35.3043 109.754 36.0727Z" fill="black"/>
<path d="M76.3512 132.684L10.8384 94.8319C9.98917 94.4073 9.24103 94.0635 8.81641 94.2253L9.24101 93.9826L109.755 36.0726L110.927 35.385C111.455 35.2295 112.011 35.1906 112.556 35.2709C113.1 35.3512 113.621 35.5488 114.082 35.8501L179.109 73.3987C179.466 73.5229 179.775 73.755 179.994 74.063C180.213 74.371 180.331 74.7395 180.331 75.1174C180.331 75.4952 180.213 75.8637 179.994 76.1717C179.775 76.4797 179.466 76.7118 179.109 76.836L82.4172 132.684C81.48 133.169 80.4398 133.423 79.3842 133.423C78.3286 133.423 77.2884 133.169 76.3512 132.684Z" fill="#FFA4BB"/>
<path d="M107.166 32.1297L106.742 32.3723L4.6105 91.3945C4.55019 91.2961 4.47519 91.2074 4.38808 91.1316L4.04434 90.9294L3.29621 90.5048L2.40653 89.9791C2.22937 89.8581 2.01584 89.8021 1.80211 89.8206C1.58839 89.839 1.3876 89.9307 1.23376 90.0802L1.11245 90.1813L0.809131 90.6059C0.697492 90.7897 0.609213 90.9867 0.546292 91.1923C0.464088 91.41 0.396525 91.6329 0.34408 91.8596C0.34408 92.1022 0.242976 92.365 0.182316 92.6279C0.172301 92.7895 0.172301 92.9516 0.182316 93.1132C0.172373 93.2343 0.172373 93.3561 0.182316 93.4772C0.182316 93.7805 0.182316 94.0636 0.182316 94.3871V91.3945C0.292216 90.4475 0.619508 89.5386 1.13861 88.7389C1.65772 87.9392 2.35458 87.2703 3.17487 86.7844L99.6445 31.0378C100.443 30.573 101.337 30.2967 102.259 30.2301C103.181 30.1635 104.105 30.3084 104.962 30.6536L106.176 31.3816L106.701 31.6849C106.891 31.7916 107.051 31.9446 107.166 32.1297Z" fill="#FFA4BB"/>
<path d="M76.3507 150.639L72.3067 148.294L11.6467 113.252C11.5873 112.466 11.2992 111.714 10.8177 111.089C10.1076 110.137 9.20506 109.344 8.16887 108.763C7.3035 108.224 6.31599 107.911 5.29763 107.854C4.61903 107.851 3.95829 108.071 3.41719 108.48C2.63843 106.926 2.25637 105.203 2.30508 103.466H0C0 106.64 1.05145 109.815 2.34553 110.543L3.49805 111.23C4.14509 111.614 4.67082 111.635 4.67082 111.23V110.603C4.67082 109.916 5.72226 109.956 7.01634 110.705C8.31042 111.453 9.34163 112.605 9.34163 113.293V113.92C9.34163 114.284 10.2313 115.072 11.3636 115.699L70.0016 149.588L76.3507 153.247C77.2831 153.792 78.3441 154.079 79.4242 154.076V151.428C78.3479 151.442 77.2871 151.17 76.3507 150.639Z" fill="#FFA4BB"/>
<path opacity="0.3" d="M76.3507 150.639L72.3067 148.294L11.6467 113.252C11.5873 112.466 11.2992 111.714 10.8177 111.089C10.1076 110.137 9.20506 109.344 8.16887 108.763C7.3035 108.224 6.31599 107.911 5.29763 107.854C4.61903 107.851 3.95829 108.071 3.41719 108.48C2.63843 106.926 2.25637 105.203 2.30508 103.466H0C0 106.64 1.05145 109.815 2.34553 110.543L3.49805 111.23C4.14509 111.614 4.67082 111.635 4.67082 111.23V110.603C4.67082 109.916 5.72226 109.956 7.01634 110.705C8.31042 111.453 9.34163 112.605 9.34163 113.293V113.92C9.34163 114.284 10.2313 115.072 11.3636 115.699L70.0016 149.588L76.3507 153.247C77.2831 153.792 78.3441 154.079 79.4242 154.076V151.428C78.3479 151.442 77.2871 151.17 76.3507 150.639Z" fill="black"/>
<path d="M76.3711 132.684L72.3271 130.338L25.8211 103.446L10.9392 94.8522C9.88771 94.2254 9.01825 94.003 8.91715 94.3265V94.9938C8.91715 95.7419 7.86569 95.7419 6.59183 94.9938C6.11023 94.7927 5.68825 94.4715 5.36612 94.0608C5.044 93.6502 4.8325 93.1639 4.75183 92.6482V91.9204C4.76249 91.759 4.73717 91.5973 4.67773 91.4469C4.61828 91.2966 4.52616 91.1613 4.40807 91.0508L4.06433 90.8487L3.3162 90.424L2.42652 89.8984C2.24936 89.7774 2.03583 89.7213 1.8221 89.7398C1.60837 89.7582 1.40759 89.8499 1.25375 89.9994L1.13244 90.1005C1.05381 90.1863 0.985901 90.2814 0.930225 90.3836V90.5252C0.818586 90.7089 0.730307 90.9059 0.667386 91.1115C0.585182 91.3292 0.517618 91.5521 0.465174 91.7788C0.465174 92.0214 0.36407 92.2843 0.30341 92.5472C0.293395 92.7088 0.293395 92.8708 0.30341 93.0324C0.293467 93.1535 0.293467 93.2753 0.30341 93.3964C0.30341 93.6997 0.30341 93.9828 0.30341 94.3063V103.527H2.60849V94.4074C2.60849 94.1647 2.60849 93.9221 2.60849 93.6795V93.1133C2.84237 94.0425 3.27424 94.9102 3.87449 95.657C4.47474 96.4038 5.22921 97.0121 6.08633 97.4404C6.93101 97.9711 7.90013 98.2709 8.89691 98.3099C9.64279 98.3129 10.3633 98.0391 10.9189 97.5415L11.1211 97.6628L11.5255 97.9055L70.1635 131.794L76.5126 135.454C77.4204 135.913 78.4273 136.142 79.4445 136.121V133.472C78.3682 133.487 77.3074 133.215 76.3711 132.684Z" fill="#FFA4BB"/>
<path opacity="0.3" d="M76.3711 132.684L72.3271 130.338L25.8211 103.446L10.9392 94.8522C9.88771 94.2254 9.01825 94.003 8.91715 94.3265V94.9938C8.91715 95.7419 7.86569 95.7419 6.59183 94.9938C6.11023 94.7927 5.68825 94.4715 5.36612 94.0608C5.044 93.6502 4.8325 93.1639 4.75183 92.6482V91.9204C4.76249 91.759 4.73717 91.5973 4.67773 91.4469C4.61828 91.2966 4.52616 91.1613 4.40807 91.0508L4.06433 90.8487L3.3162 90.424L2.42652 89.8984C2.24936 89.7774 2.03583 89.7213 1.8221 89.7398C1.60837 89.7582 1.40759 89.8499 1.25375 89.9994L1.13244 90.1005C1.05381 90.1863 0.985901 90.2814 0.930225 90.3836V90.5252C0.818586 90.7089 0.730307 90.9059 0.667386 91.1115C0.585182 91.3292 0.517618 91.5521 0.465174 91.7788C0.465174 92.0214 0.36407 92.2843 0.30341 92.5472C0.293395 92.7088 0.293395 92.8708 0.30341 93.0324C0.293467 93.1535 0.293467 93.2753 0.30341 93.3964C0.30341 93.6997 0.30341 93.9828 0.30341 94.3063V103.527H2.60849V94.4074C2.60849 94.1647 2.60849 93.9221 2.60849 93.6795V93.1133C2.84237 94.0425 3.27424 94.9102 3.87449 95.657C4.47474 96.4038 5.22921 97.0121 6.08633 97.4404C6.93101 97.9711 7.90013 98.2709 8.89691 98.3099C9.64279 98.3129 10.3633 98.0391 10.9189 97.5415L11.1211 97.6628L11.5255 97.9055L70.1635 131.794L76.5126 135.454C77.4204 135.913 78.4273 136.142 79.4445 136.121V133.472C78.3682 133.487 77.3074 133.215 76.3711 132.684Z" fill="black"/>
<path d="M180.241 75.0972V77.7864C180.214 78.1509 180.089 78.5013 179.879 78.8004C179.669 79.0995 179.382 79.336 179.048 79.4849L88.7052 131.653L82.3561 135.312C81.4398 135.792 80.4181 136.035 79.3838 136.02V133.371C80.4194 133.399 81.4443 133.155 82.3561 132.664L86.4001 130.318L179.048 76.8159C179.385 76.6654 179.674 76.4257 179.884 76.1228C180.094 75.8199 180.218 75.4652 180.241 75.0972Z" fill="#FFA4BB"/>
<path opacity="0.2" d="M180.241 75.0972V77.7864C180.214 78.1509 180.089 78.5013 179.879 78.8004C179.669 79.0995 179.382 79.336 179.048 79.4849L88.7052 131.653L82.3561 135.312C81.4398 135.792 80.4181 136.035 79.3838 136.02V133.371C80.4194 133.399 81.4443 133.155 82.3561 132.664L86.4001 130.318L179.048 76.8159C179.385 76.6654 179.674 76.4257 179.884 76.1228C180.094 75.8199 180.218 75.4652 180.241 75.0972Z" fill="black"/>
<path d="M180.241 93.0525V95.7417C180.214 96.1062 180.089 96.4567 179.879 96.7557C179.669 97.0548 179.382 97.2913 179.048 97.4402L88.7048 149.608L82.3557 153.268C81.4606 153.776 80.4531 154.054 79.4238 154.076V151.428C80.4594 151.456 81.4843 151.212 82.3962 150.72L86.4402 148.374L179.088 94.8723C179.432 94.7084 179.723 94.4506 179.927 94.1287C180.131 93.8067 180.24 93.4336 180.241 93.0525Z" fill="#FFA4BB"/>
<path opacity="0.2" d="M180.241 93.0525V95.7417C180.214 96.1062 180.089 96.4567 179.879 96.7557C179.669 97.0548 179.382 97.2913 179.048 97.4402L88.7048 149.608L82.3557 153.268C81.4606 153.776 80.4531 154.054 79.4238 154.076V151.428C80.4594 151.456 81.4843 151.212 82.3962 150.72L86.4402 148.374L179.088 94.8723C179.432 94.7084 179.723 94.4506 179.927 94.1287C180.131 93.8067 180.24 93.4336 180.241 93.0525Z" fill="black"/>
<path d="M4.54883 82.0528L82.8811 126.698L187.095 66.8878L108.742 22.2622L4.54883 82.0528Z" fill="#FFA4BB"/>
<path opacity="0.2" d="M4.54883 82.0528L82.8811 126.698L187.095 66.8878L108.742 22.2622L4.54883 82.0528Z" fill="white"/>
<path d="M83.6091 123.949L7.48075 80.3746C9.06701 75.2118 8.95359 69.6762 7.15723 64.5828L82.8812 107.813C82.8812 107.813 84.0539 111.615 83.6091 123.949Z" fill="#F5F5F5"/>
<path d="M79.7873 102.879C81.4934 103.98 82.9132 105.471 83.9293 107.229C84.9454 108.987 85.5286 110.961 85.6309 112.989V124.737C85.6309 128.458 83.0225 129.954 79.7873 128.094L4.60938 84.9644V82.0527L79.0392 124.515C81.0612 125.627 82.5372 124.717 82.5372 122.493V111.594C82.471 110.377 82.1177 109.193 81.5062 108.139C80.8947 107.085 80.0424 106.19 79.019 105.528L4.60938 63.0864V59.7703L79.7873 102.879Z" fill="#FFA4BB"/>
<path opacity="0.4" d="M79.7873 102.879C81.4934 103.98 82.9132 105.471 83.9293 107.229C84.9454 108.987 85.5286 110.961 85.6309 112.989V124.737C85.6309 128.458 83.0225 129.954 79.7873 128.094L4.60938 84.9644V82.0527L79.0392 124.515C81.0612 125.627 82.5372 124.717 82.5372 122.493V111.594C82.471 110.377 82.1177 109.193 81.5062 108.139C80.8947 107.085 80.0424 106.19 79.019 105.528L4.60938 63.0864V59.7703L79.7873 102.879Z" fill="white"/>
<path d="M4.60938 59.8108L108.742 0L183.981 43.0888C185.686 44.1909 187.105 45.6822 188.121 47.4399C189.137 49.1975 189.721 51.1713 189.825 53.1988V64.9467C189.903 65.6702 189.785 66.4015 189.482 67.0634C189.18 67.7253 188.704 68.2934 188.106 68.7076L83.9122 128.498C84.5074 128.086 84.9808 127.521 85.2832 126.863C85.5855 126.205 85.7056 125.478 85.6309 124.757V112.989C85.5303 110.961 84.9477 108.986 83.9314 107.228C82.9152 105.47 81.4946 103.979 79.7873 102.879L4.60938 59.8108Z" fill="#FFA4BB"/>
<path opacity="0.85" d="M4.60938 59.8108L108.742 0L183.981 43.0888C185.686 44.1909 187.105 45.6822 188.121 47.4399C189.137 49.1975 189.721 51.1713 189.825 53.1988V64.9467C189.903 65.6702 189.785 66.4015 189.482 67.0634C189.18 67.7253 188.704 68.2934 188.106 68.7076L83.9122 128.498C84.5074 128.086 84.9808 127.521 85.2832 126.863C85.5855 126.205 85.7056 125.478 85.6309 124.757V112.989C85.5303 110.961 84.9477 108.986 83.9314 107.228C82.9152 105.47 81.4946 103.979 79.7873 102.879L4.60938 59.8108Z" fill="white"/>
<path d="M83.9323 107.207C84.9783 108.945 85.563 110.921 85.6308 112.949V124.717C85.7055 125.437 85.5854 126.164 85.283 126.822C84.9807 127.48 84.5073 128.045 83.9121 128.458L188.106 68.6673C188.704 68.253 189.18 67.685 189.482 67.0231C189.785 66.3612 189.903 65.6298 189.824 64.9063V53.1585C189.76 51.1276 189.167 49.1486 188.106 47.416L83.9323 107.207Z" fill="#FFA4BB"/>
<path opacity="0.6" d="M83.9323 107.207C84.9783 108.945 85.563 110.921 85.6308 112.949V124.717C85.7055 125.437 85.5854 126.164 85.283 126.822C84.9807 127.48 84.5073 128.045 83.9121 128.458L188.106 68.6673C188.704 68.253 189.18 67.685 189.482 67.0231C189.785 66.3612 189.903 65.6298 189.824 64.9063V53.1585C189.76 51.1276 189.167 49.1486 188.106 47.416L83.9323 107.207Z" fill="white"/>
<path d="M174.458 55.2207C176.349 62.2194 176.349 69.5946 174.458 76.5933L169.625 79.3836C171.507 72.3837 171.507 65.011 169.625 58.0111L174.458 55.2207Z" fill="white"/>
<path d="M105.164 95.1755C107.065 102.173 107.065 109.551 105.164 116.548L100.331 119.338C102.222 112.34 102.222 104.965 100.331 97.9659L105.164 95.1755Z" fill="white"/>
</svg>
