<svg width="262" height="125" viewBox="0 0 262 125" fill="none" xmlns="http://www.w3.org/2000/svg">
<path d="M261.932 76.2488H14.375V125H261.932V76.2488Z" fill="#FFA4BB"/>
<path d="M53.9774 76.2488H29.7871V125H53.9774V76.2488Z" fill="#37474F"/>
<path d="M73.0269 76.2488H62.9287V125H73.0269V76.2488Z" fill="#37474F"/>
<path d="M232.808 76.2488H208.617V125H232.808V76.2488Z" fill="#37474F"/>
<path d="M171.714 39.8721H0V76.2494H171.714V39.8721Z" fill="#455A64"/>
<path d="M245.805 39.8721H171.713V76.2494H245.805V39.8721Z" fill="#455A64"/>
<path d="M171.714 43.6233H0V72.4387H171.714V43.6233Z" fill="white"/>
<path d="M11.2197 49.5532C24.611 49.305 38.0023 49.1236 51.3935 49.009L91.5673 48.8372L131.741 49.009C145.132 49.1236 158.524 49.305 171.915 49.5532C158.524 49.8397 145.132 50.0307 131.741 50.1262L91.5673 50.2693L51.3935 50.1262C38.0023 50.0116 24.611 49.8206 11.2197 49.5532Z" fill="#DBDBDB"/>
<path d="M11.2197 55.2241C24.611 54.9568 38.0023 54.7754 51.3935 54.6799L91.5673 54.5081L131.741 54.6799C145.132 54.6799 158.524 54.8613 171.915 55.2241C158.524 55.4724 145.132 55.6537 131.741 55.7683L91.5673 55.9402L51.3935 55.7683C38.0023 55.6728 24.611 55.4915 11.2197 55.2241Z" fill="#DBDBDB"/>
<path d="M11.2197 60.8672C24.611 60.619 38.0023 60.4376 51.3935 60.323L91.5673 60.1511L131.741 60.323C145.132 60.323 158.524 60.5044 171.915 60.8672C158.524 61.1536 145.132 61.335 131.741 61.4114L91.5673 61.5833L51.3935 61.4114C38.0023 61.335 24.611 61.1536 11.2197 60.8672Z" fill="#DBDBDB"/>
<path d="M11.2197 66.5391C24.611 66.2717 38.0023 66.0903 51.3935 65.9949L91.5673 65.823L131.741 65.9663C145.132 66.0808 158.524 66.2717 171.915 66.5391C158.524 66.7873 145.132 66.9687 131.741 67.0833L91.5673 67.2552L51.3935 67.0833C38.0023 67.0069 24.611 66.8255 11.2197 66.5391Z" fill="#DBDBDB"/>
<path d="M210.366 0H38.5078V39.8718H210.366V0Z" fill="#37474F"/>
<path d="M192.115 0H176.104V39.8718H192.115V0Z" fill="#FFA4BB"/>
<path d="M165.599 0H159.402V39.8718H165.599V0Z" fill="#FFA4BB"/>
</svg>
