<svg width="273" height="181" viewBox="0 0 273 181" fill="none" xmlns="http://www.w3.org/2000/svg">
<path d="M272.079 152.11H32.6533V180.398H272.079V152.11Z" fill="#37474F"/>
<path d="M89.3723 152.11H79.6211V180.398H89.3723V152.11Z" fill="#455A64"/>
<path d="M243.907 152.11H220.506V180.398H243.907V152.11Z" fill="#455A64"/>
<path d="M134.591 159.619L128.861 167.045C128.805 167.126 128.731 167.193 128.644 167.24C128.557 167.287 128.46 167.313 128.361 167.315C128.258 167.32 128.155 167.298 128.064 167.25C127.972 167.203 127.895 167.132 127.84 167.045L121.985 159.64V173.389C121.982 173.465 121.964 173.54 121.932 173.61C121.901 173.68 121.855 173.742 121.799 173.795C121.743 173.847 121.677 173.887 121.605 173.914C121.533 173.941 121.457 173.953 121.38 173.95C121.301 173.956 121.221 173.946 121.146 173.921C121.07 173.896 121.001 173.856 120.94 173.803C120.88 173.751 120.831 173.688 120.796 173.617C120.761 173.545 120.74 173.468 120.734 173.389V157.893C120.736 157.802 120.759 157.713 120.803 157.633C120.847 157.553 120.909 157.486 120.984 157.435C121.12 157.349 121.282 157.317 121.44 157.344C121.598 157.371 121.74 157.455 121.839 157.581L128.215 165.901L134.466 157.581C134.565 157.455 134.708 157.371 134.866 157.344C135.023 157.317 135.186 157.349 135.321 157.435L135.508 157.622C135.558 157.72 135.594 157.826 135.613 157.934V173.43C135.602 173.587 135.531 173.733 135.414 173.837C135.297 173.942 135.144 173.998 134.987 173.992C134.91 173.998 134.832 173.987 134.759 173.962C134.686 173.936 134.619 173.896 134.562 173.843C134.506 173.79 134.46 173.726 134.43 173.655C134.399 173.584 134.383 173.508 134.383 173.43L134.591 159.619Z" fill="white"/>
<path d="M150.47 169.624H142.322L140.739 173.576C140.688 173.692 140.603 173.79 140.495 173.857C140.387 173.924 140.261 173.957 140.134 173.95H139.905C139.757 173.894 139.636 173.782 139.57 173.638C139.504 173.494 139.497 173.33 139.551 173.181L145.802 157.685C145.861 157.57 145.95 157.474 146.061 157.408C146.171 157.342 146.298 157.308 146.427 157.31C146.554 157.304 146.68 157.337 146.788 157.403C146.896 157.47 146.981 157.568 147.032 157.685L153.283 173.181C153.313 173.253 153.328 173.331 153.328 173.409C153.327 173.487 153.311 173.564 153.28 173.636C153.249 173.708 153.204 173.773 153.147 173.827C153.09 173.881 153.023 173.923 152.949 173.95H152.72C152.597 173.952 152.476 173.918 152.372 173.851C152.268 173.785 152.186 173.689 152.137 173.576L150.47 169.624ZM142.781 168.459H150.011L146.406 159.474L142.781 168.459Z" fill="white"/>
<path d="M159.243 158.392H153.847C153.768 158.395 153.69 158.382 153.617 158.354C153.544 158.326 153.477 158.283 153.42 158.229C153.364 158.174 153.319 158.109 153.288 158.037C153.258 157.965 153.242 157.888 153.242 157.81C153.248 157.653 153.314 157.505 153.426 157.396C153.539 157.288 153.69 157.227 153.847 157.227H165.849C166.008 157.227 166.161 157.287 166.277 157.395C166.393 157.503 166.464 157.651 166.474 157.81C166.471 157.889 166.453 157.967 166.42 158.039C166.387 158.111 166.341 158.176 166.283 158.23C166.224 158.284 166.156 158.326 166.082 158.354C166.008 158.382 165.928 158.395 165.849 158.392H160.473V173.389C160.462 173.545 160.391 173.691 160.274 173.796C160.158 173.901 160.005 173.956 159.848 173.95C159.771 173.953 159.695 173.941 159.623 173.914C159.551 173.887 159.485 173.847 159.429 173.795C159.373 173.742 159.328 173.68 159.296 173.61C159.264 173.54 159.246 173.465 159.243 173.389V158.392Z" fill="white"/>
<path d="M181.602 166.171H172.412V173.389C172.407 173.468 172.386 173.546 172.351 173.617C172.315 173.688 172.266 173.752 172.206 173.804C172.146 173.856 172.077 173.896 172.001 173.921C171.926 173.946 171.846 173.956 171.766 173.951C171.69 173.953 171.613 173.941 171.541 173.914C171.47 173.888 171.404 173.847 171.348 173.795C171.291 173.743 171.246 173.68 171.214 173.61C171.183 173.541 171.165 173.466 171.162 173.389V157.81C171.168 157.654 171.234 157.505 171.346 157.397C171.459 157.288 171.61 157.227 171.766 157.227C171.929 157.222 172.087 157.279 172.208 157.388C172.328 157.497 172.402 157.648 172.412 157.81V165.027H181.602V157.81C181.612 157.652 181.683 157.503 181.799 157.395C181.915 157.287 182.068 157.227 182.227 157.227C182.306 157.225 182.385 157.238 182.46 157.265C182.534 157.293 182.602 157.335 182.66 157.389C182.719 157.443 182.765 157.508 182.798 157.581C182.831 157.653 182.849 157.731 182.852 157.81V173.389C182.849 173.467 182.831 173.544 182.798 173.616C182.765 173.687 182.718 173.75 182.659 173.803C182.601 173.855 182.533 173.895 182.458 173.921C182.384 173.946 182.305 173.956 182.227 173.951C182.07 173.956 181.917 173.901 181.8 173.796C181.684 173.691 181.612 173.545 181.602 173.389V166.171Z" fill="white"/>
<path d="M272.079 32.9888H32.6533V69.4304H272.079V32.9888Z" fill="#FFA4BB"/>
<path d="M148.491 56.888C148.598 56.7886 148.74 56.7334 148.887 56.7334C149.033 56.7334 149.175 56.7886 149.282 56.888C150.974 58.1796 153.03 58.9073 155.159 58.968C156.545 58.9946 157.908 58.611 159.076 57.8656C159.521 57.6152 159.895 57.2572 160.164 56.8247C160.434 56.3922 160.59 55.8989 160.618 55.3904C160.609 54.9094 160.468 54.4403 160.211 54.0334C159.954 53.6265 159.59 53.2974 159.16 53.0816C157.859 52.3935 156.449 51.9361 154.992 51.7296C153.526 51.5244 152.112 51.0444 150.824 50.3152C150.288 50.0354 149.835 49.6184 149.513 49.1068C149.191 48.5951 149.011 48.0072 148.991 47.4032C149.016 46.7674 149.198 46.1477 149.522 45.5996C149.845 45.0515 150.3 44.592 150.845 44.2624C152.134 43.4475 153.634 43.0281 155.159 43.056C157.149 43.1492 159.069 43.8216 160.681 44.9904C160.741 45.0261 160.793 45.074 160.834 45.1312C160.874 45.1883 160.902 45.2533 160.916 45.322C160.93 45.3906 160.929 45.4614 160.914 45.5297C160.898 45.598 160.869 45.6623 160.827 45.7184C160.742 45.8381 160.615 45.9203 160.471 45.9475C160.327 45.9747 160.178 45.9447 160.056 45.864C158.626 44.8199 156.927 44.2063 155.159 44.096C153.87 44.0744 152.602 44.4286 151.512 45.1152C151.105 45.3506 150.763 45.6827 150.516 46.0818C150.269 46.4809 150.124 46.9348 150.095 47.4032C150.116 47.8361 150.249 48.256 150.484 48.621C150.718 48.9861 151.043 49.2834 151.429 49.4832C152.62 50.1327 153.919 50.5625 155.263 50.752C156.869 50.9554 158.419 51.4712 159.826 52.2704C160.4 52.5815 160.883 53.0369 161.227 53.5914C161.57 54.1459 161.763 54.7804 161.785 55.432C161.742 56.1187 161.53 56.784 161.166 57.3684C160.802 57.9529 160.299 58.4381 159.701 58.7808C158.337 59.6607 156.741 60.1167 155.117 60.0912C152.717 59.9938 150.408 59.1502 148.511 57.6784C148.453 57.6311 148.405 57.5717 148.372 57.5043C148.339 57.4369 148.321 57.3631 148.319 57.288C148.317 57.2129 148.331 57.1382 148.361 57.0691C148.39 57.0001 148.435 56.9383 148.491 56.888Z" fill="white"/>
<path d="M174.829 43.0561C176.897 43.0507 178.916 43.6907 180.601 44.8866C180.67 44.9292 180.727 44.9864 180.771 45.0541C180.814 45.1218 180.842 45.1982 180.851 45.2778C180.861 45.3575 180.854 45.4384 180.828 45.5146C180.803 45.5908 180.761 45.6605 180.706 45.7185C180.656 45.7841 180.595 45.8394 180.524 45.8811C180.453 45.9229 180.375 45.9503 180.294 45.9619C180.13 45.9853 179.963 45.9426 179.83 45.8433C178.378 44.7873 176.626 44.2192 174.829 44.2209C173.791 44.085 172.736 44.1718 171.735 44.4754C170.733 44.7791 169.808 45.2925 169.021 45.9817C168.234 46.6708 167.604 47.5196 167.172 48.4714C166.74 49.4232 166.517 50.4561 166.517 51.5009C166.517 52.5458 166.74 53.5787 167.172 54.5305C167.604 55.4823 168.234 56.3311 169.021 57.0202C169.808 57.7093 170.733 58.2228 171.735 58.5265C172.736 58.8301 173.791 58.9169 174.829 58.7809C176.619 58.8184 178.368 58.2462 179.789 57.1585C179.927 57.0603 180.099 57.0205 180.267 57.0477C180.434 57.075 180.585 57.1671 180.685 57.3042C180.746 57.3549 180.795 57.4185 180.829 57.4904C180.863 57.5623 180.88 57.6407 180.88 57.7201C180.88 57.7995 180.863 57.878 180.829 57.9499C180.795 58.0218 180.746 58.0854 180.685 58.1361C178.999 59.332 176.981 59.972 174.913 59.9666C173.725 60.084 172.527 59.952 171.394 59.579C170.261 59.206 169.219 58.6003 168.334 57.8008C167.45 57.0014 166.743 56.0259 166.26 54.9373C165.776 53.8487 165.526 52.671 165.526 51.4801C165.526 50.2893 165.776 49.1116 166.26 48.023C166.743 46.9344 167.45 45.959 168.334 45.1595C169.219 44.3601 170.261 43.7543 171.394 43.3813C172.527 43.0083 173.725 42.8763 174.913 42.9938L174.829 43.0561Z" fill="white"/>
<path d="M186.186 43.867C186.191 43.7106 186.257 43.5625 186.37 43.4539C186.482 43.3452 186.633 43.2845 186.789 43.2846C186.952 43.2788 187.11 43.3364 187.23 43.4451C187.351 43.5538 187.424 43.7051 187.435 43.867V59.4462C187.424 59.6081 187.351 59.7594 187.23 59.8681C187.11 59.9768 186.952 60.0344 186.789 60.0286C186.633 60.0287 186.482 59.968 186.37 59.8593C186.257 59.7507 186.191 59.6026 186.186 59.4462V43.867Z" fill="white"/>
<path d="M193.792 43.8672C193.797 43.7108 193.863 43.5627 193.976 43.4541C194.089 43.3454 194.24 43.2847 194.396 43.2848H203.606C203.693 43.2684 203.783 43.2715 203.869 43.2937C203.955 43.3159 204.035 43.3567 204.103 43.4133C204.172 43.4699 204.227 43.5409 204.264 43.6212C204.302 43.7014 204.322 43.7889 204.322 43.8776C204.322 43.9663 204.302 44.0539 204.264 44.1341C204.227 44.2144 204.172 44.2853 204.103 44.3419C204.035 44.3985 203.955 44.4394 203.869 44.4616C203.783 44.4838 203.693 44.4868 203.606 44.4704H195.042V51.0848H202.522C202.683 51.0848 202.836 51.1484 202.95 51.2615C203.063 51.3746 203.127 51.528 203.127 51.688C203.124 51.7645 203.106 51.8397 203.074 51.9094C203.042 51.979 202.997 52.0417 202.941 52.0939C202.885 52.146 202.819 52.1866 202.747 52.2133C202.675 52.2401 202.599 52.2524 202.522 52.2497H195.042V58.8432H203.606C203.693 58.8268 203.783 58.8298 203.869 58.852C203.955 58.8743 204.035 58.9152 204.103 58.9718C204.172 59.0284 204.227 59.0993 204.264 59.1795C204.302 59.2598 204.322 59.3474 204.322 59.436C204.322 59.5247 204.302 59.6123 204.264 59.6925C204.227 59.7728 204.172 59.8437 204.103 59.9003C204.035 59.9569 203.955 59.9978 203.869 60.02C203.783 60.0422 203.693 60.0452 203.606 60.0288H194.355C194.204 60.0234 194.06 59.9597 193.955 59.851C193.851 59.7424 193.792 59.5974 193.792 59.4464V43.8672Z" fill="white"/>
<path d="M210.233 45.7601V59.4466C210.222 59.6047 210.151 59.753 210.035 59.8611C209.919 59.9693 209.766 60.0293 209.607 60.029C209.451 60.0291 209.3 59.9683 209.187 59.8597C209.075 59.751 209.009 59.6029 209.003 59.4466V44.1586C208.965 44.0409 208.967 43.9139 209.008 43.7973C209.049 43.6807 209.128 43.581 209.232 43.5138C209.371 43.4266 209.536 43.3933 209.698 43.4202C209.859 43.447 210.005 43.5322 210.108 43.6594L220.922 57.7201V44.0962C220.933 43.938 221.003 43.7898 221.12 43.6816C221.236 43.5734 221.389 43.5134 221.547 43.5138C221.627 43.511 221.706 43.5238 221.78 43.5516C221.855 43.5794 221.923 43.6215 221.981 43.6756C222.039 43.7297 222.086 43.7947 222.119 43.8668C222.152 43.939 222.17 44.0169 222.173 44.0962V59.509C222.17 59.5882 222.152 59.6661 222.119 59.7382C222.086 59.8104 222.039 59.8754 221.981 59.9295C221.923 59.9836 221.855 60.0257 221.78 60.0535C221.706 60.0812 221.627 60.0941 221.547 60.0914C221.453 60.0909 221.359 60.0703 221.273 60.0308C221.186 59.9913 221.11 59.934 221.047 59.8625L210.233 45.7601Z" fill="white"/>
<path d="M237.114 43.0561C239.182 43.0507 241.2 43.6907 242.886 44.8866C242.951 44.9315 243.006 44.9897 243.047 45.0574C243.089 45.1251 243.115 45.2007 243.125 45.2792C243.135 45.3578 243.128 45.4376 243.105 45.5133C243.081 45.589 243.042 45.6589 242.99 45.7185C242.941 45.7841 242.879 45.8394 242.809 45.8811C242.738 45.9229 242.66 45.9503 242.578 45.9619C242.414 45.9853 242.248 45.9426 242.115 45.8433C240.662 44.7873 238.911 44.2192 237.114 44.2209C236.076 44.085 235.021 44.1718 234.019 44.4754C233.018 44.7791 232.093 45.2925 231.306 45.9817C230.519 46.6708 229.888 47.5196 229.457 48.4714C229.025 49.4232 228.801 50.4561 228.801 51.5009C228.801 52.5458 229.025 53.5787 229.457 54.5305C229.888 55.4823 230.519 56.3311 231.306 57.0202C232.093 57.7093 233.018 58.2228 234.019 58.5265C235.021 58.8301 236.076 58.9169 237.114 58.7809C238.904 58.8184 240.653 58.2462 242.073 57.1585C242.14 57.1105 242.216 57.0761 242.296 57.0574C242.377 57.0386 242.46 57.036 242.541 57.0495C242.623 57.063 242.7 57.0925 242.77 57.1362C242.84 57.1799 242.901 57.237 242.948 57.3042C243.013 57.3526 243.066 57.4154 243.102 57.4876C243.138 57.5598 243.157 57.6394 243.157 57.7201C243.157 57.8009 243.138 57.8805 243.102 57.9527C243.066 58.0249 243.013 58.0877 242.948 58.1361C241.263 59.332 239.245 59.972 237.176 59.9666C235.989 60.084 234.791 59.952 233.658 59.579C232.525 59.206 231.482 58.6003 230.598 57.8008C229.714 57.0014 229.007 56.0259 228.524 54.9373C228.04 53.8487 227.79 52.671 227.79 51.4801C227.79 50.2893 228.04 49.1116 228.524 48.023C229.007 46.9344 229.714 45.959 230.598 45.1595C231.482 44.3601 232.525 43.7543 233.658 43.3813C234.791 43.0083 235.989 42.8763 237.176 42.9938L237.114 43.0561Z" fill="white"/>
<path d="M248.282 43.8672C248.293 43.709 248.363 43.5608 248.479 43.4526C248.596 43.3445 248.749 43.2844 248.907 43.2848H258.096C258.183 43.2684 258.273 43.2715 258.359 43.2937C258.445 43.3159 258.525 43.3567 258.593 43.4133C258.662 43.4699 258.717 43.5409 258.755 43.6212C258.792 43.7014 258.812 43.7889 258.812 43.8776C258.812 43.9663 258.792 44.0539 258.755 44.1341C258.717 44.2144 258.662 44.2853 258.593 44.3419C258.525 44.3985 258.445 44.4394 258.359 44.4616C258.273 44.4838 258.183 44.4868 258.096 44.4704H249.532V51.0848H257.012C257.175 51.0847 257.331 51.1476 257.447 51.2602C257.564 51.3727 257.632 51.5261 257.638 51.688C257.627 51.8443 257.556 51.9904 257.439 52.0952C257.322 52.2 257.169 52.2554 257.012 52.2497H249.532V58.8432H258.096C258.183 58.8268 258.273 58.8298 258.359 58.852C258.445 58.8743 258.525 58.9152 258.593 58.9718C258.662 59.0284 258.717 59.0993 258.755 59.1795C258.792 59.2598 258.812 59.3474 258.812 59.436C258.812 59.5247 258.792 59.6123 258.755 59.6925C258.717 59.7728 258.662 59.8437 258.593 59.9003C258.525 59.9569 258.445 59.9978 258.359 60.02C258.273 60.0422 258.183 60.0452 258.096 60.0288H248.845C248.694 60.0234 248.551 59.9597 248.446 59.851C248.341 59.7424 248.282 59.5974 248.282 59.4464V43.8672Z" fill="white"/>
<path d="M112.983 32.9888H52.8037V69.4304H112.983V32.9888Z" fill="#455A64"/>
<path d="M101.647 38.085H64.1182V44.4914H101.647V38.085Z" fill="#FFA4BB"/>
<path d="M101.647 48.0063H64.1182V54.4127H101.647V48.0063Z" fill="#FFA4BB"/>
<path d="M101.647 57.9487H64.1182V64.3551H101.647V57.9487Z" fill="#FFA4BB"/>
<path d="M254.846 69.4097H10.2939V106.787H254.846V69.4097Z" fill="#37474F"/>
<path d="M211.587 81.5361H152.846V94.6609H211.587V81.5361Z" fill="#FFA4BB"/>
<path d="M241.031 88.1089C241.131 89.6616 240.761 91.2085 239.97 92.5488C239.178 93.8891 238.001 94.9608 236.591 95.6247C235.181 96.2886 233.604 96.5141 232.064 96.2718C230.524 96.0296 229.093 95.3308 227.956 94.2662C226.82 93.2016 226.03 91.8205 225.689 90.302C225.349 88.7836 225.474 87.1982 226.048 85.7515C226.622 84.3049 227.618 83.0639 228.908 82.1897C230.197 81.3156 231.72 80.8487 233.279 80.8497C235.269 80.7935 237.201 81.5251 238.653 82.885C240.106 84.2449 240.96 86.1226 241.031 88.1089Z" fill="#FFA4BB"/>
<path d="M33.1113 79.6432C33.114 79.5667 33.1318 79.4915 33.1636 79.4218C33.1954 79.3522 33.2407 79.2895 33.2968 79.2374C33.3529 79.1852 33.4188 79.1446 33.4907 79.1178C33.5625 79.0911 33.639 79.0788 33.7156 79.0816H42.9042C42.9825 79.0759 43.0612 79.0861 43.1355 79.1116C43.2097 79.137 43.2781 79.1771 43.3365 79.2296C43.3949 79.282 43.442 79.3457 43.4751 79.4167C43.5083 79.4878 43.5267 79.5648 43.5293 79.6432C43.5294 79.7242 43.513 79.8043 43.4814 79.8789C43.4497 79.9535 43.4034 80.0209 43.345 80.0772C43.2867 80.1335 43.2176 80.1775 43.1419 80.2066C43.0661 80.2356 42.9853 80.2492 42.9042 80.2464H34.4657V86.8608H41.9458C42.033 86.8444 42.1229 86.8474 42.2089 86.8696C42.2949 86.8918 42.3749 86.9327 42.4433 86.9893C42.5116 87.0459 42.5666 87.1168 42.6044 87.1971C42.6421 87.2773 42.6617 87.3649 42.6617 87.4536C42.6617 87.5422 42.6421 87.6298 42.6044 87.7101C42.5666 87.7903 42.5116 87.8612 42.4433 87.9178C42.3749 87.9744 42.2949 88.0153 42.2089 88.0376C42.1229 88.0598 42.033 88.0628 41.9458 88.0464H34.4657V94.6399H43.0084C43.0895 94.6372 43.1703 94.6507 43.246 94.6797C43.3218 94.7088 43.3909 94.7528 43.4492 94.8091C43.5075 94.8654 43.5539 94.9328 43.5856 95.0074C43.6172 95.082 43.6335 95.1622 43.6335 95.2432C43.6309 95.3215 43.6125 95.3985 43.5793 95.4696C43.5462 95.5407 43.499 95.6043 43.4407 95.6568C43.3823 95.7092 43.3139 95.7494 43.2397 95.7748C43.1654 95.8002 43.0867 95.8104 43.0084 95.8047H33.7572C33.6117 95.7994 33.4739 95.7378 33.3729 95.6331C33.2718 95.5284 33.2154 95.3886 33.2155 95.2432L33.1113 79.6432Z" fill="white"/>
<path d="M49.5314 81.5986V95.3058C49.5314 95.4658 49.4676 95.6192 49.3543 95.7323C49.241 95.8455 49.0873 95.909 48.927 95.909C48.7668 95.909 48.613 95.8455 48.4997 95.7323C48.3864 95.6192 48.3227 95.4658 48.3227 95.3058V79.9554C48.2806 79.838 48.2804 79.7097 48.3222 79.5922C48.364 79.4747 48.4452 79.3752 48.552 79.3106C48.6871 79.2248 48.8494 79.1923 49.0072 79.2192C49.1651 79.2461 49.3073 79.3305 49.4063 79.4562L60.2419 93.4962V79.8722C60.2446 79.7957 60.2624 79.7204 60.2942 79.6508C60.326 79.5812 60.3714 79.5185 60.4275 79.4663C60.4836 79.4142 60.5495 79.3736 60.6213 79.3469C60.6932 79.3202 60.7696 79.3078 60.8462 79.3106C60.9256 79.3049 61.0053 79.315 61.0808 79.3402C61.1563 79.3653 61.2261 79.4052 61.2861 79.4574C61.3461 79.5096 61.3953 79.5731 61.4306 79.6443C61.466 79.7155 61.4869 79.7929 61.4922 79.8722V95.3058C61.4869 95.3851 61.466 95.4625 61.4306 95.5337C61.3953 95.6049 61.3461 95.6684 61.2861 95.7206C61.2261 95.7728 61.1563 95.8126 61.0808 95.8378C61.0053 95.863 60.9256 95.873 60.8462 95.8674C60.7558 95.8707 60.6659 95.8538 60.5829 95.8178C60.5 95.7818 60.4261 95.7277 60.3669 95.6594C60.3669 95.6594 60.367 95.6594 60.2628 95.5554L49.5314 81.5986Z" fill="white"/>
<path d="M74.9953 88.2753C74.9159 88.2809 74.8362 88.2709 74.7607 88.2457C74.6852 88.2205 74.6154 88.1806 74.5554 88.1285C74.4954 88.0763 74.4463 88.0128 74.4109 87.9416C74.3756 87.8704 74.3547 87.793 74.3494 87.7137C74.3521 87.6317 74.3709 87.5511 74.4048 87.4764C74.4388 87.4017 74.4871 87.3345 74.5471 87.2784C74.6071 87.2224 74.6775 87.1788 74.7545 87.15C74.8314 87.1212 74.9132 87.1077 74.9953 87.1105H80.5798C80.7328 87.121 80.8759 87.1892 80.9804 87.3012C81.0849 87.4132 81.1428 87.5607 81.1424 87.7137V93.5377C81.1229 93.7066 81.0412 93.8623 80.9133 93.9745C79.2366 95.1886 77.2123 95.8305 75.1412 95.8049C73.954 95.9224 72.7553 95.7904 71.6223 95.4174C70.4893 95.0443 69.4471 94.4386 68.5629 93.6392C67.6787 92.8397 66.972 91.8642 66.4884 90.7756C66.0047 89.687 65.7549 88.5094 65.7549 87.3185C65.7549 86.1276 66.0047 84.95 66.4884 83.8614C66.972 82.7728 67.6787 81.7973 68.5629 80.9978C69.4471 80.1984 70.4893 79.5927 71.6223 79.2197C72.7553 78.8466 73.954 78.7146 75.1412 78.8321C77.2254 78.8276 79.256 79.491 80.934 80.7249C80.9889 80.7773 81.0326 80.8403 81.0624 80.91C81.0922 80.9797 81.1075 81.0547 81.1075 81.1305C81.1075 81.2063 81.0922 81.2813 81.0624 81.351C81.0326 81.4207 80.9889 81.4837 80.934 81.5361C80.8093 81.643 80.6504 81.7018 80.486 81.7018C80.3217 81.7018 80.1627 81.643 80.038 81.5361C78.6051 80.4571 76.8525 79.8862 75.0579 79.9137C74.02 79.7778 72.965 79.8645 71.9633 80.1682C70.9617 80.4718 70.0366 80.9853 69.2497 81.6744C68.4628 82.3635 67.8324 83.2124 67.4005 84.1642C66.9686 85.116 66.7451 86.1488 66.7451 87.1937C66.7451 88.2386 66.9686 89.2715 67.4005 90.2233C67.8324 91.175 68.4628 92.0238 69.2497 92.7129C70.0366 93.402 70.9617 93.9156 71.9633 94.2192C72.965 94.5229 74.02 94.6096 75.0579 94.4737C76.7437 94.4838 78.393 93.9834 79.788 93.0385V88.1089L74.9953 88.2753Z" fill="white"/>
<path d="M86.8103 95.8048C86.7337 95.8075 86.6573 95.7952 86.5854 95.7685C86.5136 95.7418 86.4477 95.7012 86.3916 95.6491C86.3355 95.5969 86.2902 95.5342 86.2584 95.4645C86.2266 95.3949 86.2087 95.3197 86.2061 95.2432V79.6432C86.2087 79.5667 86.2266 79.4915 86.2584 79.4218C86.2902 79.3522 86.3355 79.2895 86.3916 79.2374C86.4477 79.1852 86.5136 79.1446 86.5854 79.1179C86.6573 79.0911 86.7337 79.0788 86.8103 79.0816C86.8897 79.076 86.9695 79.086 87.0449 79.1112C87.1204 79.1364 87.1902 79.1762 87.2502 79.2284C87.3102 79.2806 87.3593 79.3441 87.3947 79.4153C87.43 79.4865 87.4509 79.5639 87.4562 79.6432V94.64H96.0198C96.1009 94.6372 96.1817 94.6507 96.2575 94.6798C96.3332 94.7088 96.4023 94.7528 96.4606 94.8091C96.5189 94.8654 96.5653 94.9329 96.597 95.0074C96.6287 95.082 96.6449 95.1622 96.6449 95.2432C96.6423 95.3215 96.6239 95.3985 96.5908 95.4696C96.5576 95.5407 96.5105 95.6044 96.4521 95.6568C96.3937 95.7092 96.3254 95.7494 96.2511 95.7748C96.1768 95.8002 96.0982 95.8104 96.0198 95.8048H86.8103Z" fill="white"/>
<path d="M100.813 79.6432C100.824 79.4868 100.895 79.3408 101.012 79.236C101.129 79.1312 101.281 79.0758 101.438 79.0816C101.516 79.0759 101.595 79.0861 101.669 79.1116C101.743 79.137 101.812 79.1771 101.87 79.2296C101.928 79.282 101.976 79.3457 102.009 79.4167C102.042 79.4878 102.06 79.5648 102.063 79.6432V95.2432C102.06 95.3215 102.042 95.3985 102.009 95.4696C101.976 95.5407 101.928 95.6043 101.87 95.6568C101.812 95.7092 101.743 95.7494 101.669 95.7748C101.595 95.8002 101.516 95.8104 101.438 95.8047C101.281 95.8105 101.129 95.7551 101.012 95.6503C100.895 95.5455 100.824 95.3995 100.813 95.2432V79.6432Z" fill="white"/>
<path d="M107.606 92.6846C107.712 92.5804 107.854 92.522 108.002 92.522C108.151 92.522 108.293 92.5804 108.398 92.6846C110.092 93.9713 112.147 94.6984 114.274 94.7646C115.667 94.7916 117.037 94.4082 118.213 93.6622C118.654 93.4045 119.023 93.0415 119.289 92.6058C119.554 92.1702 119.707 91.6755 119.734 91.1662C119.723 90.6883 119.581 90.2225 119.324 89.8193C119.067 89.416 118.704 89.0906 118.275 88.8782C116.982 88.1702 115.569 87.7049 114.108 87.5054C112.643 87.3091 111.228 86.8362 109.94 86.1119C109.403 85.827 108.951 85.4059 108.629 84.891C108.307 84.3761 108.127 83.7856 108.106 83.179C108.133 82.5464 108.316 81.9303 108.64 81.3858C108.964 80.8413 109.417 80.3854 109.961 80.059C111.245 79.2312 112.746 78.8039 114.274 78.8319C116.262 78.9368 118.179 79.6081 119.796 80.7662C119.857 80.8043 119.909 80.854 119.95 80.9123C119.991 80.9706 120.02 81.0364 120.036 81.106C120.051 81.1756 120.053 81.2476 120.04 81.3178C120.028 81.388 120.002 81.455 119.963 81.515C119.876 81.6306 119.748 81.7096 119.606 81.7365C119.463 81.7635 119.316 81.7364 119.192 81.6606C117.755 80.6159 116.049 80.0025 114.274 79.8926C112.988 79.8672 111.721 80.214 110.628 80.891C110.226 81.1303 109.889 81.4638 109.646 81.8625C109.403 82.2612 109.26 82.7131 109.232 83.179C109.241 83.6146 109.371 84.0391 109.606 84.406C109.841 84.7729 110.173 85.0681 110.565 85.259C111.744 85.9212 113.038 86.3519 114.379 86.5278C115.978 86.7434 117.521 87.266 118.921 88.067C119.495 88.3731 119.978 88.8244 120.322 89.3757C120.666 89.927 120.858 90.5588 120.88 91.2078C120.837 91.8945 120.624 92.5598 120.261 93.1442C119.897 93.7287 119.394 94.214 118.796 94.5566C117.423 95.4337 115.822 95.8892 114.191 95.867C111.798 95.7653 109.497 94.922 107.606 93.4542C107.55 93.4074 107.504 93.3486 107.472 93.2821C107.441 93.2156 107.425 93.143 107.425 93.0695C107.425 92.9959 107.441 92.9233 107.472 92.8567C107.504 92.7902 107.55 92.7314 107.606 92.6846Z" fill="white"/>
<path d="M135.904 88.0256H126.694V95.2432C126.691 95.3215 126.673 95.3985 126.639 95.4696C126.606 95.5407 126.559 95.6044 126.501 95.6568C126.442 95.7092 126.374 95.7494 126.3 95.7748C126.225 95.8002 126.147 95.8104 126.068 95.8048C125.912 95.8105 125.759 95.7551 125.642 95.6503C125.525 95.5455 125.454 95.3995 125.443 95.2432V79.6432C125.454 79.4869 125.525 79.3409 125.642 79.236C125.759 79.1312 125.912 79.0758 126.068 79.0816C126.147 79.076 126.225 79.0861 126.3 79.1116C126.374 79.137 126.442 79.1771 126.501 79.2296C126.559 79.282 126.606 79.3457 126.639 79.4168C126.673 79.4878 126.691 79.5648 126.694 79.6432V86.8608H135.904V79.6432C135.907 79.5667 135.924 79.4915 135.956 79.4218C135.988 79.3522 136.033 79.2895 136.089 79.2374C136.146 79.1852 136.211 79.1446 136.283 79.1179C136.355 79.0911 136.432 79.0788 136.508 79.0816C136.588 79.076 136.667 79.086 136.743 79.1112C136.818 79.1364 136.888 79.1762 136.948 79.2284C137.008 79.2806 137.057 79.3441 137.093 79.4153C137.128 79.4865 137.149 79.5639 137.154 79.6432V95.2432C137.149 95.3225 137.128 95.3999 137.093 95.4711C137.057 95.5423 137.008 95.6058 136.948 95.658C136.888 95.7102 136.818 95.75 136.743 95.7752C136.667 95.8004 136.588 95.8104 136.508 95.8048C136.432 95.8075 136.355 95.7952 136.283 95.7685C136.211 95.7418 136.146 95.7012 136.089 95.6491C136.033 95.5969 135.988 95.5342 135.956 95.4645C135.924 95.3949 135.907 95.3197 135.904 95.2432V88.0256Z" fill="white"/>
<path d="M144.531 0H20.9844V32.9888H144.531V0Z" fill="#263238"/>
<path d="M258.701 0H144.51V32.9888H258.701V0Z" fill="#263238"/>
<path d="M144.531 3.43213H20.9844V29.5777H144.531V3.43213Z" fill="white"/>
<path d="M31.7363 8.7985C44.6696 8.6321 57.6099 8.50731 70.5571 8.42411L88.1233 8.29932L126.965 8.42411C139.905 8.42411 131.57 8.6113 144.51 8.7985C131.57 8.9857 139.905 9.1105 126.965 9.1937L88.1233 9.29768L70.5571 9.1937C57.6099 9.1105 44.6696 8.97876 31.7363 8.7985Z" fill="#DBDBDB"/>
<path d="M31.7363 13.9362C44.6696 13.7421 57.6099 13.6173 70.5571 13.5618L88.1233 13.437H126.965C139.905 13.437 131.57 13.645 144.51 13.8322C131.57 14.0194 139.905 14.1442 126.965 14.2066L88.1233 14.3314L70.5571 14.2066C57.6099 14.2205 44.6696 14.1303 31.7363 13.9362Z" fill="#DBDBDB"/>
<path d="M31.7363 19.0526C44.6696 18.8862 57.6099 18.7614 70.5571 18.6782L88.1233 18.5742L126.965 18.6782C139.905 18.6782 131.57 18.8862 144.51 19.0526C131.57 19.2398 139.905 19.3854 126.965 19.4478L88.1233 19.5518L70.5571 19.4478C57.6099 19.3784 44.6696 19.2467 31.7363 19.0526Z" fill="#DBDBDB"/>
<path d="M31.7363 24.1906C44.6696 24.0103 57.6099 23.8855 70.5571 23.8162L88.1233 23.6914L126.965 23.8162C139.905 23.8162 131.57 24.0034 144.51 24.1906C131.57 24.3778 139.905 24.5026 126.965 24.565L88.1233 24.6898L70.5571 24.565C57.6099 24.5095 44.6696 24.3847 31.7363 24.1906Z" fill="#DBDBDB"/>
<path d="M185.915 0H169.828V32.9888H185.915V0Z" fill="#455A64"/>
<path d="M252.825 0H242.011V32.9888H252.825V0Z" fill="#455A64"/>
<path d="M105.648 152.11L244.781 152.11V106.766L105.648 106.766V152.11Z" fill="#FFA4BB"/>
<path d="M9.15527e-05 152.11H105.647V106.766L9.15527e-05 106.766V152.11Z" fill="#FFA4BB"/>
<path d="M105.648 147.41L244.781 147.41V111.488L105.648 111.488V147.41Z" fill="white"/>
<path d="M235.759 140.026C224.923 140.192 214.087 140.338 203.231 140.4L170.703 140.504L138.176 140.4C127.319 140.4 116.483 140.192 105.627 140.026C116.49 139.845 127.34 139.714 138.176 139.63H170.703H203.231C214.081 139.7 224.923 139.831 235.759 140.026Z" fill="#DBDBDB"/>
<path d="M235.759 132.974C224.923 133.141 214.087 133.286 203.231 133.349L170.703 133.474L138.176 133.349C127.326 133.349 116.476 133.224 105.627 132.974C116.49 132.794 127.34 132.662 138.176 132.579L170.703 132.475L203.231 132.579C214.081 132.662 224.923 132.794 235.759 132.974Z" fill="#DBDBDB"/>
<path d="M235.759 125.923C224.923 126.103 214.081 126.228 203.231 126.297L170.703 126.422L138.176 126.297C127.326 126.297 116.476 126.173 105.627 125.923C116.49 125.743 127.34 125.611 138.176 125.528L170.703 125.424L203.231 125.528C214.081 125.611 224.923 125.743 235.759 125.923Z" fill="#DBDBDB"/>
<path d="M235.759 118.872C224.923 119.053 214.081 119.177 203.231 119.247L170.703 119.371L138.176 119.247C127.326 119.247 116.476 119.122 105.627 118.872C116.49 118.678 127.34 118.546 138.176 118.477L170.703 118.373L203.231 118.498C214.081 118.567 224.923 118.692 235.759 118.872Z" fill="#DBDBDB"/>
<path d="M36.5914 106.767H16.8164V152.111H36.5914V106.767Z" fill="#455A64"/>
</svg>
