<svg width="275" height="106" viewBox="0 0 275 106" fill="none" xmlns="http://www.w3.org/2000/svg">
<path d="M274.159 70.8291H15.0527V106H274.159V70.8291Z" fill="#FFA4BB"/>
<path d="M56.475 70.8291H31.1641V106H56.475V70.8291Z" fill="#37474F"/>
<path d="M76.4357 70.8291H65.8662V106H76.4357V70.8291Z" fill="#37474F"/>
<path d="M243.645 69.189H218.334V104.36H243.645V69.189Z" fill="#37474F"/>
<path d="M179.729 33.385H0V69.1888H179.729V33.385Z" fill="#263238"/>
<path d="M257.252 33.385H179.706V69.1888H257.252V33.385Z" fill="#263238"/>
<path d="M179.729 37.0918H0V65.459H179.729V37.0918Z" fill="white"/>
<path d="M11.6338 42.9237C25.6178 42.7128 39.6178 42.5696 53.634 42.4943L95.6583 42.3586L137.683 42.4943C151.699 42.4943 165.707 42.6374 179.707 42.9237C165.723 43.1498 151.715 43.3005 137.683 43.3758L95.6583 43.4888L53.634 43.3532C39.6499 43.2779 25.6499 43.1347 11.6338 42.9237Z" fill="#DBDBDB"/>
<path d="M11.6338 48.4616C25.6178 48.2355 39.6178 48.0848 53.634 48.0095L95.6583 47.8965L137.683 48.0095C151.699 48.0999 165.707 48.2506 179.707 48.4616C165.723 48.6725 151.715 48.8157 137.683 48.891L95.6583 49.004L53.634 48.891C39.6499 48.8308 25.6499 48.6876 11.6338 48.4616Z" fill="#DBDBDB"/>
<path d="M11.6338 54.067C25.6178 53.8561 39.6178 53.7129 53.634 53.6376L95.6583 53.502L137.683 53.6376C151.699 53.6376 165.707 53.7807 179.707 54.067C165.723 54.2629 151.715 54.4061 137.683 54.4965L95.6583 54.6321L53.634 54.4965C39.6499 54.4362 25.6499 54.2931 11.6338 54.067Z" fill="#DBDBDB"/>
<path d="M11.6338 59.6276C25.6178 59.4317 39.6178 59.2885 53.634 59.1981L95.6583 59.0625L137.683 59.1981C151.699 59.1981 165.707 59.3413 179.707 59.6276C165.723 59.8235 151.715 59.9666 137.683 60.0571L95.6583 60.1927L53.634 60.0571C39.6499 59.9968 25.6499 59.8536 11.6338 59.6276Z" fill="#DBDBDB"/>
<path d="M252.82 0H16.0391V33.5208H252.82V0Z" fill="#C7C7C7"/>
<path d="M129.397 6.84912H38.3164V26.9661H129.397V6.84912Z" fill="white"/>
</svg>
