<svg width="77" height="113" viewBox="0 0 77 113" fill="none" xmlns="http://www.w3.org/2000/svg">
<g opacity="0.7">
<path d="M76.7065 76.9868C76.2341 84.0653 73.7881 90.8708 69.6448 96.6347C65.5015 102.399 59.8261 106.891 53.2596 109.605C46.6932 112.319 39.4972 113.145 32.4848 111.992C25.4724 110.838 18.9228 107.75 13.5759 103.077C8.22904 98.4035 4.29795 92.3306 2.22665 85.5445C0.155358 78.7583 0.0264325 71.5292 1.85441 64.6737C3.68238 57.8182 7.39441 51.6095 12.5712 46.749C17.748 41.8885 24.1834 38.5699 31.1502 37.1679L33.3188 7.08134L30.2425 6.87998L30.6459 0.855957L56.7021 2.53396L56.3155 8.57475L53.2223 8.33984L51.037 38.5438C58.9491 41.2517 65.749 46.4827 70.388 53.43C75.0269 60.3774 77.2472 68.6552 76.7065 76.9868Z" fill="white"/>
<path d="M76.7069 76.9866C76.2525 84.0787 73.8206 90.9026 69.6856 96.6877C65.5506 102.473 59.8774 106.988 53.3068 109.724C46.7154 112.456 39.4969 113.322 32.445 112.225C25.362 111.094 18.7353 108.014 13.3097 103.33C7.88419 98.6466 3.87485 92.5454 1.73229 85.7122C-0.39138 78.8296 -0.565954 71.4946 1.22794 64.5191C3.03917 57.5226 6.79851 51.1811 12.0707 46.2289C17.3407 41.257 23.896 37.8516 30.9993 36.3958L30.3605 37.1174L31.4027 22.0154L32.5458 6.91336L33.2687 7.73558L30.1924 7.53422H29.4359V6.77912L29.8562 0.738324V0H30.579C39.27 0.5873 47.9442 1.29206 56.6352 1.94648H57.1563V2.46666L56.7025 8.49068V8.94374H56.2486L53.1722 8.7256L53.6262 8.32288L51.1718 38.5437L51.0878 38.4094C59.0073 41.1474 65.8054 46.4086 70.4348 53.3825C75.0641 60.3564 77.268 68.6562 76.7069 77.0034V76.9866ZM76.7069 76.9866C77.2378 68.6626 75.0083 60.3956 70.3626 53.4625C65.717 46.5295 58.9138 41.3161 51.0037 38.6276H50.9029V38.5437L52.8024 8.33966V7.92016H53.2395L56.3158 8.08796L55.8283 8.50746L56.1645 2.46666L56.652 3.02041C47.961 2.53379 39.27 2.08072 30.579 1.52698L31.3523 0.839L30.9825 6.86302L30.2764 6.05758L33.3528 6.24216H34.126V7.03082L33.1006 22.1328L31.9743 37.2348V37.8389L31.3859 37.9564C24.5566 39.3123 18.2441 42.55 13.1634 47.3028C6.73406 53.3244 2.62298 61.4052 1.54535 70.1395C0.467708 78.8738 2.49173 87.7088 7.26525 95.1075C12.0388 102.506 19.2597 108 27.6719 110.634C36.084 113.268 45.155 112.875 53.3068 109.523C59.8846 106.838 65.5765 102.366 69.7366 96.6152C73.8966 90.864 76.358 84.0638 76.8414 76.9866H76.7069Z" fill="#263238"/>
</g>
<path d="M69.8826 76.5336C69.701 80.6891 68.6896 84.7666 66.9077 88.5266C65.1258 92.2866 62.6093 95.6533 59.506 98.4292C56.4027 101.205 52.775 103.334 48.836 104.691C44.8971 106.049 40.7262 106.607 36.5682 106.333C32.4102 106.059 28.349 104.959 24.6228 103.097C20.8967 101.234 17.5808 98.6481 14.8698 95.4892C12.1588 92.3304 10.1073 88.6628 8.83575 84.7017C7.56424 80.7406 7.09831 76.5658 7.46534 72.4225C7.74578 68.0824 8.94318 63.8506 10.9788 60.0053C17.0548 63.0421 23.5462 65.1681 30.2435 66.3146C43.6919 68.6302 53.9295 61.8175 65.6632 58.6797C68.8296 64.0747 70.2995 70.2948 69.8826 76.5336Z" fill="#FFA4BB"/>
<path d="M7.46484 72.4223C7.46484 72.4223 8.01959 50.8264 30.4784 45.0205Z" fill="white"/>
</svg>
