<svg width="109" height="153" viewBox="0 0 109 153" fill="none" xmlns="http://www.w3.org/2000/svg">
<path d="M47.4061 128.439C52.2965 122.065 58.6206 116.934 65.8654 113.462C73.1101 109.99 81.0714 108.274 89.1032 108.455C103.816 109.586 108.969 120.368 100.659 132.52C95.764 138.888 89.439 144.016 82.1954 147.488C74.9518 150.959 66.9929 152.678 58.9622 152.505C44.2788 151.403 39.0965 140.621 47.4061 128.439Z" fill="#FFA4BB"/>
<g opacity="0.3">
<path d="M47.4061 128.439C52.2965 122.065 58.6206 116.934 65.8654 113.462C73.1101 109.99 81.0714 108.274 89.1032 108.455C103.816 109.586 108.969 120.368 100.659 132.52C95.764 138.888 89.439 144.016 82.1954 147.488C74.9518 150.959 66.9929 152.678 58.9622 152.505C44.2788 151.403 39.0965 140.621 47.4061 128.439Z" fill="white"/>
</g>
<path d="M50.5934 48.7086L30.8766 7.57739L5.20312 19.9674L24.8901 61.039C15.9005 69.1528 10.1353 80.234 8.65072 92.2524C7.16617 104.271 10.0617 116.422 16.8068 126.479C23.5519 136.537 33.6949 143.827 45.3776 147.015C57.0603 150.202 69.5004 149.074 80.4188 143.836C91.3373 138.598 100.003 129.602 104.828 118.495C109.653 107.388 110.315 94.9143 106.692 83.3591C103.07 71.804 95.4045 61.941 85.1016 55.5773C74.7987 49.2135 62.5478 46.7751 50.5934 48.7086Z" fill="#FFA4BB"/>
<path opacity="0.7" d="M50.5934 48.7086L30.8766 7.57739L5.20312 19.9674L24.8901 61.039C15.9005 69.1528 10.1353 80.234 8.65072 92.2524C7.16617 104.271 10.0617 116.422 16.8068 126.479C23.5519 136.537 33.6949 143.827 45.3776 147.015C57.0603 150.202 69.5004 149.074 80.4188 143.836C91.3373 138.598 100.003 129.602 104.828 118.495C109.653 107.388 110.315 94.9143 106.692 83.3591C103.07 71.804 95.4045 61.941 85.1016 55.5773C74.7987 49.2135 62.5478 46.7751 50.5934 48.7086Z" fill="white"/>
<path opacity="0.2" d="M48.2998 50.2573L30.8168 11.6875L29.2383 13.1469L47.2574 50.7339L48.2998 50.2573Z" fill="white"/>
<path opacity="0.2" d="M34.6592 15.5296C34.6592 15.5296 33.1997 19.1037 22.9542 24.018C12.7086 28.9323 9.01543 27.8898 9.01543 27.8898L5.20312 19.9674L30.8766 7.57739L34.6592 15.5296Z" fill="#FFA4BB"/>
<path opacity="0.1" d="M32.6338 11.2706C29.455 14.9952 25.4315 17.9056 20.8991 19.7589C16.6172 22.1161 11.8445 23.4418 6.96035 23.6308L5.20312 19.9674L30.8766 7.57739L32.6338 11.2706Z" fill="black"/>
<path d="M25.1877 0.0421902C16.6934 1.00679 8.77184 4.80496 2.70099 10.8239C-2.18353 16.2743 -0.277368 20.3844 7.07919 19.9675C15.578 19.0188 23.5046 15.2183 29.5659 9.18577C34.6589 3.64601 32.6931 -0.464132 25.1877 0.0421902Z" fill="#FFA4BB"/>
<path opacity="0.6" d="M25.1877 0.0421902C16.6934 1.00679 8.77184 4.80496 2.70099 10.8239C-2.18353 16.2743 -0.277368 20.3844 7.07919 19.9675C15.578 19.0188 23.5046 15.2183 29.5659 9.18577C34.6589 3.64601 32.6931 -0.464132 25.1877 0.0421902Z" fill="white"/>
<path opacity="0.2" d="M7.37598 14.4875C8.86516 14.8151 13.3327 14.9342 22.2678 9.39447C30.0413 4.50995 26.914 0.876344 20.0638 3.43774C15.0036 6.04136 10.65 9.83288 7.37598 14.4875Z" fill="white"/>
<path d="M21.8524 3.16959C16.5081 4.3055 11.514 6.70557 7.28816 10.1687C3.89282 13.1471 4.78633 15.0831 9.28366 14.3385C14.6245 13.1927 19.6165 10.7937 23.8479 7.33928C27.3921 4.24178 26.4093 2.36543 21.8524 3.16959Z" fill="#FFA4BB"/>
<path opacity="0.5" d="M21.8524 3.16959C16.5081 4.3055 11.514 6.70557 7.28816 10.1687C3.89282 13.1471 4.78633 15.0831 9.28366 14.3385C14.6245 13.1927 19.6165 10.7937 23.8479 7.33928C27.3921 4.24178 26.4093 2.36543 21.8524 3.16959Z" fill="white"/>
<path opacity="0.2" d="M29.5659 9.30494C30.9387 8.00016 31.9013 6.32341 32.3358 4.47998C28.9106 11.3898 15.1804 17.2572 8.68754 18.0316C2.1947 18.8059 0.199198 15.0532 1.56925 12.3727C-1.76652 17.0785 0.437439 20.444 7.07919 20.0866C15.578 19.138 23.5046 15.3374 29.5659 9.30494Z" fill="#FFA4BB"/>
<path opacity="0.1" d="M21.8517 3.16949C19.1996 3.71565 16.6275 4.59634 14.1973 5.79044L17.0267 11.7472C19.4778 10.6092 21.7704 9.15754 23.8472 7.42855C27.3914 4.2417 26.4086 2.36533 21.8517 3.16949Z" fill="black"/>
<path opacity="0.2" d="M25.188 0.0420323C18.4018 0.831245 11.9417 3.38855 6.4541 7.45816C7.04977 7.16032 17.8017 0.459001 25.2178 0.667486C31.7106 0.816405 32.6042 3.31823 32.0085 5.552C33.4083 1.97796 30.9362 -0.345155 25.188 0.0420323Z" fill="white"/>
<path d="M98.7238 79.207C101.57 85.1611 103.055 91.6745 103.07 98.2741C103.085 104.874 101.63 111.394 98.8099 117.361C95.9902 123.327 91.8768 128.591 86.7686 132.77C81.6603 136.949 75.6856 139.937 69.2781 141.518C62.8707 143.099 56.1915 143.233 49.7259 141.91C43.2602 140.587 37.1704 137.841 31.8987 133.87C26.6271 129.9 22.306 124.805 19.2493 118.956C16.1926 113.107 14.4772 106.65 14.2275 100.056C14.2597 94.615 16.0457 89.3298 19.3205 84.9851C30.0129 69.3784 53.9887 57.8819 72.9311 59.3115C78.3515 59.4824 83.5729 61.3935 87.8229 64.7619C92.4164 68.7712 96.1283 73.6899 98.7238 79.207Z" fill="#FFA4BB"/>
<path opacity="0.1" d="M98.7238 79.207C101.57 85.1611 103.055 91.6745 103.07 98.2741C103.085 104.874 101.63 111.394 98.8099 117.361C95.9902 123.327 91.8768 128.591 86.7686 132.77C81.6603 136.949 75.6856 139.937 69.2781 141.518C62.8707 143.099 56.1915 143.233 49.7259 141.91C43.2602 140.587 37.1704 137.841 31.8987 133.87C26.6271 129.9 22.306 124.805 19.2493 118.956C16.1926 113.107 14.4772 106.65 14.2275 100.056C14.2597 94.615 16.0457 89.3298 19.3205 84.9851C30.0129 69.3784 53.9887 57.8819 72.9311 59.3115C78.3515 59.4824 83.5729 61.3935 87.8229 64.7619C92.4164 68.7712 96.1283 73.6899 98.7238 79.207Z" fill="black"/>
<path opacity="0.1" d="M98.724 79.207C96.1318 73.8053 92.4746 68.9831 87.9722 65.03C87.4361 71.8505 85.9766 92.699 85.9766 92.699C92.946 107.263 91.7845 131.745 77.9053 138.417C88.5015 133.308 96.6417 124.209 100.544 113.112C104.446 102.014 103.791 89.8231 98.724 79.207Z" fill="black"/>
<path d="M87.7028 90.3464C77.0105 105.983 53.0347 117.479 34.0923 116.05C21.7023 115.097 14.584 108.812 14.167 100.175C14.1991 94.7343 15.9852 89.4492 19.26 85.1044C29.9523 69.4978 53.9282 58.0013 72.8706 59.4309C78.291 59.6018 83.5124 61.5129 87.7624 64.8813C94.285 70.5998 94.702 80.1008 87.7028 90.3464Z" fill="#FFA4BB"/>
<g opacity="0.2" style="mix-blend-mode:hard-light">
<path d="M31.3531 108.991C17.2059 103.898 18.1888 86.5341 23.252 80.22C21.8397 81.7635 20.5265 83.3949 19.3205 85.1045C16.0457 89.4493 14.2597 94.7344 14.2275 100.175C14.6445 108.812 21.7628 115.067 34.1528 116.05C50.1466 117.271 69.8932 109.199 81.8067 97.1966C66.6766 107.591 45.2919 114.054 31.3531 108.991Z" fill="white"/>
</g>
<g opacity="0.2" style="mix-blend-mode:hard-light">
<path d="M40.2875 60.9199L37.9942 56.1545L19.022 16.572C16.1163 17.9834 13.0292 18.9857 9.84863 19.5504L29.8334 61.2475C21.2931 67.6491 15.2102 76.7894 12.6024 87.1392C9.99468 97.4889 11.0202 108.42 15.5075 118.104C26.2296 140.412 50.6523 154.292 78.9467 140.71C34.6585 146.578 8.15097 93.9499 40.2875 60.9199Z" fill="white"/>
</g>
</svg>
