<svg width="183" height="208" viewBox="0 0 183 208" fill="none" xmlns="http://www.w3.org/2000/svg">
<path d="M167.556 90.3967C167.566 106.843 162.342 122.867 152.637 136.157C144.776 146.945 134.275 155.541 122.137 161.121C109.998 166.701 96.6284 169.08 83.3058 168.03C69.9833 166.979 57.1534 162.535 46.043 155.122C34.9326 147.709 25.9132 137.574 19.8472 125.688C13.7812 113.801 10.8715 100.56 11.3962 87.2309C11.9209 73.9013 15.8626 60.9291 22.8443 49.5544C29.826 38.1798 39.6142 28.7831 51.2731 22.2629C62.932 15.7427 76.0717 12.3171 89.4357 12.3135C91.5195 12.3135 93.7074 12.3135 95.7912 12.5631C106.512 13.4322 116.936 16.5047 126.411 21.5875C135.885 26.6704 144.203 33.6537 150.845 42.0991C152.596 44.3094 154.224 46.6148 155.721 49.0047C163.496 61.4124 167.599 75.7615 167.556 90.3967Z" fill="#455A64"/>
<path d="M106.314 127.234C105.314 129.854 106.96 129.958 107.064 131.061C107.168 132.163 107.064 134.222 103.897 137.405C100.729 140.587 95.5615 139.901 94.3738 141.211C93.186 142.522 91.4148 148.096 88.7893 149.947C86.1637 151.798 85.7261 150.717 82.017 151.486C78.3079 152.256 75.4531 157.061 74.3487 159.349C73.2443 161.637 74.5779 165.464 71.9523 165.589C69.3268 165.714 68.1182 160.035 65.701 156.977C63.6206 154.222 62.2665 150.989 61.7627 147.576C61.0125 143.978 62.2003 136.427 61.7627 133.494C61.3251 130.562 53.4276 125.299 50.6145 121.68C47.8014 118.061 43.8214 110.864 44.0506 108.472C44.373 106.138 45.5359 104.001 47.3221 102.461C48.6349 101.483 48.0931 100.942 48.3015 100.069C48.5099 99.1951 49.6143 98.9663 49.8435 97.8847C49.8921 96.9884 49.7624 96.0913 49.462 95.2453C49.1615 94.3992 48.6964 93.6208 48.0931 92.9551C46.9887 92.4143 46.2385 94.2655 45.5717 93.9535C44.9049 93.6415 42.9462 91.3119 42.1752 91.1039C41.4042 90.8959 41.6334 92.5183 40.5498 90.4383C39.4663 88.3583 38.9037 83.1375 38.0285 82.2639C37.1533 81.3903 36.4865 83.7823 34.4027 82.2639C32.319 80.7455 31.4646 77.7711 30.5894 77.3343C29.7142 76.8975 28.5056 77.4591 27.6096 75.7119C26.7136 73.9647 28.4014 70.7823 27.6096 71.1151C26.8178 71.4479 25.1091 73.9647 24.6715 71.5519C24.2339 69.1391 26.8594 61.1519 26.4218 56.7007C26.0767 52.0941 27.5754 47.5389 30.5894 44.0335C30.5894 44.0335 31.027 41.6207 31.4646 40.1023C31.9022 38.5839 41.3 32.4479 42.4044 30.7007C42.857 29.7262 43.1187 28.6742 43.1754 27.6015C56.5709 17.7355 72.788 12.4271 89.4352 12.4591C91.519 12.4591 93.707 12.4591 95.7907 12.7087C95.862 12.8097 95.9386 12.9069 96.02 12.9999C97.2448 14.4765 98.9089 15.5256 100.771 15.9951C103.542 17.0143 104.188 18.3247 103.605 19.4063C103.343 19.8619 102.958 20.2345 102.493 20.481C102.029 20.7276 101.504 20.8381 100.979 20.7999C99.8957 20.7999 98.8956 20.2799 97.7078 21.0079C96.5201 21.7359 95.3531 25.6671 93.832 25.8959C92.3108 26.1247 89.6644 22.4015 89.0185 21.2991C88.3725 20.1967 90.3313 17.8879 89.4352 16.7855C88.5392 15.6831 86.9764 15.9119 84.4967 15.7039C82.017 15.4959 76.1616 16.4319 76.4742 17.3679C76.7867 18.3039 84.9343 17.2223 85.1427 19.1151C85.351 21.0079 79.0997 24.2111 77.9953 23.9199C76.8909 23.6287 75.4531 21.7359 73.8277 21.5279C72.2024 21.3199 70.9105 22.6095 69.8894 22.7551C68.8684 22.9007 67.7014 21.6735 66.1594 21.9647C64.6174 22.2559 64.2632 23.5663 63.4714 24.0447C62.6795 24.5231 60.7625 24.5647 60.5541 25.7295C60.3457 26.8943 62.9504 27.5391 63.6172 28.2671C64.284 28.9951 62.8045 31.4911 63.4714 31.9903C64.1382 32.4895 68.2015 28.9327 69.2226 28.0591C70.2436 27.1855 71.1188 23.3999 73.3901 23.4623C75.6615 23.5247 76.3074 27.2479 77.0368 27.6223C77.7661 27.9967 79.3706 26.7487 81.7878 27.2479C84.2049 27.7471 85.9553 33.0095 86.3096 34.6111C86.6638 36.2127 87.7682 37.8143 86.893 38.4799C85.9515 38.6619 84.9807 38.6252 84.0557 38.3727C83.1307 38.1203 82.2763 37.6588 81.5586 37.0239C81.0585 36.0047 84.1841 34.4655 83.9758 34.1119C83.5426 33.8114 83.0403 33.6252 82.5156 33.5706C81.991 33.5161 81.461 33.5949 80.9751 33.7999C80.0374 34.3615 79.5998 35.5679 78.5787 35.8799C77.5577 36.1919 74.8488 33.1135 74.1195 33.9871C73.3902 34.8607 74.8488 37.6271 75.5781 38.2719C76.3075 38.9167 79.0164 39.2911 79.2248 40.0191C79.4331 40.7471 77.4118 42.3487 74.9321 42.2031C72.4524 42.0575 70.4104 40.1231 69.4518 40.9759C68.4933 41.8287 69.0142 43.8879 68.3682 44.6159C67.7223 45.3439 64.2007 44.8239 62.3878 46.6959C60.5749 48.5679 59.8248 51.4383 58.0744 53.0399C56.324 54.6415 55.5114 52.6031 53.1776 54.8495C50.8437 57.0959 50.4895 62.1295 50.4061 63.8767C50.3228 65.6239 50.4061 67.0175 49.8227 66.7887C49.2392 66.5599 48.4474 65.0415 48.2182 64.1055C47.989 63.1695 48.7391 61.5471 48.7391 60.9647C47.4242 59.1404 45.5526 57.7904 43.4047 57.1167C41.4459 56.8255 39.6955 58.4271 38.2369 59.5919C36.7782 60.7567 34.0693 60.5279 33.1941 61.4847C32.3189 62.4415 31.5271 70.8031 32.2564 72.7791C32.9858 74.7551 33.9234 74.7343 36.2573 73.7151C38.5911 72.6959 37.2783 70.7199 38.6744 71.1567C39.289 71.3988 39.8164 71.8199 40.1881 72.3652C40.5597 72.9105 40.7583 73.5548 40.7582 74.2143C40.7582 75.3999 37.9868 78.1663 38.3619 78.9567C38.737 79.7471 41.1333 78.8111 42.3003 79.1855C43.4672 79.5599 44.0506 80.2671 43.6755 83.3455C43.3004 86.4239 43.5297 88.6495 45.28 89.5855C47.0304 90.5215 48.0306 88.1711 48.7808 88.5039C49.5309 88.8367 50.6562 90.5839 51.7398 90.4591C52.8233 90.3343 52.2815 89.3775 54.3653 88.7119C56.449 88.0463 55.678 87.6303 56.1156 86.3199C56.1867 85.9824 56.33 85.6643 56.5357 85.3873C56.7414 85.1103 57.0047 84.881 57.3075 84.715C57.6103 84.5491 57.9455 84.4504 58.2901 84.4259C58.6347 84.4013 58.9804 84.4514 59.3038 84.5727C60.7208 85.2175 59.7414 86.2159 59.8456 87.2975C59.9498 88.3791 62.4712 88.5039 64.4299 89.1487C66.3887 89.7935 67.4931 89.1487 71.4314 90.4591C75.3697 91.7695 75.599 95.7215 77.2451 96.3663C78.8913 97.0111 84.3508 95.9295 88.2891 98.7791C92.2275 101.629 91.1439 106.85 93.1026 108.389C95.0614 109.928 102.417 111.987 105.251 112.549C108.085 113.11 108.543 111.134 110.836 111.675C111.959 111.785 113.009 112.281 113.807 113.077C114.605 113.874 115.101 114.922 115.212 116.043C115.837 118.747 107.293 124.592 106.314 127.234Z" fill="#FFA4BB"/>
<path d="M47.6134 71.3648C47.6134 71.9888 49.5095 72.2384 51.7806 73.4448C54.0518 74.6512 54.7602 78.312 55.9478 78.2496C57.1355 78.1872 56.7604 76.5024 57.198 76.0656C57.3871 75.9355 57.5417 75.7616 57.6485 75.5587C57.7553 75.3558 57.8111 75.13 57.8111 74.9008C57.8111 74.6716 57.7553 74.4458 57.6485 74.2429C57.5417 74.04 57.3871 73.866 57.198 73.736C56.0312 72.7792 54.8852 70.7408 52.7599 70.4496C50.6347 70.1584 50.2596 69.2848 49.322 69.3472C49.0652 69.3306 48.808 69.3742 48.5712 69.4748C48.3344 69.5753 48.1245 69.7299 47.9583 69.9261C47.7922 70.1223 47.6744 70.3546 47.6145 70.6045C47.5546 70.8543 47.5543 71.1148 47.6134 71.3648Z" fill="#FFA4BB"/>
<path d="M59.5538 77.4801C59.2205 78.3745 59.5538 79.0193 61.8874 79.5601C64.2211 80.1009 66.4089 78.9777 65.6796 78.4993C64.9503 78.0209 63.846 78.2497 64.2836 77.4385C64.7211 76.6273 64.5753 75.4833 62.6792 75.6913C60.7831 75.8993 59.8455 76.6897 59.5538 77.4801Z" fill="#FFA4BB"/>
<path d="M67.7219 77.73C66.9094 77.8548 66.472 79.2275 67.2844 80.1011C68.0969 80.9747 68.076 80.8291 69.0343 80.1011C69.9926 79.3731 71.43 79.0195 71.1176 78.2915C70.8051 77.5635 68.451 77.6052 67.7219 77.73Z" fill="#FFA4BB"/>
<path d="M74.0572 80.7038C74.4114 79.6222 76.2446 80.7038 77.0571 81.8478C77.3737 82.4956 77.5383 83.2069 77.5383 83.9278C77.5383 84.6486 77.3737 85.36 77.0571 86.0078C76.6196 87.2558 76.328 88.7118 75.3072 88.0878C74.2864 87.4638 75.3072 85.7582 75.3072 84.739C75.3072 83.7198 73.7656 81.5982 74.0572 80.7038Z" fill="#FFA4BB"/>
<path d="M105.501 19.9472C105.126 20.8624 106.897 21.1952 107.918 21.7776C108.939 22.36 109.73 22.7136 110.314 21.7776C110.421 21.5649 110.479 21.331 110.484 21.0929C110.489 20.8549 110.441 20.6187 110.344 20.4015C110.246 20.1843 110.101 19.9916 109.919 19.8375C109.737 19.6833 109.523 19.5716 109.293 19.5104C108.501 19.3024 105.96 19.0736 105.501 19.9472Z" fill="#FFA4BB"/>
<path d="M119.296 28.4751C119.962 29.1823 121.108 29.0575 121.921 30.0767C122.734 31.0959 122.421 32.8431 123.442 33.3631C124.463 33.8831 125.192 33.3631 125.275 32.6351C125.359 31.9071 123.817 30.0767 123.963 29.7023C124.109 29.3279 126.046 30.2223 126.505 31.3247C126.963 32.4271 126.067 33.9455 127.088 34.2367C128.109 34.5279 127.901 33.2175 128.338 32.9263C128.776 32.6351 129.714 32.7807 129.651 31.9071C129.296 30.5644 128.531 29.365 127.463 28.4751C126.518 27.6433 125.39 27.0448 124.171 26.7279C123.511 26.5362 122.818 26.489 122.138 26.5895C121.459 26.69 120.809 26.9359 120.233 27.3103C119.441 27.9551 118.879 28.0383 119.296 28.4751Z" fill="#FFA4BB"/>
<path d="M150.844 42.2033C150.8 42.4962 150.661 42.7666 150.448 42.9729C148.906 44.0545 147.094 40.2689 144.968 39.5409C142.843 38.8129 141.905 36.1297 141.467 36.7121C141.03 37.2945 141.176 38.0849 140.509 39.0417C139.842 39.9985 138.904 39.7697 138.425 41.5793C137.946 43.3889 140.509 46.7585 139.905 47.8193C139.3 48.8801 138.592 48.5473 137.404 48.4849C136.216 48.4225 136.466 49.4209 134.945 48.9841C133.424 48.5473 134.716 46.6545 132.299 44.4081C129.882 42.1617 129.09 41.7041 129.611 40.6849C130.132 39.6657 129.381 38.2097 130.486 38.0641C131.59 37.9185 132.445 39.5201 133.174 39.9569C133.903 40.3937 134.862 39.0833 134.924 37.8769C134.987 36.6705 132.382 35.1105 131.424 34.2161C130.584 32.7386 130.353 30.9936 130.778 29.3489C131.132 28.7041 132.236 28.9121 132.528 27.2689C132.695 26.3329 131.215 24.7729 129.944 23.6289C137.975 28.5124 145.056 34.8051 150.844 42.2033Z" fill="#FFA4BB"/>
<path d="M161.742 107.474C161.971 105.144 160.805 104.999 161.972 100.714C162.327 99.0192 162.325 97.2695 161.966 95.5757C161.608 93.882 160.9 92.2812 159.888 90.8753C159.013 89.9393 157.116 90.2305 155.595 91.1665C154.074 92.1025 155.158 92.8513 154.137 93.2465C153.115 93.6417 152.053 93.0385 151.136 93.1009C150.219 93.1633 149.323 95.5761 147.281 95.5137C145.239 95.4513 143.926 92.5185 142.384 90.4385C140.842 88.3585 137.716 87.0689 136.695 84.5105C135.674 81.9521 137.633 78.0417 137.195 75.0465C136.758 72.0513 134.799 72.7169 134.424 71.0529C134.049 69.3889 134.716 70.1793 135.237 68.5569C135.758 66.9345 134.653 66.0817 135.674 63.3153C136.695 60.5489 138.508 59.1553 138.071 57.9281C137.249 56.437 136.612 54.8514 136.174 53.2065C136.174 51.7505 137.571 51.8129 140.342 49.7745C143.113 47.7361 143.843 47.8817 145.968 48.6097C147.484 49.1784 149.045 49.6168 150.636 49.9201C151.865 50.1489 153.553 53.3521 154.053 53.2065C154.553 53.0609 154.637 52.1041 154.866 50.7313C155.001 50.1273 155.313 49.5771 155.762 49.1505C163.994 62.3347 168.098 77.6708 167.549 93.1964C166.999 108.722 161.821 123.731 152.678 136.302C160.138 124.925 161.534 109.803 161.742 107.474Z" fill="#FFA4BB"/>
<path d="M0.04117 90.3969C-0.203682 98.4267 0.644499 106.452 2.56252 114.254L3.25014 117.187L4.20872 120.058L6.14662 125.798L8.62631 131.331C9.06391 132.246 9.43898 133.182 9.91824 134.077L11.4186 136.718C15.386 143.805 20.2923 150.326 26.005 156.104L30.4642 160.264C31.9229 161.699 33.6524 162.802 35.2361 164.091C38.523 166.575 41.9609 168.854 45.53 170.914C47.3012 171.912 49.1766 172.765 50.9894 173.701L53.7609 175.053C54.6778 175.49 55.6571 175.802 56.6157 176.176L62.3877 178.256L68.3265 179.837L71.3062 180.627L74.3485 181.126L80.4332 182.104L86.6845 182.458L89.7477 182.645C90.7896 182.645 91.8315 182.645 92.8317 182.541L99.083 182.27C101.167 182.062 103.251 181.688 105.209 181.397C109.278 180.762 113.301 179.866 117.254 178.714C119.212 178.09 121.129 177.341 123.088 176.634L125.984 175.573C126.922 175.178 127.86 174.699 128.777 174.262L134.361 171.6L139.654 168.397C141.436 167.364 143.136 166.196 144.738 164.902C146.364 163.654 148.073 162.49 149.635 161.138C152.768 158.465 155.719 155.588 158.471 152.526C164.064 146.475 168.778 139.669 172.474 132.309L175.099 126.734C175.891 124.842 176.516 122.886 177.183 120.952L178.225 118.061C178.537 117.083 178.746 115.981 178.996 115.086L180.496 109.117C182.011 101.057 182.501 92.8385 181.955 84.6561C180.758 68.3204 175.116 52.6207 165.639 39.2497C156.245 26.0443 143.421 15.6457 128.548 9.17285C142.713 16.4998 154.705 27.4087 163.326 40.8097C171.873 54.009 176.776 69.228 177.537 84.9265C177.797 92.6982 177.154 100.474 175.62 108.098L174.12 113.714C173.849 114.65 173.64 115.606 173.328 116.522L172.307 119.246C171.598 121.035 170.994 122.886 170.223 124.654L167.66 129.854C166.808 131.598 165.848 133.286 164.784 134.909C163.743 136.531 162.867 138.258 161.659 139.797C157.157 146.09 151.901 151.811 146.01 156.832C144.53 158.101 142.926 159.182 141.384 160.347L139.05 162.074C138.258 162.635 137.404 163.093 136.591 163.613C110.565 180.69 75.3071 181.584 47.8013 166.92C40.9453 163.171 34.5768 158.595 28.8389 153.296C23.0896 147.941 18.0856 141.841 13.9608 135.158L12.3562 132.683C11.8561 131.83 11.4603 130.936 10.981 130.083L8.27204 124.821L5.93823 119.454L4.85469 116.709L4.04198 113.859C3.5002 111.946 2.91675 110.053 2.41664 108.139L1.37475 102.274C1.18721 101.296 0.978815 100.318 0.832951 99.3409L0.562114 96.3665L0.04117 90.3969Z" fill="#37474F"/>
<path d="M120.817 19.8224L131.403 24.8352L138.842 2.57921L133.403 0L120.817 19.8224Z" fill="#37474F"/>
<path d="M82.5389 207.875H93.8945V180.128H82.5389V207.875Z" fill="#37474F"/>
<path d="M46.6142 207.854H129.819V197.558H46.6142V207.854Z" fill="#37474F"/>
</svg>
