<svg width="125" height="123" viewBox="0 0 125 123" fill="none" xmlns="http://www.w3.org/2000/svg">
<path d="M27.1754 74.369L19.0874 49.3165C17.4092 44.5041 19.9973 38.2763 27.1754 31.8262C41.4912 19.0673 68.586 10.2514 87.6737 12.1319C97.3186 13.0822 103.081 16.5803 104.557 21.4533L112.645 46.4048C114.283 51.2171 112.524 59.9724 105.305 66.3821C90.9695 79.141 63.8949 87.9569 44.8073 86.0966C35.2836 85.1463 28.6313 79.1814 27.1552 74.4095L27.1754 74.369Z" fill="#263238"/>
<path d="M50.2669 0L123.807 15.5896L73.5401 71.4777L0 55.9083L50.2669 0Z" fill="#455A64"/>
<path d="M123.807 15.5896L124.636 18.1373L74.3691 74.0456L73.54 71.4777L123.807 15.5896Z" fill="#37474F"/>
<path d="M0 55.9082L0.829027 58.4559L74.3692 74.0455L73.5401 71.4776L0 55.9082Z" fill="#263238"/>
<path opacity="0.1" d="M104.901 40.0962L75.6228 77.8671L29.8447 64.6028L74.3692 74.0456L104.901 40.0962Z" fill="black"/>
<path d="M33.4443 57.1416L55.6863 32.0284C55.9062 31.7307 56.2353 31.5326 56.6012 31.4777C56.9672 31.4227 57.3399 31.5153 57.6376 31.7352C57.9352 31.955 58.1333 32.2841 58.1883 32.6501C58.2433 33.016 58.1506 33.3888 57.9308 33.6864L57.7892 33.9088L35.5472 59.0423" fill="#E0E0E0"/>
<path d="M41.916 97.4807C42.6759 97.6047 43.4545 97.5445 44.1863 97.3052C44.9181 97.066 45.5819 96.6546 46.1218 96.1057L56.7979 117.236C58.1527 121.441 47.2541 125 45.8791 120.794L41.916 97.4807Z" fill="#FFA4BB"/>
<path opacity="0.15" d="M45.8594 110.199L49.1148 122.675C48.8519 122.675 48.5891 122.675 48.3464 122.675L45.8594 110.199Z" fill="black"/>
<path opacity="0.15" d="M55.019 120.855L47.0928 101.504L55.6458 120.309L55.019 120.855Z" fill="black"/>
<path opacity="0.15" d="M52.6938 122.048L52.0265 122.27L47.2344 106.418L52.6938 122.048Z" fill="black"/>
<path d="M44.0187 96.5099C44.3713 96.39 44.6623 96.136 44.8289 95.8029C44.9954 95.4699 45.024 95.0846 44.9084 94.7306L34.6366 63.2076C34.4076 62.4947 34.3711 61.734 34.5309 61.0025C34.6907 60.271 35.0411 59.5947 35.5465 59.0423L33.5245 57.1416C32.6902 58.0656 32.1144 59.1934 31.8552 60.4111C31.5961 61.6288 31.6627 62.8934 32.0485 64.0771L42.3 95.6203C42.4239 95.9562 42.6689 96.2336 42.9869 96.3982C43.3049 96.5628 43.6729 96.6027 44.0187 96.5099Z" fill="#E0E0E0"/>
<path d="M46.5261 94.2051C46.3374 93.6194 45.9795 93.1028 45.4975 92.7204C45.0154 92.338 44.4309 92.1069 43.8177 92.0564C43.2045 92.0059 42.59 92.1382 42.0519 92.4366C41.5139 92.735 41.0762 93.1862 40.7943 93.7331C40.5124 94.28 40.3988 94.8982 40.468 95.5096C40.5371 96.121 40.7858 96.6982 41.1827 97.1684C41.5796 97.6385 42.1069 97.9806 42.698 98.1514C43.2891 98.3221 43.9176 98.3139 44.5041 98.1278C45.2902 97.8727 45.9438 97.3173 46.3225 96.5827C46.7012 95.848 46.7744 94.9935 46.5261 94.2051Z" fill="#FFA4BB"/>
<path opacity="0.15" d="M40.7031 96.2875C40.929 96.5487 41.2084 96.7581 41.5224 96.9017C41.8365 97.0452 42.1777 97.1196 42.5229 97.1196C42.8682 97.1196 43.2094 97.0452 43.5234 96.9017C43.8374 96.7581 44.1169 96.5487 44.3427 96.2875C44.6382 95.9563 44.8427 95.5542 44.9364 95.1204C45.0302 94.6865 45.0098 94.2358 44.8774 93.8122C44.7451 93.3886 44.5051 93.0065 44.1811 92.7032C43.857 92.3999 43.4599 92.1858 43.0284 92.0818C43.757 91.9436 44.5111 92.0717 45.1531 92.4429C45.7952 92.814 46.2826 93.4034 46.5265 94.1038C46.6522 94.4941 46.6996 94.9054 46.666 95.314C46.6323 95.7227 46.5183 96.1207 46.3304 96.4852C46.1425 96.8496 45.8845 97.1734 45.5712 97.4379C45.2578 97.7024 44.8953 97.9024 44.5045 98.0265C43.7684 98.2694 42.9676 98.2253 42.2626 97.9028C41.5577 97.5803 41.0007 97.0034 40.7031 96.2875Z" fill="black"/>
</svg>
