<svg width="133" height="81" viewBox="0 0 133 81" fill="none" xmlns="http://www.w3.org/2000/svg">
<path d="M86.6078 47.8061L85.3975 47.4538C85.616 46.7322 90.6591 29.7341 99.7368 26.8311C104.444 25.3377 109.352 26.8312 114.11 28.4253C118.094 29.7005 121.859 30.8919 124.818 29.9355C126.198 29.4066 127.429 28.5542 128.409 27.4503C129.39 26.3463 130.089 25.0232 130.45 23.5926C131.011 21.9675 131.2 20.2372 131.003 18.5295C130.805 16.8217 130.225 15.1801 129.306 13.726L130.315 12.9541C131.354 14.5698 132.014 16.3995 132.244 18.3059C132.474 20.2123 132.268 22.1459 131.643 23.9618C131.233 25.5854 130.434 27.0855 129.316 28.3334C128.197 29.5814 126.792 30.5399 125.221 31.1268C121.859 32.2175 117.909 30.959 113.723 29.6166C109.151 28.1568 104.444 26.6466 100.123 28.0393C91.6678 30.7241 86.6582 47.6383 86.6078 47.8061Z" fill="#263238"/>
<path d="M129.592 14.4644C127.835 14.4631 126.104 14.037 124.548 13.2226C122.066 11.5003 119.807 9.47677 117.824 7.19862L118.766 6.35962C120.65 8.52032 122.783 10.4521 125.12 12.1152C126.52 12.8296 128.07 13.2034 129.642 13.2059V14.4644H129.592Z" fill="#FFA4BB"/>
<path d="M130.853 13.1723L129.592 13.0045C129.825 11.3369 129.876 9.64901 129.743 7.9705C129.558 6.59454 126.886 2.9365 125.138 0.788662L126.113 0C126.583 0.57052 130.701 5.65485 130.987 7.80269C131.129 9.59237 131.084 11.3919 130.853 13.1723Z" fill="#FFA4BB"/>
<path d="M129.659 14.0784C127.518 12.8788 125.487 11.4918 123.591 9.93372C122.397 8.64166 118.178 3.94325 118.178 3.94325L119.119 3.10425C119.119 3.10425 123.339 7.80264 124.515 9.07792C126.319 10.5544 128.255 11.8631 130.298 12.9877L129.659 14.0784Z" fill="#FFA4BB"/>
<path d="M129.574 13.5748C128.567 11.1214 127.352 8.75808 125.943 6.51045C124.817 5.30229 122.178 1.47646 122.061 1.359L123.103 0.637451C123.103 0.637451 125.792 4.51363 126.868 5.67145C128.379 8.02173 129.673 10.5042 130.734 13.0882L129.574 13.5748Z" fill="#FFA4BB"/>
<path d="M59.0887 70.2243L0 66.2474L52.146 33.5935L111.151 45.0375L59.0887 70.2243Z" fill="#FFA4BB"/>
<path opacity="0.1" d="M59.0887 70.2243L0 66.2474L52.146 33.5935L111.151 45.0375L59.0887 70.2243Z" fill="black"/>
<path d="M31.0825 80.7284L25.9385 64.1666C25.9385 64.1666 41.6563 53.0079 55.0038 50.4909C68.3513 47.9739 85.9182 51.4977 85.9182 51.4977L88.2716 69.9557C88.2716 69.9557 68.1831 69.8718 57.4413 72.1371C46.6994 74.4024 31.0825 80.7284 31.0825 80.7284Z" fill="#FFA4BB"/>
</svg>
