<svg width="134" height="189" viewBox="0 0 134 189" fill="none" xmlns="http://www.w3.org/2000/svg">
<path d="M120.813 171.646C120.831 170.858 120.756 170.071 120.591 169.3C118.675 160.598 113.54 152.941 106.214 147.867H76.208C68.8886 152.934 63.7593 160.585 61.8518 169.28C61.6711 170.055 61.5896 170.85 61.6091 171.646C61.6016 171.781 61.6016 171.916 61.6091 172.05C61.8922 176.094 64.7432 180.3 70.2228 183.475C81.7887 190.167 100.553 190.167 112.119 183.475C117.618 180.32 120.47 176.195 120.753 172.05C120.793 172.05 120.813 171.808 120.813 171.646Z" fill="#FFA4BB"/>
<g opacity="0.15">
<path d="M120.813 171.646C120.831 170.858 120.756 170.071 120.591 169.3C118.675 160.598 113.54 152.941 106.214 147.867H76.208C68.8886 152.934 63.7593 160.585 61.8518 169.28C61.6711 170.055 61.5896 170.85 61.6091 171.646C61.6016 171.781 61.6016 171.916 61.6091 172.05C61.8922 176.094 64.7432 180.3 70.2228 183.475C81.7887 190.167 100.553 190.167 112.119 183.475C117.618 180.32 120.47 176.195 120.753 172.05C120.793 172.05 120.813 171.808 120.813 171.646Z" fill="black"/>
</g>
<path d="M76.9763 147.402C69.1108 151.931 69.1108 159.291 76.9763 163.841C81.3891 166.074 86.2654 167.238 91.2112 167.238C96.1569 167.238 101.033 166.074 105.446 163.841C113.312 159.291 113.312 151.931 105.446 147.402C101.036 145.159 96.1586 143.99 91.2112 143.99C86.2637 143.99 81.3863 145.159 76.9763 147.402Z" fill="#FFA4BB"/>
<path d="M96.0245 156.056C96.3689 155.697 96.6677 155.296 96.9141 154.863L126.233 89.856L117.013 85.0234L86.0964 153.064C85.2674 154.782 85.2472 155.895 87.067 156.946C88.2936 157.574 89.652 157.902 91.0301 157.902C92.4082 157.902 93.7666 157.574 94.9932 156.946C95.3436 156.751 95.6582 156.498 95.9234 156.198L96.0245 156.056Z" fill="#FFA4BB"/>
<path opacity="0.5" d="M96.0245 156.056C96.3689 155.697 96.6677 155.296 96.9141 154.863L126.233 89.856L117.013 85.0234L86.0964 153.064C85.2674 154.782 85.2472 155.895 87.067 156.946C88.2936 157.574 89.652 157.902 91.0301 157.902C92.4082 157.902 93.7666 157.574 94.9932 156.946C95.3436 156.751 95.6582 156.498 95.9234 156.198L96.0245 156.056Z" fill="black"/>
<path d="M120.531 72.2647C119.677 72.0678 118.785 72.1172 117.958 72.4071C117.132 72.697 116.404 73.2155 115.86 73.9025C114.307 75.6556 113.188 77.7498 112.595 80.0155C112.001 82.2812 111.949 84.6548 112.443 86.9444C112.582 87.6984 112.897 88.4093 113.36 89.0203C113.823 89.6312 114.423 90.1252 115.112 90.4627L125.404 94.3044L130.54 75.9649L120.531 72.2647Z" fill="#FFA4BB"/>
<g opacity="0.15">
<path d="M120.531 72.2647C119.677 72.0678 118.785 72.1172 117.958 72.4071C117.132 72.697 116.404 73.2155 115.86 73.9025C114.307 75.6556 113.188 77.7498 112.595 80.0155C112.001 82.2812 111.949 84.6548 112.443 86.9444C112.582 87.6984 112.897 88.4093 113.36 89.0203C113.823 89.6312 114.423 90.1252 115.112 90.4627L125.404 94.3044L130.54 75.9649L120.531 72.2647Z" fill="black"/>
</g>
<path d="M126.011 77.7241C124.451 79.4737 123.327 81.5669 122.73 83.8333C122.132 86.0996 122.079 88.475 122.573 90.766C123.706 94.9111 127.082 95.8007 130.095 92.788C131.655 91.0383 132.779 88.9451 133.376 86.6788C133.973 84.4124 134.027 82.037 133.532 79.7461C132.4 75.5605 129.044 74.7517 126.011 77.7241Z" fill="#FFA4BB"/>
<path d="M75.3795 17.3065C74.1983 17.5389 73.0886 18.0462 72.1401 18.7875C71.1916 19.5287 70.431 20.483 69.92 21.5729C69.6995 21.974 69.6012 22.4308 69.6371 22.8871C69.6731 23.3434 69.8417 23.7792 70.1223 24.1409L116.224 79.6043C116.524 79.8661 116.882 80.0537 117.269 80.152C117.655 80.2504 118.059 80.2567 118.448 80.1705C119.629 79.9381 120.739 79.4307 121.687 78.6895C122.636 77.9483 123.397 76.994 123.907 75.9041C124.13 75.5026 124.228 75.0436 124.189 74.5861C124.149 74.1285 123.974 73.6933 123.685 73.3361L77.7048 17.9333C77.3989 17.6452 77.0265 17.4372 76.6208 17.3278C76.2151 17.2184 75.7887 17.2111 75.3795 17.3065Z" fill="#FFA4BB"/>
<g opacity="0.5">
<path d="M75.3795 17.3065C74.1983 17.5389 73.0886 18.0462 72.1401 18.7875C71.1916 19.5287 70.431 20.483 69.92 21.5729C69.6995 21.974 69.6012 22.4308 69.6371 22.8871C69.6731 23.3434 69.8417 23.7792 70.1223 24.1409L116.224 79.6043C116.524 79.8661 116.882 80.0537 117.269 80.152C117.655 80.2504 118.059 80.2567 118.448 80.1705C119.629 79.9381 120.739 79.4307 121.687 78.6895C122.636 77.9483 123.397 76.994 123.907 75.9041C124.13 75.5026 124.228 75.0436 124.189 74.5861C124.149 74.1285 123.974 73.6933 123.685 73.3361L77.7048 17.9333C77.3989 17.6452 77.0265 17.4372 76.6208 17.3278C76.2151 17.2184 75.7887 17.2111 75.3795 17.3065Z" fill="black"/>
</g>
<path d="M81.991 17.529C84.5792 14.314 82.3348 8.40978 79.3826 5.01282C76.4305 1.61586 70.8902 -1.39692 67.2506 0.685738C63.611 2.7684 52.7529 11.8876 52.7529 11.8876L69.3738 30.9753C69.3738 30.9753 79.4231 20.7642 81.991 17.529Z" fill="#FFA4BB"/>
<path opacity="0.25" d="M81.991 17.529C84.5792 14.314 82.3348 8.40978 79.3826 5.01282C76.4305 1.61586 70.8902 -1.39692 67.2506 0.685738C63.611 2.7684 52.7529 11.8876 52.7529 11.8876L69.3738 30.9753C69.3738 30.9753 79.4231 20.7642 81.991 17.529Z" fill="black"/>
<path opacity="0.15" d="M73.8634 0.928467C77.6041 5.27577 75.2181 17.4482 64.1982 24.9498L69.4555 31.0158C69.4555 31.0158 79.4239 20.9058 81.9918 17.5695C84.5598 14.2332 82.3355 8.45029 79.3834 5.05333C77.8538 3.30562 75.9729 1.9001 73.8634 0.928467Z" fill="black"/>
<path d="M49.3971 78.1081C60.3766 68.544 78.2106 32.3502 65.4114 17.6503C52.6121 2.95033 14.3154 15.6283 3.33594 25.1923" fill="#FFA4BB"/>
<path opacity="0.15" d="M49.3971 78.1081C60.3766 68.544 78.2106 32.3502 65.4114 17.6503C52.6121 2.95033 14.3154 15.6283 3.33594 25.1923" fill="black"/>
<path d="M1.03044 40.8831C-3.01356 26.1629 5.21598 19.0657 19.2284 25.0104C33.2409 30.9551 47.8398 47.7175 51.8029 62.4376C55.766 77.1578 47.6174 84.2348 33.6049 78.2901C19.5924 72.3454 4.91268 55.583 1.03044 40.8831Z" fill="#FFA4BB"/>
<path opacity="0.5" d="M1.03044 40.8831C-3.01356 26.1629 5.21598 19.0657 19.2284 25.0104C33.2409 30.9551 47.8398 47.7175 51.8029 62.4376C55.766 77.1578 47.6174 84.2348 33.6049 78.2901C19.5924 72.3454 4.91268 55.583 1.03044 40.8831Z" fill="black"/>
<path d="M46.7483 52.7118C47.0112 52.4893 47.2336 52.2669 47.4762 52.0242C42.759 43.6676 36.3717 36.3717 28.7121 30.5911L27.9842 31.1572C26.503 32.3694 25.2803 33.8666 24.3885 35.5602C23.4968 37.2537 22.9542 39.1091 22.793 41.0163C22.6318 42.9235 22.8552 44.8436 23.45 46.6628C24.0448 48.482 24.9988 50.1633 26.2555 51.6069C27.5122 53.0505 29.046 54.227 30.766 55.0667C32.4859 55.9065 34.357 56.3922 36.2682 56.4953C38.1794 56.5983 40.0918 56.3165 41.892 55.6666C43.6923 55.0167 45.3437 54.0119 46.7483 52.7118Z" fill="#FFA4BB"/>
<path opacity="0.7" d="M46.7483 52.7118C47.0112 52.4893 47.2336 52.2669 47.4762 52.0242C42.759 43.6676 36.3717 36.3717 28.7121 30.5911L27.9842 31.1572C26.503 32.3694 25.2803 33.8666 24.3885 35.5602C23.4968 37.2537 22.9542 39.1091 22.793 41.0163C22.6318 42.9235 22.8552 44.8436 23.45 46.6628C24.0448 48.482 24.9988 50.1633 26.2555 51.6069C27.5122 53.0505 29.046 54.227 30.766 55.0667C32.4859 55.9065 34.357 56.3922 36.2682 56.4953C38.1794 56.5983 40.0918 56.3165 41.892 55.6666C43.6923 55.0167 45.3437 54.0119 46.7483 52.7118Z" fill="white"/>
</svg>
