<svg width="135" height="164" viewBox="0 0 135 164" fill="none" xmlns="http://www.w3.org/2000/svg">
<path d="M116.564 58.9145C121.001 91.5851 102.073 102.643 100.829 111.973C100.47 117.739 100.441 123.521 100.745 129.29L67.6283 137.78C65.1263 132.586 62.3197 127.543 59.2231 122.678C53.642 115.094 31.7212 114.49 19.8698 83.7153C12.0697 63.5793 19.3151 26.5627 54.4657 17.5686C89.6164 8.57451 113.638 37.4529 116.564 58.9145Z" fill="#FFA4BB"/>
<path d="M53.9275 87.2769L52.4033 87.9844L75.7878 138.179L77.3119 137.471L53.9275 87.2769Z" fill="white"/>
<path d="M90.0217 78.3276L88.3457 78.439L92.0307 133.674L93.7068 133.562L90.0217 78.3276Z" fill="white"/>
<path d="M74.3526 100.613C72.0496 100.613 69.4104 99.2033 66.8048 96.5353L66.3508 96.0654C66.1298 96.6003 65.7987 97.083 65.3787 97.4819C64.9588 97.8808 64.4596 98.1872 63.9134 98.381C58.8702 99.6395 54.3314 89.991 54.1465 89.5212L54.9029 89.1688C54.9029 89.2695 59.425 98.6663 63.6948 97.5588C64.1755 97.3714 64.6087 97.0802 64.9632 96.7059C65.3178 96.3317 65.585 95.8837 65.7457 95.3942C62.5349 91.6355 59.9125 86.2995 60.7026 83.3462C60.8168 82.8804 61.0579 82.4553 61.399 82.1177C61.7402 81.7801 62.1682 81.5432 62.6357 81.4333C64.8211 80.8627 66.5189 82.289 67.2922 85.3262C68.0222 88.6178 67.8125 92.0478 66.6871 95.2264C66.9056 95.4781 67.141 95.713 67.3763 95.9479C69.0574 97.6259 72.3354 100.428 75.4285 99.6395C77.4962 99.1194 79.1604 96.9547 80.1018 93.5652C80.1859 93.2799 80.2531 92.9947 80.3372 92.6926C77.6589 90.7101 75.771 87.8447 75.0083 84.6047C74.0669 80.9299 74.8569 78.2954 77.0759 77.7416C77.5082 77.6258 77.9643 77.6336 78.3924 77.7642C78.8204 77.8947 79.2031 78.1427 79.4966 78.48C81.6147 80.6446 82.3712 86.87 81.2785 92.3067C82.3934 92.962 83.7212 93.1547 84.9769 92.8436C88.0364 92.055 88.8601 84.118 88.9273 81.0976H89.7678C89.7678 81.5675 89.4821 92.5248 85.1954 93.6155C83.8111 93.9608 82.3474 93.7752 81.0936 93.0953C81.0936 93.3303 80.9759 93.5484 80.9087 93.7665C80.1859 96.3674 78.6729 99.6395 75.647 100.479C75.2232 100.579 74.7881 100.624 74.3526 100.613ZM63.5603 82.1548C63.3368 82.1312 63.1114 82.1312 62.8879 82.1548C62.5596 82.2289 62.2591 82.3943 62.0211 82.6319C61.783 82.8695 61.6173 83.1695 61.5431 83.4972C60.8875 85.8296 62.9551 90.6287 66.0987 94.421C67.0272 91.5232 67.1722 88.4321 66.519 85.4604C66.1827 84.2523 65.359 82.1548 63.5603 82.1548ZM77.7316 78.4968C77.5976 78.4806 77.4621 78.4806 77.3281 78.4968C75.2604 79.0169 75.2436 81.987 75.8488 84.353C76.5844 87.2639 78.2265 89.8668 80.5389 91.7865C81.4803 86.7525 80.8078 80.9466 78.8578 79.0169C78.553 78.7149 78.144 78.5408 77.7147 78.5303L77.7316 78.4968Z" fill="white"/>
<path d="M104.298 126.823L63.3281 137.308L65.3822 145.305L106.352 134.82L104.298 126.823Z" fill="#455A64"/>
<path d="M106.688 136.125L65.7178 146.61L67.7718 154.607L108.742 144.122L106.688 136.125Z" fill="#455A64"/>
<path d="M109.056 145.415L68.0859 155.9L70.14 163.897L111.11 153.412L109.056 145.415Z" fill="#455A64"/>
<path d="M52.3466 11.9976C50.1786 8.37978 49.0181 4.24927 48.9854 0.0334473C50.0972 1.81534 50.9303 3.75619 51.4559 5.78899C52.0598 7.80291 52.36 9.89539 52.3466 11.9976Z" fill="#263238"/>
<path d="M26.8109 26.7808C24.9524 25.7848 23.2529 24.518 21.7682 23.0221C20.2498 21.5687 18.9529 19.9009 17.9189 18.072C19.7846 19.0569 21.4857 20.3249 22.9616 21.8308C24.4877 23.2773 25.7855 24.9463 26.8109 26.7808Z" fill="#263238"/>
<path d="M12.0531 52.169C7.82836 52.2211 3.66662 51.1435 0 49.0479C4.22476 48.9958 8.3865 50.0735 12.0531 52.169Z" fill="#263238"/>
<path d="M12.0191 81.6011C8.40333 83.7857 4.25971 84.9459 0.0332031 84.9571C3.64894 82.7725 7.79256 81.6123 12.0191 81.6011Z" fill="#263238"/>
<path d="M26.7454 107.107C25.7501 108.964 24.4809 110.661 22.9802 112.141C21.5321 113.665 19.8601 114.961 18.0215 115.983C19.008 114.121 20.2783 112.423 21.7867 110.949C23.2421 109.433 24.9128 108.138 26.7454 107.107Z" fill="#263238"/>
<path d="M122.061 81.6849C124.166 81.6201 126.269 81.8747 128.297 82.44C130.34 82.9285 132.296 83.7264 134.097 84.806C131.997 84.8717 129.9 84.617 127.877 84.0509C125.83 83.5595 123.869 82.7618 122.061 81.6849Z" fill="#263238"/>
<path d="M122.078 52.253C125.701 50.0709 129.849 48.911 134.081 48.897C130.458 51.0791 126.31 52.2389 122.078 52.253Z" fill="#263238"/>
<path d="M107.351 26.7809C108.352 24.9234 109.627 23.2265 111.133 21.7469C112.577 20.2186 114.25 18.9224 116.091 17.9043C114.039 21.5917 111.017 24.6495 107.351 26.7474V26.7809Z" fill="#263238"/>
<path d="M81.8337 12.0145C81.7837 7.80295 82.8629 3.65474 84.9596 0C85.0299 2.10053 84.7806 4.19955 84.2201 6.22538C83.7172 8.26278 82.9129 10.2139 81.8337 12.0145Z" fill="#263238"/>
</svg>
