<svg width="91" height="72" viewBox="0 0 91 72" fill="none" xmlns="http://www.w3.org/2000/svg">
<path d="M88.4895 56.093C87.8405 55.8647 87.142 55.8158 86.4675 55.9514L82.929 47.8634C83.5404 47.4157 84.005 46.7964 84.2635 46.0841C84.6148 45.1027 84.5618 44.022 84.1162 43.0797C83.6707 42.1374 82.8691 41.4107 81.8877 41.0594C80.9063 40.7082 79.8256 40.7611 78.8833 41.2067C77.941 41.6522 77.2143 42.4539 76.863 43.4353C76.6668 43.9785 76.5976 44.5596 76.6608 45.1337L67.582 47.9645C66.9736 46.6843 65.9192 45.6699 64.6163 45.1115C63.3135 44.5532 61.8517 44.4892 60.505 44.9315L55.1872 34.033C56.1867 33.3605 56.9505 32.3918 57.3709 31.2628C57.7839 30.0432 57.7839 28.7215 57.3709 27.5019L63.4369 24.6104C63.8714 25.187 64.4603 25.6286 65.1354 25.8843C65.8547 26.1572 66.6389 26.2103 67.3884 26.0368C68.1379 25.8633 68.8189 25.471 69.3451 24.9098C69.8713 24.3485 70.2188 23.6435 70.3436 22.8844C70.4684 22.1253 70.3649 21.3461 70.0461 20.646C69.7273 19.9458 69.2077 19.3561 68.5531 18.9518C67.8986 18.5474 67.1387 18.3467 66.3699 18.375C65.6011 18.4033 64.8581 18.6594 64.235 19.1108C63.612 19.5622 63.1372 20.1885 62.8708 20.9102C62.6041 21.6141 62.5548 22.3819 62.7292 23.1142L56.6632 26.0056C55.9836 24.9697 54.9922 24.1767 53.8324 23.741C53.4322 23.5997 53.0191 23.4981 52.599 23.4377V16.3809C53.2285 16.2387 53.8129 15.9426 54.2998 15.5192C54.7868 15.0957 55.1612 14.5581 55.3894 13.9545C55.6736 13.0103 55.5879 11.9932 55.1496 11.1099C54.7114 10.2266 53.9534 9.54311 53.0295 9.19828C52.1057 8.85345 51.0852 8.8731 50.1754 9.25322C49.2655 9.63335 48.5344 10.3455 48.1304 11.245C47.9818 11.6609 47.8999 12.0976 47.8878 12.5391L44.511 13.2266C44.1714 12.3989 43.5551 11.7148 42.7671 11.2911C41.9792 10.8674 41.0687 10.7304 40.1909 10.9035C39.3132 11.0765 38.5228 11.5489 37.9547 12.24C37.3866 12.9311 37.076 13.7979 37.076 14.6925C37.076 15.5871 37.3866 16.454 37.9547 17.1451C38.5228 17.8361 39.3132 18.3085 40.1909 18.4816C41.0687 18.6547 41.9792 18.5176 42.7671 18.0939C43.5551 17.6702 44.1714 16.9861 44.511 16.1585C44.663 15.7442 44.7384 15.3057 44.7334 14.8644L48.1506 14.1567C48.3589 14.6239 48.6598 15.044 49.0352 15.3916C49.4105 15.7391 49.8525 16.0069 50.3344 16.1787C50.5109 16.2447 50.6939 16.2922 50.8803 16.3202V23.3972C49.8441 23.5487 48.8677 23.9758 48.0531 24.6338C47.2385 25.2919 46.6158 26.1567 46.2499 27.1379C46.0691 27.6331 45.9535 28.1497 45.9062 28.6747L31.6511 29.5037C31.4514 28.5334 31.0092 27.6295 30.3657 26.8764C29.7222 26.1232 28.8983 25.5454 27.9711 25.1968C27.4695 25.0142 26.946 24.8987 26.4141 24.8531L25.5851 10.2745C26.3715 10.0571 27.0688 9.59626 27.5771 8.95809C28.0853 8.31991 28.3785 7.53717 28.4144 6.7221C28.4503 5.90704 28.2272 5.10154 27.777 4.42112C27.3269 3.7407 26.6728 3.22032 25.9086 2.9346C25.4307 2.75652 24.9223 2.67436 24.4126 2.69281C23.9029 2.71127 23.4018 2.82998 22.938 3.04217C22.4742 3.25436 22.0567 3.55586 21.7095 3.92945C21.3623 4.30304 21.092 4.74139 20.9143 5.21946C20.9033 5.34053 20.9033 5.46235 20.9143 5.58342L11.5726 5.17902C11.4195 3.76361 10.7514 2.45386 9.69551 1.49895C8.63957 0.544051 7.26945 0.0106239 5.84582 0.000156997C4.42218 -0.0103099 3.04437 0.50291 1.97451 1.44218C0.904643 2.38146 0.217383 3.68124 0.0434742 5.09426C-0.130435 6.50727 0.221143 7.93491 1.03132 9.10557C1.8415 10.2762 3.05374 11.1082 4.43743 11.4433C5.82112 11.7783 7.27969 11.5931 8.53566 10.9227C9.79163 10.2523 10.7574 9.14367 11.2491 7.80762C11.3648 7.49238 11.4528 7.16763 11.512 6.83706L20.8334 7.24146C20.9489 7.90395 21.2354 8.5248 21.6645 9.04258C22.0936 9.56036 22.6505 9.95712 23.28 10.1936C23.5171 10.2796 23.7604 10.3472 24.0079 10.3958L24.837 24.9542C23.9304 25.1217 23.0766 25.5022 22.3458 26.0641C21.6149 26.6261 21.028 27.3535 20.6331 28.1866C20.2383 29.0196 20.0469 29.9346 20.0747 30.856C20.1025 31.7775 20.3487 32.6792 20.793 33.487L14.181 38.6836C13.8428 38.3849 13.4519 38.1518 13.0285 37.9961C12.1832 37.6756 11.2528 37.6585 10.3963 37.9477C9.53976 38.237 8.81023 38.8146 8.33231 39.582C7.85439 40.3494 7.65772 41.2589 7.77589 42.1552C7.89407 43.0514 8.31976 43.8789 8.98025 44.4962C9.64074 45.1135 10.4951 45.4823 11.3973 45.5396C12.2995 45.597 13.1936 45.3393 13.927 44.8107C14.6603 44.282 15.1874 43.5151 15.4181 42.641C15.6488 41.7669 15.5689 40.8398 15.192 40.0181L21.9859 34.8418C22.5535 35.4251 23.2444 35.8742 24.0079 36.1561C24.7218 36.4353 25.4869 36.5594 26.2524 36.52L27.506 43.3948C27.0136 43.596 26.5687 43.8977 26.1996 44.2807C25.8305 44.6637 25.5455 45.1195 25.3627 45.619C25.0914 46.3378 25.0395 47.1208 25.2135 47.8691C25.3875 48.6174 25.7796 49.2972 26.3401 49.8225C26.9007 50.3478 27.6045 50.695 28.3624 50.8202C29.1204 50.9453 29.8984 50.8428 30.5981 50.5255C31.2978 50.2083 31.8876 49.6906 32.2929 49.038C32.6982 48.3853 32.9007 47.6272 32.8749 46.8594C32.8491 46.0916 32.5961 45.3487 32.1479 44.7248C31.6996 44.1008 31.0764 43.6239 30.357 43.3544C29.9728 43.2207 29.5706 43.1457 29.164 43.132L27.9104 36.2572C28.7352 35.9922 29.4901 35.5459 30.1199 34.9511C30.7497 34.3563 31.2384 33.628 31.55 32.8198C31.741 32.3207 31.8568 31.7959 31.8937 31.2628L46.1691 30.4338C46.3256 31.2439 46.6531 32.0112 47.1296 32.6847C47.6062 33.3582 48.2209 33.9224 48.9327 34.3395C49.6445 34.7567 50.4371 35.0172 51.2576 35.1038C52.0781 35.1904 52.9077 35.1011 53.6909 34.8418L59.0694 45.7403C58.073 46.4249 57.3107 47.3989 56.8857 48.5307C56.4527 49.7059 56.4102 50.9893 56.7643 52.1905L48.2719 56.0323C47.8436 55.4097 47.2376 54.9306 46.533 54.6574C45.8168 54.3938 45.0387 54.3484 44.2967 54.5268C43.5547 54.7051 42.8822 55.0993 42.3641 55.6595C41.8459 56.2198 41.5054 56.9209 41.3854 57.6745C41.2654 58.4282 41.3714 59.2004 41.6899 59.8939C42.0084 60.5873 42.5253 61.1709 43.1752 61.5708C43.825 61.9708 44.5789 62.1693 45.3414 62.1412C46.104 62.1131 46.8412 61.8598 47.4599 61.4131C48.0787 60.9664 48.5512 60.3465 48.8179 59.6315C49.0611 58.9366 49.11 58.1886 48.9594 57.4679L57.4518 53.6261C58.1289 54.6944 59.1375 55.5112 60.3231 55.9514C60.5772 56.0535 60.8416 56.128 61.1116 56.1739L60.5657 63.4126C59.6414 63.5577 58.8019 64.035 58.2045 64.7551C57.6072 65.4752 57.2931 66.3885 57.3213 67.3236C57.3495 68.2588 57.7179 69.1515 58.3575 69.8343C58.9971 70.5171 59.8639 70.9431 60.7952 71.0323C61.7265 71.1214 62.6584 70.8677 63.4159 70.3186C64.1735 69.7696 64.7046 68.963 64.9097 68.0502C65.1148 67.1373 64.9798 66.181 64.5299 65.3607C64.0801 64.5404 63.3463 63.9124 62.4664 63.5946H62.2237L62.709 56.3154C63.521 56.2616 64.3127 56.0382 65.0331 55.6597C65.7534 55.2811 66.3864 54.7558 66.8913 54.1176C67.3962 53.4794 67.7617 52.7424 67.9642 51.9543C68.1668 51.1661 68.2019 50.3443 68.0673 49.5417L77.1259 46.7109C77.5784 47.5024 78.2938 48.1105 79.1479 48.4296C79.7972 48.6544 80.4931 48.7101 81.1699 48.5914L84.7084 56.6794C84.093 57.1144 83.627 57.7287 83.3739 58.4385C83.1046 59.1586 83.0552 59.9425 83.232 60.6907C83.4088 61.439 83.8037 62.1179 84.3668 62.6414C84.9299 63.1649 85.6357 63.5094 86.3948 63.6313C87.1539 63.7531 87.9321 63.6469 88.6307 63.326C89.3294 63.005 89.917 62.4839 90.3191 61.8286C90.7212 61.1733 90.9197 60.4134 90.8895 59.6452C90.8592 58.8769 90.6015 58.135 90.149 57.5134C89.6965 56.8918 89.0697 56.4186 88.348 56.1536L88.4895 56.093Z" fill="#FFA4BB"/>
</svg>
