<svg width="126" height="138" viewBox="0 0 126 138" fill="none" xmlns="http://www.w3.org/2000/svg">
<path d="M67.8175 41.0063L56.4336 21.2715L67.5142 2.08276H90.1201L90.4639 2.66914L101.504 21.8579L90.4234 41.0467H67.8175V41.0063ZM57.9097 21.8579L68.323 39.8739H89.3113L100.028 21.312L89.6146 3.29596H68.6263L57.9097 21.8579Z" fill="black"/>
<path d="M101.019 58.6987L90.6055 40.6827L101.322 22.1207H122.311L122.432 22.3027C122.432 22.0803 122.573 21.8579 122.654 21.6354C122.735 21.413 122.816 21.2715 122.897 21.0895V20.9277H100.21L89.1699 40.1569L100.23 59.3053L100.574 59.8917" fill="black"/>
<path d="M67.8182 78.757L56.4141 59.0223L67.5149 39.8335H90.1208L101.505 59.5682L90.4241 78.757H67.8182ZM57.9104 59.5682L68.3237 77.5842H89.312L100.008 59.0223L89.6153 41.0063H68.627L57.9104 59.5682Z" fill="black"/>
<path d="M35.1221 97.6425L23.7383 77.9077L34.8188 58.6987H57.4247L68.8289 78.4739L57.7281 97.6829H35.1221V97.6425ZM25.2345 78.4739L35.6276 96.4899H56.616L67.3326 77.9482L56.9192 59.9119H35.9309L25.2345 78.4739Z" fill="black"/>
<path d="M55.7465 97.6425V97.5009C56.1226 97.1382 56.544 96.8255 57.0001 96.5708L57.2428 96.4495H34.8188L23.7383 115.658L35.1019 135.353L35.7691 134.281H35.5872L25.1941 116.245L35.8905 97.7031L55.7465 97.6425Z" fill="black"/>
<path d="M24.7288 77.5842H24.4659C24.4659 77.9684 24.3244 78.3728 24.2233 78.757L34.5759 96.773L23.8593 115.335H2.93161L2.74964 115.052C2.68411 115.413 2.54654 115.756 2.34522 116.063L2.24414 116.184L2.42611 116.508H25.0321L36.1126 97.319L24.7288 77.5842Z" fill="black"/>
<path d="M95.883 40.4198C95.883 41.6195 95.5272 42.7923 94.8607 43.7898C94.1941 44.7874 93.2467 45.5649 92.1383 46.024C91.0299 46.4831 89.8103 46.6033 88.6336 46.3692C87.4569 46.1351 86.376 45.5574 85.5276 44.7091C84.6793 43.8607 84.1016 42.7799 83.8675 41.6032C83.6335 40.4265 83.7536 39.2068 84.2127 38.0984C84.6718 36.99 85.4493 36.0426 86.4469 35.3761C87.4444 34.7095 88.6172 34.3538 89.817 34.3538C91.4258 34.3538 92.9687 34.9929 94.1063 36.1305C95.2439 37.268 95.883 38.811 95.883 40.4198Z" fill="#FFA4BB"/>
<path d="M106.781 21.5343C106.781 22.734 106.426 23.9068 105.759 24.9043C105.093 25.9019 104.145 26.6794 103.037 27.1385C101.928 27.5976 100.709 27.7178 99.532 27.4837C98.3553 27.2496 97.2745 26.6719 96.4261 25.8236C95.5778 24.9752 95 23.8944 94.766 22.7177C94.5319 21.541 94.652 20.3213 95.1112 19.2129C95.5703 18.1045 96.3478 17.1571 97.3454 16.4906C98.3429 15.824 99.5157 15.4683 100.715 15.4683C102.324 15.4683 103.867 16.1074 105.005 17.245C106.142 18.3826 106.781 19.9255 106.781 21.5343Z" fill="#FFA4BB"/>
<path d="M74.0861 78.1705C74.0861 79.3702 73.7303 80.543 73.0638 81.5406C72.3973 82.5381 71.4499 83.3156 70.3414 83.7747C69.233 84.2339 68.0134 84.354 66.8367 84.1199C65.66 83.8859 64.5791 83.3082 63.7308 82.4598C62.8824 81.6115 62.3047 80.5306 62.0707 79.3539C61.8366 78.1772 61.9567 76.9576 62.4158 75.8491C62.875 74.7407 63.6524 73.7933 64.65 73.1268C65.6475 72.4603 66.8204 72.1045 68.0201 72.1045C69.6289 72.1045 71.1718 72.7436 72.3094 73.8812C73.447 75.0188 74.0861 76.5617 74.0861 78.1705Z" fill="#FFA4BB"/>
<path d="M41.3908 97.056C41.3908 98.2557 41.035 99.4285 40.3685 100.426C39.702 101.424 38.7545 102.201 37.6461 102.66C36.5377 103.119 35.3181 103.239 34.1414 103.005C32.9647 102.771 31.8838 102.194 31.0355 101.345C30.1872 100.497 29.6094 99.4161 29.3753 98.2394C29.1413 97.0627 29.2614 95.843 29.7205 94.7346C30.1797 93.6262 30.9571 92.6788 31.9547 92.0123C32.9522 91.3458 34.125 90.99 35.3248 90.99C36.9336 90.99 38.4765 91.6291 39.6141 92.7667C40.7517 93.9043 41.3908 95.4472 41.3908 97.056Z" fill="#FFA4BB"/>
<path d="M30.5324 78.1705C30.5324 79.3702 30.1766 80.543 29.5101 81.5406C28.8436 82.5381 27.8961 83.3156 26.7877 83.7747C25.6793 84.2339 24.4597 84.354 23.283 84.1199C22.1063 83.8859 21.0254 83.3082 20.1771 82.4598C19.3288 81.6115 18.751 80.5306 18.517 79.3539C18.2829 78.1772 18.403 76.9576 18.8621 75.8491C19.3213 74.7407 20.0987 73.7933 21.0963 73.1268C22.0938 72.4603 23.2666 72.1045 24.4664 72.1045C26.0752 72.1045 27.6181 72.7436 28.7557 73.8812C29.8933 75.0188 30.5324 76.5617 30.5324 78.1705Z" fill="#FFA4BB"/>
<path d="M70.7297 2.66904C70.7297 3.19693 70.5731 3.71296 70.2799 4.15188C69.9866 4.5908 69.5698 4.9329 69.0821 5.13492C68.5944 5.33693 68.0577 5.38979 67.54 5.2868C67.0222 5.18382 66.5466 4.92961 66.1734 4.55634C65.8001 4.18307 65.5459 3.70749 65.4429 3.18975C65.3399 2.67201 65.3928 2.13535 65.5948 1.64764C65.7968 1.15994 66.1389 0.743095 66.5778 0.449818C67.0168 0.15654 67.5328 0 68.0607 0C68.7685 0 69.4474 0.281203 69.9479 0.781745C70.4485 1.28229 70.7297 1.96117 70.7297 2.66904Z" fill="#FFA4BB"/>
<path d="M92.5266 2.66912C92.5266 3.197 92.37 3.71303 92.0767 4.15196C91.7835 4.59088 91.3667 4.93298 90.879 5.13499C90.3913 5.33701 89.8546 5.38986 89.3368 5.28688C88.8191 5.18389 88.3435 4.92969 87.9702 4.55642C87.597 4.18315 87.3427 3.70757 87.2398 3.18983C87.1368 2.67208 87.1897 2.13542 87.3917 1.64772C87.5937 1.16002 87.9358 0.743173 88.3747 0.449895C88.8136 0.156617 89.3296 7.77709e-05 89.8575 7.77709e-05C90.2088 -0.00261395 90.5571 0.0645915 90.8821 0.19777C91.2071 0.330949 91.5024 0.52744 91.7508 0.775822C91.9992 1.0242 92.1957 1.31951 92.3289 1.64455C92.4621 1.96959 92.5293 2.31786 92.5266 2.66912Z" fill="#FFA4BB"/>
<path d="M59.8312 21.5343C59.8352 22.063 59.6821 22.5811 59.3913 23.0226C59.1004 23.4642 58.6849 23.8094 58.1976 24.0146C57.7103 24.2197 57.173 24.2754 56.654 24.1747C56.1349 24.074 55.6574 23.8215 55.2821 23.449C54.9068 23.0765 54.6506 22.601 54.5459 22.0827C54.4413 21.5644 54.493 21.0268 54.6944 20.5379C54.8958 20.049 55.2379 19.6309 55.6772 19.3368C56.1166 19.0426 56.6334 18.8855 57.1622 18.8855C57.8666 18.8855 58.5423 19.1639 59.0423 19.6601C59.5423 20.1563 59.8258 20.83 59.8312 21.5343Z" fill="#FFA4BB"/>
<path d="M70.7297 40.4198C70.7297 40.9477 70.5731 41.4637 70.2799 41.9026C69.9866 42.3415 69.5698 42.6836 69.0821 42.8856C68.5944 43.0877 68.0577 43.1405 67.54 43.0375C67.0222 42.9345 66.5466 42.6803 66.1734 42.3071C65.8001 41.9338 65.5459 41.4582 65.4429 40.9405C65.3399 40.4227 65.3928 39.8861 65.5948 39.3984C65.7968 38.9107 66.1389 38.4938 66.5778 38.2005C67.0168 37.9073 67.5328 37.7507 68.0607 37.7507C68.7685 37.7507 69.4474 38.0319 69.9479 38.5325C70.4485 39.033 70.7297 39.7119 70.7297 40.4198Z" fill="#FFA4BB"/>
<path d="M125.223 21.5343C125.227 22.063 125.074 22.5811 124.783 23.0226C124.492 23.4642 124.077 23.8094 123.589 24.0146C123.102 24.2197 122.565 24.2754 122.046 24.1747C121.526 24.074 121.049 23.8215 120.674 23.449C120.298 23.0765 120.042 22.601 119.938 22.0827C119.833 21.5644 119.885 21.0268 120.086 20.5379C120.287 20.049 120.629 19.6309 121.069 19.3368C121.508 19.0426 122.025 18.8855 122.554 18.8855C123.258 18.8855 123.934 19.1639 124.434 19.6601C124.934 20.1563 125.217 20.83 125.223 21.5343Z" fill="#FFA4BB"/>
<path d="M103.425 59.3053C103.425 59.8332 103.268 60.3492 102.975 60.7881C102.682 61.227 102.265 61.5691 101.777 61.7711C101.29 61.9732 100.753 62.026 100.235 61.923C99.7175 61.82 99.242 61.5659 98.8687 61.1926C98.4954 60.8193 98.2412 60.3437 98.1382 59.826C98.0352 59.3082 98.0881 58.7716 98.2901 58.2839C98.4921 57.7962 98.8342 57.3793 99.2731 57.0861C99.712 56.7928 100.228 56.6362 100.756 56.6362C101.464 56.6362 102.143 56.9174 102.643 57.418C103.144 57.9185 103.425 58.5974 103.425 59.3053Z" fill="#FFA4BB"/>
<path d="M92.5265 78.1705C92.5305 78.6993 92.3774 79.2173 92.0865 79.6589C91.7957 80.1004 91.3803 80.4457 90.8929 80.6508C90.4056 80.8559 89.8683 80.9117 89.3492 80.811C88.8302 80.7103 88.3527 80.4577 87.9774 80.0852C87.6021 79.7128 87.3459 79.2372 87.2413 78.7189C87.1366 78.2007 87.1883 77.663 87.3897 77.1741C87.5911 76.6852 87.9332 76.2672 88.3725 75.973C88.8119 75.6788 89.3287 75.5217 89.8574 75.5217C90.5618 75.5217 91.2377 75.8001 91.7376 76.2963C92.2376 76.7925 92.5212 77.4662 92.5265 78.1705Z" fill="#FFA4BB"/>
<path d="M59.8312 59.3053C59.8312 59.8332 59.6747 60.3492 59.3814 60.7881C59.0882 61.227 58.6713 61.5691 58.1836 61.7711C57.6959 61.9732 57.1592 62.026 56.6415 61.923C56.1237 61.82 55.6482 61.5659 55.2749 61.1926C54.9017 60.8193 54.6474 60.3437 54.5445 59.826C54.4415 59.3082 54.4943 58.7716 54.6963 58.2839C54.8983 57.7962 55.2404 57.3793 55.6794 57.0861C56.1183 56.7928 56.6343 56.6362 57.1622 56.6362C57.8701 56.6362 58.549 56.9174 59.0495 57.418C59.5501 57.9185 59.8312 58.5974 59.8312 59.3053Z" fill="#FFA4BB"/>
<path d="M38.0343 59.2851C38.0383 59.8147 37.8846 60.3335 37.5929 60.7755C37.3012 61.2175 36.8846 61.5628 36.396 61.7673C35.9075 61.9718 35.3692 62.0264 34.8496 61.924C34.3299 61.8217 33.8526 61.5671 33.4781 61.1926C33.1036 60.8181 32.8489 60.3407 32.7466 59.821C32.6443 59.3014 32.6988 58.7631 32.9033 58.2746C33.1078 57.7861 33.4531 57.3694 33.8951 57.0777C34.3371 56.786 34.8559 56.6323 35.3855 56.6363C36.0864 56.6416 36.757 56.9224 37.2527 57.418C37.7483 57.9136 38.029 58.5843 38.0343 59.2851Z" fill="#FFA4BB"/>
<path d="M59.8312 97.0561C59.8312 97.5848 59.6742 98.1017 59.38 98.541C59.0858 98.9803 58.6677 99.3224 58.1789 99.5238C57.69 99.7252 57.1523 99.7769 56.634 99.6723C56.1158 99.5676 55.6402 99.3114 55.2677 98.9361C54.8953 98.5608 54.6427 98.0833 54.542 97.5643C54.4413 97.0452 54.4971 96.5079 54.7022 96.0206C54.9073 95.5332 55.2526 95.1178 55.6941 94.827C56.1357 94.5362 56.6537 94.383 57.1824 94.387C57.532 94.387 57.8781 94.4562 58.2008 94.5906C58.5235 94.725 58.8164 94.9219 59.0626 95.17C59.3089 95.4181 59.5035 95.7125 59.6354 96.0362C59.7674 96.3599 59.8339 96.7065 59.8312 97.0561Z" fill="#FFA4BB"/>
<path d="M38.0334 134.807C38.0334 135.336 37.8763 135.852 37.5821 136.292C37.2879 136.731 36.8699 137.073 36.381 137.275C35.8921 137.476 35.3545 137.528 34.8362 137.423C34.3179 137.318 33.8423 137.062 33.4699 136.687C33.0974 136.312 32.8448 135.834 32.7442 135.315C32.6435 134.796 32.6992 134.259 32.9043 133.771C33.1095 133.284 33.4547 132.869 33.8963 132.578C34.3378 132.287 34.8558 132.134 35.3846 132.138C35.7341 132.138 36.0802 132.207 36.4029 132.341C36.7256 132.476 37.0185 132.673 37.2648 132.921C37.511 133.169 37.7057 133.463 37.8376 133.787C37.9695 134.111 38.0361 134.457 38.0334 134.807Z" fill="#FFA4BB"/>
<path d="M5.33808 115.921C5.33806 116.45 5.181 116.967 4.88682 117.406C4.59264 117.846 4.17458 118.188 3.6857 118.389C3.19682 118.59 2.6591 118.642 2.14082 118.538C1.62253 118.433 1.14703 118.177 0.774572 117.801C0.402117 117.426 0.149532 116.949 0.0488411 116.43C-0.0518496 115.91 0.00391386 115.373 0.209031 114.886C0.414149 114.398 0.759391 113.983 1.20096 113.692C1.64254 113.401 2.16054 113.248 2.68926 113.252C3.39363 113.258 4.0673 113.541 4.56348 114.041C5.05965 114.541 5.3381 115.217 5.33808 115.921Z" fill="#FFA4BB"/>
<path d="M27.135 115.921C27.135 116.449 26.9784 116.965 26.6851 117.404C26.3919 117.843 25.975 118.185 25.4873 118.387C24.9996 118.589 24.463 118.642 23.9452 118.539C23.4275 118.436 22.9519 118.182 22.5786 117.809C22.2054 117.435 21.9511 116.96 21.8482 116.442C21.7452 115.924 21.7981 115.388 22.0001 114.9C22.2021 114.412 22.5441 113.995 22.9831 113.702C23.422 113.409 23.938 113.252 24.4659 113.252C25.1738 113.252 25.8527 113.533 26.3532 114.034C26.8538 114.534 27.135 115.213 27.135 115.921Z" fill="#FFA4BB"/>
</svg>
