<svg width="71" height="77" viewBox="0 0 71 77" fill="none" xmlns="http://www.w3.org/2000/svg">
<path d="M60.5281 72.896C60.6425 72.2986 60.638 71.6844 60.5149 71.0887C60.3919 70.4929 60.1526 69.9273 59.8109 69.424C59.4691 68.9208 59.0315 68.4898 58.5232 68.1558C58.0148 67.8217 57.4456 67.5911 56.848 67.4771C56.2805 67.3659 55.6968 67.3659 55.1293 67.4771L52.0155 60.0159C53.0045 59.3213 53.6858 58.2704 53.9162 57.084C54.049 56.3634 54.0074 55.6216 53.7948 54.9205L61.8828 50.4923C62.5658 51.2762 63.4908 51.8099 64.5114 52.0088C65.513 52.2087 66.5525 52.0748 67.4707 51.6276C68.3889 51.1804 69.1352 50.4446 69.5954 49.5328C70.0556 48.621 70.2043 47.5836 70.0186 46.5793C69.833 45.575 69.3232 44.6592 68.5675 43.9722C67.8118 43.2852 66.8517 42.8647 65.8343 42.7754C64.8169 42.686 63.7982 42.9325 62.9343 43.4773C62.0704 44.022 61.4089 44.8349 61.051 45.7915C60.6931 46.748 60.6585 47.7955 60.9527 48.7736L52.8647 53.2017C52.4562 52.7225 51.9538 52.332 51.3885 52.0544C50.8233 51.7768 50.2072 51.618 49.5782 51.5876C48.9492 51.5573 48.3206 51.6562 47.7313 51.8782C47.142 52.1001 46.6044 52.4405 46.1517 52.8782L30.9058 42.566C31.176 42.0285 31.3732 41.4573 31.4922 40.8676C31.8094 39.2249 31.5221 37.5229 30.6833 36.0754L41.1169 27.9874C41.8968 28.6307 42.8665 28.9998 43.8767 29.0379C44.887 29.0759 45.8818 28.7808 46.7079 28.1981C47.534 27.6153 48.1456 26.7771 48.4486 25.8126C48.7516 24.8481 48.7291 23.8108 48.3847 22.8603C48.0402 21.9098 47.3929 21.0989 46.5423 20.5524C45.6918 20.0059 44.6852 19.7542 43.6776 19.8359C42.6699 19.9176 41.717 20.3283 40.9657 21.0048C40.2143 21.6812 39.7062 22.5859 39.5195 23.5795C39.3469 24.5532 39.4812 25.5565 39.9036 26.4507L29.4904 34.5387C28.5261 33.6009 27.3114 32.9619 25.9923 32.6987L27.347 9.20303C28.1841 9.06961 28.9685 8.709 29.6147 8.16047C30.2609 7.61194 30.7441 6.89655 31.0117 6.09228C31.2793 5.28801 31.3211 4.42571 31.1324 3.59937C30.9436 2.77302 30.5317 2.01432 29.9414 1.40598C29.3512 0.79764 28.6052 0.363007 27.785 0.149418C26.9647 -0.0641712 26.1015 -0.0485048 25.2896 0.194711C24.4776 0.437926 23.748 0.899356 23.1802 1.52871C22.6124 2.15807 22.2283 2.9312 22.0697 3.76385L9.14904 4.04693C8.90014 2.93444 8.24958 1.95288 7.32198 1.29022C6.39437 0.627551 5.25491 0.330364 4.12181 0.455575C2.98872 0.580786 1.9416 1.11959 1.18106 1.9688C0.420522 2.81802 0 3.91793 0 5.05793C0 6.19792 0.420522 7.29787 1.18106 8.14708C1.9416 8.99629 2.98872 9.5351 4.12181 9.66031C5.25491 9.78552 6.39437 9.48833 7.32198 8.82567C8.24958 8.163 8.90014 7.18141 9.14904 6.06893L22.0898 5.76564C22.2826 6.56737 22.6861 7.30307 23.2584 7.8967C23.8307 8.49034 24.5511 8.92038 25.3453 9.14237L24.1321 32.456C22.4561 32.6078 20.8909 33.3586 19.7236 34.5708C18.5563 35.783 17.8651 37.3754 17.7766 39.0559C17.6882 40.7365 18.2085 42.3926 19.2421 43.7206C20.2757 45.0487 21.7534 45.9596 23.4042 46.2865C23.7377 46.3492 24.0759 46.383 24.4152 46.3876L25.7092 59.5508C24.931 59.8009 24.2328 60.2527 23.6857 60.8601C23.1386 61.4675 22.762 62.2089 22.5942 63.0089C22.4265 63.809 22.4735 64.6392 22.7306 65.4152C22.9877 66.1912 23.4456 66.8854 24.0578 67.427C24.6701 67.9687 25.4148 68.3386 26.2163 68.4992C27.0179 68.6599 27.8477 68.6054 28.6213 68.3414C29.395 68.0774 30.085 67.6133 30.6212 66.9963C31.1574 66.3792 31.5207 65.6312 31.6742 64.8282C31.9055 63.6192 31.6481 62.3677 30.9582 61.3481C30.2684 60.3285 29.2025 59.6241 27.9941 59.3891H27.6503L26.3765 46.2258C27.7436 45.8924 28.9774 45.1521 29.915 44.1027L45.2418 54.3543C45.1277 54.6198 45.0462 54.8982 44.9991 55.1833C44.7677 56.387 45.0229 57.6334 45.7089 58.6493C46.395 59.6651 47.4559 60.3674 48.6589 60.6023C49.2264 60.7135 49.8102 60.7135 50.3777 60.6023L53.5117 68.0634C52.5227 68.758 51.8414 69.8089 51.611 70.9953C51.3805 72.2019 51.6386 73.4507 52.3288 74.467C53.0189 75.4832 54.0845 76.1837 55.2911 76.4143C56.4977 76.6449 57.7465 76.3867 58.7627 75.6966C59.779 75.0064 60.4795 73.9409 60.71 72.7343L60.5281 72.896Z" fill="#FFA4BB"/>
</svg>
