<svg width="145" height="88" viewBox="0 0 145 88" fill="none" xmlns="http://www.w3.org/2000/svg">
<path d="M0 25.9675L57.1509 25.4547L100.804 0.155518L144.956 62.3622L100.337 82.6418L101.147 84.3513L91.7278 87.3815L90.7938 85.9053L39.948 87.164L0 25.9675Z" fill="#455A64"/>
<path d="M93.7051 83.8382C103.388 78.2564 113.419 73.2993 123.736 68.9975C130.321 66.4334 138.355 62.2842 138.355 62.2842L138.09 57.8708C138.09 57.8708 105.459 66.5733 93.7051 83.8382Z" fill="#EBEBEB"/>
<path d="M56.1709 23.885C56.1709 23.885 61.5108 15.136 75.0396 10.0078C81.2668 7.67676 91.0592 6.62004 98.3919 0L138.044 57.8709C138.044 57.8709 108.807 67.0862 93.6592 83.8383L56.1709 23.885Z" fill="white"/>
<path d="M93.7048 83.8384L56.1698 23.8851C56.1698 23.8851 23.4766 16.659 12.2519 19.5494L1.54102 24.6465L41.38 85.0039L93.7048 83.8384Z" fill="white"/>
<path d="M12.2527 19.5493L48.8847 79.3472C48.8847 79.3472 79.1181 80.0931 93.6433 83.8383L41.3185 85.0038L1.47949 24.6464L12.2527 19.5493Z" fill="#EBEBEB"/>
<path d="M56.1709 23.885C59.4091 28.806 62.6213 33.7529 65.8076 38.7257L75.2575 53.6597L84.5985 68.7024C87.7121 73.7166 90.7583 78.7619 93.737 83.8383C90.478 78.9277 87.2658 73.986 84.1003 69.0132L74.6348 54.0637L65.2939 39.0365C62.2114 34.0171 59.1756 28.951 56.1709 23.885Z" fill="#EBEBEB"/>
<path d="M63.5811 26.7755C65.8303 24.4708 68.3377 22.432 71.0538 20.6993C73.7544 18.9358 76.6224 17.442 79.6163 16.2394C82.6054 15.0428 85.6567 14.0482 88.7081 13.0226C90.2649 12.5098 91.8218 11.997 93.2696 11.4686C94.7932 10.9634 96.2807 10.3559 97.7221 9.65039C94.8441 11.0958 91.8561 12.3118 88.786 13.2868C85.7658 14.3435 82.7144 15.3847 79.7564 16.6123C76.7649 17.7635 73.8964 19.2107 71.1939 20.9324C68.4791 22.6386 65.9303 24.5948 63.5811 26.7755Z" fill="#263238"/>
<path d="M90.7012 15.1982C93.4565 13.9395 96.3052 13.0537 99.0762 11.8882C97.803 12.705 96.4397 13.3725 95.0132 13.8773C93.6015 14.397 92.1619 14.838 90.7012 15.1982Z" fill="#263238"/>
<path d="M64.9355 29.0288C66.4241 27.4629 68.0496 26.0327 69.7928 24.7553C71.5137 23.4495 73.3241 22.2656 75.2106 21.2122C79.0415 19.2128 83.0624 17.599 87.2136 16.3948C85.2053 17.1718 83.1815 17.9488 81.1888 18.7413C79.1994 19.5529 77.2649 20.4925 75.3974 21.554C73.5024 22.5663 71.6768 23.7033 69.9329 24.9573C68.1916 26.2194 66.5231 27.5787 64.9355 29.0288Z" fill="#263238"/>
<path d="M66.3047 31.2819C68.554 28.9772 71.0613 26.9384 73.7774 25.2058C76.4781 23.4423 79.3461 21.9484 82.3399 20.7458C85.329 19.5647 88.3804 18.5546 91.4317 17.529C92.9886 17.0162 94.5454 16.5189 95.9933 15.975C97.5165 15.4751 99.004 14.8728 100.446 14.1724C97.5674 15.6127 94.5794 16.8234 91.5096 17.7932C88.4894 18.8654 85.438 19.9066 82.48 21.1187C79.4942 22.2826 76.6269 23.7292 73.9175 25.4389C71.2062 27.1501 68.658 29.106 66.3047 31.2819Z" fill="#263238"/>
<path d="M67.6602 33.5509C69.9124 31.2448 72.4193 29.2012 75.1329 27.4592C77.837 25.7017 80.7044 24.2081 83.6954 22.9992C86.7001 21.8182 89.7514 20.8081 92.8028 19.798C94.3596 19.2851 95.9165 18.7723 97.3487 18.244C98.8697 17.732 100.357 17.1247 101.801 16.4258C98.9312 17.8727 95.9478 19.0836 92.8807 20.0466C89.8449 21.1189 86.8091 22.1601 83.8355 23.3877C80.8473 24.5398 77.9794 25.9815 75.273 27.6923C72.5579 29.4039 70.0092 31.3653 67.6602 33.5509Z" fill="#263238"/>
<path d="M81.8418 26.8997C83.5854 26.1072 85.3291 25.3457 87.0883 24.5998C88.8475 23.8539 90.6534 23.2478 92.4437 22.5951L97.8614 20.7614C99.6714 20.1807 101.444 19.4904 103.17 18.6946C101.498 19.615 99.7535 20.3997 97.9549 21.0411C96.1801 21.7249 94.3586 22.3309 92.5683 22.9681C90.7779 23.6052 88.9564 24.1647 87.1972 24.8795C85.438 25.5943 83.6477 26.2159 81.8418 26.8997Z" fill="#263238"/>
<path d="M69.0293 35.8041C70.53 34.1326 72.2111 32.6317 74.0418 31.3286C74.9603 30.6759 75.8787 30.0387 76.8438 29.4793C77.8036 28.9037 78.7964 28.3848 79.8171 27.9253C76.0167 30.2605 72.4093 32.8952 69.0293 35.8041Z" fill="#263238"/>
<path d="M70.3838 38.0574C72.6363 35.7563 75.1432 33.7178 77.8565 31.9813C80.5572 30.2178 83.4252 28.724 86.419 27.5213C89.4237 26.3403 92.4751 25.3302 95.5264 24.3046C97.0833 23.7917 98.6401 23.2789 100.072 22.7506C101.596 22.2453 103.083 21.6379 104.525 20.9324C101.655 22.3843 98.6718 23.6004 95.6043 24.5687C92.5685 25.6254 89.5327 26.6822 86.5592 27.8943C83.5677 29.0454 80.6992 30.4927 77.9967 32.2144C75.2854 33.9256 72.7371 35.8815 70.3838 38.0574Z" fill="#263238"/>
<path d="M73.1084 42.5641C75.3609 40.263 77.8678 38.2245 80.5811 36.488C83.2853 34.7304 86.1527 33.2369 89.1436 32.028C92.1483 30.847 95.1997 29.8369 98.2355 28.8112C99.7923 28.3139 101.349 27.8011 102.797 27.2572C104.32 26.7573 105.808 26.155 107.249 25.4546C104.376 26.8949 101.394 28.1056 98.3289 29.0754C95.2931 30.1476 92.2573 31.1888 89.2838 32.4009C86.298 33.5648 83.4307 35.0114 80.7213 36.7211C78.01 38.4323 75.4617 40.3882 73.1084 42.5641Z" fill="#263238"/>
<path d="M91.168 34.2346C92.7247 33.5043 94.2813 32.9137 95.9781 32.3077C97.6749 31.7016 99.2316 31.1888 100.913 30.7537C99.3562 31.484 97.7216 32.059 96.1026 32.6651C94.4837 33.2712 92.8492 33.7995 91.168 34.2346Z" fill="#263238"/>
<path d="M74.4795 44.833C76.2548 42.8994 78.2448 41.1737 80.411 39.6892C81.5007 38.9588 82.6061 38.244 83.7581 37.6224C84.9031 36.9822 86.0829 36.4064 87.2921 35.8975C85.0192 37.1873 82.7773 38.5082 80.6445 40.0156C79.5547 40.7304 78.5272 41.5696 77.5308 42.331C76.5345 43.0925 75.4447 43.9938 74.4795 44.833Z" fill="#263238"/>
<path d="M75.833 47.1016C78.0855 44.8005 80.5925 42.762 83.3057 41.0255C86.0064 39.262 88.8744 37.7682 91.8682 36.5655C94.8729 35.369 97.9243 34.3744 100.96 33.3487C102.517 32.8359 104.074 32.3231 105.522 31.7947C107.045 31.2895 108.533 30.6821 109.974 29.9766C107.104 31.4285 104.121 32.6446 101.054 33.6129C98.0177 34.6697 94.9819 35.7264 92.0084 36.9385C89.0169 38.0897 86.1484 39.5369 83.4459 41.2586C80.7311 42.9648 78.1823 44.921 75.833 47.1016Z" fill="#263238"/>
<path d="M78.5576 51.5929C80.8101 49.2918 83.3171 47.2533 86.0303 45.5168C88.731 43.7533 91.599 42.2594 94.5928 41.0568C97.5975 39.8758 100.649 38.8657 103.685 37.84C105.242 37.3272 106.798 36.8299 108.246 36.286C109.769 35.7861 111.257 35.1838 112.699 34.4834C109.826 35.9237 106.843 37.1344 103.778 38.1042C100.742 39.1765 97.7065 40.2177 94.733 41.4298C91.7472 42.5936 88.8799 44.0402 86.1705 45.7499C83.4592 47.4611 80.9109 49.417 78.5576 51.5929Z" fill="#263238"/>
<path d="M79.9277 53.8617C82.1762 51.5515 84.6836 49.5075 87.4005 47.77C90.1046 46.0124 92.972 44.5189 95.963 43.31C98.9521 42.1289 102.003 41.1344 105.055 40.1087C106.612 39.5959 108.168 39.0831 109.616 38.5547C111.137 38.0428 112.624 37.4355 114.069 36.7366C111.193 38.1835 108.205 39.3945 105.133 40.3574C102.112 41.4297 99.061 42.4708 96.1031 43.6985C93.1148 44.8506 90.2469 46.2923 87.5406 48.0031C84.8255 49.7147 82.2768 51.6761 79.9277 53.8617Z" fill="#263238"/>
<path d="M105.008 45.7031C106.938 44.8639 108.931 44.1491 110.908 43.4653L113.866 42.4086C114.847 42.0356 115.828 41.6782 116.793 41.2275C114.973 42.2992 113.042 43.1694 111.033 43.8227C109.04 44.5065 107.047 45.1592 105.008 45.7031Z" fill="#263238"/>
<path d="M92.6465 50.909C93.456 50.4117 94.2032 49.93 95.0905 49.4638C95.9778 48.9976 96.7873 48.6402 97.6435 48.2517C99.3814 47.525 101.165 46.9124 102.983 46.418C101.271 47.195 99.5115 47.8632 97.7836 48.6091C96.0557 49.355 94.4055 50.2097 92.6465 50.909Z" fill="#263238"/>
<path d="M82.6523 58.3682C83.6246 57.2212 84.7151 56.1794 85.9058 55.2602C86.4974 54.8096 87.1045 54.3434 87.7272 53.9238C88.3498 53.5042 89.0036 53.1313 89.673 52.7583C87.3068 54.6231 84.9562 56.4257 82.6523 58.3682Z" fill="#263238"/>
<path d="M107.889 47.4437C109.57 46.6977 111.313 46.0917 113.026 45.4545L115.594 44.5066C116.45 44.1803 117.307 43.8695 118.147 43.481C116.574 44.4414 114.898 45.2232 113.15 45.812C111.422 46.418 109.679 46.993 107.889 47.4437Z" fill="#263238"/>
<path d="M84.0059 60.6217C85.4419 59.1229 87.0045 57.7504 88.6763 56.5191C90.3239 55.2681 92.0447 54.1161 93.8294 53.0692C97.4728 51.1265 101.307 49.5642 105.272 48.4072C103.357 49.1687 101.442 49.9612 99.5429 50.7072C97.6486 51.505 95.8078 52.4237 94.0318 53.4577C92.234 54.4566 90.4976 55.5619 88.832 56.7678C87.1552 57.965 85.5441 59.2515 84.0059 60.6217Z" fill="#263238"/>
<path d="M85.377 62.8748C87.6303 60.5745 90.1371 58.5362 92.8497 56.7987C95.5538 55.0412 98.4212 53.5476 101.412 52.3387C104.401 51.1577 107.453 50.1476 110.504 49.1219C112.061 48.6247 113.618 48.1118 115.066 47.5679C116.587 47.056 118.074 46.4487 119.518 45.7498C116.64 47.1901 113.652 48.4008 110.582 49.3706C107.562 50.4428 104.51 51.484 101.552 52.6961C98.5665 53.86 95.6992 55.3066 92.9898 57.0163C90.2779 58.7324 87.7296 60.6935 85.377 62.8748Z" fill="#263238"/>
<path d="M99.5586 56.2083C102.982 54.5267 106.519 53.0882 110.145 51.9037L115.563 50.07C117.37 49.4824 119.143 48.7924 120.871 48.0032C117.468 49.7193 113.927 51.1488 110.285 52.2767L104.883 54.1415C103.093 54.8718 101.302 55.4468 99.5586 56.2083Z" fill="#263238"/>
<path d="M86.7305 65.1437C88.1778 63.5348 89.79 62.0817 91.5406 60.8081C92.4279 60.1865 93.3153 59.5649 94.2493 59.0054C95.1833 58.446 96.1329 57.9487 97.098 57.4514C93.4569 59.7568 89.9916 62.3279 86.7305 65.1437Z" fill="#263238"/>
<path d="M88.1006 67.3971C90.3499 65.0924 92.8572 63.0536 95.5733 61.3209C98.274 59.5574 101.142 58.0636 104.136 56.8609C107.125 55.6644 110.176 54.6698 113.228 53.6442C114.784 53.1314 116.341 52.6185 117.789 52.0902C119.313 51.585 120.8 50.9775 122.242 50.272C119.367 51.7239 116.378 52.9401 113.306 53.9084C110.285 54.9651 107.234 56.0218 104.276 57.2339C101.284 58.3851 98.416 59.8323 95.7134 61.554C92.9986 63.2602 90.4499 65.2164 88.1006 67.3971Z" fill="#263238"/>
<path d="M89.4551 69.6503C90.8068 68.2101 92.2809 66.8895 93.8609 65.7031C95.4296 64.5081 97.0614 63.398 98.7493 62.3776C100.461 61.387 102.253 60.5397 104.105 59.8446C105.942 59.1142 107.779 58.4149 109.631 57.7622C107.826 58.5703 106.035 59.3162 104.214 60.0777C102.384 60.7984 100.623 61.6826 98.9517 62.7195C97.2456 63.6898 95.5978 64.7587 94.0166 65.9207C92.4302 67.0814 90.9075 68.3264 89.4551 69.6503Z" fill="#263238"/>
<path d="M21.8115 24.7864C27.2293 24.7864 32.7093 25.1438 38.0492 25.5945C40.7425 25.8586 43.4358 26.2005 46.1135 26.5735C48.7912 26.9464 51.4689 27.4282 54.1311 27.9721C51.4378 27.5836 48.7601 27.1795 46.0824 26.8377C43.4046 26.4958 40.7113 26.216 38.018 25.9674C35.3247 25.7188 32.6159 25.4546 29.9226 25.2681C27.2293 25.0816 24.5204 24.9107 21.8115 24.7864Z" fill="#263238"/>
<path d="M41.2715 27.9565C42.4547 27.9565 43.6535 28.0964 44.8211 28.2518L48.355 28.7335C50.7058 29.091 53.0255 29.4484 55.3607 29.9457C52.9944 29.7592 50.6903 29.4329 48.2928 29.1065C45.8953 28.7802 43.6223 28.345 41.2715 27.9565Z" fill="#263238"/>
<path d="M23.0566 26.76C25.5631 26.6512 28.0696 26.76 30.5761 26.8843C33.0825 27.0087 35.5735 27.2573 38.0488 27.6458C35.5423 27.6458 33.0514 27.3972 30.5449 27.2728C28.0385 27.1485 25.532 26.9776 23.0566 26.76Z" fill="#263238"/>
<path d="M24.3018 28.7491C28.3806 28.6714 32.4751 28.9511 36.5384 29.1997C40.6017 29.4483 44.6806 29.9767 48.7127 30.7537C44.6339 30.3807 40.5861 29.899 36.5072 29.6504C32.4284 29.4017 28.3806 29.0132 24.3018 28.7491Z" fill="#263238"/>
<path d="M25.5322 30.738C30.95 30.738 36.43 31.0954 41.7543 31.5306C44.4632 31.8103 47.1409 32.1522 49.8342 32.5251C52.5275 32.8981 55.1897 33.3798 57.8363 33.9237C55.1585 33.5197 52.4808 33.1312 49.8031 32.7893C47.1253 32.4474 44.4165 32.1522 41.7232 31.9191C39.0299 31.686 36.3365 31.4063 33.6432 31.2198C30.9499 31.0333 28.2567 30.8624 25.5322 30.738Z" fill="#263238"/>
<path d="M49.9434 34.4834C51.5 34.5611 53.0567 34.7942 54.6134 34.9962C56.1701 35.1982 57.7268 35.509 59.159 35.8975C57.6023 35.8975 56.0456 35.6023 54.4889 35.3847C52.9322 35.1672 51.4378 34.8874 49.9434 34.4834Z" fill="#263238"/>
<path d="M26.793 32.7118C30.1401 32.6341 33.4873 32.7118 36.8345 33.0071C40.1816 33.3023 43.5288 33.5821 46.8292 34.1104C40.1505 33.6287 33.4873 33.1159 26.793 32.7118Z" fill="#263238"/>
<path d="M52.6211 38.4771C54.1778 38.5548 55.6255 38.7723 57.1355 38.9743C58.6455 39.1764 60.1243 39.4716 61.5876 39.8601C60.0752 39.7728 58.5684 39.6068 57.0732 39.3628C55.5788 39.1142 54.0844 38.8656 52.6211 38.4771Z" fill="#263238"/>
<path d="M43.7002 37.5135C44.901 37.5081 46.1013 37.5651 47.2961 37.6845C48.4895 37.8066 49.6746 37.9986 50.8454 38.2595C49.6441 38.2675 48.4434 38.2052 47.2494 38.073C46.0566 37.9549 44.8715 37.7681 43.7002 37.5135Z" fill="#263238"/>
<path d="M29.2686 36.6901C31.012 36.6124 32.7555 36.6901 34.4835 36.6901C36.2114 36.6901 37.9704 36.8921 39.6828 37.1407C37.9393 37.1407 36.2114 37.1407 34.4679 37.1407C32.7244 37.1407 31.012 36.9232 29.2686 36.6901Z" fill="#263238"/>
<path d="M30.5137 38.6636C35.9314 38.6636 41.4114 39.021 46.7513 39.4716C49.4446 39.7514 52.1379 40.0777 54.8156 40.4662C57.4934 40.8547 60.1711 41.3054 62.8332 41.8493C60.1399 41.4608 57.4622 41.0567 54.7845 40.7148C52.1068 40.373 49.4134 40.0932 46.7201 39.8601C44.0268 39.627 41.318 39.3318 38.6247 39.1453C35.9314 38.9588 33.2225 38.8034 30.5137 38.6636Z" fill="#263238"/>
<path d="M31.7588 40.6526C37.1765 40.6526 42.6565 41.01 47.9964 41.4607C50.6897 41.7248 53.383 42.0667 56.0607 42.4397C58.7385 42.8126 61.4162 43.2944 64.0628 43.8383C61.3851 43.4342 58.7073 43.0457 56.0296 42.7039C53.3519 42.362 50.6586 42.0667 47.9497 41.8336C45.2408 41.6005 42.5631 41.3208 39.8698 41.1343C37.1765 40.9478 34.4677 40.7769 31.7588 40.6526Z" fill="#263238"/>
<path d="M33.0049 42.6262C36.7257 42.5485 40.4465 42.7506 44.1517 42.9992C47.857 43.2479 51.5622 43.6674 55.2207 44.289C51.5155 43.9938 47.8258 43.6364 44.1206 43.3877C40.4154 43.1391 36.7101 42.8749 33.0049 42.6262Z" fill="#263238"/>
<path d="M37.7373 47.195L51.7487 70.505C61.4812 70.8801 71.1822 71.8402 80.799 73.3799L65.9158 50.2097C65.9158 50.2097 45.0232 46.7132 37.7373 47.195Z" fill="#EBEBEB"/>
</svg>
