<svg width="226" height="144" viewBox="0 0 226 144" fill="none" xmlns="http://www.w3.org/2000/svg">
<path d="M211.755 132.622L210.871 132.356L212.592 133.2L212.902 133.184L213.212 133.168L214.451 133.104C215.7 133.013 216.902 132.586 217.928 131.869C220.165 130.246 221.985 128.116 223.241 125.655C224.496 123.193 225.15 120.469 225.15 117.705C225.183 117.043 225.149 116.378 225.048 115.723C225.048 115.723 225.048 115.723 225.029 115.351L225.01 114.979C224.858 114.558 224.627 114.169 224.329 113.834C224.006 113.408 223.583 113.067 223.098 112.841L221.12 111.825L222.022 112.462C220.409 112.261 218.78 112.702 217.488 113.689C215.263 115.323 213.45 117.454 212.196 119.914C210.942 122.373 210.281 125.092 210.266 127.853C210.17 128.707 210.253 129.573 210.509 130.394C210.766 131.215 211.19 131.973 211.755 132.622Z" fill="#FFA4BB"/>
<path d="M21.5022 35.5108L31.6522 15.4815L33.6304 16.4978L220.888 112.147L221.791 112.784C222.917 113.963 223.533 115.538 223.507 117.168C223.496 119.937 222.83 122.663 221.564 125.125C220.299 127.587 218.468 129.715 216.223 131.335C215.201 132.069 214.002 132.516 212.749 132.632L211.758 132.683L210.875 132.418L21.5022 35.5108Z" fill="#F0F0F0"/>
<path d="M27.0488 34.6654C22.8426 37.4292 19.1437 35.5698 18.882 30.4892C18.8965 27.7285 19.5573 25.0095 20.8114 22.5501C22.0655 20.0906 23.878 17.959 26.1039 16.3259C30.3721 13.559 34.009 15.4216 34.2708 20.5022C34.2711 23.2655 33.6168 25.9897 32.3615 28.4515C31.1063 30.9133 29.2856 33.0428 27.0488 34.6654Z" fill="#FFA4BB"/>
<path d="M9.40278 23.7713L20.1386 34.4003C21.0657 35.0278 22.172 35.336 23.29 35.2784C24.4079 35.2208 25.4767 34.8005 26.3344 34.081C28.5712 32.4584 30.3916 30.3289 31.6469 27.867C32.9022 25.4052 33.5566 22.6812 33.5563 19.9178C33.6502 18.7951 33.3776 17.6723 32.7797 16.7175C32.1817 15.7628 31.2903 15.0275 30.2393 14.6219L29.6817 14.6506L14.8317 12.1853C13.939 12.1049 13.0471 12.3495 12.3202 12.8739C11.0338 13.7996 9.98478 15.0164 9.25841 16.425C8.53205 17.8335 8.14904 19.3939 8.14074 20.9787C8.14851 21.5058 8.26452 22.0257 8.48163 22.5061C8.69874 22.9865 9.01227 23.4172 9.40278 23.7713Z" fill="#E0E0E0"/>
<path d="M161.819 99.1009C162.111 99.2436 162.435 99.3097 162.761 99.2929C163.086 99.2762 163.401 99.1771 163.678 99.0052C164.48 98.4319 165.135 97.6755 165.586 96.7987C166.038 95.9219 166.274 94.9499 166.276 93.9636C166.282 93.6408 166.215 93.3207 166.082 93.0267C165.949 92.7327 165.751 92.4721 165.505 92.2639L165.133 92.2831L21.9492 18.9011L14.2548 23.8946L161.819 99.1009Z" fill="#455A64"/>
<path d="M33.806 24.7511L22.2724 19.1331L14.578 24.1265L30.2109 32.1425C31.904 29.9517 33.1279 27.4356 33.806 24.7511Z" fill="#37474F"/>
<path d="M5.10184 18.6507L14.8539 28.2743C14.8329 28.3772 14.8383 28.4837 14.8698 28.584C15.5363 29.0691 16.3494 29.3107 17.1727 29.2683C17.996 29.2259 18.7797 28.902 19.3928 28.351C20.9586 27.2047 22.2336 25.7071 23.1156 23.9786C23.9976 22.25 24.4618 20.3388 24.471 18.3982C24.3625 16.2917 23.4868 14.9701 22.1634 14.6034L21.9775 14.613L8.37929 12.3317C7.85928 12.2896 7.34051 12.4259 6.90832 12.7182C6.1945 13.2529 5.61436 13.9458 5.21348 14.7425C4.8126 15.5393 4.60186 16.4181 4.59786 17.31C4.59315 17.8041 4.77288 18.2821 5.10184 18.6507Z" fill="#FFA4BB"/>
<path opacity="0.1" d="M5.10184 18.6507L14.8539 28.2743C14.8329 28.3772 14.8383 28.4837 14.8698 28.584C15.5363 29.0691 16.3494 29.3107 17.1727 29.2683C17.996 29.2259 18.7797 28.902 19.3928 28.351C20.9586 27.2047 22.2336 25.7071 23.1156 23.9786C23.9976 22.25 24.4618 20.3388 24.471 18.3982C24.3625 16.2917 23.4868 14.9701 22.1634 14.6034L21.9775 14.613L8.37929 12.3317C7.85928 12.2896 7.34051 12.4259 6.90832 12.7182C6.1945 13.2529 5.61436 13.9458 5.21348 14.7425C4.8126 15.5393 4.60186 16.4181 4.59786 17.31C4.59315 17.8041 4.77288 18.2821 5.10184 18.6507Z" fill="black"/>
<path d="M4.5325 17.2524C4.5365 16.3605 4.74705 15.4816 5.14793 14.6849C5.54882 13.8882 6.12895 13.1953 6.84277 12.6605C7.27496 12.3683 7.79393 12.232 8.31393 12.2741L15.206 13.4099C16.2592 13.3556 17.0046 14.5597 17.0876 16.1706C17.0919 17.5937 16.763 18.998 16.1275 20.2713C15.4919 21.5445 14.5672 22.6513 13.4273 23.5032C12.9775 23.8942 12.4098 24.1233 11.8147 24.1539C11.2195 24.1846 10.6311 24.015 10.1435 23.6724L5.30014 18.8901C5.0516 18.6974 4.85247 18.4485 4.71899 18.1638C4.58552 17.879 4.52161 17.5666 4.5325 17.2524Z" fill="#FFA4BB"/>
<path opacity="0.1" d="M7.14837 18.6074C5.82679 19.4831 4.60826 18.7383 4.53165 17.2514C4.53565 16.3595 4.7462 15.4806 5.14708 14.6839C5.54796 13.8872 6.1281 13.1942 6.84192 12.6595C8.22546 11.7806 9.44424 12.5254 9.52085 14.0124C9.50539 14.9091 9.28333 15.7903 8.87186 16.5872C8.4604 17.3842 7.87053 18.0755 7.14837 18.6074Z" fill="black"/>
<path d="M192.767 114.964C193.077 115.122 193.424 115.196 193.772 115.178C194.12 115.161 194.457 115.051 194.749 114.862C195.544 114.295 196.194 113.549 196.646 112.683C197.098 111.818 197.339 110.858 197.35 109.882C197.378 109.52 197.302 109.157 197.131 108.836C196.961 108.515 196.703 108.249 196.387 108.068L165.825 92.4348C166.072 92.643 166.269 92.9036 166.402 93.1976C166.536 93.4916 166.602 93.8117 166.596 94.1345C166.595 95.1209 166.359 96.0928 165.907 96.9696C165.455 97.8464 164.801 98.6028 163.998 99.1761C163.722 99.348 163.406 99.4471 163.081 99.4638C162.756 99.4806 162.432 99.4145 162.139 99.2719L192.767 114.964Z" fill="#FAFAFA"/>
<path d="M191.867 113.146C191.861 112.165 192.088 111.197 192.529 110.322C192.97 109.446 193.612 108.687 194.403 108.107C194.699 107.929 195.035 107.826 195.381 107.808C195.727 107.791 196.072 107.858 196.385 108.005C196.687 108.2 196.934 108.47 197.102 108.787C197.271 109.105 197.356 109.46 197.348 109.819C197.36 110.794 197.143 111.758 196.713 112.632C196.283 113.507 195.653 114.268 194.874 114.854C194.582 115.044 194.245 115.153 193.897 115.171C193.549 115.189 193.202 115.115 192.892 114.956C192.565 114.785 192.295 114.523 192.113 114.202C191.931 113.881 191.846 113.514 191.867 113.146Z" fill="#F5F5F5"/>
<path d="M198.743 124.843L210.8 130.993C211.617 131.26 212.486 131.325 213.333 131.184C214.18 131.043 214.98 130.7 215.666 130.183C217.664 128.706 219.29 126.784 220.415 124.569C221.541 122.355 222.136 119.909 222.153 117.425C222.204 116.527 222.013 115.633 221.6 114.835C221.187 114.037 220.568 113.364 219.807 112.886L207.557 106.622C206.735 106.322 205.85 106.239 204.986 106.382C204.123 106.524 203.311 106.887 202.629 107.435C200.628 108.909 199 110.83 197.873 113.045C196.747 115.261 196.154 117.708 196.142 120.193C196.117 121.131 196.346 122.057 196.803 122.876C197.261 123.694 197.931 124.373 198.743 124.843Z" fill="#FFA4BB"/>
<path opacity="0.05" d="M198.743 124.843L210.8 130.993C211.617 131.26 212.486 131.325 213.333 131.184C214.18 131.043 214.98 130.7 215.666 130.183C217.664 128.706 219.29 126.784 220.415 124.569C221.541 122.355 222.136 119.909 222.153 117.425C222.204 116.527 222.013 115.633 221.6 114.835C221.187 114.037 220.568 113.364 219.807 112.886L207.557 106.622C206.735 106.322 205.85 106.239 204.986 106.382C204.123 106.524 203.311 106.887 202.629 107.435C200.628 108.909 199 110.83 197.873 113.045C196.747 115.261 196.154 117.708 196.142 120.193C196.117 121.131 196.346 122.057 196.803 122.876C197.261 123.694 197.931 124.373 198.743 124.843Z" fill="black"/>
<path opacity="0.1" d="M203.926 124.203C200.138 126.635 196.823 125.004 196.587 120.419C196.599 117.934 197.192 115.486 198.318 113.271C199.445 111.056 201.073 109.134 203.074 107.66C206.921 105.163 210.239 106.856 210.475 111.441C210.461 113.933 209.861 116.386 208.723 118.603C207.586 120.82 205.942 122.739 203.926 124.203Z" fill="black"/>
<path d="M1.16764 14.629L6.1504 17.292C6.2877 17.3908 6.45464 17.44 6.62356 17.4313C6.79249 17.4226 6.9533 17.3565 7.07973 17.2442C7.45996 16.9919 7.77262 16.6502 7.99022 16.2491C8.20781 15.848 8.32371 15.3997 8.32789 14.9434C8.33368 14.7722 8.29209 14.6027 8.20767 14.4536C8.12326 14.3045 7.99945 14.1815 7.84964 14.0984L2.86689 11.4353C2.57788 11.388 2.282 11.4033 1.99938 11.48C1.58365 11.4866 1.18207 11.6324 0.85875 11.8938C0.535431 12.1552 0.308914 12.5173 0.21541 12.9224C0.121907 13.3276 0.166939 13.7524 0.342986 14.1291C0.519034 14.5058 0.816017 14.8127 1.1868 15.0008L1.16764 14.629Z" fill="#455A64"/>
<path d="M0.843513 14.397C1.10689 14.4905 1.39661 14.4755 1.649 14.3555C2.02194 14.0958 2.32893 13.7525 2.54564 13.3531C2.76235 12.9536 2.8828 12.5091 2.89716 12.0548C2.8985 11.8908 2.86146 11.7287 2.78916 11.5814C2.71687 11.4342 2.61134 11.3058 2.48074 11.2066C2.27534 11.1585 2.06049 11.1695 1.86112 11.2385C1.61703 11.2511 1.37779 11.3116 1.15709 11.4167C0.936389 11.5217 0.738573 11.6691 0.574866 11.8506C0.411158 12.0321 0.284798 12.2441 0.203006 12.4744C0.121215 12.7047 0.0854571 12.9489 0.0980334 13.193C0.130751 13.4348 0.214011 13.6669 0.342439 13.8744C0.470867 14.0818 0.641679 14.2599 0.843513 14.397Z" fill="#263238"/>
</svg>
