<svg width="389" height="70" viewBox="0 0 389 70" fill="none" xmlns="http://www.w3.org/2000/svg">
<path d="M347.048 58.6547C347.048 58.6547 389.518 60.4686 388.464 31.5353C387.41 2.60205 345.176 7.49985 345.176 7.49985L347.048 58.6547Z" fill="#DD6A57"/>
<path d="M48.0809 18.2556L49.9512 69.4126L348.697 58.5301L346.827 7.37302L48.0809 18.2556Z" fill="#FFA4BB"/>
<path d="M335.106 0.474777L337.501 60.2461L349.386 59.7716L346.991 0.000236672L335.106 0.474777Z" fill="#455A64"/>
<path d="M323.284 3.95353L325.468 63.6851L337.345 63.2524L335.161 3.52087L323.284 3.95353Z" fill="#455A64"/>
<path d="M48.1219 18.2749L11.9396 38.8638L0 45.6119L12.4121 51.5799L49.9937 69.4841L57.2629 64.0421C57.2629 64.0421 49.7575 59.362 49.6303 59.2532L56.8994 53.8112C56.8994 53.8112 49.394 49.131 49.285 49.0222L56.5541 43.6891C56.5541 43.6891 49.0305 38.8819 48.9215 38.7731L56.1907 33.4399C56.1907 33.4399 48.6853 28.651 48.5762 28.5421L55.8454 23.1908C55.8454 23.1908 48.2309 18.3837 48.1219 18.2749Z" fill="white"/>
<path d="M11.9396 38.8638L0 45.6119L12.4121 51.5799L11.9396 38.8638Z" fill="#37474F"/>
<path opacity="0.1" d="M66.9854 31.7166C87.5389 30.5919 108.111 29.6668 128.664 28.778L190.452 26.3109L252.24 24.2792L283.134 23.4085L314.028 22.7373L283.134 24.2974L252.24 25.676L190.543 28.1249L128.755 30.1566C108.147 30.7733 87.5753 31.3357 66.9854 31.7166Z" fill="black"/>
<path opacity="0.1" d="M68.2031 54.7C88.7749 53.5753 109.328 52.6502 129.991 51.7613L191.779 49.2943L253.567 47.2626L284.461 46.3919L315.355 45.7207L284.461 47.2807L253.567 48.6594L191.779 51.1083L129.991 53.14C109.365 53.7567 88.793 54.319 68.2031 54.7Z" fill="black"/>
</svg>
