<svg width="309" height="71" viewBox="0 0 309 71" fill="none" xmlns="http://www.w3.org/2000/svg">
<path d="M276.47 51.2621C276.47 51.2621 310.315 51.5883 308.23 24.8767C306.144 -1.83494 272.777 4.15982 272.777 4.15982L276.47 51.2621Z" fill="#DD6A57"/>
<path d="M37.1045 23.8565L40.7977 70.9587L277.818 51.1391L274.125 4.03687L37.1045 23.8565Z" fill="#455A64"/>
<path d="M265.652 0.774851L269.953 55.7477L279.379 54.973L275.079 0L265.652 0.774851Z" fill="#263238"/>
<path d="M255.223 1.63105L259.567 56.6447L268.949 55.8292L264.649 0.856201L255.223 1.63105Z" fill="#263238"/>
<path d="M37.1065 23.8572L9.21147 44.003L0 50.6096L10.1674 55.7072L40.7997 71.0001L46.3179 65.7393C46.3179 65.7393 40.1479 61.6612 40.061 61.6612L45.5792 56.4004C45.5792 56.4004 39.4093 52.3223 39.3224 52.3223L44.8406 47.184L38.5837 42.9019L44.1019 37.7635L37.8451 33.4815L43.3633 28.3023L37.1065 23.8572Z" fill="white"/>
<path d="M9.20909 44.0024L0 50.609L10.1213 55.7066L9.20909 44.0024Z" fill="#37474F"/>
<path d="M52.6582 35.6018C68.9086 33.1957 85.1589 31.5236 101.453 29.5661C117.747 27.6087 134.04 26.4667 150.378 24.917C166.715 23.3674 183.009 22.3479 199.389 21.3691C215.77 20.3904 232.107 19.534 248.531 19.2485C232.324 21.6546 216.031 23.3266 199.737 25.2841C183.443 27.2415 167.149 28.3835 150.855 29.9332C134.562 31.4828 118.181 32.5023 101.8 33.4403C85.4196 34.3782 69.0824 35.2755 52.6582 35.6018Z" fill="#263238"/>
<path d="M54.6592 56.7672C70.8661 54.3612 87.1164 52.4853 103.41 50.7317C119.704 48.9781 136.041 47.6324 152.335 46.0419C168.629 44.4515 185.01 43.4726 201.347 42.5347C217.684 41.5967 234.065 40.6995 250.489 40.3733C234.282 42.7794 217.988 44.6554 201.738 46.4089C185.488 48.1625 169.107 49.5083 152.813 51.0987C136.519 52.6892 120.139 53.6271 103.801 54.6059C87.464 55.5846 71.0399 56.441 54.6592 56.7672Z" fill="#263238"/>
</svg>
