<svg width="87" height="82" viewBox="0 0 87 82" fill="none" xmlns="http://www.w3.org/2000/svg">
<path d="M37.1799 0.0335416L39.1299 39.0303L15.2591 69.939C8.92147 65.0701 4.23117 58.3792 1.8201 50.7678C-0.590976 43.1563 -0.606953 34.9901 1.77429 27.3693C4.15553 19.7485 8.81957 13.0394 15.1381 8.14576C21.4565 3.25214 29.1258 0.409217 37.1127 0L37.1799 0.0335416Z" fill="#455A64"/>
<path d="M86.368 40.6577C86.742 48.1085 84.9698 55.5102 81.2613 61.9871C77.5527 68.464 72.063 73.7448 65.4418 77.2048C58.8206 80.6647 51.345 82.159 43.8996 81.5107C36.4543 80.8624 29.3507 78.0986 23.4297 73.5465L47.2837 42.6042L45.3337 3.6075C50.466 3.34762 55.5992 4.1001 60.4399 5.82194C65.2806 7.54377 69.7337 10.2012 73.5448 13.6422C77.3558 17.0832 80.45 21.2404 82.6503 25.8759C84.8506 30.5115 86.1139 35.5345 86.368 40.6577Z" fill="#FFA4BB"/>
</svg>
