<svg width="86" height="63" viewBox="0 0 86 63" fill="none" xmlns="http://www.w3.org/2000/svg">
<path d="M5.94365 44.566C3.32839 40.6406 1.93124 36.03 1.92765 31.3132C1.92765 14.5263 20.3611 0.912109 43.0916 0.912109C65.8222 0.912109 84.2556 14.5263 84.2556 31.3132C84.2556 48.1001 65.8222 61.7143 43.0916 61.7143C32.9894 61.8808 23.0792 58.9442 14.6985 53.3008L0.501953 56.9152L5.94365 44.566Z" fill="#FFFEFD"/>
<path d="M5.94369 44.5661C3.31118 40.879 1.8039 36.5079 1.60432 31.9818C1.40475 27.4558 2.52142 22.969 4.81919 19.0645C7.10914 15.1199 10.2011 11.6996 13.8954 9.0245C17.5614 6.34761 21.6276 4.26706 25.9434 2.85992C30.2266 1.41763 34.6708 0.507219 39.1761 0.149142C43.6901 -0.179832 48.2274 0.0358917 52.6899 0.791686C61.7303 2.16348 70.1368 6.26163 76.7859 12.5385C80.1022 15.7666 82.5891 19.7484 84.0348 24.1447C85.4394 28.6023 85.4813 33.3778 84.1553 37.8594C82.7927 42.2812 80.3656 46.301 77.0871 49.566C73.8605 52.8025 70.1052 55.4645 65.9829 57.4374C57.7378 61.2746 48.6467 62.9338 39.5777 62.2566C30.5129 61.7962 21.7539 58.8279 14.2769 53.6824H14.6383L0.481931 57.2165L0 57.337L0.200812 56.8751L5.94369 44.5661ZM5.94369 44.5661L0.642575 57.0157L0.361456 56.6743L14.4175 52.8591H14.6182L14.799 52.9997C22.1789 57.9021 30.7649 60.6807 39.6178 61.0317C44.0032 61.2573 48.3997 60.9471 52.71 60.108C57.0215 59.361 61.206 58.009 65.1395 56.092C69.0671 54.1997 72.6399 51.6457 75.7016 48.5419C78.7423 45.4816 80.9895 41.7249 82.2477 37.5983C83.4332 33.4692 83.3703 29.0816 82.067 24.9881C80.7389 20.8914 78.4376 17.1777 75.3602 14.165C69.0026 8.10945 60.9448 4.14358 52.2682 2.79969C43.5614 1.23663 34.6057 1.80154 26.1642 4.44626C17.6528 6.89917 10.2925 12.3019 5.40153 19.687C3.08242 23.4448 1.87132 27.7811 1.90759 32.1968C2.10745 36.6094 3.50252 40.8848 5.94369 44.5661Z" fill="#263238"/>
<path d="M57.8105 31.3132C57.8105 32.1591 58.0614 32.986 58.5314 33.6894C59.0013 34.3927 59.6693 34.9409 60.4509 35.2646C61.2324 35.5883 62.0923 35.6731 62.922 35.508C63.7517 35.343 64.5138 34.9357 65.1119 34.3375C65.7101 33.7393 66.1174 32.9773 66.2825 32.1476C66.4475 31.3179 66.3628 30.4579 66.0391 29.6764C65.7154 28.8949 65.1671 28.2269 64.4638 27.7569C63.7604 27.287 62.9335 27.0361 62.0876 27.0361C60.9549 27.0414 59.8701 27.4937 59.0691 28.2947C58.2681 29.0956 57.8158 30.1805 57.8105 31.3132Z" fill="#263238"/>
<path d="M38.7344 31.3132C38.7344 32.1591 38.9852 32.986 39.4552 33.6894C39.9252 34.3927 40.5932 34.9409 41.3747 35.2646C42.1562 35.5883 43.0162 35.6731 43.8458 35.508C44.6755 35.343 45.4376 34.9357 46.0357 34.3375C46.6339 33.7393 47.0413 32.9773 47.2063 32.1476C47.3713 31.3179 47.2866 30.4579 46.9629 29.6764C46.6392 28.8949 46.091 28.2269 45.3876 27.7569C44.6843 27.287 43.8573 27.0361 43.0114 27.0361C41.8771 27.0361 40.7892 27.4867 39.9871 28.2888C39.185 29.0909 38.7344 30.1788 38.7344 31.3132Z" fill="#263238"/>
<path d="M19.6582 31.3132C19.6582 32.1591 19.9091 32.986 20.379 33.6894C20.849 34.3927 21.517 34.9409 22.2985 35.2646C23.08 35.5883 23.94 35.6731 24.7697 35.508C25.5993 35.343 26.3614 34.9357 26.9596 34.3375C27.5577 33.7393 27.9651 32.9773 28.1301 32.1476C28.2952 31.3179 28.2104 30.4579 27.8867 29.6764C27.563 28.8949 27.0148 28.2269 26.3115 27.7569C25.6081 27.287 24.7812 27.0361 23.9353 27.0361C22.8009 27.0361 21.713 27.4867 20.9109 28.2888C20.1088 29.0909 19.6582 30.1788 19.6582 31.3132Z" fill="#263238"/>
</svg>
